<svg width="3180" height="1174" xmlns="http://www.w3.org/2000/svg" xmlns:xlink="http://www.w3.org/1999/xlink" xml:space="preserve" overflow="hidden"><defs><clipPath id="clip0"><rect x="177" y="295" width="3180" height="1174"/></clipPath></defs><g clip-path="url(#clip0)" transform="translate(-177 -295)"><rect x="1639" y="597" width="406" height="406" stroke="#000000" stroke-width="13.75" stroke-miterlimit="8" fill="#FFFFFF"/><rect x="2758.5" y="297.5" width="470" height="471" stroke="#000000" stroke-width="4.58333" stroke-miterlimit="8" fill="#FFFFFF"/><rect x="2758.5" y="297.5" width="130" height="130" stroke="#000000" stroke-width="4.58333" stroke-miterlimit="8" fill="#FFFFFF"/><rect x="2799.5" y="451.5" width="470" height="471" stroke="#000000" stroke-width="4.58333" stroke-miterlimit="8" fill="#FFFFFF"/><rect x="2799.5" y="451.5" width="130" height="130" stroke="#000000" stroke-width="4.58333" stroke-miterlimit="8" fill="#FFFFFF"/><rect x="179.5" y="555.5" width="682" height="683" stroke="#000000" stroke-width="4.58333" stroke-miterlimit="8" fill="none"/><rect x="724.5" y="732.5" width="137" height="137" stroke="#000000" stroke-width="4.58333" stroke-miterlimit="8" fill="none"/><rect x="724.5" y="869.5" width="137" height="138" stroke="#000000" stroke-width="4.58333" stroke-miterlimit="8" fill="none"/><rect x="586.5" y="732.5" width="138" height="137" stroke="#000000" stroke-width="4.58333" stroke-miterlimit="8" fill="none"/><rect x="586.5" y="869.5" width="138" height="138" stroke="#000000" stroke-width="4.58333" stroke-miterlimit="8" fill="none"/><rect x="1232.5" y="663.5" width="138" height="137" stroke="#000000" stroke-width="4.58333" stroke-miterlimit="8" fill="none"/><rect x="1232.5" y="800.5" width="138" height="138" stroke="#000000" stroke-width="4.58333" stroke-miterlimit="8" fill="none"/><rect x="1232.5" y="937.5" width="138" height="137" stroke="#000000" stroke-width="4.58333" stroke-miterlimit="8" fill="none"/><rect x="1232.5" y="1074.5" width="138" height="138" stroke="#000000" stroke-width="4.58333" stroke-miterlimit="8" fill="none"/><text font-family="Calibri Light,Calibri Light_MSFontService,sans-serif" font-weight="300" font-size="46" transform="matrix(1 0 0 1 671.745 443)">Pixels</text><path d="M725.146 472 725.146 708.529 722.854 708.529 722.854 472ZM737.75 703.945 724 731.445 710.25 703.946Z"/><path d="M792 907.854 1209.08 907.854 1209.08 910.146 792 910.146ZM1204.5 895.25 1232 909 1204.5 922.75Z"/><text font-family="Times New Roman,Times New Roman_MSFontService,sans-serif" font-weight="400" font-size="46" transform="translate(943.938 818)">Flatten &amp; </text><text font-family="Times New Roman,Times New Roman_MSFontService,sans-serif" font-weight="400" font-size="46" transform="translate(943.938 873)">Normalize</text><rect x="1686" y="734" width="406" height="406" stroke="#000000" stroke-width="13.75" stroke-miterlimit="8" fill="#FFFFFF"/><path d="M1365 908.854 1658.33 908.854 1658.33 911.146 1365 911.146ZM1653.75 896.25 1681.25 910 1653.75 923.75Z"/><text font-family="Times New Roman,Times New Roman_MSFontService,sans-serif" font-weight="400" font-size="46" transform="translate(1411.61 818)">Amplitude</text><text font-family="Times New Roman,Times New Roman_MSFontService,sans-serif" font-weight="400" font-size="46" transform="translate(1411.61 873)">Encoding</text><rect x="2423.5" y="663.5" width="138" height="137" stroke="#000000" stroke-width="4.58333" stroke-miterlimit="8" fill="none"/><rect x="2423.5" y="800.5" width="138" height="138" stroke="#000000" stroke-width="4.58333" stroke-miterlimit="8" fill="none"/><rect x="2423.5" y="937.5" width="138" height="137" stroke="#000000" stroke-width="4.58333" stroke-miterlimit="8" fill="none"/><rect x="2423.5" y="1074.5" width="138" height="138" stroke="#000000" stroke-width="4.58333" stroke-miterlimit="8" fill="none"/><path d="M2097 919.854 2390.33 919.854 2390.33 922.146 2097 922.146ZM2385.75 907.25 2413.25 921 2385.75 934.75Z"/><text font-family="Times New Roman,Times New Roman_MSFontService,sans-serif" font-weight="400" font-size="46" transform="translate(2165.63 818)">Measure</text><path d="M2448.04 771.477C2447.01 752.164 2465.86 735.847 2490.14 735.031 2514.42 734.215 2534.94 749.21 2535.96 768.523 2536 769.211 2536.01 769.899 2535.99 770.586" stroke="#000000" stroke-width="2.29167" stroke-miterlimit="8" fill="none" fill-rule="evenodd"/><path d="M0.953418-0.635553 32.5 46.6887 30.5932 47.9598-0.953418 0.635553ZM40.4454 35.884 44.2577 66.3927 17.5634 51.1373Z" transform="matrix(1 0 0 -1 2492 770.393)"/><path d="M2448.04 910.477C2447.01 891.164 2465.86 874.847 2490.14 874.031 2514.42 873.216 2534.94 888.211 2535.96 907.523 2536 908.211 2536.01 908.899 2535.99 909.587" stroke="#000000" stroke-width="2.29167" stroke-miterlimit="8" fill="none" fill-rule="evenodd"/><path d="M0.953418-0.635553 32.5 46.6887 30.5932 47.9598-0.953418 0.635553ZM40.4454 35.884 44.2577 66.3927 17.5634 51.1373Z" transform="matrix(1 0 0 -1 2492 909.393)"/><path d="M2448.04 1047.48C2447.01 1028.16 2465.86 1011.85 2490.14 1011.03 2514.42 1010.22 2534.94 1025.21 2535.96 1044.52 2536 1045.21 2536.01 1045.9 2535.99 1046.59" stroke="#000000" stroke-width="2.29167" stroke-miterlimit="8" fill="none" fill-rule="evenodd"/><path d="M0.953418-0.635553 32.5 46.6887 30.5932 47.9598-0.953418 0.635553ZM40.4454 35.884 44.2577 66.3927 17.5634 51.1373Z" transform="matrix(1 0 0 -1 2492 1045.39)"/><path d="M2448.04 1178.98C2447.03 1159.39 2465.89 1142.85 2490.17 1142.03 2514.45 1141.21 2534.95 1156.43 2535.96 1176.02 2536 1176.71 2536.01 1177.4 2535.99 1178.09" stroke="#000000" stroke-width="2.29167" stroke-miterlimit="8" fill="none" fill-rule="evenodd"/><path d="M0.953418-0.635553 32.5 46.6887 30.5932 47.9598-0.953418 0.635553ZM40.4454 35.884 44.2577 66.3927 17.5634 51.1373Z" transform="matrix(1 0 0 -1 2492 1177.39)"/><rect x="2843.5" y="605.5" width="470" height="471" stroke="#000000" stroke-width="4.58333" stroke-miterlimit="8" fill="#FFFFFF"/><rect x="2843.5" y="605.5" width="130" height="130" stroke="#000000" stroke-width="4.58333" stroke-miterlimit="8" fill="#FFFFFF"/><rect x="2883.5" y="768.5" width="471" height="470" stroke="#000000" stroke-width="4.58333" stroke-miterlimit="8" fill="#FFFFFF"/><rect x="2883.5" y="768.5" width="131" height="130" stroke="#000000" stroke-width="4.58333" stroke-miterlimit="8" fill="#FFFFFF"/><path d="M0-1.14583 99.587-1.14583 99.587 369.172 98.4412 368.026 173.965 368.026 173.965 370.318 97.2953 370.318 97.2953 0 98.4412 1.14583 0 1.14583ZM169.382 355.422 196.882 369.172 169.382 382.922Z" transform="matrix(1 0 0 -1 2561 731.172)"/><path d="M0-1.14583 120.04-1.14583 120.04 352.745 118.895 351.599 214.872 351.599 214.872 353.891 117.749 353.891 117.749 0 118.895 1.14583 0 1.14583ZM210.289 338.995 237.789 352.745 210.289 366.495Z" transform="matrix(1 0 0 -1 2561 868.745)"/><path d="M0-1.14583 141.969-1.14583 141.969 335.459 140.823 334.313 258.728 334.313 258.728 336.605 139.677 336.605 139.677 0 140.823 1.14583 0 1.14583ZM254.145 321.709 281.645 335.459 254.145 349.209Z" transform="matrix(1 0 0 -1 2561 1005.46)"/><path d="M0-1.14583 162.422-1.14583 162.422 310.379 161.276 309.233 299.636 309.233 299.636 311.524 160.13 311.524 160.13 0 161.276 1.14583 0 1.14583ZM295.052 296.629 322.552 310.379 295.052 324.129Z" transform="matrix(1 0 0 -1 2561 1143.38)"/><rect x="1736" y="877" width="405" height="406" stroke="#000000" stroke-width="13.75" stroke-miterlimit="8" fill="#FFFFFF"/><path d="M1769.95 916.47 1784.28 916.47 1783.89 918.216C1782.98 918.407 1782.34 918.62 1781.94 918.858 1781.55 919.096 1781.2 919.452 1780.87 919.927 1780.55 920.403 1780.23 921.145 1779.91 922.155 1779.59 923.165 1779.18 924.811 1778.68 927.092L1774.23 947.053C1773.92 948.407 1773.67 949.697 1773.5 950.92 1773.32 952.144 1773.23 953.41 1773.23 954.716 1773.23 957.307 1773.86 959.267 1775.14 960.598 1776.41 961.929 1778.33 962.594 1780.89 962.594 1783.32 962.594 1785.34 962.095 1786.95 961.097 1788.57 960.099 1789.86 958.661 1790.84 956.784 1791.81 954.907 1792.63 952.471 1793.3 949.477L1798.25 927.056C1798.77 924.68 1799.04 922.767 1799.04 921.318 1799.04 920.201 1798.76 919.422 1798.2 918.983 1797.64 918.543 1796.75 918.288 1795.54 918.216L1795.93 916.47 1809.48 916.47 1809.09 918.216C1808.21 918.407 1807.56 918.626 1807.14 918.876 1806.73 919.125 1806.36 919.488 1806.04 919.963 1805.72 920.438 1805.4 921.187 1805.09 922.209 1804.79 923.23 1804.38 924.858 1803.88 927.092L1799.25 948.443C1798.32 952.697 1797.02 956.083 1795.33 958.602 1793.64 961.121 1791.53 962.938 1789 964.055 1786.47 965.172 1783.38 965.731 1779.72 965.731 1775.61 965.731 1772.46 964.739 1770.27 962.754 1768.08 960.77 1766.99 957.877 1766.99 954.075 1766.99 952.744 1767.13 951.217 1767.4 949.495 1767.67 947.772 1768.06 945.829 1768.56 943.667L1772.27 927.056C1772.81 924.609 1773.09 922.696 1773.09 921.318 1773.09 920.248 1772.81 919.482 1772.27 919.018 1771.72 918.555 1770.82 918.288 1769.56 918.216Z" fill-rule="evenodd"/><text fill="#000000" fill-opacity="0" font-family="Arial,Arial_MSFontService,sans-serif" font-size="49.2607" x="1766.99" y="959.573">ğ‘ˆ</text><path d="M1822.79 946.757 1824.37 946.757C1824.34 947.706 1824.31 948.556 1824.3 949.306 1824.28 950.057 1824.27 950.786 1824.26 951.493 1824.25 952.2 1824.24 952.899 1824.24 953.589L1824.24 973.257C1824.24 973.792 1824.26 974.254 1824.3 974.642 1824.33 975.03 1824.39 975.358 1824.46 975.625 1824.54 975.893 1824.64 976.121 1824.77 976.311 1824.9 976.501 1825.05 976.665 1825.23 976.803 1825.43 977.01 1825.71 977.169 1826.06 977.281 1826.4 977.394 1826.84 977.488 1827.37 977.566 1827.91 977.644 1828.55 977.704 1829.3 977.747 1830.05 977.79 1830.95 977.821 1832.01 977.838L1832.01 980.089 1811.49 980.089 1811.49 977.838C1812.5 977.803 1813.37 977.765 1814.07 977.721 1814.78 977.678 1815.38 977.618 1815.88 977.54 1816.39 977.463 1816.79 977.376 1817.09 977.281 1817.39 977.187 1817.65 977.07 1817.88 976.932 1818.12 976.777 1818.33 976.609 1818.5 976.427 1818.67 976.246 1818.81 976.018 1818.91 975.742 1819.02 975.466 1819.1 975.129 1819.16 974.732 1819.22 974.336 1819.25 973.844 1819.25 973.257L1819.25 954.702C1819.25 954.029 1819.12 953.555 1818.86 953.279 1818.6 953.003 1818.23 952.865 1817.75 952.865 1817.21 952.865 1816.42 953.141 1815.37 953.693 1814.31 954.245 1812.95 955.064 1811.28 956.151 1811.05 955.755 1810.85 955.358 1810.66 954.961 1810.47 954.564 1810.27 954.159 1810.06 953.745 1812.2 952.571 1814.32 951.403 1816.42 950.238 1818.51 949.073 1820.64 947.913 1822.79 946.757Z" fill-rule="evenodd"/><text fill="#000000" fill-opacity="0" font-family="Arial,Arial_MSFontService,sans-serif" font-size="33.332" x="1810.06" y="975.923">1</text><path d="M1867.29 913.618 1868.25 916.363C1862.69 918.193 1858.58 921.763 1855.9 927.074 1853.23 932.385 1851.89 939.057 1851.89 947.089 1851.89 955.406 1853.23 962.261 1855.9 967.655 1858.58 973.05 1862.66 976.662 1868.15 978.491L1867.29 981.236C1860.33 979.406 1854.99 975.468 1851.29 969.42 1847.58 963.372 1845.73 956.047 1845.73 947.445 1845.73 938.867 1847.59 931.542 1851.31 925.47 1855.02 919.399 1860.35 915.448 1867.29 913.618Z" fill-rule="evenodd"/><text fill="#000000" fill-opacity="0" font-family="Arial,Arial_MSFontService,sans-serif" font-size="67.6177" x="1845.73" y="972.784">(</text><path d="M1884.86 942.49C1884.24 945.033 1883.8 947.445 1883.52 949.726 1883.25 952.008 1883.11 954.027 1883.11 955.786 1883.11 957.877 1883.43 959.433 1884.06 960.455 1884.69 961.477 1885.68 961.988 1887.03 961.988 1889.41 961.988 1891.65 960.313 1893.75 956.962 1895.86 953.612 1897.66 948.788 1899.15 942.49ZM1898.01 918.858C1895.59 918.858 1893.33 920.474 1891.22 923.706 1889.12 926.938 1887.32 931.702 1885.82 937.999L1900.12 937.999C1900.64 935.599 1901.05 933.389 1901.35 931.369 1901.64 929.349 1901.79 927.472 1901.79 925.737 1901.79 923.266 1901.5 921.502 1900.92 920.444 1900.34 919.387 1899.37 918.858 1898.01 918.858ZM1898.08 915.151C1902.46 915.151 1905.72 916.405 1907.89 918.912 1910.05 921.419 1911.13 925.179 1911.13 930.193 1911.13 933.71 1910.55 937.851 1909.4 942.615 1908.25 947.38 1906.62 951.514 1904.52 955.019 1902.42 958.525 1899.88 961.18 1896.91 962.986 1893.94 964.792 1890.59 965.695 1886.86 965.695 1882.51 965.695 1879.24 964.447 1877.05 961.952 1874.87 959.457 1873.78 955.81 1873.78 951.009 1873.78 947.493 1874.34 943.334 1875.47 938.534 1876.6 933.734 1878.21 929.563 1880.3 926.023 1882.39 922.482 1884.92 919.785 1887.89 917.931 1890.86 916.078 1894.26 915.151 1898.08 915.151Z" fill-rule="evenodd"/><text fill="#000000" fill-opacity="0" font-family="Arial,Arial_MSFontService,sans-serif" font-size="50.5439" x="1873.78" y="959.377">ğœ½</text><path d="M1917.83 913.618C1924.77 915.448 1930.09 919.399 1933.81 925.47 1937.53 931.542 1939.39 938.867 1939.39 947.445 1939.39 956.047 1937.54 963.372 1933.83 969.42 1930.12 975.468 1924.79 979.406 1917.83 981.236L1916.97 978.491C1922.46 976.662 1926.54 973.05 1929.21 967.655 1931.89 962.261 1933.22 955.406 1933.22 947.089 1933.22 939.057 1931.89 932.385 1929.23 927.074 1926.57 921.763 1922.45 918.193 1916.86 916.363Z" fill-rule="evenodd"/><text fill="#000000" fill-opacity="0" font-family="Arial,Arial_MSFontService,sans-serif" font-size="67.6177" x="1916.86" y="972.784">)</text><path d="M1730.4 770.341 1744.73 770.341 1744.34 772.088C1743.44 772.278 1742.79 772.492 1742.4 772.729 1742.01 772.967 1741.65 773.323 1741.33 773.799 1741.01 774.274 1740.69 775.016 1740.37 776.026 1740.05 777.036 1739.64 778.682 1739.14 780.963L1734.68 800.924C1734.37 802.279 1734.13 803.568 1733.95 804.791 1733.77 806.015 1733.68 807.281 1733.68 808.588 1733.68 811.178 1734.32 813.138 1735.59 814.469 1736.86 815.8 1738.78 816.465 1741.35 816.465 1743.77 816.465 1745.79 815.966 1747.41 814.968 1749.02 813.97 1750.32 812.532 1751.29 810.655 1752.27 808.778 1753.09 806.342 1753.75 803.348L1758.71 780.927C1759.23 778.551 1759.49 776.638 1759.49 775.189 1759.49 774.072 1759.21 773.294 1758.65 772.854 1758.09 772.414 1757.21 772.159 1756 772.088L1756.39 770.341 1769.93 770.341 1769.54 772.088C1768.66 772.278 1768.02 772.497 1767.6 772.747 1767.18 772.997 1766.82 773.359 1766.49 773.834 1766.17 774.309 1765.86 775.058 1765.55 776.08 1765.24 777.102 1764.84 778.729 1764.34 780.963L1759.7 802.314C1758.78 806.568 1757.47 809.954 1755.78 812.473 1754.1 814.992 1751.99 816.81 1749.46 817.926 1746.93 819.043 1743.83 819.602 1740.17 819.602 1736.06 819.602 1732.91 818.61 1730.73 816.625 1728.54 814.641 1727.45 811.748 1727.45 807.946 1727.45 806.615 1727.58 805.089 1727.86 803.366 1728.13 801.643 1728.52 799.7 1729.01 797.538L1732.72 780.927C1733.27 778.48 1733.54 776.567 1733.54 775.189 1733.54 774.119 1733.27 773.353 1732.72 772.89 1732.17 772.426 1731.27 772.159 1730.01 772.088Z" fill-rule="evenodd"/><text fill="#000000" fill-opacity="0" font-family="Arial,Arial_MSFontService,sans-serif" font-size="49.2607" x="1727.45" y="813.444">ğ‘ˆ</text><path d="M1782.93 800.447C1784.72 800.447 1786.25 800.65 1787.52 801.055 1788.79 801.461 1789.82 802.009 1790.61 802.699 1791.41 803.389 1791.98 804.217 1792.33 805.183 1792.69 806.149 1792.86 807.193 1792.86 808.314 1792.86 808.987 1792.82 809.613 1792.72 810.191 1792.63 810.769 1792.46 811.338 1792.23 811.899 1792 812.459 1791.69 813.024 1791.31 813.594 1790.93 814.163 1790.46 814.767 1789.89 815.405 1789.46 815.957 1788.9 816.596 1788.21 817.32 1787.52 818.045 1786.76 818.821 1785.94 819.649 1785.12 820.477 1784.26 821.34 1783.37 822.237 1782.47 823.134 1781.6 824.023 1780.75 824.903 1779.91 825.783 1779.13 826.637 1778.42 827.465 1777.72 828.293 1777.14 829.052 1776.69 829.742L1786.26 829.742C1787.08 829.742 1787.72 829.712 1788.21 829.652 1788.69 829.591 1789.09 829.457 1789.41 829.25 1789.73 829.043 1790 828.729 1790.22 828.306 1790.45 827.883 1790.71 827.301 1791 826.559L1793.41 826.559C1793.32 827.784 1793.24 829.018 1793.16 830.26 1793.08 831.502 1793 832.735 1792.92 833.96L1771 833.96 1771 832.615C1771.41 831.683 1771.89 830.764 1772.45 829.859 1773 828.953 1773.62 828.034 1774.31 827.102 1775 826.171 1775.78 825.209 1776.66 824.217 1777.54 823.225 1778.52 822.194 1779.59 821.124 1781.21 819.503 1782.53 818.118 1783.55 816.971 1784.57 815.824 1785.37 814.801 1785.95 813.904 1786.54 813.007 1786.94 812.179 1787.16 811.42 1787.37 810.661 1787.48 809.85 1787.48 808.987 1787.48 808.107 1787.36 807.297 1787.11 806.555 1786.86 805.813 1786.5 805.183 1786.03 804.665 1785.57 804.148 1784.98 803.742 1784.26 803.449 1783.54 803.156 1782.72 803.009 1781.79 803.009 1780.18 803.009 1778.84 803.445 1777.75 804.316 1776.66 805.187 1775.82 806.451 1775.21 808.107L1771.82 808.107 1771.82 803.061C1774.03 802.147 1776.06 801.482 1777.92 801.068 1779.77 800.654 1781.44 800.447 1782.93 800.447Z" fill-rule="evenodd"/><text fill="#000000" fill-opacity="0" font-family="Arial,Arial_MSFontService,sans-serif" font-size="33.5132" x="1771" y="829.771">2</text><path d="M1829.44 767.489 1830.41 770.234C1824.84 772.064 1820.73 775.634 1818.05 780.945 1815.38 786.256 1814.04 792.928 1814.04 800.96 1814.04 809.277 1815.38 816.132 1818.05 821.527 1820.73 826.921 1824.81 830.533 1830.3 832.362L1829.44 835.107C1822.48 833.277 1817.15 829.339 1813.44 823.291 1809.73 817.243 1807.88 809.918 1807.88 801.316 1807.88 792.738 1809.74 785.413 1813.46 779.341 1817.18 773.27 1822.5 769.319 1829.44 767.489Z" fill-rule="evenodd"/><text fill="#000000" fill-opacity="0" font-family="Arial,Arial_MSFontService,sans-serif" font-size="67.6177" x="1807.88" y="826.655">(</text><path d="M1847.01 796.362C1846.39 798.904 1845.95 801.316 1845.67 803.597 1845.4 805.879 1845.26 807.898 1845.26 809.657 1845.26 811.748 1845.58 813.305 1846.21 814.326 1846.84 815.348 1847.83 815.859 1849.19 815.859 1851.56 815.859 1853.8 814.184 1855.9 810.833 1858.01 807.483 1859.81 802.659 1861.3 796.362ZM1860.16 772.729C1857.74 772.729 1855.48 774.345 1853.37 777.577 1851.27 780.809 1849.47 785.573 1847.97 791.87L1862.27 791.87C1862.79 789.47 1863.2 787.26 1863.5 785.24 1863.79 783.221 1863.94 781.343 1863.94 779.609 1863.94 777.137 1863.65 775.373 1863.07 774.315 1862.49 773.258 1861.52 772.729 1860.16 772.729ZM1860.24 769.022C1864.61 769.022 1867.88 770.276 1870.04 772.783 1872.2 775.29 1873.28 779.05 1873.28 784.064 1873.28 787.581 1872.7 791.722 1871.55 796.486 1870.4 801.251 1868.77 805.385 1866.67 808.891 1864.57 812.396 1862.03 815.051 1859.06 816.857 1856.09 818.663 1852.74 819.566 1849.01 819.566 1844.66 819.566 1841.39 818.319 1839.21 815.823 1837.02 813.328 1835.93 809.681 1835.93 804.881 1835.93 801.364 1836.49 797.205 1837.62 792.405 1838.75 787.605 1840.36 783.434 1842.45 779.894 1844.54 776.353 1847.07 773.656 1850.04 771.802 1853.01 769.949 1856.41 769.022 1860.24 769.022Z" fill-rule="evenodd"/><text fill="#000000" fill-opacity="0" font-family="Arial,Arial_MSFontService,sans-serif" font-size="50.5439" x="1835.93" y="813.248">ğœ½</text><path d="M1879.98 767.489C1886.92 769.319 1892.24 773.27 1895.96 779.341 1899.68 785.413 1901.54 792.738 1901.54 801.316 1901.54 809.918 1899.69 817.243 1895.98 823.291 1892.27 829.339 1886.94 833.277 1879.98 835.107L1879.12 832.362C1884.61 830.533 1888.69 826.921 1891.37 821.527 1894.04 816.132 1895.38 809.277 1895.38 800.96 1895.38 792.928 1894.04 786.256 1891.38 780.945 1888.72 775.634 1884.6 772.064 1879.01 770.234Z" fill-rule="evenodd"/><text fill="#000000" fill-opacity="0" font-family="Arial,Arial_MSFontService,sans-serif" font-size="67.6177" x="1879.01" y="826.655">)</text><path d="M1672.51 635.395 1686.84 635.395 1686.45 637.141C1685.55 637.331 1684.9 637.545 1684.51 637.783 1684.11 638.021 1683.76 638.377 1683.44 638.852 1683.12 639.328 1682.8 640.07 1682.47 641.08 1682.15 642.09 1681.74 643.736 1681.24 646.017L1676.79 665.978C1676.48 667.332 1676.24 668.621 1676.06 669.845 1675.88 671.069 1675.79 672.334 1675.79 673.641 1675.79 676.231 1676.43 678.192 1677.7 679.523 1678.97 680.853 1680.89 681.519 1683.45 681.519 1685.88 681.519 1687.9 681.02 1689.51 680.022 1691.13 679.024 1692.43 677.586 1693.4 675.709 1694.37 673.831 1695.19 671.396 1695.86 668.402L1700.81 645.981C1701.34 643.605 1701.6 641.692 1701.6 640.242 1701.6 639.125 1701.32 638.347 1700.76 637.908 1700.2 637.468 1699.32 637.213 1698.1 637.141L1698.5 635.395 1712.04 635.395 1711.65 637.141C1710.77 637.331 1710.12 637.551 1709.71 637.801 1709.29 638.05 1708.92 638.413 1708.6 638.888 1708.28 639.363 1707.97 640.112 1707.66 641.133 1707.35 642.155 1706.94 643.783 1706.45 646.017L1701.81 667.368C1700.89 671.621 1699.58 675.008 1697.89 677.527 1696.2 680.045 1694.09 681.863 1691.56 682.98 1689.03 684.097 1685.94 684.655 1682.28 684.655 1678.17 684.655 1675.02 683.663 1672.83 681.679 1670.65 679.695 1669.55 676.802 1669.55 673 1669.55 671.669 1669.69 670.142 1669.96 668.419 1670.24 666.697 1670.62 664.754 1671.12 662.591L1674.83 645.981C1675.38 643.534 1675.65 641.621 1675.65 640.242 1675.65 639.173 1675.38 638.407 1674.83 637.943 1674.28 637.48 1673.38 637.213 1672.12 637.141Z" fill-rule="evenodd"/><text fill="#000000" fill-opacity="0" font-family="Arial,Arial_MSFontService,sans-serif" font-size="49.2607" x="1669.55" y="678.498">ğ‘ˆ</text><path d="M1724.98 665.501C1726.36 665.501 1727.65 665.648 1728.85 665.941 1730.05 666.234 1731.09 666.678 1731.97 667.274 1732.85 667.869 1733.54 668.611 1734.03 669.499 1734.52 670.388 1734.76 671.419 1734.76 672.592 1734.76 673.696 1734.61 674.671 1734.3 675.516 1733.99 676.361 1733.51 677.129 1732.86 677.819 1732.22 678.509 1731.42 679.135 1730.48 679.695 1729.54 680.256 1728.46 680.795 1727.23 681.313L1727.23 681.623C1728.39 681.83 1729.47 682.163 1730.47 682.62 1731.47 683.077 1732.34 683.655 1733.1 684.354 1733.85 685.052 1734.44 685.859 1734.87 686.773 1735.3 687.688 1735.52 688.697 1735.52 689.801 1735.52 691.181 1735.26 692.462 1734.74 693.644 1734.22 694.826 1733.44 695.848 1732.41 696.711 1731.37 697.573 1730.1 698.246 1728.58 698.729 1727.06 699.212 1725.28 699.454 1723.25 699.454 1721.64 699.454 1720.01 699.294 1718.36 698.975 1716.7 698.656 1715.13 698.238 1713.65 697.72L1713.65 692.13 1716.99 692.13C1717.26 692.993 1717.59 693.73 1717.97 694.343 1718.35 694.955 1718.79 695.456 1719.3 695.844 1719.81 696.232 1720.4 696.512 1721.06 696.685 1721.73 696.857 1722.48 696.944 1723.33 696.944 1725.55 696.944 1727.24 696.413 1728.39 695.352 1729.53 694.291 1730.11 692.682 1730.11 690.526 1730.11 688.231 1729.35 686.493 1727.84 685.311 1726.33 684.129 1724.09 683.538 1721.13 683.538L1718.85 683.538 1718.85 681.054C1720.66 680.968 1722.23 680.713 1723.55 680.291 1724.87 679.868 1725.97 679.32 1726.85 678.647 1727.73 677.974 1728.38 677.19 1728.81 676.292 1729.24 675.395 1729.46 674.438 1729.46 673.42 1729.46 671.764 1728.97 670.457 1727.98 669.499 1727 668.542 1725.58 668.063 1723.71 668.063 1722.14 668.063 1720.83 668.494 1719.77 669.357 1718.71 670.219 1717.89 671.505 1717.32 673.213L1714.04 673.213 1714.04 668.115C1716.07 667.252 1717.99 666.601 1719.79 666.161 1721.6 665.721 1723.33 665.501 1724.98 665.501Z" fill-rule="evenodd"/><text fill="#000000" fill-opacity="0" font-family="Arial,Arial_MSFontService,sans-serif" font-size="33.9531" x="1713.65" y="695.21">3</text><path d="M1771.55 632.543 1772.51 635.288C1766.95 637.118 1762.84 640.688 1760.16 645.999 1757.49 651.31 1756.15 657.981 1756.15 666.013 1756.15 674.33 1757.49 681.186 1760.16 686.58 1762.84 691.974 1766.92 695.586 1772.41 697.416L1771.55 700.161C1764.59 698.331 1759.25 694.392 1755.55 688.345 1751.84 682.297 1749.99 674.972 1749.99 666.37 1749.99 657.791 1751.85 650.466 1755.56 644.395 1759.28 638.323 1764.61 634.373 1771.55 632.543Z" fill-rule="evenodd"/><text fill="#000000" fill-opacity="0" font-family="Arial,Arial_MSFontService,sans-serif" font-size="67.6177" x="1749.99" y="691.709">(</text><path d="M1789.12 661.415C1788.5 663.958 1788.06 666.37 1787.78 668.651 1787.51 670.932 1787.37 672.952 1787.37 674.711 1787.37 676.802 1787.69 678.358 1788.32 679.38 1788.95 680.402 1789.94 680.913 1791.29 680.913 1793.67 680.913 1795.91 679.237 1798.01 675.887 1800.12 672.536 1801.92 667.712 1803.41 661.415ZM1802.27 637.783C1799.85 637.783 1797.58 639.399 1795.48 642.631 1793.38 645.862 1791.58 650.627 1790.08 656.924L1804.37 656.924C1804.9 654.524 1805.31 652.314 1805.6 650.294 1805.9 648.274 1806.05 646.397 1806.05 644.662 1806.05 642.191 1805.76 640.427 1805.18 639.369 1804.59 638.312 1803.63 637.783 1802.27 637.783ZM1802.34 634.076C1806.72 634.076 1809.98 635.329 1812.15 637.836 1814.31 640.343 1815.39 644.104 1815.39 649.118 1815.39 652.635 1814.81 656.776 1813.66 661.54 1812.51 666.304 1810.88 670.439 1808.78 673.944 1806.67 677.449 1804.14 680.105 1801.17 681.911 1798.2 683.717 1794.85 684.62 1791.12 684.62 1786.77 684.62 1783.5 683.372 1781.31 680.877 1779.13 678.382 1778.03 674.734 1778.03 669.934 1778.03 666.417 1778.6 662.259 1779.73 657.459 1780.86 652.659 1782.47 648.488 1784.56 644.947 1786.65 641.407 1789.18 638.71 1792.15 636.856 1795.12 635.003 1798.52 634.076 1802.34 634.076Z" fill-rule="evenodd"/><text fill="#000000" fill-opacity="0" font-family="Arial,Arial_MSFontService,sans-serif" font-size="50.5439" x="1778.03" y="678.302">ğœ½</text><path d="M1822.08 632.543C1829.02 634.373 1834.35 638.323 1838.07 644.395 1841.79 650.466 1843.65 657.791 1843.65 666.37 1843.65 674.972 1841.8 682.297 1838.09 688.345 1834.38 694.392 1829.05 698.331 1822.08 700.161L1821.23 697.416C1826.72 695.586 1830.8 691.974 1833.47 686.58 1836.15 681.186 1837.48 674.33 1837.48 666.013 1837.48 657.981 1836.15 651.31 1833.49 645.999 1830.83 640.688 1826.71 637.118 1821.12 635.288Z" fill-rule="evenodd"/><text fill="#000000" fill-opacity="0" font-family="Arial,Arial_MSFontService,sans-serif" font-size="67.6177" x="1821.12" y="691.709">)</text><rect x="902.5" y="478.5" width="1694" height="865" stroke="#000000" stroke-width="4.58333" stroke-miterlimit="8" stroke-dasharray="18.3333 13.75" fill="none"/><text font-family="Times New Roman,Times New Roman_MSFontService,sans-serif" font-weight="400" font-size="46" transform="matrix(1 0 0 1 338.037 1333)">Input: patch image</text><text font-family="Times New Roman,Times New Roman_MSFontService,sans-serif" font-weight="400" font-size="46" transform="matrix(1 0 0 1 2812.66 1328)">Outpu</text><text font-family="Times New Roman,Times New Roman_MSFontService,sans-serif" font-weight="400" font-size="46" transform="matrix(1 0 0 1 2927.24 1328)">t</text><text font-family="Times New Roman,Times New Roman_MSFontService,sans-serif" font-weight="400" font-size="46" transform="matrix(1 0 0 1 2939.85 1328)">: feature maps</text><text font-family="Times New Roman,Times New Roman_MSFontService,sans-serif" font-weight="400" font-size="46" transform="translate(1622.56 1430)">Quantum filter</text></g></svg>