<?xml version="1.0" encoding="UTF-8" standalone="no"?>
<svg
   xmlns:dc="http://purl.org/dc/elements/1.1/"
   xmlns:cc="http://creativecommons.org/ns#"
   xmlns:rdf="http://www.w3.org/1999/02/22-rdf-syntax-ns#"
   xmlns:svg="http://www.w3.org/2000/svg"
   xmlns="http://www.w3.org/2000/svg"
   xmlns:sodipodi="http://sodipodi.sourceforge.net/DTD/sodipodi-0.dtd"
   xmlns:inkscape="http://www.inkscape.org/namespaces/inkscape"
   width="1679"
   height="2049"
   xml:space="preserve"
   overflow="hidden"
   version="1.1"
   id="svg190"
   sodipodi:docname="fig1.svg"
   inkscape:version="1.0.2-2 (e86c870879, 2021-01-15)"><metadata
     id="metadata194"><rdf:RDF><cc:Work
         rdf:about=""><dc:format>image/svg+xml</dc:format><dc:type
           rdf:resource="http://purl.org/dc/dcmitype/StillImage" /><dc:title></dc:title></cc:Work></rdf:RDF></metadata><sodipodi:namedview
     pagecolor="#ffffff"
     bordercolor="#666666"
     borderopacity="1"
     objecttolerance="10"
     gridtolerance="10"
     guidetolerance="10"
     inkscape:pageopacity="0"
     inkscape:pageshadow="2"
     inkscape:window-width="1366"
     inkscape:window-height="705"
     id="namedview192"
     showgrid="false"
     inkscape:zoom="0.23127939"
     inkscape:cx="839.5"
     inkscape:cy="1024.5"
     inkscape:window-x="-8"
     inkscape:window-y="-8"
     inkscape:window-maximized="1"
     inkscape:current-layer="svg190" /><defs
     id="defs112"><clipPath
       id="clip0"><rect
         x="361"
         y="-16"
         width="1679"
         height="2049"
         id="rect109" /></clipPath></defs><g
     clip-path="url(#clip0)"
     transform="translate(-361 16)"
     id="g188"><rect
       x="365.5"
       y="408.5"
       width="514"
       height="131"
       stroke="#000000"
       stroke-width="4.58333"
       stroke-miterlimit="8"
       fill="none"
       id="rect114" /><text
       font-family="Calibri,Calibri_MSFontService,sans-serif"
       font-weight="400"
       font-size="64"
       transform="matrix(1 0 0 1 540.496 495)"
       id="text116">Conv1</text><rect
       x="365.5"
       y="616.5"
       width="514"
       height="132"
       stroke="#000000"
       stroke-width="4.58333"
       stroke-miterlimit="8"
       fill="none"
       id="rect118" /><text
       font-family="Calibri,Calibri_MSFontService,sans-serif"
       font-weight="400"
       font-size="64"
       transform="translate(490.698 704)"
       id="text122">MaxPool<tspan
   font-size="64"
   x="229.74"
   y="0"
   id="tspan120">1</tspan></text><rect
       x="365.5"
       y="828.5"
       width="513"
       height="132"
       stroke="#000000"
       stroke-width="4.58333"
       stroke-miterlimit="8"
       fill="none"
       id="rect124" /><text
       font-family="Calibri,Calibri_MSFontService,sans-serif"
       font-weight="400"
       font-size="64"
       transform="matrix(1 0 0 1 540.003 916)"
       id="text126">Conv2</text><rect
       x="365.5"
       y="1042.5"
       width="513"
       height="132"
       stroke="#000000"
       stroke-width="4.58333"
       stroke-miterlimit="8"
       fill="none"
       id="rect128" /><text
       font-family="Calibri,Calibri_MSFontService,sans-serif"
       font-weight="400"
       font-size="64"
       transform="matrix(1 0 0 1 491.144 1130)"
       id="text130">MaxPool2</text><path
       d="M623.146 539 623.146 593.198 620.854 593.198 620.854 539ZM635.75 588.615 622 616.115 608.25 588.615Z"
       id="path132" /><path
       d="M1.14581-0.00705828 1.49799 57.1634-0.793637 57.1775-1.14581 0.00705828ZM14.0737 52.5025 0.49334 80.0867-13.4258 52.6719Z"
       transform="matrix(-1 0 0 1 621.494 748)"
       id="path134" /><path
       d="M622.146 960 622.146 1019.24 619.855 1019.24 619.854 960ZM634.75 1014.66 621.001 1042.16 607.25 1014.66Z"
       id="path136" /><rect
       x="363.5"
       y="152.5"
       width="514"
       height="131"
       stroke="#000000"
       stroke-width="4.58333"
       stroke-miterlimit="8"
       fill="none"
       id="rect138" /><text
       font-family="Calibri,Calibri_MSFontService,sans-serif"
       font-weight="400"
       font-size="64"
       transform="matrix(1 0 0 1 540.309 239)"
       id="text140">Image</text><path
       d="M621.146 282.985 622.485 384.304 620.193 384.335 618.854 283.015ZM635.027 379.555 621.642 407.234 607.53 379.918Z"
       id="path142" /><text
       font-family="Calibri,Calibri_MSFontService,sans-serif"
       font-weight="400"
       font-size="83"
       transform="translate(585.805 87)"
       id="text144">a)</text><rect
       x="942.5"
       y="1432.5"
       width="514"
       height="132"
       stroke="#000000"
       stroke-width="4.58333"
       stroke-miterlimit="8"
       fill="none"
       id="rect146" /><text
       font-family="Calibri,Calibri_MSFontService,sans-serif"
       font-weight="400"
       font-size="64"
       transform="matrix(1 0 0 1 1151.28 1519)"
       id="text148">FC1</text><rect
       x="1029.5"
       y="1646.5"
       width="344"
       height="131"
       stroke="#000000"
       stroke-width="4.58333"
       stroke-miterlimit="8"
       fill="none"
       id="rect150" /><text
       font-family="Calibri,Calibri_MSFontService,sans-serif"
       font-weight="400"
       font-size="64"
       transform="matrix(1 0 0 1 1152.99 1733)"
       id="text152">FC2</text><path
       d="M1.14582-0.00509759 2.19187 235.122-0.0997747 235.133-1.14582 0.00509759ZM14.7755 230.483 1.148 258.044-12.7242 230.605Z"
       transform="matrix(-1 0 0 1 1200.15 1174)"
       id="path154" /><path
       d="M1200.15 1563.98 1201.38 1622.78 1199.09 1622.83 1197.85 1564.02ZM1213.88 1617.94 1200.71 1645.72 1186.39 1618.51Z"
       id="path156" /><rect
       x="942.5"
       y="152.5"
       width="514"
       height="131"
       stroke="#000000"
       stroke-width="4.58333"
       stroke-miterlimit="8"
       fill="none"
       id="rect158" /><text
       font-family="Calibri,Calibri_MSFontService,sans-serif"
       font-weight="400"
       font-size="64"
       transform="matrix(1 0 0 1 1119.18 239)"
       id="text160">Image</text><path
       d="M1200.15 282.99 1201.09 388.607 1198.8 388.627 1197.85 283.01ZM1213.65 383.911 1200.15 411.533 1186.15 384.157Z"
       id="path162" /><text
       font-family="Calibri,Calibri_MSFontService,sans-serif"
       font-weight="400"
       font-size="83"
       transform="translate(1151.28 95)"
       id="text164">b)</text><rect
       x="944.5"
       y="412.5"
       width="513"
       height="762"
       stroke="#000000"
       stroke-width="4.58333"
       stroke-miterlimit="8"
       fill="none"
       id="rect166" /><text
       font-family="Calibri,Calibri_MSFontService,sans-serif"
       font-weight="400"
       font-size="64"
       transform="matrix(1 0 0 1 994.926 814)"
       id="text168">Quantum filters</text><rect
       x="1523.5"
       y="152.5"
       width="514"
       height="131"
       stroke="#000000"
       stroke-width="4.58333"
       stroke-miterlimit="8"
       fill="none"
       id="rect170" /><text
       font-family="Calibri,Calibri_MSFontService,sans-serif"
       font-weight="400"
       font-size="64"
       transform="matrix(1 0 0 1 1700.18 239)"
       id="text174">Image<tspan
   font-size="83"
   x="29.1752"
   y="-144"
   id="tspan172">c)</tspan></text><rect
       x="877.5"
       y="1353.5"
       width="646"
       height="677"
       stroke="#000000"
       stroke-width="4.58333"
       stroke-miterlimit="8"
       stroke-dasharray="36.6667 13.75"
       fill="none"
       id="rect176" /><path
       d="M0-1.14583 130.168-1.14583 130.168 577.72 129.022 576.574 235.126 576.574 235.126 578.866 127.876 578.866 127.876 0 129.022 1.14583 0 1.14583ZM230.543 563.97 258.043 577.72 230.543 591.47Z"
       transform="matrix(1.83697e-16 1 1 -1.83697e-16 621 1174)"
       id="path178" /><path
       d="M1781.15 283 1781.15 1243.82 1199 1243.82 1200.15 1242.67 1200.15 1408.8 1197.85 1408.8 1197.85 1241.53 1780 1241.53 1778.86 1242.67 1778.86 283ZM1212.75 1404.22 1199 1431.72 1185.25 1404.22Z"
       id="path180" /><rect
       x="1063.5"
       y="1852.5"
       width="275"
       height="132"
       stroke="#000000"
       stroke-width="4.58333"
       stroke-miterlimit="8"
       fill="none"
       id="rect182" /><text
       font-family="Calibri,Calibri_MSFontService,sans-serif"
       font-weight="400"
       font-size="64"
       transform="translate(1107.16 1939)"
       id="text184">Output</text><path
       d="M1202.15 1777 1202.15 1828.67 1199.85 1828.67 1199.85 1777ZM1214.75 1824.09 1201 1851.59 1187.25 1824.09Z"
       id="path186" /></g></svg>
