<svg width="1743" height="2049" xmlns="http://www.w3.org/2000/svg" xmlns:xlink="http://www.w3.org/1999/xlink" xml:space="preserve" overflow="hidden"><defs><clipPath id="clip0"><rect x="294" y="-16" width="1743" height="2049"/></clipPath></defs><g clip-path="url(#clip0)" transform="translate(-294 16)"><rect x="365.5" y="408.5" width="514" height="131" stroke="#000000" stroke-width="4.58333" stroke-miterlimit="8" fill="none"/><text font-family="Times New Roman,Times New Roman_MSFontService,sans-serif" font-weight="400" font-size="64" transform="translate(536.245 497)">Conv</text><text font-family="Times New Roman,Times New Roman_MSFontService,sans-serif" font-weight="400" font-size="64" transform="translate(675.464 497)">1</text><rect x="365.5" y="616.5" width="514" height="132" stroke="#000000" stroke-width="4.58333" stroke-miterlimit="8" fill="none"/><text font-family="Times New Roman,Times New Roman_MSFontService,sans-serif" font-weight="400" font-size="64" transform="matrix(1 0 0 1 488.12 706)">MaxPool1</text><rect x="365.5" y="828.5" width="513" height="132" stroke="#000000" stroke-width="4.58333" stroke-miterlimit="8" fill="none"/><text font-family="Times New Roman,Times New Roman_MSFontService,sans-serif" font-weight="400" font-size="64" transform="translate(535.752 918)">Conv</text><text font-family="Times New Roman,Times New Roman_MSFontService,sans-serif" font-weight="400" font-size="64" transform="translate(674.971 918)">2</text><rect x="365.5" y="1042.5" width="513" height="132" stroke="#000000" stroke-width="4.58333" stroke-miterlimit="8" fill="none"/><text font-family="Times New Roman,Times New Roman_MSFontService,sans-serif" font-weight="400" font-size="64" transform="matrix(1 0 0 1 487.627 1132)">MaxPool2</text><path d="M623.146 539 623.146 593.198 620.854 593.198 620.854 539ZM635.75 588.615 622 616.115 608.25 588.615Z"/><path d="M1.14581-0.00705828 1.49799 57.1634-0.793637 57.1775-1.14581 0.00705828ZM14.0737 52.5025 0.49334 80.0867-13.4258 52.6719Z" transform="matrix(-1 0 0 1 621.494 748)"/><path d="M622.146 960 622.146 1019.24 619.855 1019.24 619.854 960ZM634.75 1014.66 621.001 1042.16 607.25 1014.66Z"/><text font-family="Times New Roman,Times New Roman_MSFontService,sans-serif" font-weight="400" font-size="64" transform="matrix(1 0 0 1 540.046 241)">Image</text><path d="M621.146 282.985 622.485 384.304 620.193 384.335 618.854 283.015ZM635.027 379.555 621.642 407.234 607.53 379.918Z"/><text font-family="Times New Roman,Times New Roman_MSFontService,sans-serif" font-weight="400" font-size="83" transform="matrix(1 0 0 1 585.805 90)">a)</text><rect x="942.5" y="1432.5" width="514" height="132" stroke="#000000" stroke-width="4.58333" stroke-miterlimit="8" fill="none"/><text font-family="Times New Roman,Times New Roman_MSFontService,sans-serif" font-weight="400" font-size="64" transform="matrix(1 0 0 1 1143.84 1521)">FC1</text><rect x="1029.5" y="1646.5" width="344" height="131" stroke="#000000" stroke-width="4.58333" stroke-miterlimit="8" fill="none"/><text font-family="Times New Roman,Times New Roman_MSFontService,sans-serif" font-weight="400" font-size="64" transform="matrix(1 0 0 1 1145.55 1735)">FC2</text><path d="M1.14582-0.00509759 2.19187 235.122-0.0997747 235.133-1.14582 0.00509759ZM14.7755 230.483 1.148 258.044-12.7242 230.605Z" transform="matrix(-1 0 0 1 1200.15 1174)"/><path d="M1200.15 1563.98 1201.38 1622.78 1199.09 1622.83 1197.85 1564.02ZM1213.88 1617.94 1200.71 1645.72 1186.39 1618.51Z"/><text font-family="Times New Roman,Times New Roman_MSFontService,sans-serif" font-weight="400" font-size="64" transform="translate(1118.91 241)">Image</text><path d="M1200.15 282.99 1201.09 388.607 1198.8 388.627 1197.85 283.01ZM1213.65 383.911 1200.15 411.533 1186.15 384.157Z"/><text font-family="Times New Roman,Times New Roman_MSFontService,sans-serif" font-weight="400" font-size="83" transform="matrix(1 0 0 1 1151.28 98)">b)</text><rect x="944.5" y="412.5" width="513" height="762" stroke="#000000" stroke-width="4.58333" stroke-miterlimit="8" fill="none"/><text font-family="Times New Roman,Times New Roman_MSFontService,sans-serif" font-weight="400" font-size="64" transform="translate(1010.64 816)">Quantum </text><text font-family="Times New Roman,Times New Roman_MSFontService,sans-serif" font-weight="400" font-size="64" transform="translate(1265.58 816)">filter</text><text font-family="Times New Roman,Times New Roman_MSFontService,sans-serif" font-weight="400" font-size="64" transform="matrix(1 0 0 1 1699.92 241)">Image</text><text font-family="Times New Roman,Times New Roman_MSFontService,sans-serif" font-weight="400" font-size="83" transform="matrix(1 0 0 1 1729.36 98)">c)</text><rect x="877.5" y="1353.5" width="646" height="677" stroke="#000000" stroke-width="4.58333" stroke-miterlimit="8" stroke-dasharray="36.6667 13.75" fill="none"/><path d="M0-1.14583 130.168-1.14583 130.168 577.72 129.022 576.574 235.126 576.574 235.126 578.866 127.876 578.866 127.876 0 129.022 1.14583 0 1.14583ZM230.543 563.97 258.043 577.72 230.543 591.47Z" transform="matrix(1.83697e-16 1 1 -1.83697e-16 621 1174)"/><path d="M1781.15 283 1781.15 1243.82 1199 1243.82 1200.15 1242.67 1200.15 1408.8 1197.85 1408.8 1197.85 1241.53 1780 1241.53 1778.86 1242.67 1778.86 283ZM1212.75 1404.22 1199 1431.72 1185.25 1404.22Z"/><rect x="1063.5" y="1852.5" width="275" height="132" stroke="#000000" stroke-width="4.58333" stroke-miterlimit="8" fill="none"/><text font-family="Times New Roman,Times New Roman_MSFontService,sans-serif" font-weight="400" font-size="64" transform="matrix(1 0 0 1 1111.74 1941)">Output</text><path d="M1202.15 1777 1202.15 1828.67 1199.85 1828.67 1199.85 1777ZM1214.75 1824.09 1201 1851.59 1187.25 1824.09Z"/><rect x="296.5" y="349.5" width="1227" height="862" stroke="#000000" stroke-width="4.58333" stroke-miterlimit="8" stroke-dasharray="36.6667 13.75" fill="none"/><path d="M1655.01 768.595 1656.73 768.595C1656.6 770.595 1656.54 773.366 1656.54 776.908L1656.54 803.595C1656.54 804.803 1656.61 805.715 1656.74 806.33 1656.88 806.944 1657.12 807.444 1657.46 807.83 1657.81 808.215 1658.3 808.517 1658.95 808.736 1659.59 808.955 1660.41 809.121 1661.38 809.236 1662.36 809.35 1663.66 809.428 1665.26 809.47L1665.26 811.751 1642.17 811.751 1642.17 809.47C1644.48 809.366 1646.13 809.225 1647.12 809.048 1648.11 808.871 1648.86 808.606 1649.38 808.251 1649.91 807.897 1650.29 807.397 1650.53 806.751 1650.77 806.106 1650.88 805.053 1650.88 803.595L1650.88 778.251C1650.88 777.418 1650.74 776.809 1650.45 776.423 1650.16 776.038 1649.73 775.845 1649.17 775.845 1648.5 775.845 1647.55 776.189 1646.32 776.876 1645.09 777.564 1643.57 778.512 1641.76 779.72L1640.38 777.314Z" fill-rule="evenodd"/><text fill="#000000" fill-opacity="0" font-family="Arial,Arial_MSFontService,sans-serif" font-size="43.1562" x="1640.38" y="806.357">1</text><path d="M1685.46 764.831C1686.95 764.831 1688.31 764.922 1689.56 765.106 1690.81 765.29 1692.02 765.557 1693.2 765.909L1692.1 771.096 1690.05 771.096C1689.89 769.719 1689.43 768.701 1688.69 768.044 1687.95 767.386 1686.8 767.057 1685.23 767.057 1684.61 767.057 1684.03 767.141 1683.49 767.309 1682.96 767.477 1682.5 767.711 1682.11 768.009 1681.73 768.307 1681.43 768.663 1681.22 769.076 1681 769.489 1680.9 769.941 1680.9 770.43 1680.9 770.874 1680.95 771.279 1681.06 771.647 1681.17 772.014 1681.38 772.373 1681.69 772.725 1682 773.077 1682.45 773.444 1683.02 773.827 1683.59 774.209 1684.35 774.645 1685.28 775.135 1686.26 775.67 1687.07 776.183 1687.72 776.672 1688.38 777.162 1688.89 777.659 1689.27 778.164 1689.66 778.669 1689.92 779.208 1690.08 779.782 1690.23 780.356 1690.31 780.995 1690.31 781.698 1690.31 782.785 1690.08 783.76 1689.64 784.624 1689.2 785.489 1688.58 786.219 1687.78 786.816 1686.99 787.413 1686.05 787.872 1684.97 788.193 1683.89 788.514 1682.71 788.675 1681.43 788.675 1680.02 788.675 1678.63 788.583 1677.27 788.4 1675.91 788.216 1674.47 787.902 1672.96 787.459L1674.15 782.226 1676.15 782.226C1676.22 783.649 1676.67 784.716 1677.49 785.428 1678.31 786.139 1679.57 786.495 1681.29 786.495 1682.82 786.495 1684.02 786.166 1684.9 785.508 1685.78 784.85 1686.22 783.932 1686.22 782.754 1686.22 782.219 1686.17 781.756 1686.06 781.366 1685.95 780.975 1685.74 780.604 1685.43 780.253 1685.12 779.901 1684.69 779.537 1684.14 779.162 1683.6 778.788 1682.89 778.355 1682.02 777.866 1681.12 777.361 1680.34 776.864 1679.69 776.374 1679.04 775.885 1678.51 775.387 1678.09 774.882 1677.67 774.378 1677.36 773.85 1677.16 773.299 1676.96 772.748 1676.86 772.159 1676.86 771.532 1676.86 770.568 1677.06 769.677 1677.47 768.858 1677.87 768.04 1678.45 767.332 1679.2 766.735 1679.95 766.139 1680.85 765.672 1681.91 765.336 1682.96 764.999 1684.15 764.831 1685.46 764.831ZM1704.7 759.484 1708.28 759.484 1706.97 765.313 1714.78 765.313 1714.25 767.86 1706.47 767.86 1704.13 777.476C1703.97 778.118 1703.85 778.696 1703.75 779.208 1703.65 779.721 1703.57 780.184 1703.51 780.597 1703.45 781.01 1703.4 781.385 1703.38 781.721 1703.36 782.058 1703.35 782.372 1703.35 782.662 1703.35 783.58 1703.54 784.299 1703.92 784.819 1704.3 785.34 1704.93 785.6 1705.8 785.6 1706.54 785.6 1707.32 785.328 1708.14 784.785 1708.97 784.242 1709.91 783.389 1710.97 782.226L1712.55 783.833C1711.77 784.705 1711.03 785.447 1710.32 786.059 1709.62 786.671 1708.93 787.172 1708.26 787.562 1707.58 787.952 1706.92 788.235 1706.26 788.411 1705.6 788.587 1704.93 788.675 1704.24 788.675 1702.42 788.675 1701.06 788.247 1700.17 787.39 1699.27 786.533 1698.83 785.271 1698.83 783.603 1698.83 783.037 1698.87 782.414 1698.95 781.733 1699.04 781.052 1699.15 780.39 1699.31 779.748L1702.04 767.86 1698.09 767.86 1698.55 766.093C1699.47 766.093 1700.18 766.005 1700.7 765.829 1701.21 765.653 1701.64 765.412 1701.99 765.106 1702.22 764.892 1702.44 764.628 1702.66 764.314 1702.87 764.001 1703.09 763.622 1703.3 763.178 1703.52 762.735 1703.73 762.211 1703.95 761.606 1704.18 761.002 1704.43 760.294 1704.7 759.484Z" fill-rule="evenodd"/><text fill="#000000" fill-opacity="0" font-family="Arial,Arial_MSFontService,sans-serif" font-size="29.1914" x="1672.96" y="785.026">ğ‘ ğ‘¡</text><text font-family="Times New Roman,Times New Roman_MSFontService,sans-serif" font-weight="400" font-size="64" transform="matrix(1 0 0 1 1735.33 812)">block</text><path d="M1644.15 1684.66C1648.03 1684.66 1650.95 1685.51 1652.93 1687.21 1654.91 1688.9 1655.9 1691.37 1655.9 1694.6 1655.9 1695.7 1655.79 1696.72 1655.57 1697.64 1655.35 1698.57 1655.01 1699.49 1654.54 1700.39 1654.07 1701.3 1653.44 1702.27 1652.65 1703.31 1651.86 1704.36 1650.98 1705.41 1650.03 1706.49 1649.07 1707.56 1647.41 1709.35 1645.06 1711.85 1641.1 1716.03 1638.19 1719.69 1636.34 1722.81L1648.12 1722.81C1649.14 1722.81 1649.96 1722.75 1650.59 1722.63 1651.21 1722.5 1651.71 1722.29 1652.09 1722 1652.46 1721.71 1652.76 1721.33 1652.98 1720.86 1653.2 1720.39 1653.47 1719.67 1653.81 1718.69L1656.46 1718.69 1655.93 1727.81 1630.21 1727.81 1630.21 1726.31C1631.11 1724.13 1632.32 1721.89 1633.84 1719.6 1635.36 1717.3 1637.52 1714.61 1640.31 1711.5 1642.72 1708.84 1644.46 1706.81 1645.53 1705.44 1646.69 1703.94 1647.56 1702.64 1648.14 1701.55 1648.71 1700.46 1649.12 1699.42 1649.37 1698.46 1649.62 1697.49 1649.74 1696.51 1649.74 1695.53 1649.74 1693.97 1649.49 1692.59 1648.99 1691.39 1648.49 1690.2 1647.73 1689.25 1646.7 1688.56 1645.67 1687.88 1644.37 1687.53 1642.81 1687.53 1638.91 1687.53 1636.29 1689.7 1634.93 1694.03L1631.15 1694.03 1631.15 1688.03C1633.67 1686.85 1636.03 1685.99 1638.23 1685.46 1640.43 1684.92 1642.4 1684.66 1644.15 1684.66Z" fill-rule="evenodd"/><text fill="#000000" fill-opacity="0" font-family="Arial,Arial_MSFontService,sans-serif" font-size="43.1562" x="1630.21" y="1722.42">2</text><path d="M1707.88 1683.17C1706.98 1683.17 1706.14 1683.36 1705.37 1683.75 1704.6 1684.14 1703.89 1684.68 1703.25 1685.36 1702.6 1686.04 1702.03 1686.83 1701.53 1687.72 1701.02 1688.62 1700.6 1689.57 1700.25 1690.59 1699.91 1691.61 1699.65 1692.65 1699.47 1693.71 1699.3 1694.77 1699.21 1695.81 1699.21 1696.82 1699.21 1698.47 1699.44 1699.7 1699.91 1700.5 1700.37 1701.31 1701.13 1701.71 1702.17 1701.71 1702.87 1701.71 1703.65 1701.47 1704.51 1701 1705.37 1700.52 1706.2 1699.84 1707 1698.94 1707.8 1698.05 1708.54 1696.96 1709.21 1695.67 1709.89 1694.39 1710.39 1692.94 1710.73 1691.34 1710.9 1690.51 1711.05 1689.68 1711.19 1688.86 1711.32 1688.03 1711.39 1687.27 1711.39 1686.59 1711.39 1685.35 1711.11 1684.47 1710.56 1683.95 1710 1683.43 1709.11 1683.17 1707.88 1683.17ZM1670.06 1680.89C1671.19 1680.89 1672.06 1681.27 1672.68 1682.01 1673.3 1682.75 1673.61 1683.72 1673.61 1684.93 1673.61 1685.24 1673.59 1685.56 1673.53 1685.9 1673.48 1686.23 1673.38 1686.55 1673.25 1686.86L1673.57 1686.98C1675.05 1684.94 1676.52 1683.42 1677.96 1682.41 1679.41 1681.4 1680.9 1680.89 1682.45 1680.89 1684.07 1680.89 1685.28 1681.33 1686.09 1682.2 1686.89 1683.07 1687.29 1684.3 1687.29 1685.87 1687.29 1686.35 1687.22 1687.01 1687.08 1687.85 1686.95 1688.69 1686.77 1689.61 1686.56 1690.6 1686.34 1691.6 1686.11 1692.62 1685.87 1693.67 1685.62 1694.71 1685.39 1695.68 1685.18 1696.57 1684.97 1697.46 1684.79 1698.21 1684.65 1698.84 1684.51 1699.47 1684.45 1699.86 1684.45 1700.01 1684.45 1700.59 1684.55 1701.01 1684.77 1701.27 1684.98 1701.53 1685.33 1701.66 1685.8 1701.66 1686.09 1701.66 1686.38 1701.61 1686.66 1701.5 1686.94 1701.4 1687.24 1701.23 1687.54 1701 1687.85 1700.77 1688.19 1700.47 1688.55 1700.11 1688.92 1699.75 1689.33 1699.32 1689.79 1698.82L1691.38 1700.33C1690.63 1701.1 1689.94 1701.75 1689.31 1702.31 1688.68 1702.86 1688.08 1703.31 1687.49 1703.67 1686.9 1704.03 1686.31 1704.3 1685.73 1704.47 1685.15 1704.65 1684.53 1704.74 1683.87 1704.74 1683.32 1704.74 1682.81 1704.63 1682.35 1704.42 1681.88 1704.2 1681.48 1703.91 1681.14 1703.53 1680.8 1703.16 1680.54 1702.71 1680.36 1702.2 1680.18 1701.69 1680.09 1701.13 1680.09 1700.52 1680.09 1699.9 1680.15 1699.19 1680.28 1698.37 1680.41 1697.55 1680.61 1696.65 1680.87 1695.67 1681.14 1694.68 1681.4 1693.73 1681.63 1692.82 1681.87 1691.91 1682.08 1691.06 1682.25 1690.29 1682.43 1689.52 1682.57 1688.83 1682.67 1688.23 1682.77 1687.62 1682.82 1687.12 1682.82 1686.72 1682.82 1685.77 1682.64 1685.08 1682.28 1684.63 1681.92 1684.19 1681.34 1683.97 1680.54 1683.97 1680.09 1683.97 1679.59 1684.09 1679.06 1684.32 1678.54 1684.56 1678 1684.89 1677.47 1685.31 1676.93 1685.73 1676.41 1686.23 1675.9 1686.8 1675.38 1687.38 1674.91 1687.99 1674.49 1688.64 1674.06 1689.29 1673.68 1689.97 1673.35 1690.68 1673.02 1691.39 1672.78 1692.1 1672.63 1692.8L1670.06 1704.33 1665.56 1704.33 1669 1689.36C1669.2 1688.57 1669.34 1687.86 1669.44 1687.23 1669.53 1686.6 1669.57 1686.09 1669.57 1685.69 1669.57 1684.57 1669.12 1684.02 1668.22 1684.02 1667.94 1684.02 1667.67 1684.07 1667.38 1684.19 1667.1 1684.3 1666.8 1684.47 1666.49 1684.7 1666.17 1684.93 1665.83 1685.22 1665.47 1685.58 1665.1 1685.93 1664.69 1686.34 1664.23 1686.81L1662.64 1685.32C1663.41 1684.54 1664.11 1683.87 1664.74 1683.32 1665.38 1682.76 1665.98 1682.3 1666.56 1681.94 1667.13 1681.58 1667.7 1681.31 1668.27 1681.15 1668.83 1680.98 1669.43 1680.89 1670.06 1680.89ZM1717.98 1673 1719.15 1673 1713.83 1696.41C1713.61 1697.31 1713.47 1698.03 1713.4 1698.56 1713.33 1699.1 1713.3 1699.58 1713.3 1700.01 1713.3 1700.59 1713.42 1701.01 1713.65 1701.27 1713.89 1701.53 1714.23 1701.66 1714.67 1701.66 1714.95 1701.66 1715.22 1701.61 1715.49 1701.5 1715.76 1701.4 1716.05 1701.23 1716.36 1701 1716.68 1700.77 1717.02 1700.47 1717.39 1700.11 1717.77 1699.75 1718.19 1699.32 1718.67 1698.82 1718.91 1699.08 1719.17 1699.33 1719.43 1699.59 1719.69 1699.84 1719.94 1700.09 1720.18 1700.33 1719.42 1701.11 1718.72 1701.78 1718.09 1702.34 1717.47 1702.9 1716.86 1703.36 1716.27 1703.72 1715.68 1704.08 1715.1 1704.34 1714.54 1704.5 1713.97 1704.66 1713.38 1704.74 1712.77 1704.74 1711.67 1704.74 1710.81 1704.38 1710.2 1703.67 1709.59 1702.96 1709.28 1701.98 1709.28 1700.75 1709.28 1700.06 1709.39 1699.4 1709.6 1698.77L1709.28 1698.63C1708.5 1699.72 1707.74 1700.65 1707.01 1701.41 1706.28 1702.18 1705.55 1702.81 1704.83 1703.3 1704.11 1703.8 1703.38 1704.16 1702.65 1704.39 1701.92 1704.62 1701.15 1704.74 1700.35 1704.74 1698.53 1704.74 1697.13 1704.08 1696.13 1702.78 1695.14 1701.47 1694.64 1699.57 1694.64 1697.07 1694.64 1695.59 1694.8 1694.16 1695.11 1692.79 1695.42 1691.42 1695.87 1690.14 1696.44 1688.94 1697.02 1687.74 1697.7 1686.64 1698.5 1685.66 1699.29 1684.67 1700.16 1683.82 1701.11 1683.12 1702.06 1682.42 1703.07 1681.87 1704.14 1681.48 1705.21 1681.09 1706.32 1680.89 1707.47 1680.89 1708.48 1680.89 1709.4 1680.99 1710.25 1681.19 1711.09 1681.39 1711.89 1681.79 1712.66 1682.39 1712.92 1681.42 1713.12 1680.6 1713.28 1679.92 1713.43 1679.24 1713.55 1678.61 1713.65 1678.04 1713.75 1677.46 1713.8 1676.98 1713.8 1676.6 1713.8 1676.28 1713.76 1676.01 1713.68 1675.8 1713.59 1675.59 1713.44 1675.41 1713.23 1675.27 1713.01 1675.13 1712.71 1675.03 1712.32 1674.97 1711.93 1674.91 1711.44 1674.87 1710.84 1674.84L1711.14 1673.27Z" fill-rule="evenodd"/><text fill="#000000" fill-opacity="0" font-family="Arial,Arial_MSFontService,sans-serif" font-size="31.7388" x="1662.64" y="1700.77">ğ‘›ğ‘‘</text><text font-family="Times New Roman,Times New Roman_MSFontService,sans-serif" font-weight="400" font-size="64" transform="matrix(1 0 0 1 1742.05 1728)">block</text></g></svg>