<svg width="3338" height="1064" xmlns="http://www.w3.org/2000/svg" xmlns:xlink="http://www.w3.org/1999/xlink" xml:space="preserve" overflow="hidden"><defs><clipPath id="clip0"><rect x="75" y="385" width="3338" height="1064"/></clipPath></defs><g clip-path="url(#clip0)" transform="translate(-75 -385)"><rect x="1639" y="597" width="406" height="406" stroke="#000000" stroke-width="13.75" stroke-miterlimit="8" fill="#FFFFFF"/><rect x="2758.5" y="405.5" width="470" height="471" stroke="#000000" stroke-width="4.58333" stroke-miterlimit="8" fill="#FFFFFF"/><rect x="2758.5" y="405.5" width="130" height="131" stroke="#000000" stroke-width="4.58333" stroke-miterlimit="8" fill="#FFFFFF"/><rect x="2799.5" y="559.5" width="470" height="471" stroke="#000000" stroke-width="4.58333" stroke-miterlimit="8" fill="#FFFFFF"/><rect x="2799.5" y="559.5" width="130" height="131" stroke="#000000" stroke-width="4.58333" stroke-miterlimit="8" fill="#FFFFFF"/><rect x="77.4998" y="555.5" width="784" height="784" stroke="#000000" stroke-width="4.58333" stroke-miterlimit="8" fill="none"/><rect x="724.5" y="732.5" width="137" height="137" stroke="#000000" stroke-width="4.58333" stroke-miterlimit="8" fill="none"/><rect x="724.5" y="869.5" width="137" height="138" stroke="#000000" stroke-width="4.58333" stroke-miterlimit="8" fill="none"/><rect x="586.5" y="732.5" width="138" height="137" stroke="#000000" stroke-width="4.58333" stroke-miterlimit="8" fill="none"/><rect x="586.5" y="869.5" width="138" height="138" stroke="#000000" stroke-width="4.58333" stroke-miterlimit="8" fill="none"/><rect x="1232.5" y="663.5" width="138" height="137" stroke="#000000" stroke-width="4.58333" stroke-miterlimit="8" fill="none"/><rect x="1232.5" y="800.5" width="138" height="138" stroke="#000000" stroke-width="4.58333" stroke-miterlimit="8" fill="none"/><rect x="1232.5" y="937.5" width="138" height="137" stroke="#000000" stroke-width="4.58333" stroke-miterlimit="8" fill="none"/><rect x="1232.5" y="1074.5" width="138" height="138" stroke="#000000" stroke-width="4.58333" stroke-miterlimit="8" fill="none"/><text font-family="Calibri Light,Calibri Light_MSFontService,sans-serif" font-weight="300" font-size="46" transform="translate(610.078 445)">Patch image</text><path d="M725.146 474 725.219 777.162 722.927 777.163 722.854 474ZM737.822 772.576 724.078 800.079 710.322 772.583Z"/><path d="M792 907.854 1209.08 907.854 1209.08 910.146 792 910.146ZM1204.5 895.25 1232 909 1204.5 922.75Z"/><text font-family="Calibri Light,Calibri Light_MSFontService,sans-serif" font-weight="300" font-size="46" transform="matrix(1 0 0 1 978.155 866)">Flatten</text><rect x="1686" y="734" width="406" height="406" stroke="#000000" stroke-width="13.75" stroke-miterlimit="8" fill="#FFFFFF"/><path d="M1365 908.854 1658.33 908.854 1658.33 911.146 1365 911.146ZM1653.75 896.25 1681.25 910 1653.75 923.75Z"/><text font-family="Calibri Light,Calibri Light_MSFontService,sans-serif" font-weight="300" font-size="46" transform="translate(1411.61 817)">Amplitude</text><text font-family="Calibri Light,Calibri Light_MSFontService,sans-serif" font-weight="300" font-size="46" transform="translate(1411.61 872)">Encoding</text><rect x="2423.5" y="663.5" width="138" height="137" stroke="#000000" stroke-width="4.58333" stroke-miterlimit="8" fill="none"/><rect x="2423.5" y="800.5" width="138" height="138" stroke="#000000" stroke-width="4.58333" stroke-miterlimit="8" fill="none"/><rect x="2423.5" y="937.5" width="138" height="137" stroke="#000000" stroke-width="4.58333" stroke-miterlimit="8" fill="none"/><rect x="2423.5" y="1074.5" width="138" height="138" stroke="#000000" stroke-width="4.58333" stroke-miterlimit="8" fill="none"/><path d="M2097 919.854 2390.33 919.854 2390.33 922.146 2097 922.146ZM2385.75 907.25 2413.25 921 2385.75 934.75Z"/><text font-family="Calibri Light,Calibri Light_MSFontService,sans-serif" font-weight="300" font-size="46" transform="matrix(1 0 0 1 2182.65 865)">Measure</text><path d="M2448.04 771.477C2447.01 752.164 2465.86 735.847 2490.14 735.031 2514.42 734.215 2534.94 749.21 2535.96 768.523 2536 769.211 2536.01 769.899 2535.99 770.586" stroke="#000000" stroke-width="2.29167" stroke-miterlimit="8" fill="none" fill-rule="evenodd"/><path d="M0.953418-0.635553 32.5 46.6887 30.5932 47.9598-0.953418 0.635553ZM40.4454 35.884 44.2577 66.3927 17.5634 51.1373Z" transform="matrix(1 0 0 -1 2492 770.393)"/><path d="M2448.04 910.477C2447.01 891.164 2465.86 874.847 2490.14 874.031 2514.42 873.216 2534.94 888.211 2535.96 907.523 2536 908.211 2536.01 908.899 2535.99 909.587" stroke="#000000" stroke-width="2.29167" stroke-miterlimit="8" fill="none" fill-rule="evenodd"/><path d="M0.953418-0.635553 32.5 46.6887 30.5932 47.9598-0.953418 0.635553ZM40.4454 35.884 44.2577 66.3927 17.5634 51.1373Z" transform="matrix(1 0 0 -1 2492 909.393)"/><path d="M2448.04 1047.48C2447.01 1028.16 2465.86 1011.85 2490.14 1011.03 2514.42 1010.22 2534.94 1025.21 2535.96 1044.52 2536 1045.21 2536.01 1045.9 2535.99 1046.59" stroke="#000000" stroke-width="2.29167" stroke-miterlimit="8" fill="none" fill-rule="evenodd"/><path d="M0.953418-0.635553 32.5 46.6887 30.5932 47.9598-0.953418 0.635553ZM40.4454 35.884 44.2577 66.3927 17.5634 51.1373Z" transform="matrix(1 0 0 -1 2492 1045.39)"/><path d="M2448.04 1178.98C2447.03 1159.39 2465.89 1142.85 2490.17 1142.03 2514.45 1141.21 2534.95 1156.43 2535.96 1176.02 2536 1176.71 2536.01 1177.4 2535.99 1178.09" stroke="#000000" stroke-width="2.29167" stroke-miterlimit="8" fill="none" fill-rule="evenodd"/><path d="M0.953418-0.635553 32.5 46.6887 30.5932 47.9598-0.953418 0.635553ZM40.4454 35.884 44.2577 66.3927 17.5634 51.1373Z" transform="matrix(1 0 0 -1 2492 1177.39)"/><rect x="2843.5" y="713.5" width="470" height="471" stroke="#000000" stroke-width="4.58333" stroke-miterlimit="8" fill="#FFFFFF"/><rect x="2843.5" y="713.5" width="130" height="130" stroke="#000000" stroke-width="4.58333" stroke-miterlimit="8" fill="#FFFFFF"/><rect x="2883.5" y="876.5" width="471" height="470" stroke="#000000" stroke-width="4.58333" stroke-miterlimit="8" fill="#FFFFFF"/><rect x="2883.5" y="876.5" width="131" height="130" stroke="#000000" stroke-width="4.58333" stroke-miterlimit="8" fill="#FFFFFF"/><path d="M0-1.14583 99.587-1.14583 99.587 261.005 98.4411 259.859 173.965 259.859 173.965 262.151 97.2953 262.151 97.2953 0 98.4411 1.14583 0 1.14583ZM169.382 247.255 196.882 261.005 169.382 274.755Z" transform="matrix(1 0 0 -1 2561 731.005)"/><path d="M0-1.14583 120.04-1.14583 120.04 244.579 118.895 243.433 214.872 243.433 214.872 245.724 117.749 245.724 117.749 0 118.895 1.14583 0 1.14583ZM210.289 230.829 237.789 244.579 210.289 258.329Z" transform="matrix(1 0 0 -1 2561 868.578)"/><path d="M0-1.14583 141.968-1.14583 141.968 227.292 140.823 226.146 258.728 226.146 258.728 228.438 139.677 228.438 139.677 0 140.823 1.14583 0 1.14583ZM254.145 213.542 281.645 227.292 254.145 241.042Z" transform="matrix(1 0 0 -1 2561 1005.29)"/><path d="M0-1.14583 162.422-1.14583 162.422 202.212 161.276 201.066 299.636 201.066 299.636 203.358 160.13 203.358 160.13 0 161.276 1.14583 0 1.14583ZM295.052 188.462 322.552 202.212 295.052 215.962Z" transform="matrix(1 0 0 -1 2561 1143.21)"/><rect x="1736" y="877" width="405" height="406" stroke="#000000" stroke-width="13.75" stroke-miterlimit="8" fill="#FFFFFF"/><path d="M1769.95 916.47 1784.28 916.47 1783.89 918.216C1782.98 918.407 1782.34 918.62 1781.94 918.858 1781.55 919.096 1781.2 919.452 1780.87 919.927 1780.55 920.403 1780.23 921.145 1779.91 922.155 1779.59 923.165 1779.18 924.811 1778.68 927.092L1774.23 947.053C1773.92 948.407 1773.67 949.697 1773.5 950.92 1773.32 952.144 1773.23 953.41 1773.23 954.716 1773.23 957.307 1773.86 959.267 1775.14 960.598 1776.41 961.929 1778.33 962.594 1780.89 962.594 1783.32 962.594 1785.34 962.095 1786.95 961.097 1788.57 960.099 1789.86 958.661 1790.84 956.784 1791.81 954.907 1792.63 952.471 1793.3 949.477L1798.25 927.056C1798.77 924.68 1799.04 922.767 1799.04 921.318 1799.04 920.201 1798.76 919.422 1798.2 918.983 1797.64 918.543 1796.75 918.288 1795.54 918.216L1795.93 916.47 1809.48 916.47 1809.09 918.216C1808.21 918.407 1807.56 918.626 1807.14 918.876 1806.73 919.125 1806.36 919.488 1806.04 919.963 1805.72 920.438 1805.4 921.187 1805.09 922.209 1804.79 923.23 1804.38 924.858 1803.88 927.092L1799.25 948.443C1798.32 952.697 1797.02 956.083 1795.33 958.602 1793.64 961.121 1791.53 962.938 1789 964.055 1786.47 965.172 1783.38 965.731 1779.72 965.731 1775.61 965.731 1772.46 964.739 1770.27 962.754 1768.08 960.77 1766.99 957.877 1766.99 954.075 1766.99 952.744 1767.13 951.217 1767.4 949.495 1767.67 947.772 1768.06 945.829 1768.56 943.667L1772.27 927.056C1772.81 924.609 1773.09 922.696 1773.09 921.318 1773.09 920.248 1772.81 919.482 1772.27 919.018 1771.72 918.555 1770.82 918.288 1769.56 918.216Z" fill-rule="evenodd"/><text fill="#000000" fill-opacity="0" font-family="Arial,Arial_MSFontService,sans-serif" font-size="49.2607" x="1766.99" y="959.573">ğ‘ˆ</text><path d="M1823.74 944.351 1825.16 944.351C1825.06 946.007 1825.01 948.301 1825.01 951.234L1825.01 973.335C1825.01 974.336 1825.06 975.09 1825.18 975.599 1825.29 976.108 1825.49 976.522 1825.77 976.841 1826.06 977.161 1826.47 977.411 1827 977.592 1827.54 977.773 1828.21 977.911 1829.02 978.006 1829.83 978.101 1830.9 978.166 1832.23 978.2L1832.23 980.089 1813.1 980.089 1813.1 978.2C1815.02 978.114 1816.39 977.997 1817.21 977.851 1818.02 977.704 1818.65 977.484 1819.08 977.191 1819.51 976.898 1819.83 976.484 1820.03 975.949 1820.22 975.414 1820.32 974.543 1820.32 973.335L1820.32 952.347C1820.32 951.657 1820.2 951.152 1819.96 950.833 1819.72 950.514 1819.37 950.354 1818.9 950.354 1818.35 950.354 1817.56 950.639 1816.55 951.208 1815.53 951.778 1814.27 952.563 1812.77 953.563L1811.63 951.571Z" fill-rule="evenodd"/><text fill="#000000" fill-opacity="0" font-family="Arial,Arial_MSFontService,sans-serif" font-size="35.7388" x="1811.63" y="975.622">1</text><path d="M1867.84 913.618 1868.8 916.363C1863.24 918.193 1859.13 921.763 1856.45 927.074 1853.78 932.385 1852.44 939.057 1852.44 947.089 1852.44 955.406 1853.78 962.261 1856.45 967.655 1859.13 973.05 1863.21 976.662 1868.7 978.491L1867.84 981.236C1860.88 979.406 1855.55 975.468 1851.84 969.42 1848.13 963.372 1846.28 956.047 1846.28 947.445 1846.28 938.867 1848.14 931.542 1851.86 925.47 1855.57 919.399 1860.9 915.448 1867.84 913.618Z" fill-rule="evenodd"/><text fill="#000000" fill-opacity="0" font-family="Arial,Arial_MSFontService,sans-serif" font-size="67.6177" x="1846.28" y="972.784">(</text><path d="M1885.41 942.49C1884.79 945.033 1884.35 947.445 1884.07 949.726 1883.8 952.008 1883.66 954.027 1883.66 955.786 1883.66 957.877 1883.98 959.433 1884.61 960.455 1885.24 961.477 1886.23 961.988 1887.58 961.988 1889.96 961.988 1892.2 960.313 1894.3 956.962 1896.41 953.612 1898.21 948.788 1899.7 942.49ZM1898.56 918.858C1896.14 918.858 1893.88 920.474 1891.77 923.706 1889.67 926.938 1887.87 931.702 1886.37 937.999L1900.67 937.999C1901.19 935.599 1901.6 933.389 1901.9 931.369 1902.19 929.349 1902.34 927.472 1902.34 925.737 1902.34 923.266 1902.05 921.502 1901.47 920.444 1900.89 919.387 1899.92 918.858 1898.56 918.858ZM1898.63 915.151C1903.01 915.151 1906.27 916.405 1908.44 918.912 1910.6 921.419 1911.68 925.179 1911.68 930.193 1911.68 933.71 1911.1 937.851 1909.95 942.615 1908.8 947.38 1907.17 951.514 1905.07 955.019 1902.97 958.525 1900.43 961.18 1897.46 962.986 1894.49 964.792 1891.14 965.695 1887.41 965.695 1883.06 965.695 1879.79 964.447 1877.6 961.952 1875.42 959.457 1874.33 955.81 1874.33 951.009 1874.33 947.493 1874.89 943.334 1876.02 938.534 1877.15 933.734 1878.76 929.563 1880.85 926.023 1882.94 922.482 1885.47 919.785 1888.44 917.931 1891.41 916.078 1894.81 915.151 1898.63 915.151Z" fill-rule="evenodd"/><text fill="#000000" fill-opacity="0" font-family="Arial,Arial_MSFontService,sans-serif" font-size="50.5439" x="1874.33" y="959.377">ğœ½</text><path d="M1918.38 913.618C1925.32 915.448 1930.64 919.399 1934.36 925.47 1938.08 931.542 1939.94 938.867 1939.94 947.445 1939.94 956.047 1938.09 963.372 1934.38 969.42 1930.67 975.468 1925.34 979.406 1918.38 981.236L1917.52 978.491C1923.01 976.662 1927.09 973.05 1929.76 967.655 1932.44 962.261 1933.77 955.406 1933.77 947.089 1933.77 939.057 1932.44 932.385 1929.78 927.074 1927.12 921.763 1923 918.193 1917.41 916.363Z" fill-rule="evenodd"/><text fill="#000000" fill-opacity="0" font-family="Arial,Arial_MSFontService,sans-serif" font-size="67.6177" x="1917.41" y="972.784">)</text><path d="M1730.4 770.341 1744.73 770.341 1744.34 772.088C1743.44 772.278 1742.79 772.492 1742.4 772.729 1742.01 772.967 1741.65 773.323 1741.33 773.799 1741.01 774.274 1740.69 775.016 1740.37 776.026 1740.05 777.036 1739.64 778.682 1739.14 780.963L1734.68 800.924C1734.37 802.279 1734.13 803.568 1733.95 804.791 1733.77 806.015 1733.68 807.281 1733.68 808.588 1733.68 811.178 1734.32 813.138 1735.59 814.469 1736.86 815.8 1738.78 816.465 1741.35 816.465 1743.77 816.465 1745.79 815.966 1747.41 814.968 1749.02 813.97 1750.32 812.532 1751.29 810.655 1752.27 808.778 1753.09 806.342 1753.75 803.348L1758.71 780.927C1759.23 778.551 1759.49 776.638 1759.49 775.189 1759.49 774.072 1759.21 773.294 1758.65 772.854 1758.09 772.414 1757.21 772.159 1756 772.088L1756.39 770.341 1769.93 770.341 1769.54 772.088C1768.66 772.278 1768.02 772.497 1767.6 772.747 1767.18 772.997 1766.82 773.359 1766.49 773.834 1766.17 774.309 1765.86 775.058 1765.55 776.08 1765.24 777.102 1764.84 778.729 1764.34 780.963L1759.7 802.314C1758.78 806.568 1757.47 809.954 1755.78 812.473 1754.1 814.992 1751.99 816.81 1749.46 817.926 1746.93 819.043 1743.83 819.602 1740.17 819.602 1736.06 819.602 1732.91 818.61 1730.73 816.625 1728.54 814.641 1727.45 811.748 1727.45 807.946 1727.45 806.615 1727.58 805.089 1727.86 803.366 1728.13 801.643 1728.52 799.7 1729.01 797.538L1732.72 780.927C1733.27 778.48 1733.54 776.567 1733.54 775.189 1733.54 774.119 1733.27 773.353 1732.72 772.89 1732.17 772.426 1731.27 772.159 1730.01 772.088Z" fill-rule="evenodd"/><text fill="#000000" fill-opacity="0" font-family="Arial,Arial_MSFontService,sans-serif" font-size="49.2607" x="1727.45" y="813.444">ğ‘ˆ</text><path d="M1782.93 800.447C1784.72 800.447 1786.25 800.65 1787.52 801.055 1788.79 801.461 1789.82 802.009 1790.61 802.699 1791.41 803.389 1791.98 804.217 1792.33 805.183 1792.69 806.149 1792.86 807.193 1792.86 808.314 1792.86 808.987 1792.82 809.613 1792.72 810.191 1792.63 810.769 1792.46 811.338 1792.23 811.899 1792 812.459 1791.69 813.024 1791.31 813.594 1790.93 814.163 1790.46 814.767 1789.89 815.405 1789.46 815.957 1788.9 816.596 1788.21 817.32 1787.52 818.045 1786.76 818.821 1785.94 819.649 1785.12 820.477 1784.26 821.34 1783.37 822.237 1782.47 823.134 1781.6 824.023 1780.75 824.903 1779.91 825.783 1779.13 826.637 1778.42 827.465 1777.72 828.293 1777.14 829.052 1776.69 829.742L1786.26 829.742C1787.08 829.742 1787.72 829.712 1788.21 829.652 1788.69 829.591 1789.09 829.457 1789.41 829.25 1789.73 829.043 1790 828.729 1790.22 828.306 1790.45 827.883 1790.71 827.301 1791 826.559L1793.41 826.559C1793.32 827.784 1793.24 829.018 1793.16 830.26 1793.08 831.502 1793 832.735 1792.92 833.96L1771 833.96 1771 832.615C1771.41 831.683 1771.89 830.764 1772.45 829.859 1773 828.953 1773.62 828.034 1774.31 827.102 1775 826.171 1775.78 825.209 1776.66 824.217 1777.54 823.225 1778.52 822.194 1779.59 821.124 1781.21 819.503 1782.53 818.118 1783.55 816.971 1784.57 815.824 1785.37 814.801 1785.95 813.904 1786.54 813.007 1786.94 812.179 1787.16 811.42 1787.37 810.661 1787.48 809.85 1787.48 808.987 1787.48 808.107 1787.36 807.297 1787.11 806.555 1786.86 805.813 1786.5 805.183 1786.03 804.665 1785.57 804.148 1784.98 803.742 1784.26 803.449 1783.54 803.156 1782.72 803.009 1781.79 803.009 1780.18 803.009 1778.84 803.445 1777.75 804.316 1776.66 805.187 1775.82 806.451 1775.21 808.107L1771.82 808.107 1771.82 803.061C1774.03 802.147 1776.06 801.482 1777.92 801.068 1779.77 800.654 1781.44 800.447 1782.93 800.447Z" fill-rule="evenodd"/><text fill="#000000" fill-opacity="0" font-family="Arial,Arial_MSFontService,sans-serif" font-size="33.5132" x="1771" y="829.771">2</text><path d="M1829.44 767.489 1830.41 770.234C1824.84 772.064 1820.73 775.634 1818.05 780.945 1815.38 786.256 1814.04 792.928 1814.04 800.96 1814.04 809.277 1815.38 816.132 1818.05 821.527 1820.73 826.921 1824.81 830.533 1830.3 832.362L1829.44 835.107C1822.48 833.277 1817.15 829.339 1813.44 823.291 1809.73 817.243 1807.88 809.918 1807.88 801.316 1807.88 792.738 1809.74 785.413 1813.46 779.341 1817.18 773.27 1822.5 769.319 1829.44 767.489Z" fill-rule="evenodd"/><text fill="#000000" fill-opacity="0" font-family="Arial,Arial_MSFontService,sans-serif" font-size="67.6177" x="1807.88" y="826.655">(</text><path d="M1847.01 796.362C1846.39 798.904 1845.95 801.316 1845.67 803.597 1845.4 805.879 1845.26 807.898 1845.26 809.657 1845.26 811.748 1845.58 813.305 1846.21 814.326 1846.84 815.348 1847.83 815.859 1849.19 815.859 1851.56 815.859 1853.8 814.184 1855.9 810.833 1858.01 807.483 1859.81 802.659 1861.3 796.362ZM1860.16 772.729C1857.74 772.729 1855.48 774.345 1853.37 777.577 1851.27 780.809 1849.47 785.573 1847.97 791.87L1862.27 791.87C1862.79 789.47 1863.2 787.26 1863.5 785.24 1863.79 783.221 1863.94 781.343 1863.94 779.609 1863.94 777.137 1863.65 775.373 1863.07 774.315 1862.49 773.258 1861.52 772.729 1860.16 772.729ZM1860.24 769.022C1864.61 769.022 1867.88 770.276 1870.04 772.783 1872.2 775.29 1873.28 779.05 1873.28 784.064 1873.28 787.581 1872.7 791.722 1871.55 796.486 1870.4 801.251 1868.77 805.385 1866.67 808.891 1864.57 812.396 1862.03 815.051 1859.06 816.857 1856.09 818.663 1852.74 819.566 1849.01 819.566 1844.66 819.566 1841.39 818.319 1839.21 815.823 1837.02 813.328 1835.93 809.681 1835.93 804.881 1835.93 801.364 1836.49 797.205 1837.62 792.405 1838.75 787.605 1840.36 783.434 1842.45 779.894 1844.54 776.353 1847.07 773.656 1850.04 771.802 1853.01 769.949 1856.41 769.022 1860.24 769.022Z" fill-rule="evenodd"/><text fill="#000000" fill-opacity="0" font-family="Arial,Arial_MSFontService,sans-serif" font-size="50.5439" x="1835.93" y="813.248">ğœ½</text><path d="M1879.98 767.489C1886.92 769.319 1892.24 773.27 1895.96 779.341 1899.68 785.413 1901.54 792.738 1901.54 801.316 1901.54 809.918 1899.69 817.243 1895.98 823.291 1892.27 829.339 1886.94 833.277 1879.98 835.107L1879.12 832.362C1884.61 830.533 1888.69 826.921 1891.37 821.527 1894.04 816.132 1895.38 809.277 1895.38 800.96 1895.38 792.928 1894.04 786.256 1891.38 780.945 1888.72 775.634 1884.6 772.064 1879.01 770.234Z" fill-rule="evenodd"/><text fill="#000000" fill-opacity="0" font-family="Arial,Arial_MSFontService,sans-serif" font-size="67.6177" x="1879.01" y="826.655">)</text><path d="M1672.51 635.395 1686.84 635.395 1686.45 637.141C1685.55 637.331 1684.9 637.545 1684.51 637.783 1684.11 638.021 1683.76 638.377 1683.44 638.852 1683.12 639.328 1682.8 640.07 1682.47 641.08 1682.15 642.09 1681.74 643.736 1681.24 646.017L1676.79 665.978C1676.48 667.332 1676.24 668.621 1676.06 669.845 1675.88 671.069 1675.79 672.334 1675.79 673.641 1675.79 676.231 1676.43 678.192 1677.7 679.523 1678.97 680.853 1680.89 681.519 1683.45 681.519 1685.88 681.519 1687.9 681.02 1689.51 680.022 1691.13 679.024 1692.43 677.586 1693.4 675.709 1694.37 673.831 1695.19 671.396 1695.86 668.402L1700.81 645.981C1701.34 643.605 1701.6 641.692 1701.6 640.242 1701.6 639.125 1701.32 638.347 1700.76 637.908 1700.2 637.468 1699.32 637.213 1698.1 637.141L1698.5 635.395 1712.04 635.395 1711.65 637.141C1710.77 637.331 1710.12 637.551 1709.71 637.801 1709.29 638.05 1708.92 638.413 1708.6 638.888 1708.28 639.363 1707.97 640.112 1707.66 641.133 1707.35 642.155 1706.94 643.783 1706.45 646.017L1701.81 667.368C1700.89 671.621 1699.58 675.008 1697.89 677.527 1696.2 680.045 1694.09 681.863 1691.56 682.98 1689.03 684.097 1685.94 684.655 1682.28 684.655 1678.17 684.655 1675.02 683.663 1672.83 681.679 1670.65 679.695 1669.55 676.802 1669.55 673 1669.55 671.669 1669.69 670.142 1669.96 668.419 1670.24 666.697 1670.62 664.754 1671.12 662.591L1674.83 645.981C1675.38 643.534 1675.65 641.621 1675.65 640.242 1675.65 639.173 1675.38 638.407 1674.83 637.943 1674.28 637.48 1673.38 637.213 1672.12 637.141Z" fill-rule="evenodd"/><text fill="#000000" fill-opacity="0" font-family="Arial,Arial_MSFontService,sans-serif" font-size="49.2607" x="1669.55" y="678.498">ğ‘ˆ</text><path d="M1724.36 663.275C1726.31 663.275 1728.02 663.577 1729.49 664.181 1730.95 664.785 1732.07 665.652 1732.85 666.782 1733.63 667.912 1734.01 669.262 1734.01 670.832 1734.01 672.298 1733.72 673.588 1733.13 674.701 1732.55 675.814 1731.72 676.784 1730.66 677.612 1729.6 678.44 1728.23 679.251 1726.54 680.045L1726.54 680.278C1727.59 680.467 1728.6 680.791 1729.58 681.248 1730.55 681.705 1731.42 682.296 1732.18 683.021 1732.94 683.745 1733.54 684.612 1734 685.622 1734.46 686.631 1734.69 687.783 1734.69 689.077 1734.69 691.078 1734.25 692.855 1733.38 694.408 1732.51 695.96 1731.18 697.185 1729.38 698.082 1727.59 698.98 1725.41 699.428 1722.83 699.428 1721.35 699.428 1719.75 699.26 1718.03 698.923 1716.32 698.587 1714.74 698.143 1713.31 697.591L1713.31 692.104 1716.42 692.104C1717.02 693.899 1717.82 695.201 1718.81 696.012 1719.8 696.823 1721.15 697.228 1722.86 697.228 1725.1 697.228 1726.8 696.616 1727.95 695.391 1729.09 694.166 1729.67 692.355 1729.67 689.956 1729.67 687.438 1728.91 685.514 1727.39 684.185 1725.87 682.857 1723.65 682.193 1720.71 682.193L1718.38 682.193 1718.38 679.915C1720.71 679.777 1722.67 679.329 1724.27 678.57 1725.87 677.811 1727.05 676.836 1727.83 675.645 1728.61 674.455 1728.99 673.118 1728.99 671.634 1728.99 669.719 1728.48 668.244 1727.47 667.209 1726.45 666.174 1724.97 665.656 1723.02 665.656 1721.39 665.656 1720.07 666.096 1719.06 666.976 1718.04 667.856 1717.29 669.202 1716.8 671.013L1713.7 671.013 1713.7 666.096C1715.7 665.147 1717.57 664.44 1719.31 663.974 1721.06 663.508 1722.74 663.275 1724.36 663.275Z" fill-rule="evenodd"/><text fill="#000000" fill-opacity="0" font-family="Arial,Arial_MSFontService,sans-serif" font-size="36.1528" x="1713.31" y="694.909">3</text><path d="M1770.41 632.543 1771.37 635.288C1765.81 637.118 1761.69 640.688 1759.02 645.999 1756.34 651.31 1755.01 657.981 1755.01 666.013 1755.01 674.33 1756.34 681.186 1759.02 686.58 1761.69 691.974 1765.77 695.586 1771.26 697.416L1770.41 700.161C1763.44 698.331 1758.11 694.392 1754.4 688.345 1750.69 682.297 1748.84 674.972 1748.84 666.37 1748.84 657.791 1750.7 650.466 1754.42 644.395 1758.14 638.323 1763.47 634.373 1770.41 632.543Z" fill-rule="evenodd"/><text fill="#000000" fill-opacity="0" font-family="Arial,Arial_MSFontService,sans-serif" font-size="67.6177" x="1748.84" y="691.709">(</text><path d="M1787.97 661.415C1787.36 663.958 1786.91 666.37 1786.64 668.651 1786.36 670.932 1786.23 672.952 1786.23 674.711 1786.23 676.802 1786.54 678.358 1787.17 679.38 1787.8 680.402 1788.79 680.913 1790.15 680.913 1792.52 680.913 1794.76 679.237 1796.87 675.887 1798.97 672.536 1800.77 667.712 1802.27 661.415ZM1801.13 637.783C1798.7 637.783 1796.44 639.399 1794.34 642.631 1792.23 645.862 1790.43 650.627 1788.94 656.924L1803.23 656.924C1803.75 654.524 1804.16 652.314 1804.46 650.294 1804.76 648.274 1804.9 646.397 1804.9 644.662 1804.9 642.191 1804.61 640.427 1804.03 639.369 1803.45 638.312 1802.48 637.783 1801.13 637.783ZM1801.2 634.076C1805.57 634.076 1808.84 635.329 1811 637.836 1813.16 640.343 1814.24 644.104 1814.24 649.118 1814.24 652.635 1813.67 656.776 1812.51 661.54 1811.36 666.304 1809.73 670.439 1807.63 673.944 1805.53 677.449 1802.99 680.105 1800.02 681.911 1797.05 683.717 1793.7 684.62 1789.97 684.62 1785.62 684.62 1782.35 683.372 1780.17 680.877 1777.98 678.382 1776.89 674.734 1776.89 669.934 1776.89 666.417 1777.45 662.259 1778.58 657.459 1779.71 652.659 1781.32 648.488 1783.41 644.947 1785.5 641.407 1788.03 638.71 1791 636.856 1793.97 635.003 1797.37 634.076 1801.2 634.076Z" fill-rule="evenodd"/><text fill="#000000" fill-opacity="0" font-family="Arial,Arial_MSFontService,sans-serif" font-size="50.5439" x="1776.89" y="678.302">ğœ½</text><path d="M1820.94 632.543C1827.88 634.373 1833.21 638.323 1836.93 644.395 1840.64 650.466 1842.5 657.791 1842.5 666.37 1842.5 674.972 1840.65 682.297 1836.94 688.345 1833.24 694.392 1827.9 698.331 1820.94 700.161L1820.08 697.416C1825.57 695.586 1829.65 691.974 1832.33 686.58 1835 681.186 1836.34 674.33 1836.34 666.013 1836.34 657.981 1835.01 651.31 1832.35 645.999 1829.68 640.688 1825.56 637.118 1819.98 635.288Z" fill-rule="evenodd"/><text fill="#000000" fill-opacity="0" font-family="Arial,Arial_MSFontService,sans-serif" font-size="67.6177" x="1819.98" y="691.709">)</text><rect x="920.5" y="478.5" width="1676" height="865" stroke="#000000" stroke-width="4.58333" stroke-miterlimit="8" stroke-dasharray="18.3333 13.75" fill="none"/><text font-family="Calibri Light,Calibri Light_MSFontService,sans-serif" font-weight="300" font-size="46" transform="translate(349.594 1406)">Input: image</text><text font-family="Calibri Light,Calibri Light_MSFontService,sans-serif" font-weight="300" font-size="46" transform="translate(1632.98 1408)">Quantum filter</text><text font-family="Calibri Light,Calibri Light_MSFontService,sans-serif" font-weight="300" font-size="46" transform="matrix(1 0 0 1 2868.97 1409)">Output: feature maps</text></g></svg>