<?xml version="1.0" encoding="utf-8" standalone="no"?>
<!DOCTYPE svg PUBLIC "-//W3C//DTD SVG 1.1//EN"
  "http://www.w3.org/Graphics/SVG/1.1/DTD/svg11.dtd">
<svg xmlns:xlink="http://www.w3.org/1999/xlink" width="460.8pt" height="345.6pt" viewBox="0 0 460.8 345.6" xmlns="http://www.w3.org/2000/svg" version="1.1">
 <metadata>
  <rdf:RDF xmlns:dc="http://purl.org/dc/elements/1.1/" xmlns:cc="http://creativecommons.org/ns#" xmlns:rdf="http://www.w3.org/1999/02/22-rdf-syntax-ns#">
   <cc:Work>
    <dc:type rdf:resource="http://purl.org/dc/dcmitype/StillImage"/>
    <dc:date>2023-01-06T09:17:45.361422</dc:date>
    <dc:format>image/svg+xml</dc:format>
    <dc:creator>
     <cc:Agent>
      <dc:title>Matplotlib v3.6.2, https://matplotlib.org/</dc:title>
     </cc:Agent>
    </dc:creator>
   </cc:Work>
  </rdf:RDF>
 </metadata>
 <defs>
  <style type="text/css">*{stroke-linejoin: round; stroke-linecap: butt}</style>
 </defs>
 <g id="figure_1">
  <g id="patch_1">
   <path d="M 0 345.6 
L 460.8 345.6 
L 460.8 0 
L 0 0 
z
" style="fill: #ffffff"/>
  </g>
  <g id="axes_1">
   <g id="patch_2">
    <path d="M 57.6 307.584 
L 414.72 307.584 
L 414.72 41.472 
L 57.6 41.472 
z
" style="fill: #ffffff"/>
   </g>
   <g id="PolyCollection_1">
    <path d="M 73.832727 170.175341 
L 73.832727 214.784661 
L 77.112066 188.359675 
L 80.391405 179.370619 
L 83.670744 173.34612 
L 86.950083 168.912279 
L 90.229421 163.612129 
L 93.50876 160.200054 
L 96.788099 158.519135 
L 100.067438 155.863499 
L 103.346777 153.807868 
L 106.626116 151.803922 
L 109.905455 150.504625 
L 113.184793 149.107004 
L 116.464132 147.894721 
L 119.743471 147.430506 
L 123.02281 145.629421 
L 126.302149 144.217876 
L 129.581488 144.237558 
L 132.860826 143.139826 
L 136.140165 141.311335 
L 139.419504 140.531335 
L 142.698843 140.121335 
L 145.978182 139.535538 
L 149.257521 139.20186 
L 152.53686 137.926645 
L 155.816198 137.68931 
L 159.095537 136.634545 
L 162.374876 136.743797 
L 165.654215 135.746155 
L 168.933554 134.667596 
L 172.212893 134.035115 
L 175.492231 133.903459 
L 178.77157 133.616402 
L 182.050909 132.183968 
L 185.330248 131.790312 
L 188.609587 131.849366 
L 191.888926 130.989975 
L 195.168264 130.65342 
L 198.447603 131.175577 
L 201.726942 129.628968 
L 205.006281 129.76367 
L 208.28562 129.912651 
L 211.564959 128.827143 
L 214.844298 129.302184 
L 218.123636 128.537944 
L 221.402975 128.332304 
L 224.682314 127.682352 
L 227.961653 127.644459 
L 231.240992 127.311884 
L 234.520331 126.419471 
L 237.799669 127.490036 
L 241.079008 127.332234 
L 244.358347 126.653903 
L 247.637686 126.093389 
L 250.917025 126.1566 
L 254.196364 126.134488 
L 257.475702 125.732907 
L 260.755041 126.075909 
L 264.03438 125.444913 
L 267.313719 125.445388 
L 270.593058 124.723561 
L 273.872397 124.891672 
L 277.151736 125.33435 
L 280.431074 125.122628 
L 283.710413 124.655749 
L 286.989752 124.211246 
L 290.269091 124.661098 
L 293.54843 124.254226 
L 296.827769 123.979237 
L 300.107107 124.183322 
L 303.386446 124.232276 
L 306.665785 123.755257 
L 309.945124 123.938624 
L 313.224463 123.843133 
L 316.503802 123.286687 
L 319.78314 123.119523 
L 323.062479 123.079032 
L 326.341818 122.534526 
L 329.621157 123.257241 
L 332.900496 123.695341 
L 336.179835 123.250911 
L 339.459174 123.004671 
L 342.738512 122.584299 
L 346.017851 122.831748 
L 349.29719 122.538876 
L 352.576529 122.526273 
L 355.855868 122.603928 
L 359.135207 122.702192 
L 362.414545 122.065844 
L 365.693884 121.961982 
L 368.973223 122.198593 
L 372.252562 122.806921 
L 375.531901 121.996103 
L 378.81124 121.854312 
L 382.090579 121.828723 
L 385.369917 122.164083 
L 388.649256 121.510911 
L 391.928595 121.873801 
L 395.207934 121.614782 
L 398.487273 122.004779 
L 398.487273 26.981462 
L 398.487273 26.981462 
L 395.207934 26.336574 
L 391.928595 26.668916 
L 388.649256 26.187002 
L 385.369917 27.202316 
L 382.090579 26.735113 
L 378.81124 26.751773 
L 375.531901 26.821173 
L 372.252562 28.122355 
L 368.973223 27.167803 
L 365.693884 26.897534 
L 362.414545 27.194952 
L 359.135207 28.142607 
L 355.855868 27.712869 
L 352.576529 27.684925 
L 349.29719 27.672322 
L 346.017851 28.076412 
L 342.738512 27.753619 
L 339.459174 28.241407 
L 336.179835 28.924451 
L 332.900496 29.641622 
L 329.621157 28.939238 
L 326.341818 27.761154 
L 323.062479 28.167048 
L 319.78314 28.654555 
L 316.503802 28.804189 
L 313.224463 29.789508 
L 309.945124 29.503934 
L 306.665785 29.32826 
L 303.386446 30.245164 
L 300.107107 30.294124 
L 296.827769 29.653404 
L 293.54843 30.434414 
L 290.269091 30.787864 
L 286.989752 30.181716 
L 283.710413 30.687612 
L 280.431074 31.487934 
L 277.151736 31.888695 
L 273.872397 31.127531 
L 270.593058 30.978843 
L 267.313719 31.777649 
L 264.03438 31.989329 
L 260.755041 32.815614 
L 257.475702 32.208218 
L 254.196364 33.116074 
L 250.917025 33.220683 
L 247.637686 32.945975 
L 244.358347 33.821619 
L 241.079008 34.87513 
L 237.799669 35.097487 
L 234.520331 33.337972 
L 231.240992 34.325237 
L 227.961653 35.259863 
L 224.682314 35.53877 
L 221.402975 36.40946 
L 218.123636 36.837418 
L 214.844298 37.931736 
L 211.564959 36.822781 
L 208.28562 38.461746 
L 205.006281 38.42065 
L 201.726942 38.534232 
L 198.447603 40.176745 
L 195.168264 39.896339 
L 191.888926 40.298986 
L 188.609587 41.805031 
L 185.330248 41.695127 
L 182.050909 42.082909 
L 178.77157 44.388715 
L 175.492231 44.58742 
L 172.212893 44.941524 
L 168.933554 46.463286 
L 165.654215 47.264404 
L 162.374876 49.181327 
L 159.095537 49.037135 
L 155.816198 50.664609 
L 152.53686 51.081996 
L 149.257521 52.974779 
L 145.978182 53.570382 
L 142.698843 54.822021 
L 139.419504 55.721463 
L 136.140165 56.314262 
L 132.860826 58.942093 
L 129.581488 60.780039 
L 126.302149 60.694123 
L 123.02281 62.936337 
L 119.743471 65.887253 
L 116.464132 66.669124 
L 113.184793 68.033477 
L 109.905455 70.712016 
L 106.626116 72.834157 
L 103.346777 75.645573 
L 100.067438 78.743221 
L 96.788099 82.909347 
L 93.50876 85.917065 
L 90.229421 91.12195 
L 86.950083 99.021802 
L 83.670744 107.450042 
L 80.391405 117.28666 
L 77.112066 131.170568 
L 73.832727 170.175341 
z
" clip-path="url(#p3cc8a71506)" style="fill: #1f77b4; fill-opacity: 0.2"/>
   </g>
   <g id="PolyCollection_2">
    <path d="M 73.832727 150.611072 
L 73.832727 156.437243 
L 77.112066 113.681694 
L 80.391405 98.735302 
L 83.670744 91.958425 
L 86.950083 87.623881 
L 90.229421 85.048133 
L 93.50876 82.136085 
L 96.788099 82.584418 
L 100.067438 80.747896 
L 103.346777 80.641865 
L 106.626116 78.018023 
L 109.905455 79.370535 
L 113.184793 76.58201 
L 116.464132 74.533879 
L 119.743471 75.319946 
L 123.02281 75.090658 
L 126.302149 72.548423 
L 129.581488 71.879077 
L 132.860826 71.767824 
L 136.140165 73.196758 
L 139.419504 71.121635 
L 142.698843 68.932088 
L 145.978182 68.340182 
L 149.257521 70.507584 
L 152.53686 68.254332 
L 155.816198 68.408687 
L 159.095537 65.912467 
L 162.374876 68.003712 
L 165.654215 70.409651 
L 168.933554 67.164871 
L 172.212893 65.66716 
L 175.492231 66.234609 
L 178.77157 65.449125 
L 182.050909 64.585613 
L 185.330248 65.578269 
L 188.609587 65.300255 
L 191.888926 65.430997 
L 195.168264 66.510258 
L 198.447603 63.982946 
L 201.726942 63.232422 
L 205.006281 63.472499 
L 208.28562 64.467061 
L 211.564959 62.421508 
L 214.844298 63.166089 
L 218.123636 64.830255 
L 221.402975 65.59268 
L 224.682314 62.007462 
L 227.961653 62.743917 
L 231.240992 62.471642 
L 234.520331 62.796893 
L 237.799669 62.545567 
L 241.079008 65.285888 
L 244.358347 61.275229 
L 247.637686 60.252918 
L 250.917025 60.730833 
L 254.196364 60.708228 
L 257.475702 63.183393 
L 260.755041 62.4408 
L 264.03438 63.093439 
L 267.313719 61.997492 
L 270.593058 61.803426 
L 273.872397 60.466399 
L 277.151736 60.867783 
L 280.431074 62.659023 
L 283.710413 60.816539 
L 286.989752 60.499202 
L 290.269091 59.707511 
L 293.54843 59.707865 
L 296.827769 59.595707 
L 300.107107 59.982295 
L 303.386446 62.01458 
L 306.665785 61.623144 
L 309.945124 60.294101 
L 313.224463 60.915211 
L 316.503802 59.643797 
L 319.78314 59.98738 
L 323.062479 59.374793 
L 326.341818 60.480224 
L 329.621157 59.78873 
L 332.900496 60.386209 
L 336.179835 60.623433 
L 339.459174 60.845383 
L 342.738512 60.15665 
L 346.017851 59.883465 
L 349.29719 59.495855 
L 352.576529 59.108889 
L 355.855868 59.45837 
L 359.135207 60.381857 
L 362.414545 59.381755 
L 365.693884 59.144078 
L 368.973223 58.996219 
L 372.252562 58.953148 
L 375.531901 58.973087 
L 378.81124 59.195145 
L 382.090579 60.734911 
L 385.369917 58.565464 
L 388.649256 60.073382 
L 391.928595 59.576531 
L 395.207934 58.642314 
L 398.487273 58.971207 
L 398.487273 55.948467 
L 398.487273 55.948467 
L 395.207934 55.87608 
L 391.928595 55.533224 
L 388.649256 55.479892 
L 385.369917 55.72061 
L 382.090579 55.135163 
L 378.81124 55.977968 
L 375.531901 55.629787 
L 372.252562 55.797566 
L 368.973223 55.226495 
L 365.693884 55.902316 
L 362.414545 56.551678 
L 359.135207 56.607576 
L 355.855868 55.524664 
L 352.576529 55.684065 
L 349.29719 55.761738 
L 346.017851 56.092208 
L 342.738512 55.734544 
L 339.459174 56.27077 
L 336.179835 56.070321 
L 332.900496 56.201944 
L 329.621157 55.827903 
L 326.341818 56.593688 
L 323.062479 56.051762 
L 319.78314 56.643012 
L 316.503802 56.627556 
L 313.224463 57.003503 
L 309.945124 57.41341 
L 306.665785 57.605009 
L 303.386446 55.840777 
L 300.107107 56.352419 
L 296.827769 56.675645 
L 293.54843 56.415649 
L 290.269091 56.584962 
L 286.989752 56.891511 
L 283.710413 56.447454 
L 280.431074 57.730727 
L 277.151736 56.881971 
L 273.872397 57.346712 
L 270.593058 56.495449 
L 267.313719 56.047943 
L 264.03438 57.359676 
L 260.755041 56.935196 
L 257.475702 56.361564 
L 254.196364 56.238965 
L 250.917025 56.026282 
L 247.637686 56.630915 
L 244.358347 57.995162 
L 241.079008 58.820989 
L 237.799669 58.56227 
L 234.520331 57.888543 
L 231.240992 57.559071 
L 227.961653 57.160078 
L 224.682314 57.685333 
L 221.402975 57.437075 
L 218.123636 57.671504 
L 214.844298 57.308148 
L 211.564959 57.33465 
L 208.28562 57.422215 
L 205.006281 58.057736 
L 201.726942 57.833171 
L 198.447603 57.990812 
L 195.168264 57.744462 
L 191.888926 58.591404 
L 188.609587 58.912225 
L 185.330248 60.091491 
L 182.050909 59.54239 
L 178.77157 59.080152 
L 175.492231 60.047632 
L 172.212893 59.622442 
L 168.933554 60.532413 
L 165.654215 61.06811 
L 162.374876 60.62285 
L 159.095537 60.79218 
L 155.816198 60.978196 
L 152.53686 62.082953 
L 149.257521 61.878338 
L 145.978182 61.279018 
L 142.698843 62.376714 
L 139.419504 64.305567 
L 136.140165 64.701484 
L 132.860826 62.877938 
L 129.581488 65.998045 
L 126.302149 65.201979 
L 123.02281 66.947102 
L 119.743471 67.414774 
L 116.464132 68.116358 
L 113.184793 68.454789 
L 109.905455 69.721306 
L 106.626116 70.038936 
L 103.346777 70.414135 
L 100.067438 71.870984 
L 96.788099 72.885665 
L 93.50876 74.706792 
L 90.229421 76.356669 
L 86.950083 79.567802 
L 83.670744 83.237734 
L 80.391405 90.737981 
L 77.112066 106.605668 
L 73.832727 150.611072 
z
" clip-path="url(#p3cc8a71506)" style="fill: #ff7f0e; fill-opacity: 0.2"/>
   </g>
   <g id="PolyCollection_3">
    <path d="M 73.832727 144.493215 
L 73.832727 149.165029 
L 77.112066 120.26437 
L 80.391405 112.159856 
L 83.670744 106.610621 
L 86.950083 102.493291 
L 90.229421 98.046588 
L 93.50876 94.571185 
L 96.788099 90.705934 
L 100.067438 88.780384 
L 103.346777 88.400342 
L 106.626116 83.888336 
L 109.905455 82.923012 
L 113.184793 82.936237 
L 116.464132 80.481334 
L 119.743471 79.682576 
L 123.02281 79.778997 
L 126.302149 76.110819 
L 129.581488 76.146647 
L 132.860826 75.265171 
L 136.140165 74.579676 
L 139.419504 75.52403 
L 142.698843 74.851603 
L 145.978182 74.011903 
L 149.257521 71.328159 
L 152.53686 72.304425 
L 155.816198 71.79208 
L 159.095537 71.126862 
L 162.374876 76.213381 
L 165.654215 70.739248 
L 168.933554 68.840193 
L 172.212893 67.077171 
L 175.492231 69.456229 
L 178.77157 67.945968 
L 182.050909 66.219857 
L 185.330248 67.639987 
L 188.609587 67.04274 
L 191.888926 66.146963 
L 195.168264 65.195021 
L 198.447603 67.352927 
L 201.726942 64.724269 
L 205.006281 66.02142 
L 208.28562 66.968725 
L 211.564959 66.401095 
L 214.844298 65.879524 
L 218.123636 64.208534 
L 221.402975 63.046291 
L 224.682314 62.992849 
L 227.961653 64.860476 
L 231.240992 65.918829 
L 234.520331 63.793327 
L 237.799669 64.855871 
L 241.079008 63.549186 
L 244.358347 62.737505 
L 247.637686 62.805327 
L 250.917025 62.25344 
L 254.196364 62.810051 
L 257.475702 65.430004 
L 260.755041 62.799371 
L 264.03438 62.164687 
L 267.313719 62.933465 
L 270.593058 62.513334 
L 273.872397 61.566011 
L 277.151736 60.395986 
L 280.431074 61.752053 
L 283.710413 62.60058 
L 286.989752 62.104503 
L 290.269091 61.501711 
L 293.54843 61.427575 
L 296.827769 60.40144 
L 300.107107 61.657523 
L 303.386446 61.629131 
L 306.665785 61.394833 
L 309.945124 61.643058 
L 313.224463 60.877211 
L 316.503802 60.961373 
L 319.78314 61.847627 
L 323.062479 60.533436 
L 326.341818 60.555858 
L 329.621157 60.095657 
L 332.900496 59.345457 
L 336.179835 60.943591 
L 339.459174 61.232815 
L 342.738512 60.714894 
L 346.017851 60.452508 
L 349.29719 60.122448 
L 352.576529 61.034437 
L 355.855868 61.046158 
L 359.135207 59.271586 
L 362.414545 58.674189 
L 365.693884 59.98684 
L 368.973223 60.601158 
L 372.252562 59.489586 
L 375.531901 59.978681 
L 378.81124 60.379667 
L 382.090579 60.990633 
L 385.369917 59.973536 
L 388.649256 59.583303 
L 391.928595 58.736209 
L 395.207934 59.166149 
L 398.487273 59.699206 
L 398.487273 56.276466 
L 398.487273 56.276466 
L 395.207934 56.133684 
L 391.928595 55.761065 
L 388.649256 56.26565 
L 385.369917 55.706459 
L 382.090579 56.653519 
L 378.81124 56.567525 
L 375.531901 55.764673 
L 372.252562 55.789127 
L 368.973223 56.155959 
L 365.693884 56.073313 
L 362.414545 56.266604 
L 359.135207 55.859287 
L 355.855868 56.513516 
L 352.576529 55.997238 
L 349.29719 56.381226 
L 346.017851 56.431325 
L 342.738512 56.126699 
L 339.459174 56.1579 
L 336.179835 55.834644 
L 332.900496 55.848777 
L 329.621157 56.682575 
L 326.341818 56.940453 
L 323.062479 55.822398 
L 319.78314 56.894768 
L 316.503802 56.133661 
L 313.224463 57.041502 
L 309.945124 56.444617 
L 306.665785 56.544999 
L 303.386446 57.366704 
L 300.107107 56.514635 
L 296.827769 56.630233 
L 293.54843 57.399298 
L 290.269091 58.212203 
L 286.989752 57.60941 
L 283.710413 57.366777 
L 280.431074 56.969222 
L 277.151736 56.593448 
L 273.872397 57.218622 
L 270.593058 57.137221 
L 267.313719 57.58301 
L 264.03438 57.675948 
L 260.755041 57.505907 
L 257.475702 56.75495 
L 254.196364 56.650425 
L 250.917025 56.679036 
L 247.637686 56.929709 
L 244.358347 57.10313 
L 241.079008 58.086649 
L 237.799669 58.152767 
L 234.520331 58.919631 
L 231.240992 58.885007 
L 227.961653 59.246402 
L 224.682314 57.798185 
L 221.402975 57.280102 
L 218.123636 57.554021 
L 214.844298 58.079516 
L 211.564959 59.099707 
L 208.28562 58.468715 
L 205.006281 59.416019 
L 201.726942 58.98133 
L 198.447603 57.72547 
L 195.168264 58.362736 
L 191.888926 60.071918 
L 188.609587 61.055821 
L 185.330248 60.331853 
L 182.050909 59.745581 
L 178.77157 60.74395 
L 175.492231 60.564253 
L 172.212893 61.845072 
L 168.933554 62.679812 
L 165.654215 63.927637 
L 162.374876 61.76934 
L 159.095537 62.885297 
L 155.816198 62.410166 
L 152.53686 64.347737 
L 149.257521 65.640803 
L 145.978182 65.301377 
L 142.698843 66.615915 
L 139.419504 66.049088 
L 136.140165 66.697763 
L 132.860826 66.709228 
L 129.581488 67.622954 
L 126.302149 69.052697 
L 123.02281 71.593801 
L 119.743471 72.23934 
L 116.464132 72.433224 
L 113.184793 73.420882 
L 109.905455 75.398269 
L 106.626116 76.016946 
L 103.346777 77.143978 
L 100.067438 80.206498 
L 96.788099 84.257903 
L 93.50876 85.081297 
L 90.229421 89.652612 
L 86.950083 94.815511 
L 83.670744 96.590659 
L 80.391405 102.213904 
L 77.112066 110.751951 
L 73.832727 144.493215 
z
" clip-path="url(#p3cc8a71506)" style="fill: #2ca02c; fill-opacity: 0.2"/>
   </g>
   <g id="PolyCollection_4">
    <path d="M 73.832727 236.268175 
L 73.832727 243.562864 
L 77.112066 225.253248 
L 80.391405 218.234957 
L 83.670744 213.760338 
L 86.950083 209.767153 
L 90.229421 206.117877 
L 93.50876 200.843684 
L 96.788099 198.329662 
L 100.067438 193.475574 
L 103.346777 191.016892 
L 106.626116 188.797148 
L 109.905455 184.079962 
L 113.184793 181.830544 
L 116.464132 178.587711 
L 119.743471 175.747578 
L 123.02281 171.735047 
L 126.302149 170.477823 
L 129.581488 164.944468 
L 132.860826 161.486314 
L 136.140165 158.61146 
L 139.419504 156.615441 
L 142.698843 153.692754 
L 145.978182 149.471912 
L 149.257521 146.901822 
L 152.53686 144.042134 
L 155.816198 141.869071 
L 159.095537 140.582929 
L 162.374876 136.71337 
L 165.654215 134.373612 
L 168.933554 132.291242 
L 172.212893 130.263407 
L 175.492231 128.570075 
L 178.77157 125.129386 
L 182.050909 123.189893 
L 185.330248 121.928299 
L 188.609587 120.668886 
L 191.888926 118.077472 
L 195.168264 117.303149 
L 198.447603 115.899018 
L 201.726942 113.213702 
L 205.006281 114.011381 
L 208.28562 110.242182 
L 211.564959 110.555664 
L 214.844298 109.484704 
L 218.123636 109.239946 
L 221.402975 106.80216 
L 224.682314 105.169265 
L 227.961653 105.145235 
L 231.240992 104.067279 
L 234.520331 103.555304 
L 237.799669 101.492643 
L 241.079008 100.827639 
L 244.358347 101.25294 
L 247.637686 99.424887 
L 250.917025 99.301057 
L 254.196364 97.684076 
L 257.475702 97.445772 
L 260.755041 97.059556 
L 264.03438 96.061173 
L 267.313719 94.465298 
L 270.593058 93.844671 
L 273.872397 94.736543 
L 277.151736 92.660177 
L 280.431074 92.121075 
L 283.710413 92.07733 
L 286.989752 91.002028 
L 290.269091 90.020941 
L 293.54843 90.171005 
L 296.827769 89.020261 
L 300.107107 89.281196 
L 303.386446 88.349558 
L 306.665785 89.001095 
L 309.945124 86.396629 
L 313.224463 87.264008 
L 316.503802 84.246389 
L 319.78314 85.863114 
L 323.062479 85.380724 
L 326.341818 84.814388 
L 329.621157 84.174929 
L 332.900496 83.605789 
L 336.179835 84.426939 
L 339.459174 83.191743 
L 342.738512 80.998891 
L 346.017851 83.596237 
L 349.29719 81.874433 
L 352.576529 80.930922 
L 355.855868 80.772427 
L 359.135207 80.583479 
L 362.414545 79.163705 
L 365.693884 78.405385 
L 368.973223 79.029277 
L 372.252562 78.469605 
L 375.531901 80.262644 
L 378.81124 77.415225 
L 382.090579 76.966579 
L 385.369917 76.712385 
L 388.649256 76.779075 
L 391.928595 77.378448 
L 395.207934 76.030425 
L 398.487273 75.890312 
L 398.487273 70.878325 
L 398.487273 70.878325 
L 395.207934 71.899808 
L 391.928595 72.917225 
L 388.649256 71.172281 
L 385.369917 71.957051 
L 382.090579 72.399817 
L 378.81124 73.049408 
L 375.531901 72.461836 
L 372.252562 73.663511 
L 368.973223 74.497762 
L 365.693884 74.107888 
L 362.414545 74.827972 
L 359.135207 74.126277 
L 355.855868 75.626936 
L 352.576529 76.566683 
L 349.29719 76.784769 
L 346.017851 78.209846 
L 342.738512 76.709911 
L 339.459174 76.671299 
L 336.179835 77.336906 
L 332.900496 76.700771 
L 329.621157 78.581553 
L 326.341818 79.378259 
L 323.062479 80.797201 
L 319.78314 80.230332 
L 316.503802 79.840658 
L 313.224463 80.540155 
L 309.945124 80.604974 
L 306.665785 82.520185 
L 303.386446 82.707083 
L 300.107107 82.852564 
L 296.827769 82.33206 
L 293.54843 84.644992 
L 290.269091 85.893295 
L 286.989752 84.553168 
L 283.710413 86.666984 
L 280.431074 86.940041 
L 277.151736 86.443179 
L 273.872397 87.788253 
L 270.593058 87.919804 
L 267.313719 88.017259 
L 264.03438 89.188108 
L 260.755041 90.850844 
L 257.475702 90.908146 
L 254.196364 90.669846 
L 250.917025 92.051908 
L 247.637686 92.667276 
L 244.358347 92.803383 
L 241.079008 94.474764 
L 237.799669 95.541601 
L 234.520331 96.54134 
L 231.240992 96.62072 
L 227.961653 97.697005 
L 224.682314 100.038413 
L 221.402975 100.221837 
L 218.123636 100.297331 
L 214.844298 102.544734 
L 211.564959 102.762094 
L 208.28562 104.828533 
L 205.006281 107.205261 
L 201.726942 107.305983 
L 198.447603 107.640827 
L 195.168264 110.481816 
L 191.888926 110.826851 
L 188.609587 113.789995 
L 185.330248 115.064982 
L 182.050909 117.921781 
L 178.77157 118.221012 
L 175.492231 119.743526 
L 172.212893 122.020757 
L 168.933554 123.752281 
L 165.654215 126.97103 
L 162.374876 128.30615 
L 159.095537 132.14539 
L 155.816198 133.689328 
L 152.53686 136.838506 
L 149.257521 139.596742 
L 145.978182 142.158811 
L 142.698843 146.026926 
L 139.419504 148.405356 
L 136.140165 152.2807 
L 132.860826 155.256088 
L 129.581488 156.824494 
L 126.302149 161.302019 
L 123.02281 163.888632 
L 119.743471 166.634498 
L 116.464132 171.080772 
L 113.184793 173.054578 
L 109.905455 176.59204 
L 106.626116 180.217254 
L 103.346777 184.058948 
L 100.067438 186.098826 
L 96.788099 191.002178 
L 93.50876 194.106074 
L 90.229421 197.153163 
L 86.950083 201.804047 
L 83.670744 204.379182 
L 80.391405 210.527924 
L 77.112066 217.976831 
L 73.832727 236.268175 
z
" clip-path="url(#p3cc8a71506)" style="fill: #d62728; fill-opacity: 0.2"/>
   </g>
   <g id="PolyCollection_5">
    <path d="M 73.832727 169.295966 
L 73.832727 176.296351 
L 77.112066 142.701417 
L 80.391405 143.386062 
L 83.670744 141.250922 
L 86.950083 142.679612 
L 90.229421 143.087726 
L 93.50876 147.068419 
L 96.788099 149.821388 
L 100.067438 152.941794 
L 103.346777 153.740666 
L 106.626116 159.384389 
L 109.905455 164.938206 
L 113.184793 166.678486 
L 116.464132 170.94111 
L 119.743471 172.547432 
L 123.02281 174.904096 
L 126.302149 178.423743 
L 129.581488 176.287013 
L 132.860826 180.187913 
L 136.140165 180.206907 
L 139.419504 181.707473 
L 142.698843 181.186455 
L 145.978182 182.937423 
L 149.257521 183.541911 
L 152.53686 185.295972 
L 155.816198 187.230034 
L 159.095537 185.197874 
L 162.374876 186.150395 
L 165.654215 185.576709 
L 168.933554 184.629542 
L 172.212893 186.431606 
L 175.492231 185.290675 
L 178.77157 187.250289 
L 182.050909 189.121982 
L 185.330248 184.143143 
L 188.609587 186.691671 
L 191.888926 185.62829 
L 195.168264 185.933148 
L 198.447603 186.133914 
L 201.726942 187.195282 
L 205.006281 187.591577 
L 208.28562 187.624176 
L 211.564959 185.878124 
L 214.844298 184.962109 
L 218.123636 184.991387 
L 221.402975 186.206769 
L 224.682314 185.382468 
L 227.961653 185.672433 
L 231.240992 185.093062 
L 234.520331 186.201172 
L 237.799669 185.699453 
L 241.079008 184.929357 
L 244.358347 183.51152 
L 247.637686 185.1354 
L 250.917025 186.075097 
L 254.196364 186.967566 
L 257.475702 186.717329 
L 260.755041 185.875727 
L 264.03438 186.339778 
L 267.313719 185.696262 
L 270.593058 185.533522 
L 273.872397 184.187783 
L 277.151736 184.830149 
L 280.431074 185.245296 
L 283.710413 185.48668 
L 286.989752 185.626043 
L 290.269091 184.28638 
L 293.54843 184.86498 
L 296.827769 184.867072 
L 300.107107 183.913487 
L 303.386446 186.588298 
L 306.665785 186.735215 
L 309.945124 185.816635 
L 313.224463 185.338649 
L 316.503802 186.235165 
L 319.78314 185.438361 
L 323.062479 184.492311 
L 326.341818 186.72005 
L 329.621157 185.933969 
L 332.900496 185.515484 
L 336.179835 185.516604 
L 339.459174 187.118351 
L 342.738512 186.731599 
L 346.017851 185.674543 
L 349.29719 186.501057 
L 352.576529 188.388897 
L 355.855868 187.144592 
L 359.135207 186.288176 
L 362.414545 185.605765 
L 365.693884 186.417112 
L 368.973223 186.198143 
L 372.252562 185.546826 
L 375.531901 187.298343 
L 378.81124 186.162979 
L 382.090579 186.461563 
L 385.369917 185.80371 
L 388.649256 184.785467 
L 391.928595 184.063977 
L 395.207934 183.561534 
L 398.487273 183.588302 
L 398.487273 164.77074 
L 398.487273 164.77074 
L 395.207934 165.959108 
L 391.928595 164.886426 
L 388.649256 165.558854 
L 385.369917 164.075971 
L 382.090579 164.833157 
L 378.81124 164.709342 
L 375.531901 162.750299 
L 372.252562 163.192376 
L 368.973223 164.357378 
L 365.693884 165.173287 
L 362.414545 165.329918 
L 359.135207 165.661264 
L 355.855868 167.782768 
L 352.576529 166.390623 
L 349.29719 164.244545 
L 346.017851 164.24738 
L 342.738512 163.971764 
L 339.459174 164.662128 
L 336.179835 163.898439 
L 332.900496 162.69572 
L 329.621157 163.797875 
L 326.341818 163.603152 
L 323.062479 163.88785 
L 319.78314 163.913321 
L 316.503802 163.771236 
L 313.224463 163.928553 
L 309.945124 163.640647 
L 306.665785 163.735826 
L 303.386446 165.340025 
L 300.107107 165.860595 
L 296.827769 165.181569 
L 293.54843 165.331503 
L 290.269091 166.0157 
L 286.989752 165.605319 
L 283.710413 164.30852 
L 280.431074 164.549906 
L 277.151736 164.45817 
L 273.872397 167.275897 
L 270.593058 166.711598 
L 267.313719 163.97222 
L 264.03438 165.588543 
L 260.755041 166.643954 
L 257.475702 165.274351 
L 254.196364 167.283954 
L 250.917025 166.170024 
L 247.637686 165.377881 
L 244.358347 165.882403 
L 241.079008 167.949364 
L 237.799669 166.799109 
L 234.520331 165.917226 
L 231.240992 165.525818 
L 227.961653 167.164046 
L 224.682314 165.679934 
L 221.402975 165.763791 
L 218.123636 166.493414 
L 214.844298 166.395974 
L 211.564959 166.092438 
L 208.28562 167.408784 
L 205.006281 167.948263 
L 201.726942 166.5916 
L 198.447603 167.568486 
L 195.168264 167.367973 
L 191.888926 169.172351 
L 188.609587 168.827049 
L 185.330248 170.699735 
L 182.050909 170.557379 
L 178.77157 170.148109 
L 175.492231 168.453966 
L 172.212893 168.347915 
L 168.933554 166.876376 
L 165.654215 167.344254 
L 162.374876 166.749449 
L 159.095537 168.441168 
L 155.816198 168.457648 
L 152.53686 167.350429 
L 149.257521 169.379045 
L 145.978182 167.343538 
L 142.698843 166.623467 
L 139.419504 164.222767 
L 136.140165 164.519495 
L 132.860826 163.017847 
L 129.581488 162.208987 
L 126.302149 158.361534 
L 123.02281 159.325665 
L 119.743471 156.21225 
L 116.464132 156.69921 
L 113.184793 152.239274 
L 109.905455 149.312034 
L 106.626116 145.720893 
L 103.346777 142.409735 
L 100.067438 141.687963 
L 96.788099 136.634929 
L 93.50876 134.931583 
L 90.229421 133.294352 
L 86.950083 132.942147 
L 83.670744 131.815316 
L 80.391405 133.312818 
L 77.112066 136.13058 
L 73.832727 169.295966 
z
" clip-path="url(#p3cc8a71506)" style="fill: #9467bd; fill-opacity: 0.2"/>
   </g>
   <g id="matplotlib.axis_1">
    <g id="xtick_1">
     <g id="line2d_1">
      <defs>
       <path id="m5230536af2" d="M 0 0 
L 0 3.5 
" style="stroke: #000000; stroke-width: 0.8"/>
      </defs>
      <g>
       <use xlink:href="#m5230536af2" x="70.553388" y="307.584" style="stroke: #000000; stroke-width: 0.8"/>
      </g>
     </g>
     <g id="text_1">
      <!-- 0 -->
      <g transform="translate(67.372138 322.182437) scale(0.1 -0.1)">
       <defs>
        <path id="DejaVuSans-30" d="M 2034 4250 
Q 1547 4250 1301 3770 
Q 1056 3291 1056 2328 
Q 1056 1369 1301 889 
Q 1547 409 2034 409 
Q 2525 409 2770 889 
Q 3016 1369 3016 2328 
Q 3016 3291 2770 3770 
Q 2525 4250 2034 4250 
z
M 2034 4750 
Q 2819 4750 3233 4129 
Q 3647 3509 3647 2328 
Q 3647 1150 3233 529 
Q 2819 -91 2034 -91 
Q 1250 -91 836 529 
Q 422 1150 422 2328 
Q 422 3509 836 4129 
Q 1250 4750 2034 4750 
z
" transform="scale(0.015625)"/>
       </defs>
       <use xlink:href="#DejaVuSans-30"/>
      </g>
     </g>
    </g>
    <g id="xtick_2">
     <g id="line2d_2">
      <g>
       <use xlink:href="#m5230536af2" x="136.140165" y="307.584" style="stroke: #000000; stroke-width: 0.8"/>
      </g>
     </g>
     <g id="text_2">
      <!-- 20 -->
      <g transform="translate(129.777665 322.182437) scale(0.1 -0.1)">
       <defs>
        <path id="DejaVuSans-32" d="M 1228 531 
L 3431 531 
L 3431 0 
L 469 0 
L 469 531 
Q 828 903 1448 1529 
Q 2069 2156 2228 2338 
Q 2531 2678 2651 2914 
Q 2772 3150 2772 3378 
Q 2772 3750 2511 3984 
Q 2250 4219 1831 4219 
Q 1534 4219 1204 4116 
Q 875 4013 500 3803 
L 500 4441 
Q 881 4594 1212 4672 
Q 1544 4750 1819 4750 
Q 2544 4750 2975 4387 
Q 3406 4025 3406 3419 
Q 3406 3131 3298 2873 
Q 3191 2616 2906 2266 
Q 2828 2175 2409 1742 
Q 1991 1309 1228 531 
z
" transform="scale(0.015625)"/>
       </defs>
       <use xlink:href="#DejaVuSans-32"/>
       <use xlink:href="#DejaVuSans-30" x="63.623047"/>
      </g>
     </g>
    </g>
    <g id="xtick_3">
     <g id="line2d_3">
      <g>
       <use xlink:href="#m5230536af2" x="201.726942" y="307.584" style="stroke: #000000; stroke-width: 0.8"/>
      </g>
     </g>
     <g id="text_3">
      <!-- 40 -->
      <g transform="translate(195.364442 322.182437) scale(0.1 -0.1)">
       <defs>
        <path id="DejaVuSans-34" d="M 2419 4116 
L 825 1625 
L 2419 1625 
L 2419 4116 
z
M 2253 4666 
L 3047 4666 
L 3047 1625 
L 3713 1625 
L 3713 1100 
L 3047 1100 
L 3047 0 
L 2419 0 
L 2419 1100 
L 313 1100 
L 313 1709 
L 2253 4666 
z
" transform="scale(0.015625)"/>
       </defs>
       <use xlink:href="#DejaVuSans-34"/>
       <use xlink:href="#DejaVuSans-30" x="63.623047"/>
      </g>
     </g>
    </g>
    <g id="xtick_4">
     <g id="line2d_4">
      <g>
       <use xlink:href="#m5230536af2" x="267.313719" y="307.584" style="stroke: #000000; stroke-width: 0.8"/>
      </g>
     </g>
     <g id="text_4">
      <!-- 60 -->
      <g transform="translate(260.951219 322.182437) scale(0.1 -0.1)">
       <defs>
        <path id="DejaVuSans-36" d="M 2113 2584 
Q 1688 2584 1439 2293 
Q 1191 2003 1191 1497 
Q 1191 994 1439 701 
Q 1688 409 2113 409 
Q 2538 409 2786 701 
Q 3034 994 3034 1497 
Q 3034 2003 2786 2293 
Q 2538 2584 2113 2584 
z
M 3366 4563 
L 3366 3988 
Q 3128 4100 2886 4159 
Q 2644 4219 2406 4219 
Q 1781 4219 1451 3797 
Q 1122 3375 1075 2522 
Q 1259 2794 1537 2939 
Q 1816 3084 2150 3084 
Q 2853 3084 3261 2657 
Q 3669 2231 3669 1497 
Q 3669 778 3244 343 
Q 2819 -91 2113 -91 
Q 1303 -91 875 529 
Q 447 1150 447 2328 
Q 447 3434 972 4092 
Q 1497 4750 2381 4750 
Q 2619 4750 2861 4703 
Q 3103 4656 3366 4563 
z
" transform="scale(0.015625)"/>
       </defs>
       <use xlink:href="#DejaVuSans-36"/>
       <use xlink:href="#DejaVuSans-30" x="63.623047"/>
      </g>
     </g>
    </g>
    <g id="xtick_5">
     <g id="line2d_5">
      <g>
       <use xlink:href="#m5230536af2" x="332.900496" y="307.584" style="stroke: #000000; stroke-width: 0.8"/>
      </g>
     </g>
     <g id="text_5">
      <!-- 80 -->
      <g transform="translate(326.537996 322.182437) scale(0.1 -0.1)">
       <defs>
        <path id="DejaVuSans-38" d="M 2034 2216 
Q 1584 2216 1326 1975 
Q 1069 1734 1069 1313 
Q 1069 891 1326 650 
Q 1584 409 2034 409 
Q 2484 409 2743 651 
Q 3003 894 3003 1313 
Q 3003 1734 2745 1975 
Q 2488 2216 2034 2216 
z
M 1403 2484 
Q 997 2584 770 2862 
Q 544 3141 544 3541 
Q 544 4100 942 4425 
Q 1341 4750 2034 4750 
Q 2731 4750 3128 4425 
Q 3525 4100 3525 3541 
Q 3525 3141 3298 2862 
Q 3072 2584 2669 2484 
Q 3125 2378 3379 2068 
Q 3634 1759 3634 1313 
Q 3634 634 3220 271 
Q 2806 -91 2034 -91 
Q 1263 -91 848 271 
Q 434 634 434 1313 
Q 434 1759 690 2068 
Q 947 2378 1403 2484 
z
M 1172 3481 
Q 1172 3119 1398 2916 
Q 1625 2713 2034 2713 
Q 2441 2713 2670 2916 
Q 2900 3119 2900 3481 
Q 2900 3844 2670 4047 
Q 2441 4250 2034 4250 
Q 1625 4250 1398 4047 
Q 1172 3844 1172 3481 
z
" transform="scale(0.015625)"/>
       </defs>
       <use xlink:href="#DejaVuSans-38"/>
       <use xlink:href="#DejaVuSans-30" x="63.623047"/>
      </g>
     </g>
    </g>
    <g id="xtick_6">
     <g id="line2d_6">
      <g>
       <use xlink:href="#m5230536af2" x="398.487273" y="307.584" style="stroke: #000000; stroke-width: 0.8"/>
      </g>
     </g>
     <g id="text_6">
      <!-- 100 -->
      <g transform="translate(388.943523 322.182437) scale(0.1 -0.1)">
       <defs>
        <path id="DejaVuSans-31" d="M 794 531 
L 1825 531 
L 1825 4091 
L 703 3866 
L 703 4441 
L 1819 4666 
L 2450 4666 
L 2450 531 
L 3481 531 
L 3481 0 
L 794 0 
L 794 531 
z
" transform="scale(0.015625)"/>
       </defs>
       <use xlink:href="#DejaVuSans-31"/>
       <use xlink:href="#DejaVuSans-30" x="63.623047"/>
       <use xlink:href="#DejaVuSans-30" x="127.246094"/>
      </g>
     </g>
    </g>
    <g id="text_7">
     <!-- # epochs -->
     <g transform="translate(212.548281 335.860562) scale(0.1 -0.1)">
      <defs>
       <path id="DejaVuSans-23" d="M 3272 2816 
L 2363 2816 
L 2100 1772 
L 3016 1772 
L 3272 2816 
z
M 2803 4594 
L 2478 3297 
L 3391 3297 
L 3719 4594 
L 4219 4594 
L 3897 3297 
L 4872 3297 
L 4872 2816 
L 3775 2816 
L 3519 1772 
L 4513 1772 
L 4513 1294 
L 3397 1294 
L 3072 0 
L 2572 0 
L 2894 1294 
L 1978 1294 
L 1656 0 
L 1153 0 
L 1478 1294 
L 494 1294 
L 494 1772 
L 1594 1772 
L 1856 2816 
L 850 2816 
L 850 3297 
L 1978 3297 
L 2297 4594 
L 2803 4594 
z
" transform="scale(0.015625)"/>
       <path id="DejaVuSans-20" transform="scale(0.015625)"/>
       <path id="DejaVuSans-65" d="M 3597 1894 
L 3597 1613 
L 953 1613 
Q 991 1019 1311 708 
Q 1631 397 2203 397 
Q 2534 397 2845 478 
Q 3156 559 3463 722 
L 3463 178 
Q 3153 47 2828 -22 
Q 2503 -91 2169 -91 
Q 1331 -91 842 396 
Q 353 884 353 1716 
Q 353 2575 817 3079 
Q 1281 3584 2069 3584 
Q 2775 3584 3186 3129 
Q 3597 2675 3597 1894 
z
M 3022 2063 
Q 3016 2534 2758 2815 
Q 2500 3097 2075 3097 
Q 1594 3097 1305 2825 
Q 1016 2553 972 2059 
L 3022 2063 
z
" transform="scale(0.015625)"/>
       <path id="DejaVuSans-70" d="M 1159 525 
L 1159 -1331 
L 581 -1331 
L 581 3500 
L 1159 3500 
L 1159 2969 
Q 1341 3281 1617 3432 
Q 1894 3584 2278 3584 
Q 2916 3584 3314 3078 
Q 3713 2572 3713 1747 
Q 3713 922 3314 415 
Q 2916 -91 2278 -91 
Q 1894 -91 1617 61 
Q 1341 213 1159 525 
z
M 3116 1747 
Q 3116 2381 2855 2742 
Q 2594 3103 2138 3103 
Q 1681 3103 1420 2742 
Q 1159 2381 1159 1747 
Q 1159 1113 1420 752 
Q 1681 391 2138 391 
Q 2594 391 2855 752 
Q 3116 1113 3116 1747 
z
" transform="scale(0.015625)"/>
       <path id="DejaVuSans-6f" d="M 1959 3097 
Q 1497 3097 1228 2736 
Q 959 2375 959 1747 
Q 959 1119 1226 758 
Q 1494 397 1959 397 
Q 2419 397 2687 759 
Q 2956 1122 2956 1747 
Q 2956 2369 2687 2733 
Q 2419 3097 1959 3097 
z
M 1959 3584 
Q 2709 3584 3137 3096 
Q 3566 2609 3566 1747 
Q 3566 888 3137 398 
Q 2709 -91 1959 -91 
Q 1206 -91 779 398 
Q 353 888 353 1747 
Q 353 2609 779 3096 
Q 1206 3584 1959 3584 
z
" transform="scale(0.015625)"/>
       <path id="DejaVuSans-63" d="M 3122 3366 
L 3122 2828 
Q 2878 2963 2633 3030 
Q 2388 3097 2138 3097 
Q 1578 3097 1268 2742 
Q 959 2388 959 1747 
Q 959 1106 1268 751 
Q 1578 397 2138 397 
Q 2388 397 2633 464 
Q 2878 531 3122 666 
L 3122 134 
Q 2881 22 2623 -34 
Q 2366 -91 2075 -91 
Q 1284 -91 818 406 
Q 353 903 353 1747 
Q 353 2603 823 3093 
Q 1294 3584 2113 3584 
Q 2378 3584 2631 3529 
Q 2884 3475 3122 3366 
z
" transform="scale(0.015625)"/>
       <path id="DejaVuSans-68" d="M 3513 2113 
L 3513 0 
L 2938 0 
L 2938 2094 
Q 2938 2591 2744 2837 
Q 2550 3084 2163 3084 
Q 1697 3084 1428 2787 
Q 1159 2491 1159 1978 
L 1159 0 
L 581 0 
L 581 4863 
L 1159 4863 
L 1159 2956 
Q 1366 3272 1645 3428 
Q 1925 3584 2291 3584 
Q 2894 3584 3203 3211 
Q 3513 2838 3513 2113 
z
" transform="scale(0.015625)"/>
       <path id="DejaVuSans-73" d="M 2834 3397 
L 2834 2853 
Q 2591 2978 2328 3040 
Q 2066 3103 1784 3103 
Q 1356 3103 1142 2972 
Q 928 2841 928 2578 
Q 928 2378 1081 2264 
Q 1234 2150 1697 2047 
L 1894 2003 
Q 2506 1872 2764 1633 
Q 3022 1394 3022 966 
Q 3022 478 2636 193 
Q 2250 -91 1575 -91 
Q 1294 -91 989 -36 
Q 684 19 347 128 
L 347 722 
Q 666 556 975 473 
Q 1284 391 1588 391 
Q 1994 391 2212 530 
Q 2431 669 2431 922 
Q 2431 1156 2273 1281 
Q 2116 1406 1581 1522 
L 1381 1569 
Q 847 1681 609 1914 
Q 372 2147 372 2553 
Q 372 3047 722 3315 
Q 1072 3584 1716 3584 
Q 2034 3584 2315 3537 
Q 2597 3491 2834 3397 
z
" transform="scale(0.015625)"/>
      </defs>
      <use xlink:href="#DejaVuSans-23"/>
      <use xlink:href="#DejaVuSans-20" x="83.789062"/>
      <use xlink:href="#DejaVuSans-65" x="115.576172"/>
      <use xlink:href="#DejaVuSans-70" x="177.099609"/>
      <use xlink:href="#DejaVuSans-6f" x="240.576172"/>
      <use xlink:href="#DejaVuSans-63" x="301.757812"/>
      <use xlink:href="#DejaVuSans-68" x="356.738281"/>
      <use xlink:href="#DejaVuSans-73" x="420.117188"/>
     </g>
    </g>
   </g>
   <g id="matplotlib.axis_2">
    <g id="ytick_1">
     <g id="line2d_7">
      <defs>
       <path id="m12531eb521" d="M 0 0 
L -3.5 0 
" style="stroke: #000000; stroke-width: 0.8"/>
      </defs>
      <g>
       <use xlink:href="#m12531eb521" x="57.6" y="307.584" style="stroke: #000000; stroke-width: 0.8"/>
      </g>
     </g>
     <g id="text_8">
      <!-- 0.0 -->
      <g transform="translate(34.696875 311.383219) scale(0.1 -0.1)">
       <defs>
        <path id="DejaVuSans-2e" d="M 684 794 
L 1344 794 
L 1344 0 
L 684 0 
L 684 794 
z
" transform="scale(0.015625)"/>
       </defs>
       <use xlink:href="#DejaVuSans-30"/>
       <use xlink:href="#DejaVuSans-2e" x="63.623047"/>
       <use xlink:href="#DejaVuSans-30" x="95.410156"/>
      </g>
     </g>
    </g>
    <g id="ytick_2">
     <g id="line2d_8">
      <g>
       <use xlink:href="#m12531eb521" x="57.6" y="256.896" style="stroke: #000000; stroke-width: 0.8"/>
      </g>
     </g>
     <g id="text_9">
      <!-- 0.2 -->
      <g transform="translate(34.696875 260.695219) scale(0.1 -0.1)">
       <use xlink:href="#DejaVuSans-30"/>
       <use xlink:href="#DejaVuSans-2e" x="63.623047"/>
       <use xlink:href="#DejaVuSans-32" x="95.410156"/>
      </g>
     </g>
    </g>
    <g id="ytick_3">
     <g id="line2d_9">
      <g>
       <use xlink:href="#m12531eb521" x="57.6" y="206.208" style="stroke: #000000; stroke-width: 0.8"/>
      </g>
     </g>
     <g id="text_10">
      <!-- 0.4 -->
      <g transform="translate(34.696875 210.007219) scale(0.1 -0.1)">
       <use xlink:href="#DejaVuSans-30"/>
       <use xlink:href="#DejaVuSans-2e" x="63.623047"/>
       <use xlink:href="#DejaVuSans-34" x="95.410156"/>
      </g>
     </g>
    </g>
    <g id="ytick_4">
     <g id="line2d_10">
      <g>
       <use xlink:href="#m12531eb521" x="57.6" y="155.52" style="stroke: #000000; stroke-width: 0.8"/>
      </g>
     </g>
     <g id="text_11">
      <!-- 0.6 -->
      <g transform="translate(34.696875 159.319219) scale(0.1 -0.1)">
       <use xlink:href="#DejaVuSans-30"/>
       <use xlink:href="#DejaVuSans-2e" x="63.623047"/>
       <use xlink:href="#DejaVuSans-36" x="95.410156"/>
      </g>
     </g>
    </g>
    <g id="ytick_5">
     <g id="line2d_11">
      <g>
       <use xlink:href="#m12531eb521" x="57.6" y="104.832" style="stroke: #000000; stroke-width: 0.8"/>
      </g>
     </g>
     <g id="text_12">
      <!-- 0.8 -->
      <g transform="translate(34.696875 108.631219) scale(0.1 -0.1)">
       <use xlink:href="#DejaVuSans-30"/>
       <use xlink:href="#DejaVuSans-2e" x="63.623047"/>
       <use xlink:href="#DejaVuSans-38" x="95.410156"/>
      </g>
     </g>
    </g>
    <g id="ytick_6">
     <g id="line2d_12">
      <g>
       <use xlink:href="#m12531eb521" x="57.6" y="54.144" style="stroke: #000000; stroke-width: 0.8"/>
      </g>
     </g>
     <g id="text_13">
      <!-- 1.0 -->
      <g transform="translate(34.696875 57.943219) scale(0.1 -0.1)">
       <use xlink:href="#DejaVuSans-31"/>
       <use xlink:href="#DejaVuSans-2e" x="63.623047"/>
       <use xlink:href="#DejaVuSans-30" x="95.410156"/>
      </g>
     </g>
    </g>
    <g id="text_14">
     <!-- Accuracy -->
     <g transform="translate(28.617187 197.356125) rotate(-90) scale(0.1 -0.1)">
      <defs>
       <path id="DejaVuSans-41" d="M 2188 4044 
L 1331 1722 
L 3047 1722 
L 2188 4044 
z
M 1831 4666 
L 2547 4666 
L 4325 0 
L 3669 0 
L 3244 1197 
L 1141 1197 
L 716 0 
L 50 0 
L 1831 4666 
z
" transform="scale(0.015625)"/>
       <path id="DejaVuSans-75" d="M 544 1381 
L 544 3500 
L 1119 3500 
L 1119 1403 
Q 1119 906 1312 657 
Q 1506 409 1894 409 
Q 2359 409 2629 706 
Q 2900 1003 2900 1516 
L 2900 3500 
L 3475 3500 
L 3475 0 
L 2900 0 
L 2900 538 
Q 2691 219 2414 64 
Q 2138 -91 1772 -91 
Q 1169 -91 856 284 
Q 544 659 544 1381 
z
M 1991 3584 
L 1991 3584 
z
" transform="scale(0.015625)"/>
       <path id="DejaVuSans-72" d="M 2631 2963 
Q 2534 3019 2420 3045 
Q 2306 3072 2169 3072 
Q 1681 3072 1420 2755 
Q 1159 2438 1159 1844 
L 1159 0 
L 581 0 
L 581 3500 
L 1159 3500 
L 1159 2956 
Q 1341 3275 1631 3429 
Q 1922 3584 2338 3584 
Q 2397 3584 2469 3576 
Q 2541 3569 2628 3553 
L 2631 2963 
z
" transform="scale(0.015625)"/>
       <path id="DejaVuSans-61" d="M 2194 1759 
Q 1497 1759 1228 1600 
Q 959 1441 959 1056 
Q 959 750 1161 570 
Q 1363 391 1709 391 
Q 2188 391 2477 730 
Q 2766 1069 2766 1631 
L 2766 1759 
L 2194 1759 
z
M 3341 1997 
L 3341 0 
L 2766 0 
L 2766 531 
Q 2569 213 2275 61 
Q 1981 -91 1556 -91 
Q 1019 -91 701 211 
Q 384 513 384 1019 
Q 384 1609 779 1909 
Q 1175 2209 1959 2209 
L 2766 2209 
L 2766 2266 
Q 2766 2663 2505 2880 
Q 2244 3097 1772 3097 
Q 1472 3097 1187 3025 
Q 903 2953 641 2809 
L 641 3341 
Q 956 3463 1253 3523 
Q 1550 3584 1831 3584 
Q 2591 3584 2966 3190 
Q 3341 2797 3341 1997 
z
" transform="scale(0.015625)"/>
       <path id="DejaVuSans-79" d="M 2059 -325 
Q 1816 -950 1584 -1140 
Q 1353 -1331 966 -1331 
L 506 -1331 
L 506 -850 
L 844 -850 
Q 1081 -850 1212 -737 
Q 1344 -625 1503 -206 
L 1606 56 
L 191 3500 
L 800 3500 
L 1894 763 
L 2988 3500 
L 3597 3500 
L 2059 -325 
z
" transform="scale(0.015625)"/>
      </defs>
      <use xlink:href="#DejaVuSans-41"/>
      <use xlink:href="#DejaVuSans-63" x="66.658203"/>
      <use xlink:href="#DejaVuSans-63" x="121.638672"/>
      <use xlink:href="#DejaVuSans-75" x="176.619141"/>
      <use xlink:href="#DejaVuSans-72" x="239.998047"/>
      <use xlink:href="#DejaVuSans-61" x="281.111328"/>
      <use xlink:href="#DejaVuSans-63" x="342.390625"/>
      <use xlink:href="#DejaVuSans-79" x="397.371094"/>
     </g>
    </g>
   </g>
   <g id="line2d_13">
    <path d="M 73.832727 192.480001 
L 77.112066 159.765121 
L 80.391405 148.328639 
L 83.670744 140.398081 
L 86.950083 133.96704 
L 90.229421 127.36704 
L 93.50876 123.058559 
L 96.788099 120.714241 
L 100.067438 117.30336 
L 103.346777 114.726721 
L 106.626116 112.319039 
L 109.905455 110.608321 
L 113.184793 108.57024 
L 116.464132 107.281922 
L 119.743471 106.65888 
L 123.02281 104.282879 
L 126.302149 102.455999 
L 129.581488 102.508799 
L 132.860826 101.040959 
L 136.140165 98.812798 
L 139.419504 98.126399 
L 142.698843 97.471678 
L 145.978182 96.55296 
L 149.257521 96.088319 
L 152.53686 94.50432 
L 155.816198 94.17696 
L 159.095537 92.83584 
L 162.374876 92.962562 
L 165.654215 91.505279 
L 168.933554 90.565441 
L 172.212893 89.48832 
L 175.492231 89.245439 
L 178.77157 89.002559 
L 182.050909 87.133438 
L 185.330248 86.742719 
L 188.609587 86.827198 
L 191.888926 85.64448 
L 195.168264 85.274879 
L 198.447603 85.676161 
L 201.726942 84.0816 
L 205.006281 84.09216 
L 208.28562 84.187199 
L 211.564959 82.824962 
L 214.844298 83.61696 
L 218.123636 82.687681 
L 221.402975 82.370882 
L 224.682314 81.610561 
L 227.961653 81.452161 
L 231.240992 80.81856 
L 234.520331 79.878721 
L 237.799669 81.293761 
L 241.079008 81.103682 
L 244.358347 80.237761 
L 247.637686 79.519682 
L 250.917025 79.688642 
L 254.196364 79.625281 
L 257.475702 78.970562 
L 260.755041 79.445762 
L 264.03438 78.717121 
L 267.313719 78.611519 
L 270.593058 77.851202 
L 273.872397 78.009602 
L 277.151736 78.611523 
L 280.431074 78.305281 
L 283.710413 77.67168 
L 286.989752 77.196481 
L 290.269091 77.724481 
L 293.54843 77.34432 
L 296.827769 76.81632 
L 300.107107 77.238723 
L 303.386446 77.23872 
L 306.665785 76.541758 
L 309.945124 76.721279 
L 313.224463 76.81632 
L 316.503802 76.045438 
L 319.78314 75.887039 
L 323.062479 75.62304 
L 326.341818 75.14784 
L 329.621157 76.09824 
L 332.900496 76.668481 
L 336.179835 76.087681 
L 339.459174 75.623039 
L 342.738512 75.168959 
L 346.017851 75.45408 
L 349.29719 75.105599 
L 352.576529 75.105599 
L 355.855868 75.158398 
L 359.135207 75.4224 
L 362.414545 74.630398 
L 365.693884 74.429758 
L 368.973223 74.683198 
L 372.252562 75.464638 
L 375.531901 74.408638 
L 378.81124 74.303042 
L 382.090579 74.281918 
L 385.369917 74.683199 
L 388.649256 73.848957 
L 391.928595 74.271358 
L 395.207934 73.975678 
L 398.487273 74.49312 
" clip-path="url(#p3cc8a71506)" style="fill: none; stroke: #1f77b4; stroke-width: 1.5; stroke-linecap: square"/>
   </g>
   <g id="line2d_14">
    <path d="M 73.832727 153.524157 
L 77.112066 110.143681 
L 80.391405 94.736641 
L 83.670744 87.59808 
L 86.950083 83.595841 
L 90.229421 80.702401 
L 93.50876 78.421439 
L 96.788099 77.735042 
L 100.067438 76.30944 
L 103.346777 75.528 
L 106.626116 74.02848 
L 109.905455 74.54592 
L 113.184793 72.5184 
L 116.464132 71.325119 
L 119.743471 71.36736 
L 123.02281 71.01888 
L 126.302149 68.875201 
L 129.581488 68.938561 
L 132.860826 67.322881 
L 136.140165 68.949121 
L 139.419504 67.713601 
L 142.698843 65.654401 
L 145.978182 64.8096 
L 149.257521 66.192961 
L 152.53686 65.168642 
L 155.816198 64.693441 
L 159.095537 63.352323 
L 162.374876 64.313281 
L 165.654215 65.73888 
L 168.933554 63.848642 
L 172.212893 62.644801 
L 175.492231 63.14112 
L 178.77157 62.264638 
L 182.050909 62.064002 
L 185.330248 62.83488 
L 188.609587 62.10624 
L 191.888926 62.011201 
L 195.168264 62.12736 
L 198.447603 60.986879 
L 201.726942 60.532796 
L 205.006281 60.765117 
L 208.28562 60.944638 
L 211.564959 59.878079 
L 214.844298 60.237119 
L 218.123636 61.250879 
L 221.402975 61.514878 
L 224.682314 59.846398 
L 227.961653 59.951997 
L 231.240992 60.015357 
L 234.520331 60.342718 
L 237.799669 60.553918 
L 241.079008 62.053438 
L 244.358347 59.635196 
L 247.637686 58.441917 
L 250.917025 58.378557 
L 254.196364 58.473597 
L 257.475702 59.772478 
L 260.755041 59.687998 
L 264.03438 60.226557 
L 267.313719 59.022718 
L 270.593058 59.149437 
L 273.872397 58.906555 
L 277.151736 58.874877 
L 280.431074 60.194875 
L 283.710413 58.631996 
L 286.989752 58.695356 
L 290.269091 58.146237 
L 293.54843 58.061757 
L 296.827769 58.135676 
L 300.107107 58.167357 
L 303.386446 58.927678 
L 306.665785 59.614076 
L 309.945124 58.853756 
L 313.224463 58.959357 
L 316.503802 58.135676 
L 319.78314 58.315196 
L 323.062479 57.713277 
L 326.341818 58.536956 
L 329.621157 57.808317 
L 332.900496 58.294077 
L 336.179835 58.346877 
L 339.459174 58.558077 
L 342.738512 57.945597 
L 346.017851 57.987836 
L 349.29719 57.628797 
L 352.576529 57.396477 
L 355.855868 57.491517 
L 359.135207 58.494717 
L 362.414545 57.966716 
L 365.693884 57.523197 
L 368.973223 57.111357 
L 372.252562 57.375357 
L 375.531901 57.301437 
L 378.81124 57.586557 
L 382.090579 57.935037 
L 385.369917 57.143037 
L 388.649256 57.776637 
L 391.928595 57.554878 
L 395.207934 57.259197 
L 398.487273 57.459837 
" clip-path="url(#p3cc8a71506)" style="fill: none; stroke: #ff7f0e; stroke-width: 1.5; stroke-linecap: square"/>
   </g>
   <g id="line2d_15">
    <path d="M 73.832727 146.829122 
L 77.112066 115.50816 
L 80.391405 107.18688 
L 83.670744 101.60064 
L 86.950083 98.654401 
L 90.229421 93.8496 
L 93.50876 89.826241 
L 96.788099 87.481918 
L 100.067438 84.493441 
L 103.346777 82.77216 
L 106.626116 79.952641 
L 109.905455 79.16064 
L 113.184793 78.17856 
L 116.464132 76.457279 
L 119.743471 75.960958 
L 123.02281 75.686399 
L 126.302149 72.581758 
L 129.581488 71.8848 
L 132.860826 70.9872 
L 136.140165 70.638719 
L 139.419504 70.786559 
L 142.698843 70.733759 
L 145.978182 69.65664 
L 149.257521 68.484481 
L 152.53686 68.326081 
L 155.816198 67.101123 
L 159.095537 67.00608 
L 162.374876 68.99136 
L 165.654215 67.333443 
L 168.933554 65.760003 
L 172.212893 64.461121 
L 175.492231 65.010241 
L 178.77157 64.344959 
L 182.050909 62.982719 
L 185.330248 63.98592 
L 188.609587 64.04928 
L 191.888926 63.109441 
L 195.168264 61.778879 
L 198.447603 62.539199 
L 201.726942 61.852799 
L 205.006281 62.718719 
L 208.28562 62.71872 
L 211.564959 62.750401 
L 214.844298 61.97952 
L 218.123636 60.881277 
L 221.402975 60.163197 
L 224.682314 60.395517 
L 227.961653 62.053439 
L 231.240992 62.401918 
L 234.520331 61.356479 
L 237.799669 61.504319 
L 241.079008 60.817917 
L 244.358347 59.920318 
L 247.637686 59.867518 
L 250.917025 59.466238 
L 254.196364 59.730238 
L 257.475702 61.092477 
L 260.755041 60.152639 
L 264.03438 59.920318 
L 267.313719 60.258237 
L 270.593058 59.825278 
L 273.872397 59.392317 
L 277.151736 58.494717 
L 280.431074 59.360637 
L 283.710413 59.983678 
L 286.989752 59.856957 
L 290.269091 59.856957 
L 293.54843 59.413436 
L 296.827769 58.515837 
L 300.107107 59.086079 
L 303.386446 59.497918 
L 306.665785 58.969916 
L 309.945124 59.043838 
L 313.224463 58.959356 
L 316.503802 58.547517 
L 319.78314 59.371197 
L 323.062479 58.177917 
L 326.341818 58.748156 
L 329.621157 58.389116 
L 332.900496 57.597117 
L 336.179835 58.389117 
L 339.459174 58.695357 
L 342.738512 58.420797 
L 346.017851 58.441917 
L 349.29719 58.251837 
L 352.576529 58.515837 
L 355.855868 58.779837 
L 359.135207 57.565437 
L 362.414545 57.470397 
L 365.693884 58.030076 
L 368.973223 58.378558 
L 372.252562 57.639357 
L 375.531901 57.871677 
L 378.81124 58.473596 
L 382.090579 58.822076 
L 385.369917 57.839997 
L 388.649256 57.924476 
L 391.928595 57.248637 
L 395.207934 57.649917 
L 398.487273 57.987836 
" clip-path="url(#p3cc8a71506)" style="fill: none; stroke: #2ca02c; stroke-width: 1.5; stroke-linecap: square"/>
   </g>
   <g id="line2d_16">
    <path d="M 73.832727 239.915519 
L 77.112066 221.61504 
L 80.391405 214.381441 
L 83.670744 209.06976 
L 86.950083 205.7856 
L 90.229421 201.63552 
L 93.50876 197.474879 
L 96.788099 194.66592 
L 100.067438 189.7872 
L 103.346777 187.53792 
L 106.626116 184.507201 
L 109.905455 180.336001 
L 113.184793 177.442561 
L 116.464132 174.834241 
L 119.743471 171.191038 
L 123.02281 167.81184 
L 126.302149 165.889921 
L 129.581488 160.884481 
L 132.860826 158.371201 
L 136.140165 155.44608 
L 139.419504 152.510398 
L 142.698843 149.85984 
L 145.978182 145.815362 
L 149.257521 143.249282 
L 152.53686 140.44032 
L 155.816198 137.7792 
L 159.095537 136.364159 
L 162.374876 132.50976 
L 165.654215 130.672321 
L 168.933554 128.021761 
L 172.212893 126.142082 
L 175.492231 124.1568 
L 178.77157 121.675199 
L 182.050909 120.555837 
L 185.330248 118.496641 
L 188.609587 117.22944 
L 191.888926 114.452161 
L 195.168264 113.892483 
L 198.447603 111.769922 
L 201.726942 110.259842 
L 205.006281 110.608321 
L 208.28562 107.535357 
L 211.564959 106.658879 
L 214.844298 106.014719 
L 218.123636 104.768639 
L 221.402975 103.511998 
L 224.682314 102.603839 
L 227.961653 101.42112 
L 231.240992 100.344 
L 234.520331 100.048322 
L 237.799669 98.517122 
L 241.079008 97.651202 
L 244.358347 97.028161 
L 247.637686 96.046082 
L 250.917025 95.676483 
L 254.196364 94.176961 
L 257.475702 94.176959 
L 260.755041 93.9552 
L 264.03438 92.62464 
L 267.313719 91.241279 
L 270.593058 90.882237 
L 273.872397 91.262398 
L 277.151736 89.551678 
L 280.431074 89.530558 
L 283.710413 89.372157 
L 286.989752 87.777598 
L 290.269091 87.957118 
L 293.54843 87.407998 
L 296.827769 85.67616 
L 300.107107 86.06688 
L 303.386446 85.52832 
L 306.665785 85.76064 
L 309.945124 83.500801 
L 313.224463 83.902082 
L 316.503802 82.043524 
L 319.78314 83.046723 
L 323.062479 83.088963 
L 326.341818 82.096324 
L 329.621157 81.378241 
L 332.900496 80.15328 
L 336.179835 80.881922 
L 339.459174 79.931521 
L 342.738512 78.854401 
L 346.017851 80.903042 
L 349.29719 79.329601 
L 352.576529 78.748802 
L 355.855868 78.199681 
L 359.135207 77.354878 
L 362.414545 76.995839 
L 365.693884 76.256636 
L 368.973223 76.76352 
L 372.252562 76.066558 
L 375.531901 76.36224 
L 378.81124 75.232317 
L 382.090579 74.683198 
L 385.369917 74.334718 
L 388.649256 73.975678 
L 391.928595 75.147837 
L 395.207934 73.965116 
L 398.487273 73.384318 
" clip-path="url(#p3cc8a71506)" style="fill: none; stroke: #d62728; stroke-width: 1.5; stroke-linecap: square"/>
   </g>
   <g id="line2d_17">
    <path d="M 73.832727 172.796159 
L 77.112066 139.415999 
L 80.391405 138.34944 
L 83.670744 136.533119 
L 86.950083 137.81088 
L 90.229421 138.191039 
L 93.50876 141.000001 
L 96.788099 143.228159 
L 100.067438 147.314879 
L 103.346777 148.0752 
L 106.626116 152.552641 
L 109.905455 157.12512 
L 113.184793 159.45888 
L 116.464132 163.82016 
L 119.743471 164.379841 
L 123.02281 167.11488 
L 126.302149 168.392639 
L 129.581488 169.248 
L 132.860826 171.60288 
L 136.140165 172.363201 
L 139.419504 172.96512 
L 142.698843 173.904961 
L 145.978182 175.140481 
L 149.257521 176.460478 
L 152.53686 176.323201 
L 155.816198 177.843841 
L 159.095537 176.819521 
L 162.374876 176.449922 
L 165.654215 176.460482 
L 168.933554 175.752959 
L 172.212893 177.389761 
L 175.492231 176.87232 
L 178.77157 178.699199 
L 182.050909 179.83968 
L 185.330248 177.421439 
L 188.609587 177.75936 
L 191.888926 177.40032 
L 195.168264 176.650561 
L 198.447603 176.8512 
L 201.726942 176.893441 
L 205.006281 177.76992 
L 208.28562 177.51648 
L 211.564959 175.985281 
L 214.844298 175.679042 
L 218.123636 175.7424 
L 221.402975 175.98528 
L 224.682314 175.531201 
L 227.961653 176.41824 
L 231.240992 175.30944 
L 234.520331 176.059199 
L 237.799669 176.249281 
L 241.079008 176.43936 
L 244.358347 174.696961 
L 247.637686 175.25664 
L 250.917025 176.12256 
L 254.196364 177.12576 
L 257.475702 175.99584 
L 260.755041 176.259841 
L 264.03438 175.96416 
L 267.313719 174.834241 
L 270.593058 176.12256 
L 273.872397 175.73184 
L 277.151736 174.64416 
L 280.431074 174.897601 
L 283.710413 174.8976 
L 286.989752 175.615681 
L 290.269091 175.15104 
L 293.54843 175.098241 
L 296.827769 175.024321 
L 300.107107 174.887041 
L 303.386446 175.964161 
L 306.665785 175.23552 
L 309.945124 174.728641 
L 313.224463 174.633601 
L 316.503802 175.0032 
L 319.78314 174.675841 
L 323.062479 174.190081 
L 326.341818 175.161601 
L 329.621157 174.865922 
L 332.900496 174.105602 
L 336.179835 174.707521 
L 339.459174 175.89024 
L 342.738512 175.351681 
L 346.017851 174.960961 
L 349.29719 175.372801 
L 352.576529 177.38976 
L 355.855868 177.46368 
L 359.135207 175.97472 
L 362.414545 175.467841 
L 365.693884 175.7952 
L 368.973223 175.27776 
L 372.252562 174.369601 
L 375.531901 175.024321 
L 378.81124 175.436161 
L 382.090579 175.64736 
L 385.369917 174.939841 
L 388.649256 175.172161 
L 391.928595 174.475202 
L 395.207934 174.760321 
L 398.487273 174.179521 
" clip-path="url(#p3cc8a71506)" style="fill: none; stroke: #9467bd; stroke-width: 1.5; stroke-linecap: square"/>
   </g>
   <g id="patch_3">
    <path d="M 57.6 307.584 
L 57.6 41.472 
" style="fill: none; stroke: #000000; stroke-width: 0.8; stroke-linejoin: miter; stroke-linecap: square"/>
   </g>
   <g id="patch_4">
    <path d="M 414.72 307.584 
L 414.72 41.472 
" style="fill: none; stroke: #000000; stroke-width: 0.8; stroke-linejoin: miter; stroke-linecap: square"/>
   </g>
   <g id="patch_5">
    <path d="M 57.6 307.584 
L 414.72 307.584 
" style="fill: none; stroke: #000000; stroke-width: 0.8; stroke-linejoin: miter; stroke-linecap: square"/>
   </g>
   <g id="patch_6">
    <path d="M 57.6 41.472 
L 414.72 41.472 
" style="fill: none; stroke: #000000; stroke-width: 0.8; stroke-linejoin: miter; stroke-linecap: square"/>
   </g>
   <g id="legend_1">
    <g id="patch_7">
     <path d="M 308.02 302.584 
L 407.72 302.584 
Q 409.72 302.584 409.72 300.584 
L 409.72 228.193375 
Q 409.72 226.193375 407.72 226.193375 
L 308.02 226.193375 
Q 306.02 226.193375 306.02 228.193375 
L 306.02 300.584 
Q 306.02 302.584 308.02 302.584 
z
" style="fill: #ffffff; opacity: 0.8; stroke: #cccccc; stroke-linejoin: miter"/>
    </g>
    <g id="line2d_18">
     <path d="M 310.02 234.291812 
L 320.02 234.291812 
L 330.02 234.291812 
" style="fill: none; stroke: #1f77b4; stroke-width: 1.5; stroke-linecap: square"/>
    </g>
    <g id="text_15">
     <!-- $H_1$ (1 filters) -->
     <g transform="translate(338.02 237.791812) scale(0.1 -0.1)">
      <defs>
       <path id="DejaVuSans-Oblique-48" d="M 1081 4666 
L 1716 4666 
L 1344 2753 
L 3634 2753 
L 4006 4666 
L 4641 4666 
L 3731 0 
L 3097 0 
L 3531 2222 
L 1241 2222 
L 806 0 
L 172 0 
L 1081 4666 
z
" transform="scale(0.015625)"/>
       <path id="DejaVuSans-28" d="M 1984 4856 
Q 1566 4138 1362 3434 
Q 1159 2731 1159 2009 
Q 1159 1288 1364 580 
Q 1569 -128 1984 -844 
L 1484 -844 
Q 1016 -109 783 600 
Q 550 1309 550 2009 
Q 550 2706 781 3412 
Q 1013 4119 1484 4856 
L 1984 4856 
z
" transform="scale(0.015625)"/>
       <path id="DejaVuSans-66" d="M 2375 4863 
L 2375 4384 
L 1825 4384 
Q 1516 4384 1395 4259 
Q 1275 4134 1275 3809 
L 1275 3500 
L 2222 3500 
L 2222 3053 
L 1275 3053 
L 1275 0 
L 697 0 
L 697 3053 
L 147 3053 
L 147 3500 
L 697 3500 
L 697 3744 
Q 697 4328 969 4595 
Q 1241 4863 1831 4863 
L 2375 4863 
z
" transform="scale(0.015625)"/>
       <path id="DejaVuSans-69" d="M 603 3500 
L 1178 3500 
L 1178 0 
L 603 0 
L 603 3500 
z
M 603 4863 
L 1178 4863 
L 1178 4134 
L 603 4134 
L 603 4863 
z
" transform="scale(0.015625)"/>
       <path id="DejaVuSans-6c" d="M 603 4863 
L 1178 4863 
L 1178 0 
L 603 0 
L 603 4863 
z
" transform="scale(0.015625)"/>
       <path id="DejaVuSans-74" d="M 1172 4494 
L 1172 3500 
L 2356 3500 
L 2356 3053 
L 1172 3053 
L 1172 1153 
Q 1172 725 1289 603 
Q 1406 481 1766 481 
L 2356 481 
L 2356 0 
L 1766 0 
Q 1100 0 847 248 
Q 594 497 594 1153 
L 594 3053 
L 172 3053 
L 172 3500 
L 594 3500 
L 594 4494 
L 1172 4494 
z
" transform="scale(0.015625)"/>
       <path id="DejaVuSans-29" d="M 513 4856 
L 1013 4856 
Q 1481 4119 1714 3412 
Q 1947 2706 1947 2009 
Q 1947 1309 1714 600 
Q 1481 -109 1013 -844 
L 513 -844 
Q 928 -128 1133 580 
Q 1338 1288 1338 2009 
Q 1338 2731 1133 3434 
Q 928 4138 513 4856 
z
" transform="scale(0.015625)"/>
      </defs>
      <use xlink:href="#DejaVuSans-Oblique-48" transform="translate(0 0.015625)"/>
      <use xlink:href="#DejaVuSans-31" transform="translate(75.195312 -16.390625) scale(0.7)"/>
      <use xlink:href="#DejaVuSans-20" transform="translate(122.46582 0.015625)"/>
      <use xlink:href="#DejaVuSans-28" transform="translate(154.25293 0.015625)"/>
      <use xlink:href="#DejaVuSans-31" transform="translate(193.266602 0.015625)"/>
      <use xlink:href="#DejaVuSans-20" transform="translate(256.889648 0.015625)"/>
      <use xlink:href="#DejaVuSans-66" transform="translate(288.676758 0.015625)"/>
      <use xlink:href="#DejaVuSans-69" transform="translate(323.881836 0.015625)"/>
      <use xlink:href="#DejaVuSans-6c" transform="translate(351.665039 0.015625)"/>
      <use xlink:href="#DejaVuSans-74" transform="translate(379.448242 0.015625)"/>
      <use xlink:href="#DejaVuSans-65" transform="translate(418.657227 0.015625)"/>
      <use xlink:href="#DejaVuSans-72" transform="translate(480.180664 0.015625)"/>
      <use xlink:href="#DejaVuSans-73" transform="translate(521.293945 0.015625)"/>
      <use xlink:href="#DejaVuSans-29" transform="translate(573.393555 0.015625)"/>
     </g>
    </g>
    <g id="line2d_19">
     <path d="M 310.02 248.969937 
L 320.02 248.969937 
L 330.02 248.969937 
" style="fill: none; stroke: #ff7f0e; stroke-width: 1.5; stroke-linecap: square"/>
    </g>
    <g id="text_16">
     <!-- $H_1$ (20 filters) -->
     <g transform="translate(338.02 252.469937) scale(0.1 -0.1)">
      <use xlink:href="#DejaVuSans-Oblique-48" transform="translate(0 0.015625)"/>
      <use xlink:href="#DejaVuSans-31" transform="translate(75.195312 -16.390625) scale(0.7)"/>
      <use xlink:href="#DejaVuSans-20" transform="translate(122.46582 0.015625)"/>
      <use xlink:href="#DejaVuSans-28" transform="translate(154.25293 0.015625)"/>
      <use xlink:href="#DejaVuSans-32" transform="translate(193.266602 0.015625)"/>
      <use xlink:href="#DejaVuSans-30" transform="translate(256.889648 0.015625)"/>
      <use xlink:href="#DejaVuSans-20" transform="translate(320.512695 0.015625)"/>
      <use xlink:href="#DejaVuSans-66" transform="translate(352.299805 0.015625)"/>
      <use xlink:href="#DejaVuSans-69" transform="translate(387.504883 0.015625)"/>
      <use xlink:href="#DejaVuSans-6c" transform="translate(415.288086 0.015625)"/>
      <use xlink:href="#DejaVuSans-74" transform="translate(443.071289 0.015625)"/>
      <use xlink:href="#DejaVuSans-65" transform="translate(482.280273 0.015625)"/>
      <use xlink:href="#DejaVuSans-72" transform="translate(543.803711 0.015625)"/>
      <use xlink:href="#DejaVuSans-73" transform="translate(584.916992 0.015625)"/>
      <use xlink:href="#DejaVuSans-29" transform="translate(637.016602 0.015625)"/>
     </g>
    </g>
    <g id="line2d_20">
     <path d="M 310.02 263.648062 
L 320.02 263.648062 
L 330.02 263.648062 
" style="fill: none; stroke: #2ca02c; stroke-width: 1.5; stroke-linecap: square"/>
    </g>
    <g id="text_17">
     <!-- $H_1$ (50 filters) -->
     <g transform="translate(338.02 267.148062) scale(0.1 -0.1)">
      <defs>
       <path id="DejaVuSans-35" d="M 691 4666 
L 3169 4666 
L 3169 4134 
L 1269 4134 
L 1269 2991 
Q 1406 3038 1543 3061 
Q 1681 3084 1819 3084 
Q 2600 3084 3056 2656 
Q 3513 2228 3513 1497 
Q 3513 744 3044 326 
Q 2575 -91 1722 -91 
Q 1428 -91 1123 -41 
Q 819 9 494 109 
L 494 744 
Q 775 591 1075 516 
Q 1375 441 1709 441 
Q 2250 441 2565 725 
Q 2881 1009 2881 1497 
Q 2881 1984 2565 2268 
Q 2250 2553 1709 2553 
Q 1456 2553 1204 2497 
Q 953 2441 691 2322 
L 691 4666 
z
" transform="scale(0.015625)"/>
      </defs>
      <use xlink:href="#DejaVuSans-Oblique-48" transform="translate(0 0.015625)"/>
      <use xlink:href="#DejaVuSans-31" transform="translate(75.195312 -16.390625) scale(0.7)"/>
      <use xlink:href="#DejaVuSans-20" transform="translate(122.46582 0.015625)"/>
      <use xlink:href="#DejaVuSans-28" transform="translate(154.25293 0.015625)"/>
      <use xlink:href="#DejaVuSans-35" transform="translate(193.266602 0.015625)"/>
      <use xlink:href="#DejaVuSans-30" transform="translate(256.889648 0.015625)"/>
      <use xlink:href="#DejaVuSans-20" transform="translate(320.512695 0.015625)"/>
      <use xlink:href="#DejaVuSans-66" transform="translate(352.299805 0.015625)"/>
      <use xlink:href="#DejaVuSans-69" transform="translate(387.504883 0.015625)"/>
      <use xlink:href="#DejaVuSans-6c" transform="translate(415.288086 0.015625)"/>
      <use xlink:href="#DejaVuSans-74" transform="translate(443.071289 0.015625)"/>
      <use xlink:href="#DejaVuSans-65" transform="translate(482.280273 0.015625)"/>
      <use xlink:href="#DejaVuSans-72" transform="translate(543.803711 0.015625)"/>
      <use xlink:href="#DejaVuSans-73" transform="translate(584.916992 0.015625)"/>
      <use xlink:href="#DejaVuSans-29" transform="translate(637.016602 0.015625)"/>
     </g>
    </g>
    <g id="line2d_21">
     <path d="M 310.02 278.326188 
L 320.02 278.326188 
L 330.02 278.326188 
" style="fill: none; stroke: #d62728; stroke-width: 1.5; stroke-linecap: square"/>
    </g>
    <g id="text_18">
     <!-- $H_2$ (4 filters) -->
     <g transform="translate(338.02 281.826188) scale(0.1 -0.1)">
      <use xlink:href="#DejaVuSans-Oblique-48" transform="translate(0 0.015625)"/>
      <use xlink:href="#DejaVuSans-32" transform="translate(75.195312 -16.390625) scale(0.7)"/>
      <use xlink:href="#DejaVuSans-20" transform="translate(122.46582 0.015625)"/>
      <use xlink:href="#DejaVuSans-28" transform="translate(154.25293 0.015625)"/>
      <use xlink:href="#DejaVuSans-34" transform="translate(193.266602 0.015625)"/>
      <use xlink:href="#DejaVuSans-20" transform="translate(256.889648 0.015625)"/>
      <use xlink:href="#DejaVuSans-66" transform="translate(288.676758 0.015625)"/>
      <use xlink:href="#DejaVuSans-69" transform="translate(323.881836 0.015625)"/>
      <use xlink:href="#DejaVuSans-6c" transform="translate(351.665039 0.015625)"/>
      <use xlink:href="#DejaVuSans-74" transform="translate(379.448242 0.015625)"/>
      <use xlink:href="#DejaVuSans-65" transform="translate(418.657227 0.015625)"/>
      <use xlink:href="#DejaVuSans-72" transform="translate(480.180664 0.015625)"/>
      <use xlink:href="#DejaVuSans-73" transform="translate(521.293945 0.015625)"/>
      <use xlink:href="#DejaVuSans-29" transform="translate(573.393555 0.015625)"/>
     </g>
    </g>
    <g id="line2d_22">
     <path d="M 310.02 293.004312 
L 320.02 293.004312 
L 330.02 293.004312 
" style="fill: none; stroke: #9467bd; stroke-width: 1.5; stroke-linecap: square"/>
    </g>
    <g id="text_19">
     <!-- $H_3$ -->
     <g transform="translate(338.02 296.504312) scale(0.1 -0.1)">
      <defs>
       <path id="DejaVuSans-33" d="M 2597 2516 
Q 3050 2419 3304 2112 
Q 3559 1806 3559 1356 
Q 3559 666 3084 287 
Q 2609 -91 1734 -91 
Q 1441 -91 1130 -33 
Q 819 25 488 141 
L 488 750 
Q 750 597 1062 519 
Q 1375 441 1716 441 
Q 2309 441 2620 675 
Q 2931 909 2931 1356 
Q 2931 1769 2642 2001 
Q 2353 2234 1838 2234 
L 1294 2234 
L 1294 2753 
L 1863 2753 
Q 2328 2753 2575 2939 
Q 2822 3125 2822 3475 
Q 2822 3834 2567 4026 
Q 2313 4219 1838 4219 
Q 1578 4219 1281 4162 
Q 984 4106 628 3988 
L 628 4550 
Q 988 4650 1302 4700 
Q 1616 4750 1894 4750 
Q 2613 4750 3031 4423 
Q 3450 4097 3450 3541 
Q 3450 3153 3228 2886 
Q 3006 2619 2597 2516 
z
" transform="scale(0.015625)"/>
      </defs>
      <use xlink:href="#DejaVuSans-Oblique-48" transform="translate(0 0.09375)"/>
      <use xlink:href="#DejaVuSans-33" transform="translate(75.195312 -16.3125) scale(0.7)"/>
     </g>
    </g>
   </g>
  </g>
 </g>
 <defs>
  <clipPath id="p3cc8a71506">
   <rect x="57.6" y="41.472" width="357.12" height="266.112"/>
  </clipPath>
 </defs>
</svg>
