<?xml version="1.0" encoding="utf-8" standalone="no"?>
<!DOCTYPE svg PUBLIC "-//W3C//DTD SVG 1.1//EN"
  "http://www.w3.org/Graphics/SVG/1.1/DTD/svg11.dtd">
<svg xmlns:xlink="http://www.w3.org/1999/xlink" width="460.8pt" height="345.6pt" viewBox="0 0 460.8 345.6" xmlns="http://www.w3.org/2000/svg" version="1.1">
 <metadata>
  <rdf:RDF xmlns:dc="http://purl.org/dc/elements/1.1/" xmlns:cc="http://creativecommons.org/ns#" xmlns:rdf="http://www.w3.org/1999/02/22-rdf-syntax-ns#">
   <cc:Work>
    <dc:type rdf:resource="http://purl.org/dc/dcmitype/StillImage"/>
    <dc:date>2023-01-06T09:08:45.421225</dc:date>
    <dc:format>image/svg+xml</dc:format>
    <dc:creator>
     <cc:Agent>
      <dc:title>Matplotlib v3.6.2, https://matplotlib.org/</dc:title>
     </cc:Agent>
    </dc:creator>
   </cc:Work>
  </rdf:RDF>
 </metadata>
 <defs>
  <style type="text/css">*{stroke-linejoin: round; stroke-linecap: butt}</style>
 </defs>
 <g id="figure_1">
  <g id="patch_1">
   <path d="M 0 345.6 
L 460.8 345.6 
L 460.8 0 
L 0 0 
z
" style="fill: #ffffff"/>
  </g>
  <g id="axes_1">
   <g id="patch_2">
    <path d="M 57.6 307.584 
L 414.72 307.584 
L 414.72 41.472 
L 57.6 41.472 
z
" style="fill: #ffffff"/>
   </g>
   <g id="PolyCollection_1">
    <path d="M 73.832727 155.233658 
L 73.832727 232.957701 
L 77.112066 211.41192 
L 80.391405 202.848902 
L 83.670744 198.11851 
L 86.950083 195.118994 
L 90.229421 191.267947 
L 93.50876 189.24383 
L 96.788099 187.185919 
L 100.067438 186.229229 
L 103.346777 184.104272 
L 106.626116 183.81002 
L 109.905455 182.640145 
L 113.184793 182.085962 
L 116.464132 181.50119 
L 119.743471 180.442553 
L 123.02281 180.429089 
L 126.302149 180.162519 
L 129.581488 179.232499 
L 132.860826 178.004945 
L 136.140165 178.379044 
L 139.419504 177.852764 
L 142.698843 177.842092 
L 145.978182 177.040241 
L 149.257521 176.508624 
L 152.53686 175.827502 
L 155.816198 176.617329 
L 159.095537 175.84761 
L 162.374876 175.133006 
L 165.654215 174.800776 
L 168.933554 174.531184 
L 172.212893 175.380443 
L 175.492231 173.846565 
L 178.77157 174.064827 
L 182.050909 173.830302 
L 185.330248 173.548672 
L 188.609587 173.772388 
L 191.888926 173.490855 
L 195.168264 173.43895 
L 198.447603 173.187004 
L 201.726942 173.227538 
L 205.006281 172.992502 
L 208.28562 172.342087 
L 211.564959 172.450788 
L 214.844298 172.830399 
L 218.123636 172.350399 
L 221.402975 172.392624 
L 224.682314 171.965266 
L 227.961653 171.84429 
L 231.240992 171.663552 
L 234.520331 171.758742 
L 237.799669 171.96846 
L 241.079008 171.782973 
L 244.358347 171.592167 
L 247.637686 171.323483 
L 250.917025 171.532968 
L 254.196364 171.856934 
L 257.475702 172.075407 
L 260.755041 172.022518 
L 264.03438 171.929894 
L 267.313719 171.266493 
L 270.593058 171.569521 
L 273.872397 171.365847 
L 277.151736 171.353705 
L 280.431074 170.939395 
L 283.710413 171.14457 
L 286.989752 170.569741 
L 290.269091 171.018319 
L 293.54843 171.306369 
L 296.827769 170.897134 
L 300.107107 170.663924 
L 303.386446 171.132569 
L 306.665785 170.449183 
L 309.945124 170.275419 
L 313.224463 171.670056 
L 316.503802 170.845621 
L 319.78314 170.565909 
L 323.062479 170.526315 
L 326.341818 170.412353 
L 329.621157 170.436126 
L 332.900496 170.389932 
L 336.179835 170.706216 
L 339.459174 171.244172 
L 342.738512 170.678704 
L 346.017851 170.241746 
L 349.29719 170.026735 
L 352.576529 170.405398 
L 355.855868 170.474729 
L 359.135207 170.218198 
L 362.414545 170.019086 
L 365.693884 170.948999 
L 368.973223 170.470958 
L 372.252562 170.620677 
L 375.531901 170.227975 
L 378.81124 170.018928 
L 382.090579 170.081446 
L 385.369917 170.790154 
L 388.649256 170.272217 
L 391.928595 169.925967 
L 395.207934 169.953964 
L 398.487273 170.224319 
L 398.487273 11.666875 
L 398.487273 11.666875 
L 395.207934 10.902351 
L 391.928595 11.057068 
L 388.649256 11.259938 
L 385.369917 11.84024 
L 382.090579 11.830869 
L 378.81124 11.661066 
L 375.531901 11.768819 
L 372.252562 12.305396 
L 368.973223 12.729678 
L 365.693884 12.462835 
L 362.414545 11.682028 
L 359.135207 12.116517 
L 355.855868 12.789264 
L 352.576529 12.626275 
L 349.29719 11.695499 
L 346.017851 12.198569 
L 342.738512 12.036171 
L 339.459174 12.611182 
L 336.179835 12.494419 
L 332.900496 11.881422 
L 329.621157 12.680027 
L 326.341818 12.61932 
L 323.062479 12.906638 
L 319.78314 12.972646 
L 316.503802 12.861893 
L 313.224463 13.114579 
L 309.945124 12.207136 
L 306.665785 12.688091 
L 303.386446 12.955104 
L 300.107107 13.25479 
L 296.827769 13.16942 
L 293.54843 13.478264 
L 290.269091 13.681835 
L 286.989752 12.989933 
L 283.710413 13.365503 
L 280.431074 13.908599 
L 277.151736 13.853328 
L 273.872397 14.094627 
L 270.593058 14.186634 
L 267.313719 14.616383 
L 264.03438 15.030103 
L 260.755041 15.064197 
L 257.475702 15.49707 
L 254.196364 14.089301 
L 250.917025 14.85679 
L 247.637686 14.791714 
L 244.358347 15.410072 
L 241.079008 15.979584 
L 237.799669 15.751855 
L 234.520331 15.750377 
L 231.240992 15.592126 
L 227.961653 15.474747 
L 224.682314 16.304172 
L 221.402975 15.897932 
L 218.123636 17.18624 
L 214.844298 16.199359 
L 211.564959 16.705687 
L 208.28562 17.257909 
L 205.006281 17.663494 
L 201.726942 19.202541 
L 198.447603 18.947396 
L 195.168264 19.751452 
L 191.888926 19.741788 
L 188.609587 19.988257 
L 185.330248 19.451648 
L 182.050909 19.698017 
L 178.77157 20.181573 
L 175.492231 19.871835 
L 172.212893 22.32964 
L 168.933554 21.827215 
L 165.654215 22.613628 
L 162.374876 22.914998 
L 159.095537 24.037835 
L 155.816198 25.042194 
L 152.53686 24.416982 
L 149.257521 25.552179 
L 145.978182 25.527441 
L 142.698843 26.94319 
L 139.419504 28.263074 
L 136.140165 28.982879 
L 132.860826 29.272496 
L 129.581488 31.593102 
L 126.302149 32.01476 
L 123.02281 32.930911 
L 119.743471 34.585924 
L 116.464132 36.188405 
L 113.184793 38.116917 
L 109.905455 39.63249 
L 106.626116 41.165978 
L 103.346777 42.81477 
L 100.067438 47.659413 
L 96.788099 49.976323 
L 93.50876 54.613447 
L 90.229421 59.030933 
L 86.950083 66.648044 
L 83.670744 76.08821 
L 80.391405 87.387899 
L 77.112066 104.844722 
L 73.832727 155.233658 
z
" clip-path="url(#paaaa3fd302)" style="fill: #1f77b4; fill-opacity: 0.2"/>
   </g>
   <g id="PolyCollection_2">
    <path d="M 73.832727 128.372093 
L 73.832727 138.780545 
L 77.112066 82.479909 
L 80.391405 70.7551 
L 83.670744 66.918928 
L 86.950083 65.293273 
L 90.229421 67.264818 
L 93.50876 67.946207 
L 96.788099 68.484659 
L 100.067438 65.326335 
L 103.346777 64.806519 
L 106.626116 64.893858 
L 109.905455 65.297101 
L 113.184793 66.267906 
L 116.464132 64.414244 
L 119.743471 64.01023 
L 123.02281 63.175534 
L 126.302149 63.563933 
L 129.581488 62.354963 
L 132.860826 62.137791 
L 136.140165 62.403246 
L 139.419504 62.599029 
L 142.698843 61.588982 
L 145.978182 60.317501 
L 149.257521 60.115502 
L 152.53686 60.832108 
L 155.816198 60.183472 
L 159.095537 60.530084 
L 162.374876 60.12364 
L 165.654215 60.830219 
L 168.933554 59.616265 
L 172.212893 59.397686 
L 175.492231 59.780617 
L 178.77157 59.526024 
L 182.050909 59.745553 
L 185.330248 59.572745 
L 188.609587 58.850085 
L 191.888926 58.20305 
L 195.168264 58.405903 
L 198.447603 58.345879 
L 201.726942 58.443029 
L 205.006281 58.045372 
L 208.28562 57.69225 
L 211.564959 58.693689 
L 214.844298 58.126618 
L 218.123636 57.46965 
L 221.402975 58.301366 
L 224.682314 58.805684 
L 227.961653 57.684126 
L 231.240992 57.359135 
L 234.520331 57.962451 
L 237.799669 58.071673 
L 241.079008 57.871389 
L 244.358347 57.021069 
L 247.637686 57.13219 
L 250.917025 56.555095 
L 254.196364 57.518419 
L 257.475702 56.635785 
L 260.755041 57.192329 
L 264.03438 56.905155 
L 267.313719 57.293595 
L 270.593058 57.528465 
L 273.872397 57.129598 
L 277.151736 56.628296 
L 280.431074 56.942598 
L 283.710413 56.629457 
L 286.989752 57.210592 
L 290.269091 57.091947 
L 293.54843 57.256397 
L 296.827769 57.058224 
L 300.107107 56.48032 
L 303.386446 56.623269 
L 306.665785 56.580525 
L 309.945124 56.581988 
L 313.224463 56.203481 
L 316.503802 56.953502 
L 319.78314 56.521714 
L 323.062479 56.159286 
L 326.341818 56.531243 
L 329.621157 56.336562 
L 332.900496 56.612305 
L 336.179835 56.288877 
L 339.459174 56.552745 
L 342.738512 56.883619 
L 346.017851 56.884534 
L 349.29719 56.121391 
L 352.576529 56.436244 
L 355.855868 56.03385 
L 359.135207 56.189918 
L 362.414545 56.669017 
L 365.693884 56.785569 
L 368.973223 56.669031 
L 372.252562 56.015632 
L 375.531901 56.233572 
L 378.81124 55.820222 
L 382.090579 56.664946 
L 385.369917 56.34887 
L 388.649256 56.136335 
L 391.928595 56.217179 
L 395.207934 55.760646 
L 398.487273 55.957754 
L 398.487273 54.568964 
L 398.487273 54.568964 
L 395.207934 54.491512 
L 391.928595 54.584098 
L 388.649256 54.707182 
L 385.369917 55.064887 
L 382.090579 55.086731 
L 378.81124 54.516416 
L 375.531901 54.356506 
L 372.252562 54.637806 
L 368.973223 54.892566 
L 365.693884 54.797148 
L 362.414545 54.87146 
L 359.135207 54.71696 
L 355.855868 54.598468 
L 352.576529 54.745194 
L 349.29719 54.658766 
L 346.017851 54.951623 
L 342.738512 55.248218 
L 339.459174 54.670932 
L 336.179835 54.89256 
L 332.900496 54.738092 
L 329.621157 54.802635 
L 326.341818 54.903634 
L 323.062479 54.494152 
L 319.78314 54.765323 
L 316.503802 54.903775 
L 313.224463 55.020196 
L 309.945124 54.874009 
L 306.665785 54.812112 
L 303.386446 54.853848 
L 300.107107 54.954557 
L 296.827769 55.052493 
L 293.54843 55.466798 
L 290.269091 54.80757 
L 286.989752 55.026844 
L 283.710413 54.80542 
L 280.431074 55.273718 
L 277.151736 54.848821 
L 273.872397 55.234558 
L 270.593058 55.152491 
L 267.313719 55.239521 
L 264.03438 55.226681 
L 260.755041 55.129587 
L 257.475702 54.841332 
L 254.196364 54.909097 
L 250.917025 54.985382 
L 247.637686 55.189726 
L 244.358347 55.702127 
L 241.079008 55.928925 
L 237.799669 55.644162 
L 234.520331 55.352104 
L 231.240992 55.53302 
L 227.961653 55.609309 
L 224.682314 55.522631 
L 221.402975 55.372229 
L 218.123636 55.528105 
L 214.844298 55.525857 
L 211.564959 55.951425 
L 208.28562 55.305505 
L 205.006281 55.332543 
L 201.726942 55.336166 
L 198.447603 56.109155 
L 195.168264 56.196971 
L 191.888926 56.420944 
L 188.609587 56.787668 
L 185.330248 57.121007 
L 182.050909 56.27236 
L 178.77157 56.344049 
L 175.492231 56.554095 
L 172.212893 57.253826 
L 168.933554 56.148209 
L 165.654215 56.032494 
L 162.374876 56.380034 
L 159.095537 56.543829 
L 155.816198 57.017161 
L 152.53686 57.297804 
L 149.257521 56.72609 
L 145.978182 57.136572 
L 142.698843 57.322372 
L 139.419504 57.389445 
L 136.140165 58.197709 
L 132.860826 57.850685 
L 129.581488 58.245991 
L 126.302149 58.684384 
L 123.02281 58.967184 
L 119.743471 58.61825 
L 116.464132 59.396957 
L 113.184793 59.950972 
L 109.905455 60.541622 
L 106.626116 58.896218 
L 103.346777 60.039563 
L 100.067438 61.39943 
L 96.788099 62.127187 
L 93.50876 62.05316 
L 90.229421 61.657425 
L 86.950083 61.03121 
L 83.670744 62.003319 
L 80.391405 65.200104 
L 77.112066 75.609053 
L 73.832727 128.372093 
z
" clip-path="url(#paaaa3fd302)" style="fill: #ff7f0e; fill-opacity: 0.2"/>
   </g>
   <g id="PolyCollection_3">
    <path d="M 73.832727 121.153734 
L 73.832727 127.920187 
L 77.112066 81.281748 
L 80.391405 74.233093 
L 83.670744 72.815931 
L 86.950083 71.037316 
L 90.229421 72.340414 
L 93.50876 68.538734 
L 96.788099 68.134716 
L 100.067438 65.390575 
L 103.346777 65.392784 
L 106.626116 65.339282 
L 109.905455 64.518599 
L 113.184793 65.123273 
L 116.464132 64.499116 
L 119.743471 62.754147 
L 123.02281 63.426153 
L 126.302149 60.45746 
L 129.581488 61.400269 
L 132.860826 61.271137 
L 136.140165 62.527579 
L 139.419504 61.98388 
L 142.698843 60.530309 
L 145.978182 60.63718 
L 149.257521 60.6405 
L 152.53686 60.37822 
L 155.816198 59.027419 
L 159.095537 59.576159 
L 162.374876 60.303413 
L 165.654215 59.481201 
L 168.933554 59.767061 
L 172.212893 58.447035 
L 175.492231 59.337264 
L 178.77157 59.526445 
L 182.050909 58.619491 
L 185.330248 60.348962 
L 188.609587 58.31653 
L 191.888926 58.255657 
L 195.168264 57.926731 
L 198.447603 59.136316 
L 201.726942 58.093183 
L 205.006281 58.480887 
L 208.28562 57.823217 
L 211.564959 57.369916 
L 214.844298 57.19549 
L 218.123636 58.212469 
L 221.402975 58.557299 
L 224.682314 58.307758 
L 227.961653 57.572272 
L 231.240992 57.323421 
L 234.520331 57.667181 
L 237.799669 57.515823 
L 241.079008 57.499751 
L 244.358347 57.398698 
L 247.637686 57.658604 
L 250.917025 57.561104 
L 254.196364 57.247408 
L 257.475702 57.059225 
L 260.755041 56.976649 
L 264.03438 56.865834 
L 267.313719 57.084669 
L 270.593058 56.997579 
L 273.872397 56.99893 
L 277.151736 56.887631 
L 280.431074 57.136987 
L 283.710413 57.053263 
L 286.989752 56.989905 
L 290.269091 56.319526 
L 293.54843 56.593918 
L 296.827769 56.481846 
L 300.107107 56.448253 
L 303.386446 56.564666 
L 306.665785 56.258478 
L 309.945124 56.638267 
L 313.224463 56.789108 
L 316.503802 56.401228 
L 319.78314 57.167272 
L 323.062479 56.419982 
L 326.341818 55.934275 
L 329.621157 56.122433 
L 332.900496 56.495059 
L 336.179835 56.244484 
L 339.459174 56.472994 
L 342.738512 56.281631 
L 346.017851 56.44022 
L 349.29719 56.298981 
L 352.576529 55.957754 
L 355.855868 56.053375 
L 359.135207 56.411351 
L 362.414545 56.375692 
L 365.693884 56.248374 
L 368.973223 56.44728 
L 372.252562 56.176859 
L 375.531901 56.005039 
L 378.81124 56.287335 
L 382.090579 56.045458 
L 385.369917 55.937513 
L 388.649256 55.82359 
L 391.928595 56.220594 
L 395.207934 56.19341 
L 398.487273 56.181731 
L 398.487273 54.577307 
L 398.487273 54.577307 
L 395.207934 54.460027 
L 391.928595 54.517323 
L 388.649256 54.407448 
L 385.369917 54.483605 
L 382.090579 54.69246 
L 378.81124 54.661782 
L 375.531901 54.563919 
L 372.252562 54.793379 
L 368.973223 54.776397 
L 365.693884 54.764104 
L 362.414545 54.636785 
L 359.135207 54.474406 
L 355.855868 54.874623 
L 352.576529 54.568964 
L 349.29719 54.797976 
L 346.017851 54.656738 
L 342.738512 54.646366 
L 339.459174 54.581724 
L 336.179835 54.725753 
L 332.900496 54.834218 
L 329.621157 54.467645 
L 326.341818 54.761403 
L 323.062479 54.676976 
L 319.78314 55.302484 
L 316.503802 54.780209 
L 313.224463 54.645769 
L 309.945124 54.83885 
L 306.665785 54.817359 
L 303.386446 54.954691 
L 300.107107 55.113344 
L 296.827769 54.868551 
L 293.54843 54.735359 
L 290.269091 54.988632 
L 286.989752 54.719532 
L 283.710413 55.036333 
L 280.431074 54.783649 
L 277.151736 55.075246 
L 273.872397 54.963946 
L 270.593058 55.028658 
L 267.313719 54.667008 
L 264.03438 55.012563 
L 260.755041 55.239667 
L 257.475702 55.389411 
L 254.196364 55.433548 
L 250.917025 55.352172 
L 247.637686 54.980111 
L 244.358347 54.986578 
L 241.079008 55.392405 
L 237.799669 55.587533 
L 234.520331 55.415054 
L 231.240992 54.871775 
L 227.961653 54.791884 
L 224.682314 55.661516 
L 221.402975 55.411977 
L 218.123636 55.608966 
L 214.844298 55.591066 
L 211.564959 55.12096 
L 208.28562 55.301258 
L 205.006281 55.720707 
L 201.726942 55.453692 
L 198.447603 55.783357 
L 195.168264 55.451184 
L 191.888926 55.945938 
L 188.609587 56.391944 
L 185.330248 56.218072 
L 182.050909 55.983383 
L 178.77157 55.921229 
L 175.492231 56.173771 
L 172.212893 56.198079 
L 168.933554 56.293093 
L 165.654215 56.769031 
L 162.374876 57.150659 
L 159.095537 56.631834 
L 155.816198 56.272415 
L 152.53686 56.526732 
L 149.257521 57.088132 
L 145.978182 57.619454 
L 142.698843 56.184565 
L 139.419504 57.223155 
L 136.140165 57.693216 
L 132.860826 56.985495 
L 129.581488 56.286128 
L 126.302149 56.363013 
L 123.02281 57.069203 
L 119.743471 58.733846 
L 116.464132 58.699602 
L 113.184793 59.427129 
L 109.905455 59.123642 
L 106.626116 57.901677 
L 103.346777 61.311859 
L 100.067438 60.807187 
L 96.788099 61.463366 
L 93.50876 63.086872 
L 90.229421 64.860867 
L 86.950083 65.720447 
L 83.670744 66.919749 
L 80.391405 68.733944 
L 77.112066 74.230572 
L 73.832727 121.153734 
z
" clip-path="url(#paaaa3fd302)" style="fill: #2ca02c; fill-opacity: 0.2"/>
   </g>
   <g id="PolyCollection_4">
    <path d="M 73.832727 279.75142 
L 73.832727 284.982021 
L 77.112066 282.706446 
L 80.391405 279.103097 
L 83.670744 278.950165 
L 86.950083 279.196004 
L 90.229421 277.370595 
L 93.50876 277.987185 
L 96.788099 276.784046 
L 100.067438 275.662394 
L 103.346777 274.496282 
L 106.626116 274.143342 
L 109.905455 272.458471 
L 113.184793 272.958162 
L 116.464132 272.643904 
L 119.743471 273.076529 
L 123.02281 270.621527 
L 126.302149 271.188442 
L 129.581488 269.407819 
L 132.860826 270.152428 
L 136.140165 267.445299 
L 139.419504 268.167028 
L 142.698843 267.00261 
L 145.978182 266.492351 
L 149.257521 266.26886 
L 152.53686 265.595732 
L 155.816198 265.216393 
L 159.095537 264.560727 
L 162.374876 263.788756 
L 165.654215 263.733984 
L 168.933554 260.859338 
L 172.212893 261.111952 
L 175.492231 261.486415 
L 178.77157 259.570658 
L 182.050909 258.628292 
L 185.330248 259.569346 
L 188.609587 257.971765 
L 191.888926 257.001194 
L 195.168264 257.169947 
L 198.447603 256.433759 
L 201.726942 255.326175 
L 205.006281 253.835607 
L 208.28562 253.742454 
L 211.564959 253.118298 
L 214.844298 252.487583 
L 218.123636 251.980653 
L 221.402975 251.686766 
L 224.682314 251.207494 
L 227.961653 249.691192 
L 231.240992 248.903333 
L 234.520331 248.500851 
L 237.799669 248.381796 
L 241.079008 247.327494 
L 244.358347 245.56143 
L 247.637686 245.485726 
L 250.917025 244.592005 
L 254.196364 244.426415 
L 257.475702 245.565017 
L 260.755041 242.840294 
L 264.03438 242.803305 
L 267.313719 242.49539 
L 270.593058 241.74016 
L 273.872397 240.616223 
L 277.151736 239.848393 
L 280.431074 239.082039 
L 283.710413 238.43663 
L 286.989752 238.807851 
L 290.269091 238.18422 
L 293.54843 237.580138 
L 296.827769 236.848317 
L 300.107107 236.143839 
L 303.386446 234.314121 
L 306.665785 236.527093 
L 309.945124 234.875927 
L 313.224463 234.726719 
L 316.503802 234.69128 
L 319.78314 234.133504 
L 323.062479 233.547095 
L 326.341818 233.758009 
L 329.621157 232.362682 
L 332.900496 232.115661 
L 336.179835 232.216335 
L 339.459174 230.880297 
L 342.738512 230.049902 
L 346.017851 230.920734 
L 349.29719 228.60254 
L 352.576529 230.304779 
L 355.855868 228.932965 
L 359.135207 228.840619 
L 362.414545 226.418324 
L 365.693884 227.762172 
L 368.973223 227.201042 
L 372.252562 227.385092 
L 375.531901 224.958101 
L 378.81124 225.963721 
L 382.090579 226.047965 
L 385.369917 224.755487 
L 388.649256 226.547745 
L 391.928595 225.180122 
L 395.207934 224.252383 
L 398.487273 225.467824 
L 398.487273 212.355535 
L 398.487273 212.355535 
L 395.207934 213.296415 
L 391.928595 213.255718 
L 388.649256 214.126815 
L 385.369917 214.968674 
L 382.090579 215.999395 
L 378.81124 215.851319 
L 375.531901 214.956137 
L 372.252562 216.077309 
L 368.973223 216.873838 
L 365.693884 219.016068 
L 362.414545 217.149675 
L 359.135207 219.394901 
L 355.855868 218.859036 
L 352.576529 221.119861 
L 349.29719 220.815701 
L 346.017851 220.884067 
L 342.738512 221.226898 
L 339.459174 222.466263 
L 336.179835 221.700464 
L 332.900496 221.611058 
L 329.621157 222.990279 
L 326.341818 224.55175 
L 323.062479 223.812265 
L 319.78314 224.408575 
L 316.503802 225.836081 
L 313.224463 225.293762 
L 309.945124 226.538474 
L 306.665785 226.576907 
L 303.386446 227.966199 
L 300.107107 226.960161 
L 296.827769 227.797442 
L 293.54843 228.438423 
L 290.269091 229.9041 
L 286.989752 229.449428 
L 283.710413 231.615851 
L 280.431074 231.01268 
L 277.151736 231.386808 
L 273.872397 232.688736 
L 270.593058 233.127679 
L 267.313719 234.75901 
L 264.03438 235.000215 
L 260.755041 236.082587 
L 257.475702 235.955625 
L 254.196364 236.946386 
L 250.917025 238.090234 
L 247.637686 239.625315 
L 244.358347 240.45777 
L 241.079008 239.937788 
L 237.799669 240.699805 
L 234.520331 241.932429 
L 231.240992 242.226908 
L 227.961653 243.360968 
L 224.682314 243.344186 
L 221.402975 244.301074 
L 218.123636 245.379987 
L 214.844298 244.999777 
L 211.564959 246.290982 
L 208.28562 246.321546 
L 205.006281 247.833512 
L 201.726942 249.553186 
L 198.447603 250.853281 
L 195.168264 250.623973 
L 191.888926 251.510806 
L 188.609587 252.208714 
L 185.330248 253.208894 
L 182.050909 252.713787 
L 178.77157 253.165341 
L 175.492231 254.311985 
L 172.212893 255.826928 
L 168.933554 256.079542 
L 165.654215 256.816418 
L 162.374876 258.873645 
L 159.095537 257.869353 
L 155.816198 257.424887 
L 152.53686 259.854508 
L 149.257521 261.6313 
L 145.978182 261.809089 
L 142.698843 261.995789 
L 139.419504 263.872652 
L 136.140165 263.47502 
L 132.860826 264.400533 
L 129.581488 265.842102 
L 126.302149 266.616998 
L 123.02281 266.655913 
L 119.743471 267.516751 
L 116.464132 267.526976 
L 113.184793 268.796718 
L 109.905455 268.705049 
L 106.626116 269.660178 
L 103.346777 270.194278 
L 100.067438 270.147526 
L 96.788099 271.433554 
L 93.50876 271.328655 
L 90.229421 273.698205 
L 86.950083 273.287837 
L 83.670744 274.927596 
L 80.391405 275.851784 
L 77.112066 277.148274 
L 73.832727 279.75142 
z
" clip-path="url(#paaaa3fd302)" style="fill: #d62728; fill-opacity: 0.2"/>
   </g>
   <g id="PolyCollection_5">
    <path d="M 73.832727 140.297326 
L 73.832727 146.137878 
L 77.112066 105.448985 
L 80.391405 93.665892 
L 83.670744 89.784041 
L 86.950083 84.384582 
L 90.229421 82.566219 
L 93.50876 80.367161 
L 96.788099 79.93495 
L 100.067438 77.770868 
L 103.346777 77.592833 
L 106.626116 76.179474 
L 109.905455 76.512575 
L 113.184793 73.465808 
L 116.464132 73.858408 
L 119.743471 72.394306 
L 123.02281 70.560661 
L 126.302149 70.675715 
L 129.581488 69.045751 
L 132.860826 67.923844 
L 136.140165 68.099236 
L 139.419504 68.098887 
L 142.698843 67.301634 
L 145.978182 66.450866 
L 149.257521 66.274463 
L 152.53686 64.441577 
L 155.816198 65.262335 
L 159.095537 65.378682 
L 162.374876 63.435631 
L 165.654215 63.601256 
L 168.933554 64.017827 
L 172.212893 63.005394 
L 175.492231 64.037075 
L 178.77157 62.707544 
L 182.050909 62.654425 
L 185.330248 62.817147 
L 188.609587 62.165757 
L 191.888926 62.619197 
L 195.168264 61.549151 
L 198.447603 62.451207 
L 201.726942 61.258568 
L 205.006281 61.48765 
L 208.28562 61.413132 
L 211.564959 60.494659 
L 214.844298 59.998819 
L 218.123636 60.953921 
L 221.402975 61.036137 
L 224.682314 59.587788 
L 227.961653 60.195346 
L 231.240992 60.63324 
L 234.520331 60.164815 
L 237.799669 59.490073 
L 241.079008 59.524753 
L 244.358347 59.944639 
L 247.637686 59.650847 
L 250.917025 59.934929 
L 254.196364 59.425503 
L 257.475702 59.640657 
L 260.755041 59.379868 
L 264.03438 59.163047 
L 267.313719 59.44594 
L 270.593058 58.662235 
L 273.872397 59.03605 
L 277.151736 59.299159 
L 280.431074 59.086512 
L 283.710413 59.273287 
L 286.989752 58.318479 
L 290.269091 58.636931 
L 293.54843 58.937325 
L 296.827769 59.002035 
L 300.107107 58.477791 
L 303.386446 58.262523 
L 306.665785 58.835088 
L 309.945124 58.74365 
L 313.224463 58.24753 
L 316.503802 57.642293 
L 319.78314 58.135441 
L 323.062479 58.432298 
L 326.341818 58.091631 
L 329.621157 57.831229 
L 332.900496 57.453226 
L 336.179835 57.658989 
L 339.459174 57.795859 
L 342.738512 57.533423 
L 346.017851 57.956104 
L 349.29719 58.105214 
L 352.576529 58.033088 
L 355.855868 58.030552 
L 359.135207 57.658254 
L 362.414545 57.991545 
L 365.693884 57.644874 
L 368.973223 57.974034 
L 372.252562 57.777217 
L 375.531901 57.857376 
L 378.81124 57.476699 
L 382.090579 57.814642 
L 385.369917 56.938061 
L 388.649256 57.547492 
L 391.928595 56.889755 
L 395.207934 57.278037 
L 398.487273 57.712386 
L 398.487273 55.961209 
L 398.487273 55.961209 
L 395.207934 56.057638 
L 391.928595 55.474401 
L 388.649256 55.788183 
L 385.369917 55.785135 
L 382.090579 56.133513 
L 378.81124 55.647777 
L 375.531901 55.773978 
L 372.252562 55.854138 
L 368.973223 55.741801 
L 365.693884 55.880881 
L 362.414545 56.484609 
L 359.135207 55.402862 
L 355.855868 55.685283 
L 352.576529 56.252986 
L 349.29719 55.631741 
L 346.017851 55.823091 
L 342.738512 55.865613 
L 339.459174 56.152296 
L 336.179835 55.486606 
L 332.900496 56.009169 
L 329.621157 55.652286 
L 326.341818 56.363403 
L 323.062479 56.064976 
L 319.78314 56.235113 
L 316.503802 56.158022 
L 313.224463 56.672144 
L 309.945124 56.619543 
L 306.665785 57.013865 
L 303.386446 56.509311 
L 300.107107 56.294043 
L 296.827769 56.973637 
L 293.54843 56.489228 
L 290.269091 56.937462 
L 286.989752 56.854634 
L 283.710413 56.554546 
L 280.431074 56.530121 
L 277.151736 56.929953 
L 273.872397 56.179304 
L 270.593058 56.806559 
L 267.313719 56.740933 
L 264.03438 57.150545 
L 260.755041 57.018204 
L 257.475702 57.348774 
L 254.196364 57.05705 
L 250.917025 57.455782 
L 247.637686 57.127385 
L 244.358347 57.192632 
L 241.079008 57.042279 
L 237.799669 57.435999 
L 234.520331 57.268138 
L 231.240992 57.243232 
L 227.961653 57.596645 
L 224.682314 57.866283 
L 221.402975 58.360974 
L 218.123636 58.063029 
L 214.844298 58.194451 
L 211.564959 57.909811 
L 208.28562 58.34302 
L 205.006281 59.303383 
L 201.726942 58.307504 
L 198.447603 58.487669 
L 195.168264 59.00956 
L 191.888926 59.016637 
L 188.609587 58.920958 
L 185.330248 59.029885 
L 182.050909 59.31933 
L 178.77157 58.90717 
L 175.492231 60.724524 
L 172.212893 61.059248 
L 168.933554 60.490336 
L 165.654215 60.885786 
L 162.374876 60.58677 
L 159.095537 60.966922 
L 155.816198 61.54791 
L 152.53686 61.101467 
L 149.257521 62.499946 
L 145.978182 62.872663 
L 142.698843 62.127491 
L 139.419504 63.590081 
L 136.140165 63.63197 
L 132.860826 64.081923 
L 129.581488 63.783696 
L 126.302149 65.152769 
L 123.02281 65.795823 
L 119.743471 66.876734 
L 116.464132 68.137111 
L 113.184793 68.170671 
L 109.905455 69.537984 
L 106.626116 70.779239 
L 103.346777 71.414521 
L 100.067438 72.524808 
L 96.788099 73.549853 
L 93.50876 74.743878 
L 90.229421 76.895542 
L 86.950083 79.258941 
L 83.670744 81.842841 
L 80.391405 87.887382 
L 77.112066 98.069097 
L 73.832727 140.297326 
z
" clip-path="url(#paaaa3fd302)" style="fill: #9467bd; fill-opacity: 0.2"/>
   </g>
   <g id="matplotlib.axis_1">
    <g id="xtick_1">
     <g id="line2d_1">
      <defs>
       <path id="m2cb78c735c" d="M 0 0 
L 0 3.5 
" style="stroke: #000000; stroke-width: 0.8"/>
      </defs>
      <g>
       <use xlink:href="#m2cb78c735c" x="70.553388" y="307.584" style="stroke: #000000; stroke-width: 0.8"/>
      </g>
     </g>
     <g id="text_1">
      <!-- 0 -->
      <g transform="translate(67.372138 322.182437) scale(0.1 -0.1)">
       <defs>
        <path id="DejaVuSans-30" d="M 2034 4250 
Q 1547 4250 1301 3770 
Q 1056 3291 1056 2328 
Q 1056 1369 1301 889 
Q 1547 409 2034 409 
Q 2525 409 2770 889 
Q 3016 1369 3016 2328 
Q 3016 3291 2770 3770 
Q 2525 4250 2034 4250 
z
M 2034 4750 
Q 2819 4750 3233 4129 
Q 3647 3509 3647 2328 
Q 3647 1150 3233 529 
Q 2819 -91 2034 -91 
Q 1250 -91 836 529 
Q 422 1150 422 2328 
Q 422 3509 836 4129 
Q 1250 4750 2034 4750 
z
" transform="scale(0.015625)"/>
       </defs>
       <use xlink:href="#DejaVuSans-30"/>
      </g>
     </g>
    </g>
    <g id="xtick_2">
     <g id="line2d_2">
      <g>
       <use xlink:href="#m2cb78c735c" x="136.140165" y="307.584" style="stroke: #000000; stroke-width: 0.8"/>
      </g>
     </g>
     <g id="text_2">
      <!-- 20 -->
      <g transform="translate(129.777665 322.182437) scale(0.1 -0.1)">
       <defs>
        <path id="DejaVuSans-32" d="M 1228 531 
L 3431 531 
L 3431 0 
L 469 0 
L 469 531 
Q 828 903 1448 1529 
Q 2069 2156 2228 2338 
Q 2531 2678 2651 2914 
Q 2772 3150 2772 3378 
Q 2772 3750 2511 3984 
Q 2250 4219 1831 4219 
Q 1534 4219 1204 4116 
Q 875 4013 500 3803 
L 500 4441 
Q 881 4594 1212 4672 
Q 1544 4750 1819 4750 
Q 2544 4750 2975 4387 
Q 3406 4025 3406 3419 
Q 3406 3131 3298 2873 
Q 3191 2616 2906 2266 
Q 2828 2175 2409 1742 
Q 1991 1309 1228 531 
z
" transform="scale(0.015625)"/>
       </defs>
       <use xlink:href="#DejaVuSans-32"/>
       <use xlink:href="#DejaVuSans-30" x="63.623047"/>
      </g>
     </g>
    </g>
    <g id="xtick_3">
     <g id="line2d_3">
      <g>
       <use xlink:href="#m2cb78c735c" x="201.726942" y="307.584" style="stroke: #000000; stroke-width: 0.8"/>
      </g>
     </g>
     <g id="text_3">
      <!-- 40 -->
      <g transform="translate(195.364442 322.182437) scale(0.1 -0.1)">
       <defs>
        <path id="DejaVuSans-34" d="M 2419 4116 
L 825 1625 
L 2419 1625 
L 2419 4116 
z
M 2253 4666 
L 3047 4666 
L 3047 1625 
L 3713 1625 
L 3713 1100 
L 3047 1100 
L 3047 0 
L 2419 0 
L 2419 1100 
L 313 1100 
L 313 1709 
L 2253 4666 
z
" transform="scale(0.015625)"/>
       </defs>
       <use xlink:href="#DejaVuSans-34"/>
       <use xlink:href="#DejaVuSans-30" x="63.623047"/>
      </g>
     </g>
    </g>
    <g id="xtick_4">
     <g id="line2d_4">
      <g>
       <use xlink:href="#m2cb78c735c" x="267.313719" y="307.584" style="stroke: #000000; stroke-width: 0.8"/>
      </g>
     </g>
     <g id="text_4">
      <!-- 60 -->
      <g transform="translate(260.951219 322.182437) scale(0.1 -0.1)">
       <defs>
        <path id="DejaVuSans-36" d="M 2113 2584 
Q 1688 2584 1439 2293 
Q 1191 2003 1191 1497 
Q 1191 994 1439 701 
Q 1688 409 2113 409 
Q 2538 409 2786 701 
Q 3034 994 3034 1497 
Q 3034 2003 2786 2293 
Q 2538 2584 2113 2584 
z
M 3366 4563 
L 3366 3988 
Q 3128 4100 2886 4159 
Q 2644 4219 2406 4219 
Q 1781 4219 1451 3797 
Q 1122 3375 1075 2522 
Q 1259 2794 1537 2939 
Q 1816 3084 2150 3084 
Q 2853 3084 3261 2657 
Q 3669 2231 3669 1497 
Q 3669 778 3244 343 
Q 2819 -91 2113 -91 
Q 1303 -91 875 529 
Q 447 1150 447 2328 
Q 447 3434 972 4092 
Q 1497 4750 2381 4750 
Q 2619 4750 2861 4703 
Q 3103 4656 3366 4563 
z
" transform="scale(0.015625)"/>
       </defs>
       <use xlink:href="#DejaVuSans-36"/>
       <use xlink:href="#DejaVuSans-30" x="63.623047"/>
      </g>
     </g>
    </g>
    <g id="xtick_5">
     <g id="line2d_5">
      <g>
       <use xlink:href="#m2cb78c735c" x="332.900496" y="307.584" style="stroke: #000000; stroke-width: 0.8"/>
      </g>
     </g>
     <g id="text_5">
      <!-- 80 -->
      <g transform="translate(326.537996 322.182437) scale(0.1 -0.1)">
       <defs>
        <path id="DejaVuSans-38" d="M 2034 2216 
Q 1584 2216 1326 1975 
Q 1069 1734 1069 1313 
Q 1069 891 1326 650 
Q 1584 409 2034 409 
Q 2484 409 2743 651 
Q 3003 894 3003 1313 
Q 3003 1734 2745 1975 
Q 2488 2216 2034 2216 
z
M 1403 2484 
Q 997 2584 770 2862 
Q 544 3141 544 3541 
Q 544 4100 942 4425 
Q 1341 4750 2034 4750 
Q 2731 4750 3128 4425 
Q 3525 4100 3525 3541 
Q 3525 3141 3298 2862 
Q 3072 2584 2669 2484 
Q 3125 2378 3379 2068 
Q 3634 1759 3634 1313 
Q 3634 634 3220 271 
Q 2806 -91 2034 -91 
Q 1263 -91 848 271 
Q 434 634 434 1313 
Q 434 1759 690 2068 
Q 947 2378 1403 2484 
z
M 1172 3481 
Q 1172 3119 1398 2916 
Q 1625 2713 2034 2713 
Q 2441 2713 2670 2916 
Q 2900 3119 2900 3481 
Q 2900 3844 2670 4047 
Q 2441 4250 2034 4250 
Q 1625 4250 1398 4047 
Q 1172 3844 1172 3481 
z
" transform="scale(0.015625)"/>
       </defs>
       <use xlink:href="#DejaVuSans-38"/>
       <use xlink:href="#DejaVuSans-30" x="63.623047"/>
      </g>
     </g>
    </g>
    <g id="xtick_6">
     <g id="line2d_6">
      <g>
       <use xlink:href="#m2cb78c735c" x="398.487273" y="307.584" style="stroke: #000000; stroke-width: 0.8"/>
      </g>
     </g>
     <g id="text_6">
      <!-- 100 -->
      <g transform="translate(388.943523 322.182437) scale(0.1 -0.1)">
       <defs>
        <path id="DejaVuSans-31" d="M 794 531 
L 1825 531 
L 1825 4091 
L 703 3866 
L 703 4441 
L 1819 4666 
L 2450 4666 
L 2450 531 
L 3481 531 
L 3481 0 
L 794 0 
L 794 531 
z
" transform="scale(0.015625)"/>
       </defs>
       <use xlink:href="#DejaVuSans-31"/>
       <use xlink:href="#DejaVuSans-30" x="63.623047"/>
       <use xlink:href="#DejaVuSans-30" x="127.246094"/>
      </g>
     </g>
    </g>
    <g id="text_7">
     <!-- # epochs -->
     <g transform="translate(212.548281 335.860562) scale(0.1 -0.1)">
      <defs>
       <path id="DejaVuSans-23" d="M 3272 2816 
L 2363 2816 
L 2100 1772 
L 3016 1772 
L 3272 2816 
z
M 2803 4594 
L 2478 3297 
L 3391 3297 
L 3719 4594 
L 4219 4594 
L 3897 3297 
L 4872 3297 
L 4872 2816 
L 3775 2816 
L 3519 1772 
L 4513 1772 
L 4513 1294 
L 3397 1294 
L 3072 0 
L 2572 0 
L 2894 1294 
L 1978 1294 
L 1656 0 
L 1153 0 
L 1478 1294 
L 494 1294 
L 494 1772 
L 1594 1772 
L 1856 2816 
L 850 2816 
L 850 3297 
L 1978 3297 
L 2297 4594 
L 2803 4594 
z
" transform="scale(0.015625)"/>
       <path id="DejaVuSans-20" transform="scale(0.015625)"/>
       <path id="DejaVuSans-65" d="M 3597 1894 
L 3597 1613 
L 953 1613 
Q 991 1019 1311 708 
Q 1631 397 2203 397 
Q 2534 397 2845 478 
Q 3156 559 3463 722 
L 3463 178 
Q 3153 47 2828 -22 
Q 2503 -91 2169 -91 
Q 1331 -91 842 396 
Q 353 884 353 1716 
Q 353 2575 817 3079 
Q 1281 3584 2069 3584 
Q 2775 3584 3186 3129 
Q 3597 2675 3597 1894 
z
M 3022 2063 
Q 3016 2534 2758 2815 
Q 2500 3097 2075 3097 
Q 1594 3097 1305 2825 
Q 1016 2553 972 2059 
L 3022 2063 
z
" transform="scale(0.015625)"/>
       <path id="DejaVuSans-70" d="M 1159 525 
L 1159 -1331 
L 581 -1331 
L 581 3500 
L 1159 3500 
L 1159 2969 
Q 1341 3281 1617 3432 
Q 1894 3584 2278 3584 
Q 2916 3584 3314 3078 
Q 3713 2572 3713 1747 
Q 3713 922 3314 415 
Q 2916 -91 2278 -91 
Q 1894 -91 1617 61 
Q 1341 213 1159 525 
z
M 3116 1747 
Q 3116 2381 2855 2742 
Q 2594 3103 2138 3103 
Q 1681 3103 1420 2742 
Q 1159 2381 1159 1747 
Q 1159 1113 1420 752 
Q 1681 391 2138 391 
Q 2594 391 2855 752 
Q 3116 1113 3116 1747 
z
" transform="scale(0.015625)"/>
       <path id="DejaVuSans-6f" d="M 1959 3097 
Q 1497 3097 1228 2736 
Q 959 2375 959 1747 
Q 959 1119 1226 758 
Q 1494 397 1959 397 
Q 2419 397 2687 759 
Q 2956 1122 2956 1747 
Q 2956 2369 2687 2733 
Q 2419 3097 1959 3097 
z
M 1959 3584 
Q 2709 3584 3137 3096 
Q 3566 2609 3566 1747 
Q 3566 888 3137 398 
Q 2709 -91 1959 -91 
Q 1206 -91 779 398 
Q 353 888 353 1747 
Q 353 2609 779 3096 
Q 1206 3584 1959 3584 
z
" transform="scale(0.015625)"/>
       <path id="DejaVuSans-63" d="M 3122 3366 
L 3122 2828 
Q 2878 2963 2633 3030 
Q 2388 3097 2138 3097 
Q 1578 3097 1268 2742 
Q 959 2388 959 1747 
Q 959 1106 1268 751 
Q 1578 397 2138 397 
Q 2388 397 2633 464 
Q 2878 531 3122 666 
L 3122 134 
Q 2881 22 2623 -34 
Q 2366 -91 2075 -91 
Q 1284 -91 818 406 
Q 353 903 353 1747 
Q 353 2603 823 3093 
Q 1294 3584 2113 3584 
Q 2378 3584 2631 3529 
Q 2884 3475 3122 3366 
z
" transform="scale(0.015625)"/>
       <path id="DejaVuSans-68" d="M 3513 2113 
L 3513 0 
L 2938 0 
L 2938 2094 
Q 2938 2591 2744 2837 
Q 2550 3084 2163 3084 
Q 1697 3084 1428 2787 
Q 1159 2491 1159 1978 
L 1159 0 
L 581 0 
L 581 4863 
L 1159 4863 
L 1159 2956 
Q 1366 3272 1645 3428 
Q 1925 3584 2291 3584 
Q 2894 3584 3203 3211 
Q 3513 2838 3513 2113 
z
" transform="scale(0.015625)"/>
       <path id="DejaVuSans-73" d="M 2834 3397 
L 2834 2853 
Q 2591 2978 2328 3040 
Q 2066 3103 1784 3103 
Q 1356 3103 1142 2972 
Q 928 2841 928 2578 
Q 928 2378 1081 2264 
Q 1234 2150 1697 2047 
L 1894 2003 
Q 2506 1872 2764 1633 
Q 3022 1394 3022 966 
Q 3022 478 2636 193 
Q 2250 -91 1575 -91 
Q 1294 -91 989 -36 
Q 684 19 347 128 
L 347 722 
Q 666 556 975 473 
Q 1284 391 1588 391 
Q 1994 391 2212 530 
Q 2431 669 2431 922 
Q 2431 1156 2273 1281 
Q 2116 1406 1581 1522 
L 1381 1569 
Q 847 1681 609 1914 
Q 372 2147 372 2553 
Q 372 3047 722 3315 
Q 1072 3584 1716 3584 
Q 2034 3584 2315 3537 
Q 2597 3491 2834 3397 
z
" transform="scale(0.015625)"/>
      </defs>
      <use xlink:href="#DejaVuSans-23"/>
      <use xlink:href="#DejaVuSans-20" x="83.789062"/>
      <use xlink:href="#DejaVuSans-65" x="115.576172"/>
      <use xlink:href="#DejaVuSans-70" x="177.099609"/>
      <use xlink:href="#DejaVuSans-6f" x="240.576172"/>
      <use xlink:href="#DejaVuSans-63" x="301.757812"/>
      <use xlink:href="#DejaVuSans-68" x="356.738281"/>
      <use xlink:href="#DejaVuSans-73" x="420.117188"/>
     </g>
    </g>
   </g>
   <g id="matplotlib.axis_2">
    <g id="ytick_1">
     <g id="line2d_7">
      <defs>
       <path id="ma496802ce0" d="M 0 0 
L -3.5 0 
" style="stroke: #000000; stroke-width: 0.8"/>
      </defs>
      <g>
       <use xlink:href="#ma496802ce0" x="57.6" y="307.584" style="stroke: #000000; stroke-width: 0.8"/>
      </g>
     </g>
     <g id="text_8">
      <!-- 0.0 -->
      <g transform="translate(34.696875 311.383219) scale(0.1 -0.1)">
       <defs>
        <path id="DejaVuSans-2e" d="M 684 794 
L 1344 794 
L 1344 0 
L 684 0 
L 684 794 
z
" transform="scale(0.015625)"/>
       </defs>
       <use xlink:href="#DejaVuSans-30"/>
       <use xlink:href="#DejaVuSans-2e" x="63.623047"/>
       <use xlink:href="#DejaVuSans-30" x="95.410156"/>
      </g>
     </g>
    </g>
    <g id="ytick_2">
     <g id="line2d_8">
      <g>
       <use xlink:href="#ma496802ce0" x="57.6" y="256.896" style="stroke: #000000; stroke-width: 0.8"/>
      </g>
     </g>
     <g id="text_9">
      <!-- 0.2 -->
      <g transform="translate(34.696875 260.695219) scale(0.1 -0.1)">
       <use xlink:href="#DejaVuSans-30"/>
       <use xlink:href="#DejaVuSans-2e" x="63.623047"/>
       <use xlink:href="#DejaVuSans-32" x="95.410156"/>
      </g>
     </g>
    </g>
    <g id="ytick_3">
     <g id="line2d_9">
      <g>
       <use xlink:href="#ma496802ce0" x="57.6" y="206.208" style="stroke: #000000; stroke-width: 0.8"/>
      </g>
     </g>
     <g id="text_10">
      <!-- 0.4 -->
      <g transform="translate(34.696875 210.007219) scale(0.1 -0.1)">
       <use xlink:href="#DejaVuSans-30"/>
       <use xlink:href="#DejaVuSans-2e" x="63.623047"/>
       <use xlink:href="#DejaVuSans-34" x="95.410156"/>
      </g>
     </g>
    </g>
    <g id="ytick_4">
     <g id="line2d_10">
      <g>
       <use xlink:href="#ma496802ce0" x="57.6" y="155.52" style="stroke: #000000; stroke-width: 0.8"/>
      </g>
     </g>
     <g id="text_11">
      <!-- 0.6 -->
      <g transform="translate(34.696875 159.319219) scale(0.1 -0.1)">
       <use xlink:href="#DejaVuSans-30"/>
       <use xlink:href="#DejaVuSans-2e" x="63.623047"/>
       <use xlink:href="#DejaVuSans-36" x="95.410156"/>
      </g>
     </g>
    </g>
    <g id="ytick_5">
     <g id="line2d_11">
      <g>
       <use xlink:href="#ma496802ce0" x="57.6" y="104.832" style="stroke: #000000; stroke-width: 0.8"/>
      </g>
     </g>
     <g id="text_12">
      <!-- 0.8 -->
      <g transform="translate(34.696875 108.631219) scale(0.1 -0.1)">
       <use xlink:href="#DejaVuSans-30"/>
       <use xlink:href="#DejaVuSans-2e" x="63.623047"/>
       <use xlink:href="#DejaVuSans-38" x="95.410156"/>
      </g>
     </g>
    </g>
    <g id="ytick_6">
     <g id="line2d_12">
      <g>
       <use xlink:href="#ma496802ce0" x="57.6" y="54.144" style="stroke: #000000; stroke-width: 0.8"/>
      </g>
     </g>
     <g id="text_13">
      <!-- 1.0 -->
      <g transform="translate(34.696875 57.943219) scale(0.1 -0.1)">
       <use xlink:href="#DejaVuSans-31"/>
       <use xlink:href="#DejaVuSans-2e" x="63.623047"/>
       <use xlink:href="#DejaVuSans-30" x="95.410156"/>
      </g>
     </g>
    </g>
    <g id="text_14">
     <!-- Accuracy -->
     <g transform="translate(28.617187 197.356125) rotate(-90) scale(0.1 -0.1)">
      <defs>
       <path id="DejaVuSans-41" d="M 2188 4044 
L 1331 1722 
L 3047 1722 
L 2188 4044 
z
M 1831 4666 
L 2547 4666 
L 4325 0 
L 3669 0 
L 3244 1197 
L 1141 1197 
L 716 0 
L 50 0 
L 1831 4666 
z
" transform="scale(0.015625)"/>
       <path id="DejaVuSans-75" d="M 544 1381 
L 544 3500 
L 1119 3500 
L 1119 1403 
Q 1119 906 1312 657 
Q 1506 409 1894 409 
Q 2359 409 2629 706 
Q 2900 1003 2900 1516 
L 2900 3500 
L 3475 3500 
L 3475 0 
L 2900 0 
L 2900 538 
Q 2691 219 2414 64 
Q 2138 -91 1772 -91 
Q 1169 -91 856 284 
Q 544 659 544 1381 
z
M 1991 3584 
L 1991 3584 
z
" transform="scale(0.015625)"/>
       <path id="DejaVuSans-72" d="M 2631 2963 
Q 2534 3019 2420 3045 
Q 2306 3072 2169 3072 
Q 1681 3072 1420 2755 
Q 1159 2438 1159 1844 
L 1159 0 
L 581 0 
L 581 3500 
L 1159 3500 
L 1159 2956 
Q 1341 3275 1631 3429 
Q 1922 3584 2338 3584 
Q 2397 3584 2469 3576 
Q 2541 3569 2628 3553 
L 2631 2963 
z
" transform="scale(0.015625)"/>
       <path id="DejaVuSans-61" d="M 2194 1759 
Q 1497 1759 1228 1600 
Q 959 1441 959 1056 
Q 959 750 1161 570 
Q 1363 391 1709 391 
Q 2188 391 2477 730 
Q 2766 1069 2766 1631 
L 2766 1759 
L 2194 1759 
z
M 3341 1997 
L 3341 0 
L 2766 0 
L 2766 531 
Q 2569 213 2275 61 
Q 1981 -91 1556 -91 
Q 1019 -91 701 211 
Q 384 513 384 1019 
Q 384 1609 779 1909 
Q 1175 2209 1959 2209 
L 2766 2209 
L 2766 2266 
Q 2766 2663 2505 2880 
Q 2244 3097 1772 3097 
Q 1472 3097 1187 3025 
Q 903 2953 641 2809 
L 641 3341 
Q 956 3463 1253 3523 
Q 1550 3584 1831 3584 
Q 2591 3584 2966 3190 
Q 3341 2797 3341 1997 
z
" transform="scale(0.015625)"/>
       <path id="DejaVuSans-79" d="M 2059 -325 
Q 1816 -950 1584 -1140 
Q 1353 -1331 966 -1331 
L 506 -1331 
L 506 -850 
L 844 -850 
Q 1081 -850 1212 -737 
Q 1344 -625 1503 -206 
L 1606 56 
L 191 3500 
L 800 3500 
L 1894 763 
L 2988 3500 
L 3597 3500 
L 2059 -325 
z
" transform="scale(0.015625)"/>
      </defs>
      <use xlink:href="#DejaVuSans-41"/>
      <use xlink:href="#DejaVuSans-63" x="66.658203"/>
      <use xlink:href="#DejaVuSans-63" x="121.638672"/>
      <use xlink:href="#DejaVuSans-75" x="176.619141"/>
      <use xlink:href="#DejaVuSans-72" x="239.998047"/>
      <use xlink:href="#DejaVuSans-61" x="281.111328"/>
      <use xlink:href="#DejaVuSans-63" x="342.390625"/>
      <use xlink:href="#DejaVuSans-79" x="397.371094"/>
     </g>
    </g>
   </g>
   <g id="line2d_13">
    <path d="M 73.832727 194.09568 
L 77.112066 158.128321 
L 80.391405 145.118401 
L 83.670744 137.10336 
L 86.950083 130.883519 
L 90.229421 125.14944 
L 93.50876 121.928639 
L 96.788099 118.581121 
L 100.067438 116.944321 
L 103.346777 113.459521 
L 106.626116 112.487999 
L 109.905455 111.136317 
L 113.184793 110.101439 
L 116.464132 108.844797 
L 119.743471 107.514239 
L 123.02281 106.68 
L 126.302149 106.088639 
L 129.581488 105.412801 
L 132.860826 103.63872 
L 136.140165 103.680962 
L 139.419504 103.057919 
L 142.698843 102.392641 
L 145.978182 101.283841 
L 149.257521 101.030402 
L 152.53686 100.122242 
L 155.816198 100.829761 
L 159.095537 99.942722 
L 162.374876 99.024002 
L 165.654215 98.707202 
L 168.933554 98.179199 
L 172.212893 98.855041 
L 175.492231 96.8592 
L 178.77157 97.1232 
L 182.050909 96.764159 
L 185.330248 96.50016 
L 188.609587 96.880322 
L 191.888926 96.616322 
L 195.168264 96.595201 
L 198.447603 96.0672 
L 201.726942 96.21504 
L 205.006281 95.327998 
L 208.28562 94.799998 
L 211.564959 94.578238 
L 214.844298 94.514879 
L 218.123636 94.768319 
L 221.402975 94.145278 
L 224.682314 94.134719 
L 227.961653 93.659518 
L 231.240992 93.627839 
L 234.520331 93.75456 
L 237.799669 93.860157 
L 241.079008 93.881279 
L 244.358347 93.501119 
L 247.637686 93.057598 
L 250.917025 93.194879 
L 254.196364 92.973118 
L 257.475702 93.786238 
L 260.755041 93.543358 
L 264.03438 93.479999 
L 267.313719 92.941438 
L 270.593058 92.878078 
L 273.872397 92.730237 
L 277.151736 92.603516 
L 280.431074 92.423997 
L 283.710413 92.255037 
L 286.989752 91.779837 
L 290.269091 92.350077 
L 293.54843 92.392317 
L 296.827769 92.033277 
L 300.107107 91.959357 
L 303.386446 92.043837 
L 306.665785 91.568637 
L 309.945124 91.241278 
L 313.224463 92.392318 
L 316.503802 91.853757 
L 319.78314 91.769278 
L 323.062479 91.716476 
L 326.341818 91.515837 
L 329.621157 91.558077 
L 332.900496 91.135677 
L 336.179835 91.600317 
L 339.459174 91.927677 
L 342.738512 91.357438 
L 346.017851 91.220158 
L 349.29719 90.861117 
L 352.576529 91.515837 
L 355.855868 91.631996 
L 359.135207 91.167358 
L 362.414545 90.850557 
L 365.693884 91.705917 
L 368.973223 91.600318 
L 372.252562 91.463037 
L 375.531901 90.998397 
L 378.81124 90.839997 
L 382.090579 90.956157 
L 385.369917 91.315197 
L 388.649256 90.766077 
L 391.928595 90.491518 
L 395.207934 90.428158 
L 398.487273 90.945597 
" clip-path="url(#paaaa3fd302)" style="fill: none; stroke: #1f77b4; stroke-width: 1.5; stroke-linecap: square"/>
   </g>
   <g id="line2d_14">
    <path d="M 73.832727 133.576319 
L 77.112066 79.044481 
L 80.391405 67.977602 
L 83.670744 64.461124 
L 86.950083 63.162241 
L 90.229421 64.461121 
L 93.50876 64.999683 
L 96.788099 65.305923 
L 100.067438 63.362883 
L 103.346777 62.423041 
L 106.626116 61.895038 
L 109.905455 62.919361 
L 113.184793 63.109439 
L 116.464132 61.9056 
L 119.743471 61.31424 
L 123.02281 61.071359 
L 126.302149 61.124159 
L 129.581488 60.300477 
L 132.860826 59.994238 
L 136.140165 60.300477 
L 139.419504 59.994237 
L 142.698843 59.455677 
L 145.978182 58.727036 
L 149.257521 58.420796 
L 152.53686 59.064956 
L 155.816198 58.600317 
L 159.095537 58.536957 
L 162.374876 58.251837 
L 165.654215 58.431357 
L 168.933554 57.882237 
L 172.212893 58.325756 
L 175.492231 58.167356 
L 178.77157 57.935036 
L 182.050909 58.008956 
L 185.330248 58.346876 
L 188.609587 57.818876 
L 191.888926 57.311997 
L 195.168264 57.301437 
L 198.447603 57.227517 
L 201.726942 56.889597 
L 205.006281 56.688958 
L 208.28562 56.498878 
L 211.564959 57.322557 
L 214.844298 56.826237 
L 218.123636 56.498878 
L 221.402975 56.836797 
L 224.682314 57.164157 
L 227.961653 56.646718 
L 231.240992 56.446078 
L 234.520331 56.657278 
L 237.799669 56.857917 
L 241.079008 56.900157 
L 244.358347 56.361598 
L 247.637686 56.160958 
L 250.917025 55.770238 
L 254.196364 56.213758 
L 257.475702 55.738558 
L 260.755041 56.160958 
L 264.03438 56.065918 
L 267.313719 56.266558 
L 270.593058 56.340478 
L 273.872397 56.182078 
L 277.151736 55.738558 
L 280.431074 56.108158 
L 283.710413 55.717438 
L 286.989752 56.118718 
L 290.269091 55.949758 
L 293.54843 56.361598 
L 296.827769 56.055358 
L 300.107107 55.717438 
L 303.386446 55.738558 
L 306.665785 55.696319 
L 309.945124 55.727998 
L 313.224463 55.611839 
L 316.503802 55.928638 
L 319.78314 55.643519 
L 323.062479 55.326719 
L 326.341818 55.717438 
L 329.621157 55.569599 
L 332.900496 55.675199 
L 336.179835 55.590719 
L 339.459174 55.611839 
L 342.738512 56.065918 
L 346.017851 55.918078 
L 349.29719 55.390079 
L 352.576529 55.590719 
L 355.855868 55.316159 
L 359.135207 55.453439 
L 362.414545 55.770238 
L 365.693884 55.791358 
L 368.973223 55.780798 
L 372.252562 55.326719 
L 375.531901 55.295039 
L 378.81124 55.168319 
L 382.090579 55.875838 
L 385.369917 55.706879 
L 388.649256 55.421759 
L 391.928595 55.400639 
L 395.207934 55.126079 
L 398.487273 55.263359 
" clip-path="url(#paaaa3fd302)" style="fill: none; stroke: #ff7f0e; stroke-width: 1.5; stroke-linecap: square"/>
   </g>
   <g id="line2d_15">
    <path d="M 73.832727 124.536961 
L 77.112066 77.75616 
L 80.391405 71.483519 
L 83.670744 69.86784 
L 86.950083 68.378882 
L 90.229421 68.600641 
L 93.50876 65.812803 
L 96.788099 64.799041 
L 100.067438 63.098881 
L 103.346777 63.352322 
L 106.626116 61.62048 
L 109.905455 61.82112 
L 113.184793 62.275201 
L 116.464132 61.599359 
L 119.743471 60.743997 
L 123.02281 60.247678 
L 126.302149 58.410237 
L 129.581488 58.843199 
L 132.860826 59.128316 
L 136.140165 60.110397 
L 139.419504 59.603518 
L 142.698843 58.357437 
L 145.978182 59.128317 
L 149.257521 58.864316 
L 152.53686 58.452476 
L 155.816198 57.649917 
L 159.095537 58.103996 
L 162.374876 58.727036 
L 165.654215 58.125116 
L 168.933554 58.030077 
L 172.212893 57.322557 
L 175.492231 57.755517 
L 178.77157 57.723837 
L 182.050909 57.301437 
L 185.330248 58.283517 
L 188.609587 57.354237 
L 191.888926 57.100797 
L 195.168264 56.688958 
L 198.447603 57.459837 
L 201.726942 56.773437 
L 205.006281 57.100797 
L 208.28562 56.562238 
L 211.564959 56.245438 
L 214.844298 56.393278 
L 218.123636 56.910717 
L 221.402975 56.984638 
L 224.682314 56.984637 
L 227.961653 56.182078 
L 231.240992 56.097598 
L 234.520331 56.541118 
L 237.799669 56.551678 
L 241.079008 56.446078 
L 244.358347 56.192638 
L 247.637686 56.319358 
L 250.917025 56.456638 
L 254.196364 56.340478 
L 257.475702 56.224318 
L 260.755041 56.108158 
L 264.03438 55.939198 
L 267.313719 55.875838 
L 270.593058 56.013118 
L 273.872397 55.981438 
L 277.151736 55.981438 
L 280.431074 55.960318 
L 283.710413 56.044798 
L 286.989752 55.854718 
L 290.269091 55.654079 
L 293.54843 55.664639 
L 296.827769 55.675199 
L 300.107107 55.780798 
L 303.386446 55.759678 
L 306.665785 55.537919 
L 309.945124 55.738558 
L 313.224463 55.717438 
L 316.503802 55.590719 
L 319.78314 56.234878 
L 323.062479 55.548479 
L 326.341818 55.347839 
L 329.621157 55.295039 
L 332.900496 55.664639 
L 336.179835 55.485119 
L 339.459174 55.527359 
L 342.738512 55.463999 
L 346.017851 55.548479 
L 349.29719 55.548479 
L 352.576529 55.263359 
L 355.855868 55.463999 
L 359.135207 55.442879 
L 362.414545 55.506239 
L 365.693884 55.506239 
L 368.973223 55.611839 
L 372.252562 55.485119 
L 375.531901 55.284479 
L 378.81124 55.474559 
L 382.090579 55.368959 
L 385.369917 55.210559 
L 388.649256 55.115519 
L 391.928595 55.368959 
L 395.207934 55.326719 
L 398.487273 55.379519 
" clip-path="url(#paaaa3fd302)" style="fill: none; stroke: #2ca02c; stroke-width: 1.5; stroke-linecap: square"/>
   </g>
   <g id="line2d_16">
    <path d="M 73.832727 282.36672 
L 77.112066 279.92736 
L 80.391405 277.47744 
L 83.670744 276.93888 
L 86.950083 276.24192 
L 90.229421 275.5344 
L 93.50876 274.65792 
L 96.788099 274.1088 
L 100.067438 272.90496 
L 103.346777 272.34528 
L 106.626116 271.90176 
L 109.905455 270.58176 
L 113.184793 270.87744 
L 116.464132 270.08544 
L 119.743471 270.29664 
L 123.02281 268.63872 
L 126.302149 268.90272 
L 129.581488 267.62496 
L 132.860826 267.27648 
L 136.140165 265.46016 
L 139.419504 266.01984 
L 142.698843 264.4992 
L 145.978182 264.15072 
L 149.257521 263.95008 
L 152.53686 262.72512 
L 155.816198 261.32064 
L 159.095537 261.21504 
L 162.374876 261.3312 
L 165.654215 260.275201 
L 168.933554 258.46944 
L 172.212893 258.46944 
L 175.492231 257.8992 
L 178.77157 256.368 
L 182.050909 255.67104 
L 185.330248 256.38912 
L 188.609587 255.09024 
L 191.888926 254.256 
L 195.168264 253.89696 
L 198.447603 253.64352 
L 201.726942 252.43968 
L 205.006281 250.83456 
L 208.28562 250.032 
L 211.564959 249.70464 
L 214.844298 248.74368 
L 218.123636 248.68032 
L 221.402975 247.99392 
L 224.682314 247.27584 
L 227.961653 246.52608 
L 231.240992 245.56512 
L 234.520331 245.21664 
L 237.799669 244.540801 
L 241.079008 243.632641 
L 244.358347 243.0096 
L 247.637686 242.555521 
L 250.917025 241.34112 
L 254.196364 240.686401 
L 257.475702 240.760321 
L 260.755041 239.46144 
L 264.03438 238.90176 
L 267.313719 238.6272 
L 270.593058 237.43392 
L 273.872397 236.65248 
L 277.151736 235.617601 
L 280.431074 235.04736 
L 283.710413 235.02624 
L 286.989752 234.128639 
L 290.269091 234.04416 
L 293.54843 233.00928 
L 296.827769 232.32288 
L 300.107107 231.552 
L 303.386446 231.14016 
L 306.665785 231.552 
L 309.945124 230.7072 
L 313.224463 230.01024 
L 316.503802 230.26368 
L 319.78314 229.27104 
L 323.062479 228.67968 
L 326.341818 229.15488 
L 329.621157 227.67648 
L 332.900496 226.86336 
L 336.179835 226.9584 
L 339.459174 226.67328 
L 342.738512 225.6384 
L 346.017851 225.9024 
L 349.29719 224.70912 
L 352.576529 225.71232 
L 355.855868 223.896001 
L 359.135207 224.11776 
L 362.414545 221.783999 
L 365.693884 223.38912 
L 368.973223 222.03744 
L 372.252562 221.7312 
L 375.531901 219.957119 
L 378.81124 220.90752 
L 382.090579 221.02368 
L 385.369917 219.862081 
L 388.649256 220.33728 
L 391.928595 219.21792 
L 395.207934 218.774399 
L 398.487273 218.91168 
" clip-path="url(#paaaa3fd302)" style="fill: none; stroke: #d62728; stroke-width: 1.5; stroke-linecap: square"/>
   </g>
   <g id="line2d_17">
    <path d="M 73.832727 143.217602 
L 77.112066 101.759041 
L 80.391405 90.776637 
L 83.670744 85.813441 
L 86.950083 81.821762 
L 90.229421 79.730881 
L 93.50876 77.55552 
L 96.788099 76.742401 
L 100.067438 75.147838 
L 103.346777 74.503677 
L 106.626116 73.479357 
L 109.905455 73.025279 
L 113.184793 70.818239 
L 116.464132 70.99776 
L 119.743471 69.63552 
L 123.02281 68.178242 
L 126.302149 67.914242 
L 129.581488 66.414723 
L 132.860826 66.002884 
L 136.140165 65.865603 
L 139.419504 65.844484 
L 142.698843 64.714563 
L 145.978182 64.661764 
L 149.257521 64.387205 
L 152.53686 62.771522 
L 155.816198 63.405122 
L 159.095537 63.172802 
L 162.374876 62.011201 
L 165.654215 62.243521 
L 168.933554 62.254081 
L 172.212893 62.032321 
L 175.492231 62.3808 
L 178.77157 60.807357 
L 182.050909 60.986877 
L 185.330248 60.923516 
L 188.609587 60.543358 
L 191.888926 60.817917 
L 195.168264 60.279356 
L 198.447603 60.469438 
L 201.726942 59.783036 
L 205.006281 60.395516 
L 208.28562 59.878076 
L 211.564959 59.202235 
L 214.844298 59.096635 
L 218.123636 59.508475 
L 221.402975 59.698555 
L 224.682314 58.727036 
L 227.961653 58.895995 
L 231.240992 58.938236 
L 234.520331 58.716476 
L 237.799669 58.463036 
L 241.079008 58.283516 
L 244.358347 58.568636 
L 247.637686 58.389116 
L 250.917025 58.695356 
L 254.196364 58.241276 
L 257.475702 58.494716 
L 260.755041 58.199036 
L 264.03438 58.156796 
L 267.313719 58.093436 
L 270.593058 57.734397 
L 273.872397 57.607677 
L 277.151736 58.114556 
L 280.431074 57.808317 
L 283.710413 57.913916 
L 286.989752 57.586557 
L 290.269091 57.787197 
L 293.54843 57.713277 
L 296.827769 57.987836 
L 300.107107 57.385917 
L 303.386446 57.385917 
L 306.665785 57.924476 
L 309.945124 57.681597 
L 313.224463 57.459837 
L 316.503802 56.900157 
L 319.78314 57.185277 
L 323.062479 57.248637 
L 326.341818 57.227517 
L 329.621157 56.741758 
L 332.900496 56.731198 
L 336.179835 56.572798 
L 339.459174 56.974077 
L 342.738512 56.699518 
L 346.017851 56.889597 
L 349.29719 56.868477 
L 352.576529 57.143037 
L 355.855868 56.857917 
L 359.135207 56.530558 
L 362.414545 57.238077 
L 365.693884 56.762878 
L 368.973223 56.857917 
L 372.252562 56.815677 
L 375.531901 56.815677 
L 378.81124 56.562238 
L 382.090579 56.974077 
L 385.369917 56.361598 
L 388.649256 56.667838 
L 391.928595 56.182078 
L 395.207934 56.667838 
L 398.487273 56.836797 
" clip-path="url(#paaaa3fd302)" style="fill: none; stroke: #9467bd; stroke-width: 1.5; stroke-linecap: square"/>
   </g>
   <g id="patch_3">
    <path d="M 57.6 307.584 
L 57.6 41.472 
" style="fill: none; stroke: #000000; stroke-width: 0.8; stroke-linejoin: miter; stroke-linecap: square"/>
   </g>
   <g id="patch_4">
    <path d="M 414.72 307.584 
L 414.72 41.472 
" style="fill: none; stroke: #000000; stroke-width: 0.8; stroke-linejoin: miter; stroke-linecap: square"/>
   </g>
   <g id="patch_5">
    <path d="M 57.6 307.584 
L 414.72 307.584 
" style="fill: none; stroke: #000000; stroke-width: 0.8; stroke-linejoin: miter; stroke-linecap: square"/>
   </g>
   <g id="patch_6">
    <path d="M 57.6 41.472 
L 414.72 41.472 
" style="fill: none; stroke: #000000; stroke-width: 0.8; stroke-linejoin: miter; stroke-linecap: square"/>
   </g>
   <g id="legend_1">
    <g id="patch_7">
     <path d="M 308.02 212.723313 
L 407.72 212.723313 
Q 409.72 212.723313 409.72 210.723313 
L 409.72 138.332688 
Q 409.72 136.332688 407.72 136.332688 
L 308.02 136.332688 
Q 306.02 136.332688 306.02 138.332688 
L 306.02 210.723313 
Q 306.02 212.723313 308.02 212.723313 
z
" style="fill: #ffffff; opacity: 0.8; stroke: #cccccc; stroke-linejoin: miter"/>
    </g>
    <g id="line2d_18">
     <path d="M 310.02 144.431125 
L 320.02 144.431125 
L 330.02 144.431125 
" style="fill: none; stroke: #1f77b4; stroke-width: 1.5; stroke-linecap: square"/>
    </g>
    <g id="text_15">
     <!-- $H_1$ (1 filters) -->
     <g transform="translate(338.02 147.931125) scale(0.1 -0.1)">
      <defs>
       <path id="DejaVuSans-Oblique-48" d="M 1081 4666 
L 1716 4666 
L 1344 2753 
L 3634 2753 
L 4006 4666 
L 4641 4666 
L 3731 0 
L 3097 0 
L 3531 2222 
L 1241 2222 
L 806 0 
L 172 0 
L 1081 4666 
z
" transform="scale(0.015625)"/>
       <path id="DejaVuSans-28" d="M 1984 4856 
Q 1566 4138 1362 3434 
Q 1159 2731 1159 2009 
Q 1159 1288 1364 580 
Q 1569 -128 1984 -844 
L 1484 -844 
Q 1016 -109 783 600 
Q 550 1309 550 2009 
Q 550 2706 781 3412 
Q 1013 4119 1484 4856 
L 1984 4856 
z
" transform="scale(0.015625)"/>
       <path id="DejaVuSans-66" d="M 2375 4863 
L 2375 4384 
L 1825 4384 
Q 1516 4384 1395 4259 
Q 1275 4134 1275 3809 
L 1275 3500 
L 2222 3500 
L 2222 3053 
L 1275 3053 
L 1275 0 
L 697 0 
L 697 3053 
L 147 3053 
L 147 3500 
L 697 3500 
L 697 3744 
Q 697 4328 969 4595 
Q 1241 4863 1831 4863 
L 2375 4863 
z
" transform="scale(0.015625)"/>
       <path id="DejaVuSans-69" d="M 603 3500 
L 1178 3500 
L 1178 0 
L 603 0 
L 603 3500 
z
M 603 4863 
L 1178 4863 
L 1178 4134 
L 603 4134 
L 603 4863 
z
" transform="scale(0.015625)"/>
       <path id="DejaVuSans-6c" d="M 603 4863 
L 1178 4863 
L 1178 0 
L 603 0 
L 603 4863 
z
" transform="scale(0.015625)"/>
       <path id="DejaVuSans-74" d="M 1172 4494 
L 1172 3500 
L 2356 3500 
L 2356 3053 
L 1172 3053 
L 1172 1153 
Q 1172 725 1289 603 
Q 1406 481 1766 481 
L 2356 481 
L 2356 0 
L 1766 0 
Q 1100 0 847 248 
Q 594 497 594 1153 
L 594 3053 
L 172 3053 
L 172 3500 
L 594 3500 
L 594 4494 
L 1172 4494 
z
" transform="scale(0.015625)"/>
       <path id="DejaVuSans-29" d="M 513 4856 
L 1013 4856 
Q 1481 4119 1714 3412 
Q 1947 2706 1947 2009 
Q 1947 1309 1714 600 
Q 1481 -109 1013 -844 
L 513 -844 
Q 928 -128 1133 580 
Q 1338 1288 1338 2009 
Q 1338 2731 1133 3434 
Q 928 4138 513 4856 
z
" transform="scale(0.015625)"/>
      </defs>
      <use xlink:href="#DejaVuSans-Oblique-48" transform="translate(0 0.015625)"/>
      <use xlink:href="#DejaVuSans-31" transform="translate(75.195312 -16.390625) scale(0.7)"/>
      <use xlink:href="#DejaVuSans-20" transform="translate(122.46582 0.015625)"/>
      <use xlink:href="#DejaVuSans-28" transform="translate(154.25293 0.015625)"/>
      <use xlink:href="#DejaVuSans-31" transform="translate(193.266602 0.015625)"/>
      <use xlink:href="#DejaVuSans-20" transform="translate(256.889648 0.015625)"/>
      <use xlink:href="#DejaVuSans-66" transform="translate(288.676758 0.015625)"/>
      <use xlink:href="#DejaVuSans-69" transform="translate(323.881836 0.015625)"/>
      <use xlink:href="#DejaVuSans-6c" transform="translate(351.665039 0.015625)"/>
      <use xlink:href="#DejaVuSans-74" transform="translate(379.448242 0.015625)"/>
      <use xlink:href="#DejaVuSans-65" transform="translate(418.657227 0.015625)"/>
      <use xlink:href="#DejaVuSans-72" transform="translate(480.180664 0.015625)"/>
      <use xlink:href="#DejaVuSans-73" transform="translate(521.293945 0.015625)"/>
      <use xlink:href="#DejaVuSans-29" transform="translate(573.393555 0.015625)"/>
     </g>
    </g>
    <g id="line2d_19">
     <path d="M 310.02 159.10925 
L 320.02 159.10925 
L 330.02 159.10925 
" style="fill: none; stroke: #ff7f0e; stroke-width: 1.5; stroke-linecap: square"/>
    </g>
    <g id="text_16">
     <!-- $H_1$ (20 filters) -->
     <g transform="translate(338.02 162.60925) scale(0.1 -0.1)">
      <use xlink:href="#DejaVuSans-Oblique-48" transform="translate(0 0.015625)"/>
      <use xlink:href="#DejaVuSans-31" transform="translate(75.195312 -16.390625) scale(0.7)"/>
      <use xlink:href="#DejaVuSans-20" transform="translate(122.46582 0.015625)"/>
      <use xlink:href="#DejaVuSans-28" transform="translate(154.25293 0.015625)"/>
      <use xlink:href="#DejaVuSans-32" transform="translate(193.266602 0.015625)"/>
      <use xlink:href="#DejaVuSans-30" transform="translate(256.889648 0.015625)"/>
      <use xlink:href="#DejaVuSans-20" transform="translate(320.512695 0.015625)"/>
      <use xlink:href="#DejaVuSans-66" transform="translate(352.299805 0.015625)"/>
      <use xlink:href="#DejaVuSans-69" transform="translate(387.504883 0.015625)"/>
      <use xlink:href="#DejaVuSans-6c" transform="translate(415.288086 0.015625)"/>
      <use xlink:href="#DejaVuSans-74" transform="translate(443.071289 0.015625)"/>
      <use xlink:href="#DejaVuSans-65" transform="translate(482.280273 0.015625)"/>
      <use xlink:href="#DejaVuSans-72" transform="translate(543.803711 0.015625)"/>
      <use xlink:href="#DejaVuSans-73" transform="translate(584.916992 0.015625)"/>
      <use xlink:href="#DejaVuSans-29" transform="translate(637.016602 0.015625)"/>
     </g>
    </g>
    <g id="line2d_20">
     <path d="M 310.02 173.787375 
L 320.02 173.787375 
L 330.02 173.787375 
" style="fill: none; stroke: #2ca02c; stroke-width: 1.5; stroke-linecap: square"/>
    </g>
    <g id="text_17">
     <!-- $H_1$ (50 filters) -->
     <g transform="translate(338.02 177.287375) scale(0.1 -0.1)">
      <defs>
       <path id="DejaVuSans-35" d="M 691 4666 
L 3169 4666 
L 3169 4134 
L 1269 4134 
L 1269 2991 
Q 1406 3038 1543 3061 
Q 1681 3084 1819 3084 
Q 2600 3084 3056 2656 
Q 3513 2228 3513 1497 
Q 3513 744 3044 326 
Q 2575 -91 1722 -91 
Q 1428 -91 1123 -41 
Q 819 9 494 109 
L 494 744 
Q 775 591 1075 516 
Q 1375 441 1709 441 
Q 2250 441 2565 725 
Q 2881 1009 2881 1497 
Q 2881 1984 2565 2268 
Q 2250 2553 1709 2553 
Q 1456 2553 1204 2497 
Q 953 2441 691 2322 
L 691 4666 
z
" transform="scale(0.015625)"/>
      </defs>
      <use xlink:href="#DejaVuSans-Oblique-48" transform="translate(0 0.015625)"/>
      <use xlink:href="#DejaVuSans-31" transform="translate(75.195312 -16.390625) scale(0.7)"/>
      <use xlink:href="#DejaVuSans-20" transform="translate(122.46582 0.015625)"/>
      <use xlink:href="#DejaVuSans-28" transform="translate(154.25293 0.015625)"/>
      <use xlink:href="#DejaVuSans-35" transform="translate(193.266602 0.015625)"/>
      <use xlink:href="#DejaVuSans-30" transform="translate(256.889648 0.015625)"/>
      <use xlink:href="#DejaVuSans-20" transform="translate(320.512695 0.015625)"/>
      <use xlink:href="#DejaVuSans-66" transform="translate(352.299805 0.015625)"/>
      <use xlink:href="#DejaVuSans-69" transform="translate(387.504883 0.015625)"/>
      <use xlink:href="#DejaVuSans-6c" transform="translate(415.288086 0.015625)"/>
      <use xlink:href="#DejaVuSans-74" transform="translate(443.071289 0.015625)"/>
      <use xlink:href="#DejaVuSans-65" transform="translate(482.280273 0.015625)"/>
      <use xlink:href="#DejaVuSans-72" transform="translate(543.803711 0.015625)"/>
      <use xlink:href="#DejaVuSans-73" transform="translate(584.916992 0.015625)"/>
      <use xlink:href="#DejaVuSans-29" transform="translate(637.016602 0.015625)"/>
     </g>
    </g>
    <g id="line2d_21">
     <path d="M 310.02 188.4655 
L 320.02 188.4655 
L 330.02 188.4655 
" style="fill: none; stroke: #d62728; stroke-width: 1.5; stroke-linecap: square"/>
    </g>
    <g id="text_18">
     <!-- $H_2$ (4 filters) -->
     <g transform="translate(338.02 191.9655) scale(0.1 -0.1)">
      <use xlink:href="#DejaVuSans-Oblique-48" transform="translate(0 0.015625)"/>
      <use xlink:href="#DejaVuSans-32" transform="translate(75.195312 -16.390625) scale(0.7)"/>
      <use xlink:href="#DejaVuSans-20" transform="translate(122.46582 0.015625)"/>
      <use xlink:href="#DejaVuSans-28" transform="translate(154.25293 0.015625)"/>
      <use xlink:href="#DejaVuSans-34" transform="translate(193.266602 0.015625)"/>
      <use xlink:href="#DejaVuSans-20" transform="translate(256.889648 0.015625)"/>
      <use xlink:href="#DejaVuSans-66" transform="translate(288.676758 0.015625)"/>
      <use xlink:href="#DejaVuSans-69" transform="translate(323.881836 0.015625)"/>
      <use xlink:href="#DejaVuSans-6c" transform="translate(351.665039 0.015625)"/>
      <use xlink:href="#DejaVuSans-74" transform="translate(379.448242 0.015625)"/>
      <use xlink:href="#DejaVuSans-65" transform="translate(418.657227 0.015625)"/>
      <use xlink:href="#DejaVuSans-72" transform="translate(480.180664 0.015625)"/>
      <use xlink:href="#DejaVuSans-73" transform="translate(521.293945 0.015625)"/>
      <use xlink:href="#DejaVuSans-29" transform="translate(573.393555 0.015625)"/>
     </g>
    </g>
    <g id="line2d_22">
     <path d="M 310.02 203.143625 
L 320.02 203.143625 
L 330.02 203.143625 
" style="fill: none; stroke: #9467bd; stroke-width: 1.5; stroke-linecap: square"/>
    </g>
    <g id="text_19">
     <!-- $H_3$ -->
     <g transform="translate(338.02 206.643625) scale(0.1 -0.1)">
      <defs>
       <path id="DejaVuSans-33" d="M 2597 2516 
Q 3050 2419 3304 2112 
Q 3559 1806 3559 1356 
Q 3559 666 3084 287 
Q 2609 -91 1734 -91 
Q 1441 -91 1130 -33 
Q 819 25 488 141 
L 488 750 
Q 750 597 1062 519 
Q 1375 441 1716 441 
Q 2309 441 2620 675 
Q 2931 909 2931 1356 
Q 2931 1769 2642 2001 
Q 2353 2234 1838 2234 
L 1294 2234 
L 1294 2753 
L 1863 2753 
Q 2328 2753 2575 2939 
Q 2822 3125 2822 3475 
Q 2822 3834 2567 4026 
Q 2313 4219 1838 4219 
Q 1578 4219 1281 4162 
Q 984 4106 628 3988 
L 628 4550 
Q 988 4650 1302 4700 
Q 1616 4750 1894 4750 
Q 2613 4750 3031 4423 
Q 3450 4097 3450 3541 
Q 3450 3153 3228 2886 
Q 3006 2619 2597 2516 
z
" transform="scale(0.015625)"/>
      </defs>
      <use xlink:href="#DejaVuSans-Oblique-48" transform="translate(0 0.09375)"/>
      <use xlink:href="#DejaVuSans-33" transform="translate(75.195312 -16.3125) scale(0.7)"/>
     </g>
    </g>
   </g>
  </g>
 </g>
 <defs>
  <clipPath id="paaaa3fd302">
   <rect x="57.6" y="41.472" width="357.12" height="266.112"/>
  </clipPath>
 </defs>
</svg>
