<?xml version="1.0" encoding="utf-8" standalone="no"?>
<!DOCTYPE svg PUBLIC "-//W3C//DTD SVG 1.1//EN"
  "http://www.w3.org/Graphics/SVG/1.1/DTD/svg11.dtd">
<svg xmlns:xlink="http://www.w3.org/1999/xlink" width="460.8pt" height="345.6pt" viewBox="0 0 460.8 345.6" xmlns="http://www.w3.org/2000/svg" version="1.1">
 <metadata>
  <rdf:RDF xmlns:dc="http://purl.org/dc/elements/1.1/" xmlns:cc="http://creativecommons.org/ns#" xmlns:rdf="http://www.w3.org/1999/02/22-rdf-syntax-ns#">
   <cc:Work>
    <dc:type rdf:resource="http://purl.org/dc/dcmitype/StillImage"/>
    <dc:date>2023-01-14T20:51:55.202288</dc:date>
    <dc:format>image/svg+xml</dc:format>
    <dc:creator>
     <cc:Agent>
      <dc:title>Matplotlib v3.6.2, https://matplotlib.org/</dc:title>
     </cc:Agent>
    </dc:creator>
   </cc:Work>
  </rdf:RDF>
 </metadata>
 <defs>
  <style type="text/css">*{stroke-linejoin: round; stroke-linecap: butt}</style>
 </defs>
 <g id="figure_1">
  <g id="patch_1">
   <path d="M 0 345.6 
L 460.8 345.6 
L 460.8 0 
L 0 0 
z
" style="fill: #ffffff"/>
  </g>
  <g id="axes_1">
   <g id="patch_2">
    <path d="M 57.6 307.584 
L 414.72 307.584 
L 414.72 41.472 
L 57.6 41.472 
z
" style="fill: #ffffff"/>
   </g>
   <g id="patch_3">
    <path d="M 73.832727 307.584 
L 85.985571 307.584 
L 85.985571 167.14944 
L 73.832727 167.14944 
z
" clip-path="url(#p5400b7f6b9)" style="fill: #1f77b4"/>
   </g>
   <g id="patch_4">
    <path d="M 108.555139 307.584 
L 120.707982 307.584 
L 120.707982 157.47264 
L 108.555139 157.47264 
z
" clip-path="url(#p5400b7f6b9)" style="fill: #1f77b4"/>
   </g>
   <g id="patch_5">
    <path d="M 143.27755 307.584 
L 155.430394 307.584 
L 155.430394 164.2464 
L 143.27755 164.2464 
z
" clip-path="url(#p5400b7f6b9)" style="fill: #1f77b4"/>
   </g>
   <g id="patch_6">
    <path d="M 177.999961 307.584 
L 190.152805 307.584 
L 190.152805 160.79904 
L 177.999961 160.79904 
z
" clip-path="url(#p5400b7f6b9)" style="fill: #1f77b4"/>
   </g>
   <g id="patch_7">
    <path d="M 212.722372 307.584 
L 224.875216 307.584 
L 224.875216 158.98464 
L 212.722372 158.98464 
z
" clip-path="url(#p5400b7f6b9)" style="fill: #1f77b4"/>
   </g>
   <g id="patch_8">
    <path d="M 247.444784 307.584 
L 259.597628 307.584 
L 259.597628 162.25056 
L 247.444784 162.25056 
z
" clip-path="url(#p5400b7f6b9)" style="fill: #1f77b4"/>
   </g>
   <g id="patch_9">
    <path d="M 282.167195 307.584 
L 294.320039 307.584 
L 294.320039 164.79072 
L 282.167195 164.79072 
z
" clip-path="url(#p5400b7f6b9)" style="fill: #1f77b4"/>
   </g>
   <g id="patch_10">
    <path d="M 316.889606 307.584 
L 329.04245 307.584 
L 329.04245 158.98464 
L 316.889606 158.98464 
z
" clip-path="url(#p5400b7f6b9)" style="fill: #1f77b4"/>
   </g>
   <g id="patch_11">
    <path d="M 351.612018 307.584 
L 363.764861 307.584 
L 363.764861 167.99616 
L 351.612018 167.99616 
z
" clip-path="url(#p5400b7f6b9)" style="fill: #1f77b4"/>
   </g>
   <g id="patch_12">
    <path d="M 386.334429 307.584 
L 398.487273 307.584 
L 398.487273 161.64576 
L 386.334429 161.64576 
z
" clip-path="url(#p5400b7f6b9)" style="fill: #1f77b4"/>
   </g>
   <g id="patch_13">
    <path d="M 73.832727 167.14944 
L 85.985571 167.14944 
L 85.985571 129.59136 
L 73.832727 129.59136 
z
" clip-path="url(#p5400b7f6b9)" style="fill: #ff7f0e"/>
   </g>
   <g id="patch_14">
    <path d="M 108.555139 157.47264 
L 120.707982 157.47264 
L 120.707982 121.06368 
L 108.555139 121.06368 
z
" clip-path="url(#p5400b7f6b9)" style="fill: #ff7f0e"/>
   </g>
   <g id="patch_15">
    <path d="M 143.27755 164.2464 
L 155.430394 164.2464 
L 155.430394 128.50272 
L 143.27755 128.50272 
z
" clip-path="url(#p5400b7f6b9)" style="fill: #ff7f0e"/>
   </g>
   <g id="patch_16">
    <path d="M 177.999961 160.79904 
L 190.152805 160.79904 
L 190.152805 126.20448 
L 177.999961 126.20448 
z
" clip-path="url(#p5400b7f6b9)" style="fill: #ff7f0e"/>
   </g>
   <g id="patch_17">
    <path d="M 212.722372 158.98464 
L 224.875216 158.98464 
L 224.875216 123.54336 
L 212.722372 123.54336 
z
" clip-path="url(#p5400b7f6b9)" style="fill: #ff7f0e"/>
   </g>
   <g id="patch_18">
    <path d="M 247.444784 162.25056 
L 259.597628 162.25056 
L 259.597628 124.20864 
L 247.444784 124.20864 
z
" clip-path="url(#p5400b7f6b9)" style="fill: #ff7f0e"/>
   </g>
   <g id="patch_19">
    <path d="M 282.167195 164.79072 
L 294.320039 164.79072 
L 294.320039 129.168 
L 282.167195 129.168 
z
" clip-path="url(#p5400b7f6b9)" style="fill: #ff7f0e"/>
   </g>
   <g id="patch_20">
    <path d="M 316.889606 158.98464 
L 329.04245 158.98464 
L 329.04245 122.8176 
L 316.889606 122.8176 
z
" clip-path="url(#p5400b7f6b9)" style="fill: #ff7f0e"/>
   </g>
   <g id="patch_21">
    <path d="M 351.612018 167.99616 
L 363.764861 167.99616 
L 363.764861 131.5872 
L 351.612018 131.5872 
z
" clip-path="url(#p5400b7f6b9)" style="fill: #ff7f0e"/>
   </g>
   <g id="patch_22">
    <path d="M 386.334429 161.64576 
L 398.487273 161.64576 
L 398.487273 124.75296 
L 386.334429 124.75296 
z
" clip-path="url(#p5400b7f6b9)" style="fill: #ff7f0e"/>
   </g>
   <g id="patch_23">
    <path d="M 73.832727 129.59136 
L 85.985571 129.59136 
L 85.985571 92.69856 
L 73.832727 92.69856 
z
" clip-path="url(#p5400b7f6b9)" style="fill: #2ca02c"/>
   </g>
   <g id="patch_24">
    <path d="M 108.555139 121.06368 
L 120.707982 121.06368 
L 120.707982 85.6224 
L 108.555139 85.6224 
z
" clip-path="url(#p5400b7f6b9)" style="fill: #2ca02c"/>
   </g>
   <g id="patch_25">
    <path d="M 143.27755 128.50272 
L 155.430394 128.50272 
L 155.430394 91.54944 
L 143.27755 91.54944 
z
" clip-path="url(#p5400b7f6b9)" style="fill: #2ca02c"/>
   </g>
   <g id="patch_26">
    <path d="M 177.999961 126.20448 
L 190.152805 126.20448 
L 190.152805 91.24704 
L 177.999961 91.24704 
z
" clip-path="url(#p5400b7f6b9)" style="fill: #2ca02c"/>
   </g>
   <g id="patch_27">
    <path d="M 212.722372 123.54336 
L 224.875216 123.54336 
L 224.875216 87.61824 
L 212.722372 87.61824 
z
" clip-path="url(#p5400b7f6b9)" style="fill: #2ca02c"/>
   </g>
   <g id="patch_28">
    <path d="M 247.444784 124.20864 
L 259.597628 124.20864 
L 259.597628 86.5296 
L 247.444784 86.5296 
z
" clip-path="url(#p5400b7f6b9)" style="fill: #2ca02c"/>
   </g>
   <g id="patch_29">
    <path d="M 282.167195 129.168 
L 294.320039 129.168 
L 294.320039 94.392 
L 282.167195 94.392 
z
" clip-path="url(#p5400b7f6b9)" style="fill: #2ca02c"/>
   </g>
   <g id="patch_30">
    <path d="M 316.889606 122.8176 
L 329.04245 122.8176 
L 329.04245 84.83616 
L 316.889606 84.83616 
z
" clip-path="url(#p5400b7f6b9)" style="fill: #2ca02c"/>
   </g>
   <g id="patch_31">
    <path d="M 351.612018 131.5872 
L 363.764861 131.5872 
L 363.764861 94.9968 
L 351.612018 94.9968 
z
" clip-path="url(#p5400b7f6b9)" style="fill: #2ca02c"/>
   </g>
   <g id="patch_32">
    <path d="M 386.334429 124.75296 
L 398.487273 124.75296 
L 398.487273 89.06976 
L 386.334429 89.06976 
z
" clip-path="url(#p5400b7f6b9)" style="fill: #2ca02c"/>
   </g>
   <g id="matplotlib.axis_1">
    <g id="xtick_1">
     <g id="line2d_1">
      <defs>
       <path id="m6d109a694a" d="M 0 0 
L 0 3.5 
" style="stroke: #000000; stroke-width: 0.8"/>
      </defs>
      <g>
       <use xlink:href="#m6d109a694a" x="79.909149" y="307.584" style="stroke: #000000; stroke-width: 0.8"/>
      </g>
     </g>
     <g id="text_1">
      <!-- 0 -->
      <g transform="translate(76.727899 322.182437) scale(0.1 -0.1)">
       <defs>
        <path id="DejaVuSans-30" d="M 2034 4250 
Q 1547 4250 1301 3770 
Q 1056 3291 1056 2328 
Q 1056 1369 1301 889 
Q 1547 409 2034 409 
Q 2525 409 2770 889 
Q 3016 1369 3016 2328 
Q 3016 3291 2770 3770 
Q 2525 4250 2034 4250 
z
M 2034 4750 
Q 2819 4750 3233 4129 
Q 3647 3509 3647 2328 
Q 3647 1150 3233 529 
Q 2819 -91 2034 -91 
Q 1250 -91 836 529 
Q 422 1150 422 2328 
Q 422 3509 836 4129 
Q 1250 4750 2034 4750 
z
" transform="scale(0.015625)"/>
       </defs>
       <use xlink:href="#DejaVuSans-30"/>
      </g>
     </g>
    </g>
    <g id="xtick_2">
     <g id="line2d_2">
      <g>
       <use xlink:href="#m6d109a694a" x="114.631561" y="307.584" style="stroke: #000000; stroke-width: 0.8"/>
      </g>
     </g>
     <g id="text_2">
      <!-- 1 -->
      <g transform="translate(111.450311 322.182437) scale(0.1 -0.1)">
       <defs>
        <path id="DejaVuSans-31" d="M 794 531 
L 1825 531 
L 1825 4091 
L 703 3866 
L 703 4441 
L 1819 4666 
L 2450 4666 
L 2450 531 
L 3481 531 
L 3481 0 
L 794 0 
L 794 531 
z
" transform="scale(0.015625)"/>
       </defs>
       <use xlink:href="#DejaVuSans-31"/>
      </g>
     </g>
    </g>
    <g id="xtick_3">
     <g id="line2d_3">
      <g>
       <use xlink:href="#m6d109a694a" x="149.353972" y="307.584" style="stroke: #000000; stroke-width: 0.8"/>
      </g>
     </g>
     <g id="text_3">
      <!-- 2 -->
      <g transform="translate(146.172722 322.182437) scale(0.1 -0.1)">
       <defs>
        <path id="DejaVuSans-32" d="M 1228 531 
L 3431 531 
L 3431 0 
L 469 0 
L 469 531 
Q 828 903 1448 1529 
Q 2069 2156 2228 2338 
Q 2531 2678 2651 2914 
Q 2772 3150 2772 3378 
Q 2772 3750 2511 3984 
Q 2250 4219 1831 4219 
Q 1534 4219 1204 4116 
Q 875 4013 500 3803 
L 500 4441 
Q 881 4594 1212 4672 
Q 1544 4750 1819 4750 
Q 2544 4750 2975 4387 
Q 3406 4025 3406 3419 
Q 3406 3131 3298 2873 
Q 3191 2616 2906 2266 
Q 2828 2175 2409 1742 
Q 1991 1309 1228 531 
z
" transform="scale(0.015625)"/>
       </defs>
       <use xlink:href="#DejaVuSans-32"/>
      </g>
     </g>
    </g>
    <g id="xtick_4">
     <g id="line2d_4">
      <g>
       <use xlink:href="#m6d109a694a" x="184.076383" y="307.584" style="stroke: #000000; stroke-width: 0.8"/>
      </g>
     </g>
     <g id="text_4">
      <!-- 3 -->
      <g transform="translate(180.895133 322.182437) scale(0.1 -0.1)">
       <defs>
        <path id="DejaVuSans-33" d="M 2597 2516 
Q 3050 2419 3304 2112 
Q 3559 1806 3559 1356 
Q 3559 666 3084 287 
Q 2609 -91 1734 -91 
Q 1441 -91 1130 -33 
Q 819 25 488 141 
L 488 750 
Q 750 597 1062 519 
Q 1375 441 1716 441 
Q 2309 441 2620 675 
Q 2931 909 2931 1356 
Q 2931 1769 2642 2001 
Q 2353 2234 1838 2234 
L 1294 2234 
L 1294 2753 
L 1863 2753 
Q 2328 2753 2575 2939 
Q 2822 3125 2822 3475 
Q 2822 3834 2567 4026 
Q 2313 4219 1838 4219 
Q 1578 4219 1281 4162 
Q 984 4106 628 3988 
L 628 4550 
Q 988 4650 1302 4700 
Q 1616 4750 1894 4750 
Q 2613 4750 3031 4423 
Q 3450 4097 3450 3541 
Q 3450 3153 3228 2886 
Q 3006 2619 2597 2516 
z
" transform="scale(0.015625)"/>
       </defs>
       <use xlink:href="#DejaVuSans-33"/>
      </g>
     </g>
    </g>
    <g id="xtick_5">
     <g id="line2d_5">
      <g>
       <use xlink:href="#m6d109a694a" x="218.798794" y="307.584" style="stroke: #000000; stroke-width: 0.8"/>
      </g>
     </g>
     <g id="text_5">
      <!-- 4 -->
      <g transform="translate(215.617544 322.182437) scale(0.1 -0.1)">
       <defs>
        <path id="DejaVuSans-34" d="M 2419 4116 
L 825 1625 
L 2419 1625 
L 2419 4116 
z
M 2253 4666 
L 3047 4666 
L 3047 1625 
L 3713 1625 
L 3713 1100 
L 3047 1100 
L 3047 0 
L 2419 0 
L 2419 1100 
L 313 1100 
L 313 1709 
L 2253 4666 
z
" transform="scale(0.015625)"/>
       </defs>
       <use xlink:href="#DejaVuSans-34"/>
      </g>
     </g>
    </g>
    <g id="xtick_6">
     <g id="line2d_6">
      <g>
       <use xlink:href="#m6d109a694a" x="253.521206" y="307.584" style="stroke: #000000; stroke-width: 0.8"/>
      </g>
     </g>
     <g id="text_6">
      <!-- 5 -->
      <g transform="translate(250.339956 322.182437) scale(0.1 -0.1)">
       <defs>
        <path id="DejaVuSans-35" d="M 691 4666 
L 3169 4666 
L 3169 4134 
L 1269 4134 
L 1269 2991 
Q 1406 3038 1543 3061 
Q 1681 3084 1819 3084 
Q 2600 3084 3056 2656 
Q 3513 2228 3513 1497 
Q 3513 744 3044 326 
Q 2575 -91 1722 -91 
Q 1428 -91 1123 -41 
Q 819 9 494 109 
L 494 744 
Q 775 591 1075 516 
Q 1375 441 1709 441 
Q 2250 441 2565 725 
Q 2881 1009 2881 1497 
Q 2881 1984 2565 2268 
Q 2250 2553 1709 2553 
Q 1456 2553 1204 2497 
Q 953 2441 691 2322 
L 691 4666 
z
" transform="scale(0.015625)"/>
       </defs>
       <use xlink:href="#DejaVuSans-35"/>
      </g>
     </g>
    </g>
    <g id="xtick_7">
     <g id="line2d_7">
      <g>
       <use xlink:href="#m6d109a694a" x="288.243617" y="307.584" style="stroke: #000000; stroke-width: 0.8"/>
      </g>
     </g>
     <g id="text_7">
      <!-- 6 -->
      <g transform="translate(285.062367 322.182437) scale(0.1 -0.1)">
       <defs>
        <path id="DejaVuSans-36" d="M 2113 2584 
Q 1688 2584 1439 2293 
Q 1191 2003 1191 1497 
Q 1191 994 1439 701 
Q 1688 409 2113 409 
Q 2538 409 2786 701 
Q 3034 994 3034 1497 
Q 3034 2003 2786 2293 
Q 2538 2584 2113 2584 
z
M 3366 4563 
L 3366 3988 
Q 3128 4100 2886 4159 
Q 2644 4219 2406 4219 
Q 1781 4219 1451 3797 
Q 1122 3375 1075 2522 
Q 1259 2794 1537 2939 
Q 1816 3084 2150 3084 
Q 2853 3084 3261 2657 
Q 3669 2231 3669 1497 
Q 3669 778 3244 343 
Q 2819 -91 2113 -91 
Q 1303 -91 875 529 
Q 447 1150 447 2328 
Q 447 3434 972 4092 
Q 1497 4750 2381 4750 
Q 2619 4750 2861 4703 
Q 3103 4656 3366 4563 
z
" transform="scale(0.015625)"/>
       </defs>
       <use xlink:href="#DejaVuSans-36"/>
      </g>
     </g>
    </g>
    <g id="xtick_8">
     <g id="line2d_8">
      <g>
       <use xlink:href="#m6d109a694a" x="322.966028" y="307.584" style="stroke: #000000; stroke-width: 0.8"/>
      </g>
     </g>
     <g id="text_8">
      <!-- 7 -->
      <g transform="translate(319.784778 322.182437) scale(0.1 -0.1)">
       <defs>
        <path id="DejaVuSans-37" d="M 525 4666 
L 3525 4666 
L 3525 4397 
L 1831 0 
L 1172 0 
L 2766 4134 
L 525 4134 
L 525 4666 
z
" transform="scale(0.015625)"/>
       </defs>
       <use xlink:href="#DejaVuSans-37"/>
      </g>
     </g>
    </g>
    <g id="xtick_9">
     <g id="line2d_9">
      <g>
       <use xlink:href="#m6d109a694a" x="357.688439" y="307.584" style="stroke: #000000; stroke-width: 0.8"/>
      </g>
     </g>
     <g id="text_9">
      <!-- 8 -->
      <g transform="translate(354.507189 322.182437) scale(0.1 -0.1)">
       <defs>
        <path id="DejaVuSans-38" d="M 2034 2216 
Q 1584 2216 1326 1975 
Q 1069 1734 1069 1313 
Q 1069 891 1326 650 
Q 1584 409 2034 409 
Q 2484 409 2743 651 
Q 3003 894 3003 1313 
Q 3003 1734 2745 1975 
Q 2488 2216 2034 2216 
z
M 1403 2484 
Q 997 2584 770 2862 
Q 544 3141 544 3541 
Q 544 4100 942 4425 
Q 1341 4750 2034 4750 
Q 2731 4750 3128 4425 
Q 3525 4100 3525 3541 
Q 3525 3141 3298 2862 
Q 3072 2584 2669 2484 
Q 3125 2378 3379 2068 
Q 3634 1759 3634 1313 
Q 3634 634 3220 271 
Q 2806 -91 2034 -91 
Q 1263 -91 848 271 
Q 434 634 434 1313 
Q 434 1759 690 2068 
Q 947 2378 1403 2484 
z
M 1172 3481 
Q 1172 3119 1398 2916 
Q 1625 2713 2034 2713 
Q 2441 2713 2670 2916 
Q 2900 3119 2900 3481 
Q 2900 3844 2670 4047 
Q 2441 4250 2034 4250 
Q 1625 4250 1398 4047 
Q 1172 3844 1172 3481 
z
" transform="scale(0.015625)"/>
       </defs>
       <use xlink:href="#DejaVuSans-38"/>
      </g>
     </g>
    </g>
    <g id="xtick_10">
     <g id="line2d_10">
      <g>
       <use xlink:href="#m6d109a694a" x="392.410851" y="307.584" style="stroke: #000000; stroke-width: 0.8"/>
      </g>
     </g>
     <g id="text_10">
      <!-- 9 -->
      <g transform="translate(389.229601 322.182437) scale(0.1 -0.1)">
       <defs>
        <path id="DejaVuSans-39" d="M 703 97 
L 703 672 
Q 941 559 1184 500 
Q 1428 441 1663 441 
Q 2288 441 2617 861 
Q 2947 1281 2994 2138 
Q 2813 1869 2534 1725 
Q 2256 1581 1919 1581 
Q 1219 1581 811 2004 
Q 403 2428 403 3163 
Q 403 3881 828 4315 
Q 1253 4750 1959 4750 
Q 2769 4750 3195 4129 
Q 3622 3509 3622 2328 
Q 3622 1225 3098 567 
Q 2575 -91 1691 -91 
Q 1453 -91 1209 -44 
Q 966 3 703 97 
z
M 1959 2075 
Q 2384 2075 2632 2365 
Q 2881 2656 2881 3163 
Q 2881 3666 2632 3958 
Q 2384 4250 1959 4250 
Q 1534 4250 1286 3958 
Q 1038 3666 1038 3163 
Q 1038 2656 1286 2365 
Q 1534 2075 1959 2075 
z
" transform="scale(0.015625)"/>
       </defs>
       <use xlink:href="#DejaVuSans-39"/>
      </g>
     </g>
    </g>
   </g>
   <g id="matplotlib.axis_2">
    <g id="ytick_1">
     <g id="line2d_11">
      <defs>
       <path id="m70662a1f9d" d="M 0 0 
L -3.5 0 
" style="stroke: #000000; stroke-width: 0.8"/>
      </defs>
      <g>
       <use xlink:href="#m70662a1f9d" x="57.6" y="307.584" style="stroke: #000000; stroke-width: 0.8"/>
      </g>
     </g>
     <g id="text_11">
      <!-- 0 -->
      <g transform="translate(44.2375 311.383219) scale(0.1 -0.1)">
       <use xlink:href="#DejaVuSans-30"/>
      </g>
     </g>
    </g>
    <g id="ytick_2">
     <g id="line2d_12">
      <g>
       <use xlink:href="#m70662a1f9d" x="57.6" y="247.104" style="stroke: #000000; stroke-width: 0.8"/>
      </g>
     </g>
     <g id="text_12">
      <!-- 50 -->
      <g transform="translate(37.875 250.903219) scale(0.1 -0.1)">
       <use xlink:href="#DejaVuSans-35"/>
       <use xlink:href="#DejaVuSans-30" x="63.623047"/>
      </g>
     </g>
    </g>
    <g id="ytick_3">
     <g id="line2d_13">
      <g>
       <use xlink:href="#m70662a1f9d" x="57.6" y="186.624" style="stroke: #000000; stroke-width: 0.8"/>
      </g>
     </g>
     <g id="text_13">
      <!-- 100 -->
      <g transform="translate(31.5125 190.423219) scale(0.1 -0.1)">
       <use xlink:href="#DejaVuSans-31"/>
       <use xlink:href="#DejaVuSans-30" x="63.623047"/>
       <use xlink:href="#DejaVuSans-30" x="127.246094"/>
      </g>
     </g>
    </g>
    <g id="ytick_4">
     <g id="line2d_14">
      <g>
       <use xlink:href="#m70662a1f9d" x="57.6" y="126.144" style="stroke: #000000; stroke-width: 0.8"/>
      </g>
     </g>
     <g id="text_14">
      <!-- 150 -->
      <g transform="translate(31.5125 129.943219) scale(0.1 -0.1)">
       <use xlink:href="#DejaVuSans-31"/>
       <use xlink:href="#DejaVuSans-35" x="63.623047"/>
       <use xlink:href="#DejaVuSans-30" x="127.246094"/>
      </g>
     </g>
    </g>
    <g id="ytick_5">
     <g id="line2d_15">
      <g>
       <use xlink:href="#m70662a1f9d" x="57.6" y="65.664" style="stroke: #000000; stroke-width: 0.8"/>
      </g>
     </g>
     <g id="text_15">
      <!-- 200 -->
      <g transform="translate(31.5125 69.463219) scale(0.1 -0.1)">
       <use xlink:href="#DejaVuSans-32"/>
       <use xlink:href="#DejaVuSans-30" x="63.623047"/>
       <use xlink:href="#DejaVuSans-30" x="127.246094"/>
      </g>
     </g>
    </g>
    <g id="text_16">
     <!-- # item -->
     <g transform="translate(25.432812 191.603) rotate(-90) scale(0.1 -0.1)">
      <defs>
       <path id="DejaVuSans-23" d="M 3272 2816 
L 2363 2816 
L 2100 1772 
L 3016 1772 
L 3272 2816 
z
M 2803 4594 
L 2478 3297 
L 3391 3297 
L 3719 4594 
L 4219 4594 
L 3897 3297 
L 4872 3297 
L 4872 2816 
L 3775 2816 
L 3519 1772 
L 4513 1772 
L 4513 1294 
L 3397 1294 
L 3072 0 
L 2572 0 
L 2894 1294 
L 1978 1294 
L 1656 0 
L 1153 0 
L 1478 1294 
L 494 1294 
L 494 1772 
L 1594 1772 
L 1856 2816 
L 850 2816 
L 850 3297 
L 1978 3297 
L 2297 4594 
L 2803 4594 
z
" transform="scale(0.015625)"/>
       <path id="DejaVuSans-20" transform="scale(0.015625)"/>
       <path id="DejaVuSans-69" d="M 603 3500 
L 1178 3500 
L 1178 0 
L 603 0 
L 603 3500 
z
M 603 4863 
L 1178 4863 
L 1178 4134 
L 603 4134 
L 603 4863 
z
" transform="scale(0.015625)"/>
       <path id="DejaVuSans-74" d="M 1172 4494 
L 1172 3500 
L 2356 3500 
L 2356 3053 
L 1172 3053 
L 1172 1153 
Q 1172 725 1289 603 
Q 1406 481 1766 481 
L 2356 481 
L 2356 0 
L 1766 0 
Q 1100 0 847 248 
Q 594 497 594 1153 
L 594 3053 
L 172 3053 
L 172 3500 
L 594 3500 
L 594 4494 
L 1172 4494 
z
" transform="scale(0.015625)"/>
       <path id="DejaVuSans-65" d="M 3597 1894 
L 3597 1613 
L 953 1613 
Q 991 1019 1311 708 
Q 1631 397 2203 397 
Q 2534 397 2845 478 
Q 3156 559 3463 722 
L 3463 178 
Q 3153 47 2828 -22 
Q 2503 -91 2169 -91 
Q 1331 -91 842 396 
Q 353 884 353 1716 
Q 353 2575 817 3079 
Q 1281 3584 2069 3584 
Q 2775 3584 3186 3129 
Q 3597 2675 3597 1894 
z
M 3022 2063 
Q 3016 2534 2758 2815 
Q 2500 3097 2075 3097 
Q 1594 3097 1305 2825 
Q 1016 2553 972 2059 
L 3022 2063 
z
" transform="scale(0.015625)"/>
       <path id="DejaVuSans-6d" d="M 3328 2828 
Q 3544 3216 3844 3400 
Q 4144 3584 4550 3584 
Q 5097 3584 5394 3201 
Q 5691 2819 5691 2113 
L 5691 0 
L 5113 0 
L 5113 2094 
Q 5113 2597 4934 2840 
Q 4756 3084 4391 3084 
Q 3944 3084 3684 2787 
Q 3425 2491 3425 1978 
L 3425 0 
L 2847 0 
L 2847 2094 
Q 2847 2600 2669 2842 
Q 2491 3084 2119 3084 
Q 1678 3084 1418 2786 
Q 1159 2488 1159 1978 
L 1159 0 
L 581 0 
L 581 3500 
L 1159 3500 
L 1159 2956 
Q 1356 3278 1631 3431 
Q 1906 3584 2284 3584 
Q 2666 3584 2933 3390 
Q 3200 3197 3328 2828 
z
" transform="scale(0.015625)"/>
      </defs>
      <use xlink:href="#DejaVuSans-23"/>
      <use xlink:href="#DejaVuSans-20" x="83.789062"/>
      <use xlink:href="#DejaVuSans-69" x="115.576172"/>
      <use xlink:href="#DejaVuSans-74" x="143.359375"/>
      <use xlink:href="#DejaVuSans-65" x="182.568359"/>
      <use xlink:href="#DejaVuSans-6d" x="244.091797"/>
     </g>
    </g>
   </g>
   <g id="LineCollection_1">
    <path d="M 79.909149 177.369665 
L 79.909149 156.929215 
" clip-path="url(#p5400b7f6b9)" style="fill: none; stroke: #000000; stroke-width: 1.5"/>
    <path d="M 114.631561 169.825375 
L 114.631561 145.119905 
" clip-path="url(#p5400b7f6b9)" style="fill: none; stroke: #000000; stroke-width: 1.5"/>
    <path d="M 149.353972 182.979586 
L 149.353972 145.513214 
" clip-path="url(#p5400b7f6b9)" style="fill: none; stroke: #000000; stroke-width: 1.5"/>
    <path d="M 184.076383 174.724026 
L 184.076383 146.874054 
" clip-path="url(#p5400b7f6b9)" style="fill: none; stroke: #000000; stroke-width: 1.5"/>
    <path d="M 218.798794 169.524657 
L 218.798794 148.444623 
" clip-path="url(#p5400b7f6b9)" style="fill: none; stroke: #000000; stroke-width: 1.5"/>
    <path d="M 253.521206 175.541169 
L 253.521206 148.959951 
" clip-path="url(#p5400b7f6b9)" style="fill: none; stroke: #000000; stroke-width: 1.5"/>
    <path d="M 288.243617 178.241097 
L 288.243617 151.340343 
" clip-path="url(#p5400b7f6b9)" style="fill: none; stroke: #000000; stroke-width: 1.5"/>
    <path d="M 322.966028 169.321413 
L 322.966028 148.647867 
" clip-path="url(#p5400b7f6b9)" style="fill: none; stroke: #000000; stroke-width: 1.5"/>
    <path d="M 357.688439 178.369141 
L 357.688439 157.623179 
" clip-path="url(#p5400b7f6b9)" style="fill: none; stroke: #000000; stroke-width: 1.5"/>
    <path d="M 392.410851 177.9205 
L 392.410851 145.37102 
" clip-path="url(#p5400b7f6b9)" style="fill: none; stroke: #000000; stroke-width: 1.5"/>
   </g>
   <g id="LineCollection_2">
    <path d="M 79.909149 135.385773 
L 79.909149 123.796947 
" clip-path="url(#p5400b7f6b9)" style="fill: none; stroke: #000000; stroke-width: 1.5"/>
    <path d="M 114.631561 126.320919 
L 114.631561 115.806441 
" clip-path="url(#p5400b7f6b9)" style="fill: none; stroke: #000000; stroke-width: 1.5"/>
    <path d="M 149.353972 133.241435 
L 149.353972 123.764005 
" clip-path="url(#p5400b7f6b9)" style="fill: none; stroke: #000000; stroke-width: 1.5"/>
    <path d="M 184.076383 130.957454 
L 184.076383 121.451506 
" clip-path="url(#p5400b7f6b9)" style="fill: none; stroke: #000000; stroke-width: 1.5"/>
    <path d="M 218.798794 128.276282 
L 218.798794 118.810438 
" clip-path="url(#p5400b7f6b9)" style="fill: none; stroke: #000000; stroke-width: 1.5"/>
    <path d="M 253.521206 130.761446 
L 253.521206 117.655834 
" clip-path="url(#p5400b7f6b9)" style="fill: none; stroke: #000000; stroke-width: 1.5"/>
    <path d="M 288.243617 135.709633 
L 288.243617 122.626367 
" clip-path="url(#p5400b7f6b9)" style="fill: none; stroke: #000000; stroke-width: 1.5"/>
    <path d="M 322.966028 129.551281 
L 322.966028 116.083919 
" clip-path="url(#p5400b7f6b9)" style="fill: none; stroke: #000000; stroke-width: 1.5"/>
    <path d="M 357.688439 136.913562 
L 357.688439 126.260838 
" clip-path="url(#p5400b7f6b9)" style="fill: none; stroke: #000000; stroke-width: 1.5"/>
    <path d="M 392.410851 132.31175 
L 392.410851 117.19417 
" clip-path="url(#p5400b7f6b9)" style="fill: none; stroke: #000000; stroke-width: 1.5"/>
   </g>
   <g id="LineCollection_3">
    <path d="M 79.909149 99.251645 
L 79.909149 86.145475 
" clip-path="url(#p5400b7f6b9)" style="fill: none; stroke: #000000; stroke-width: 1.5"/>
    <path d="M 114.631561 90.416751 
L 114.631561 80.828049 
" clip-path="url(#p5400b7f6b9)" style="fill: none; stroke: #000000; stroke-width: 1.5"/>
    <path d="M 149.353972 98.891971 
L 149.353972 84.206909 
" clip-path="url(#p5400b7f6b9)" style="fill: none; stroke: #000000; stroke-width: 1.5"/>
    <path d="M 184.076383 96.068779 
L 184.076383 86.425301 
" clip-path="url(#p5400b7f6b9)" style="fill: none; stroke: #000000; stroke-width: 1.5"/>
    <path d="M 218.798794 92.412591 
L 218.798794 82.823889 
" clip-path="url(#p5400b7f6b9)" style="fill: none; stroke: #000000; stroke-width: 1.5"/>
    <path d="M 253.521206 92.544548 
L 253.521206 80.514652 
" clip-path="url(#p5400b7f6b9)" style="fill: none; stroke: #000000; stroke-width: 1.5"/>
    <path d="M 288.243617 100.051002 
L 288.243617 88.732998 
" clip-path="url(#p5400b7f6b9)" style="fill: none; stroke: #000000; stroke-width: 1.5"/>
    <path d="M 322.966028 91.343313 
L 322.966028 78.329007 
" clip-path="url(#p5400b7f6b9)" style="fill: none; stroke: #000000; stroke-width: 1.5"/>
    <path d="M 357.688439 104.039521 
L 357.688439 85.954079 
" clip-path="url(#p5400b7f6b9)" style="fill: none; stroke: #000000; stroke-width: 1.5"/>
    <path d="M 392.410851 94.82649 
L 392.410851 83.31303 
" clip-path="url(#p5400b7f6b9)" style="fill: none; stroke: #000000; stroke-width: 1.5"/>
   </g>
   <g id="patch_33">
    <path d="M 57.6 307.584 
L 57.6 41.472 
" style="fill: none; stroke: #000000; stroke-width: 0.8; stroke-linejoin: miter; stroke-linecap: square"/>
   </g>
   <g id="patch_34">
    <path d="M 414.72 307.584 
L 414.72 41.472 
" style="fill: none; stroke: #000000; stroke-width: 0.8; stroke-linejoin: miter; stroke-linecap: square"/>
   </g>
   <g id="patch_35">
    <path d="M 57.6 307.584 
L 414.72 307.584 
" style="fill: none; stroke: #000000; stroke-width: 0.8; stroke-linejoin: miter; stroke-linecap: square"/>
   </g>
   <g id="patch_36">
    <path d="M 57.6 41.472 
L 414.72 41.472 
" style="fill: none; stroke: #000000; stroke-width: 0.8; stroke-linejoin: miter; stroke-linecap: square"/>
   </g>
   <g id="legend_1">
    <g id="patch_37">
     <path d="M 351.7325 93.506375 
L 407.72 93.506375 
Q 409.72 93.506375 409.72 91.506375 
L 409.72 48.472 
Q 409.72 46.472 407.72 46.472 
L 351.7325 46.472 
Q 349.7325 46.472 349.7325 48.472 
L 349.7325 91.506375 
Q 349.7325 93.506375 351.7325 93.506375 
z
" style="fill: #ffffff; opacity: 0.8; stroke: #cccccc; stroke-linejoin: miter"/>
    </g>
    <g id="patch_38">
     <path d="M 353.7325 58.070438 
L 373.7325 58.070438 
L 373.7325 51.070438 
L 353.7325 51.070438 
z
" style="fill: #1f77b4"/>
    </g>
    <g id="text_17">
     <!-- Train -->
     <g transform="translate(381.7325 58.070438) scale(0.1 -0.1)">
      <defs>
       <path id="DejaVuSans-54" d="M -19 4666 
L 3928 4666 
L 3928 4134 
L 2272 4134 
L 2272 0 
L 1638 0 
L 1638 4134 
L -19 4134 
L -19 4666 
z
" transform="scale(0.015625)"/>
       <path id="DejaVuSans-72" d="M 2631 2963 
Q 2534 3019 2420 3045 
Q 2306 3072 2169 3072 
Q 1681 3072 1420 2755 
Q 1159 2438 1159 1844 
L 1159 0 
L 581 0 
L 581 3500 
L 1159 3500 
L 1159 2956 
Q 1341 3275 1631 3429 
Q 1922 3584 2338 3584 
Q 2397 3584 2469 3576 
Q 2541 3569 2628 3553 
L 2631 2963 
z
" transform="scale(0.015625)"/>
       <path id="DejaVuSans-61" d="M 2194 1759 
Q 1497 1759 1228 1600 
Q 959 1441 959 1056 
Q 959 750 1161 570 
Q 1363 391 1709 391 
Q 2188 391 2477 730 
Q 2766 1069 2766 1631 
L 2766 1759 
L 2194 1759 
z
M 3341 1997 
L 3341 0 
L 2766 0 
L 2766 531 
Q 2569 213 2275 61 
Q 1981 -91 1556 -91 
Q 1019 -91 701 211 
Q 384 513 384 1019 
Q 384 1609 779 1909 
Q 1175 2209 1959 2209 
L 2766 2209 
L 2766 2266 
Q 2766 2663 2505 2880 
Q 2244 3097 1772 3097 
Q 1472 3097 1187 3025 
Q 903 2953 641 2809 
L 641 3341 
Q 956 3463 1253 3523 
Q 1550 3584 1831 3584 
Q 2591 3584 2966 3190 
Q 3341 2797 3341 1997 
z
" transform="scale(0.015625)"/>
       <path id="DejaVuSans-6e" d="M 3513 2113 
L 3513 0 
L 2938 0 
L 2938 2094 
Q 2938 2591 2744 2837 
Q 2550 3084 2163 3084 
Q 1697 3084 1428 2787 
Q 1159 2491 1159 1978 
L 1159 0 
L 581 0 
L 581 3500 
L 1159 3500 
L 1159 2956 
Q 1366 3272 1645 3428 
Q 1925 3584 2291 3584 
Q 2894 3584 3203 3211 
Q 3513 2838 3513 2113 
z
" transform="scale(0.015625)"/>
      </defs>
      <use xlink:href="#DejaVuSans-54"/>
      <use xlink:href="#DejaVuSans-72" x="46.333984"/>
      <use xlink:href="#DejaVuSans-61" x="87.447266"/>
      <use xlink:href="#DejaVuSans-69" x="148.726562"/>
      <use xlink:href="#DejaVuSans-6e" x="176.509766"/>
     </g>
    </g>
    <g id="patch_39">
     <path d="M 353.7325 72.748563 
L 373.7325 72.748563 
L 373.7325 65.748563 
L 353.7325 65.748563 
z
" style="fill: #ff7f0e"/>
    </g>
    <g id="text_18">
     <!-- Val -->
     <g transform="translate(381.7325 72.748563) scale(0.1 -0.1)">
      <defs>
       <path id="DejaVuSans-56" d="M 1831 0 
L 50 4666 
L 709 4666 
L 2188 738 
L 3669 4666 
L 4325 4666 
L 2547 0 
L 1831 0 
z
" transform="scale(0.015625)"/>
       <path id="DejaVuSans-6c" d="M 603 4863 
L 1178 4863 
L 1178 0 
L 603 0 
L 603 4863 
z
" transform="scale(0.015625)"/>
      </defs>
      <use xlink:href="#DejaVuSans-56"/>
      <use xlink:href="#DejaVuSans-61" x="60.658203"/>
      <use xlink:href="#DejaVuSans-6c" x="121.9375"/>
     </g>
    </g>
    <g id="patch_40">
     <path d="M 353.7325 87.426688 
L 373.7325 87.426688 
L 373.7325 80.426688 
L 353.7325 80.426688 
z
" style="fill: #2ca02c"/>
    </g>
    <g id="text_19">
     <!-- Test -->
     <g transform="translate(381.7325 87.426688) scale(0.1 -0.1)">
      <defs>
       <path id="DejaVuSans-73" d="M 2834 3397 
L 2834 2853 
Q 2591 2978 2328 3040 
Q 2066 3103 1784 3103 
Q 1356 3103 1142 2972 
Q 928 2841 928 2578 
Q 928 2378 1081 2264 
Q 1234 2150 1697 2047 
L 1894 2003 
Q 2506 1872 2764 1633 
Q 3022 1394 3022 966 
Q 3022 478 2636 193 
Q 2250 -91 1575 -91 
Q 1294 -91 989 -36 
Q 684 19 347 128 
L 347 722 
Q 666 556 975 473 
Q 1284 391 1588 391 
Q 1994 391 2212 530 
Q 2431 669 2431 922 
Q 2431 1156 2273 1281 
Q 2116 1406 1581 1522 
L 1381 1569 
Q 847 1681 609 1914 
Q 372 2147 372 2553 
Q 372 3047 722 3315 
Q 1072 3584 1716 3584 
Q 2034 3584 2315 3537 
Q 2597 3491 2834 3397 
z
" transform="scale(0.015625)"/>
      </defs>
      <use xlink:href="#DejaVuSans-54"/>
      <use xlink:href="#DejaVuSans-65" x="44.083984"/>
      <use xlink:href="#DejaVuSans-73" x="105.607422"/>
      <use xlink:href="#DejaVuSans-74" x="157.707031"/>
     </g>
    </g>
   </g>
  </g>
 </g>
 <defs>
  <clipPath id="p5400b7f6b9">
   <rect x="57.6" y="41.472" width="357.12" height="266.112"/>
  </clipPath>
 </defs>
</svg>
