<?xml version="1.0" encoding="utf-8" standalone="no"?>
<!DOCTYPE svg PUBLIC "-//W3C//DTD SVG 1.1//EN"
  "http://www.w3.org/Graphics/SVG/1.1/DTD/svg11.dtd">
<svg xmlns:xlink="http://www.w3.org/1999/xlink" width="432pt" height="288pt" viewBox="0 0 432 288" xmlns="http://www.w3.org/2000/svg" version="1.1">
 <metadata>
  <rdf:RDF xmlns:dc="http://purl.org/dc/elements/1.1/" xmlns:cc="http://creativecommons.org/ns#" xmlns:rdf="http://www.w3.org/1999/02/22-rdf-syntax-ns#">
   <cc:Work>
    <dc:type rdf:resource="http://purl.org/dc/dcmitype/StillImage"/>
    <dc:date>2022-12-26T15:38:06.497553</dc:date>
    <dc:format>image/svg+xml</dc:format>
    <dc:creator>
     <cc:Agent>
      <dc:title>Matplotlib v3.5.1, https://matplotlib.org/</dc:title>
     </cc:Agent>
    </dc:creator>
   </cc:Work>
  </rdf:RDF>
 </metadata>
 <defs>
  <style type="text/css">*{stroke-linejoin: round; stroke-linecap: butt}</style>
 </defs>
 <g id="figure_1">
  <g id="patch_1">
   <path d="M 0 288 
L 432 288 
L 432 0 
L 0 0 
L 0 288 
z
" style="fill: none"/>
  </g>
  <g id="axes_1">
   <g id="patch_2">
    <path d="M 54 252 
L 388.8 252 
L 388.8 34.56 
L 54 34.56 
z
" style="fill: #ffffff"/>
   </g>
   <g id="PolyCollection_1">
    <path d="M 69.218182 163.362696 
L 69.218182 189.447476 
L 72.292562 173.778313 
L 75.366942 163.513459 
L 78.441322 155.614206 
L 81.515702 148.630617 
L 84.590083 145.488506 
L 87.664463 142.04933 
L 90.738843 138.908817 
L 93.813223 137.007132 
L 96.887603 135.88862 
L 99.961983 132.486596 
L 103.036364 131.990543 
L 106.110744 131.463664 
L 109.185124 128.399589 
L 112.259504 126.68613 
L 115.333884 124.757101 
L 118.408264 123.833914 
L 121.482645 120.882941 
L 124.557025 118.871912 
L 127.631405 118.882992 
L 130.705785 116.814124 
L 133.780165 117.030696 
L 136.854545 115.416019 
L 139.928926 113.059087 
L 143.003306 114.649811 
L 146.077686 113.290514 
L 149.152066 112.511064 
L 152.226446 115.064985 
L 155.300826 111.925451 
L 158.375207 109.64455 
L 161.449587 108.386683 
L 164.523967 107.716945 
L 167.598347 106.993307 
L 170.672727 105.589078 
L 173.747107 106.151701 
L 176.821488 105.823196 
L 179.895868 104.680661 
L 182.970248 104.062845 
L 186.044628 104.574062 
L 189.119008 102.718462 
L 192.193388 100.449575 
L 195.267769 100.907714 
L 198.342149 101.555868 
L 201.416529 101.590878 
L 204.490909 100.180864 
L 207.565289 99.152554 
L 210.639669 99.943299 
L 213.71405 99.502448 
L 216.78843 98.329353 
L 219.86281 98.239848 
L 222.93719 97.446716 
L 226.01157 97.865223 
L 229.08595 97.078611 
L 232.160331 96.857523 
L 235.234711 96.189811 
L 238.309091 96.190456 
L 241.383471 96.732014 
L 244.457851 96.067303 
L 247.532231 95.351429 
L 250.606612 95.570483 
L 253.680992 95.057142 
L 256.755372 93.908678 
L 259.829752 93.234926 
L 262.904132 93.642485 
L 265.978512 93.206 
L 269.052893 94.164957 
L 272.127273 92.975243 
L 275.201653 93.141972 
L 278.276033 93.495972 
L 281.350413 92.974626 
L 284.424793 92.727123 
L 287.499174 92.886245 
L 290.573554 93.476393 
L 293.647934 91.215983 
L 296.722314 91.171458 
L 299.796694 91.782412 
L 302.871074 92.024905 
L 305.945455 91.132496 
L 309.019835 92.060978 
L 312.094215 90.334075 
L 315.168595 90.45819 
L 318.242975 89.905032 
L 321.317355 90.579236 
L 324.391736 90.463722 
L 327.466116 90.734486 
L 330.540496 89.375145 
L 333.614876 89.016644 
L 336.689256 89.951672 
L 339.763636 89.302483 
L 342.838017 88.973702 
L 345.912397 88.729026 
L 348.986777 88.299657 
L 352.061157 88.368358 
L 355.135537 88.186076 
L 358.209917 88.68692 
L 361.284298 90.398346 
L 364.358678 88.493741 
L 367.433058 88.162542 
L 370.507438 87.662808 
L 373.581818 89.436818 
L 373.581818 62.86261 
L 373.581818 62.86261 
L 370.507438 61.909993 
L 367.433058 61.462027 
L 364.358678 64.116316 
L 361.284298 62.643138 
L 358.209917 63.163821 
L 355.135537 62.163296 
L 352.061157 63.775758 
L 348.986777 65.483887 
L 345.912397 63.415089 
L 342.838017 61.444697 
L 339.763636 63.997862 
L 336.689256 63.987184 
L 333.614876 64.26644 
L 330.540496 64.356627 
L 327.466116 64.015458 
L 324.391736 64.803937 
L 321.317355 65.292423 
L 318.242975 65.845827 
L 315.168595 65.586039 
L 312.094215 65.589355 
L 309.019835 64.966912 
L 305.945455 66.516648 
L 302.871074 66.262755 
L 299.796694 67.419875 
L 296.722314 66.149796 
L 293.647934 67.261502 
L 290.573554 67.434349 
L 287.499174 67.437753 
L 284.424793 68.149105 
L 281.350413 68.160461 
L 278.276033 68.795344 
L 275.201653 68.096656 
L 272.127273 67.970014 
L 269.052893 69.627729 
L 265.978512 69.965428 
L 262.904132 70.909514 
L 259.829752 68.970104 
L 256.755372 69.383547 
L 253.680992 71.444912 
L 250.606612 70.551917 
L 247.532231 70.650171 
L 244.457851 70.935211 
L 241.383471 73.255988 
L 238.309091 72.986457 
L 235.234711 72.486644 
L 232.160331 72.664533 
L 229.08595 72.805844 
L 226.01157 73.624149 
L 222.93719 73.801055 
L 219.86281 74.026094 
L 216.78843 76.076475 
L 213.71405 75.283036 
L 210.639669 75.808588 
L 207.565289 76.288701 
L 204.490909 76.606452 
L 201.416529 76.059293 
L 198.342149 77.129731 
L 195.267769 77.708856 
L 192.193388 78.581167 
L 189.119008 78.107023 
L 186.044628 80.065252 
L 182.970248 80.731783 
L 179.895868 80.286537 
L 176.821488 80.127662 
L 173.747107 80.196071 
L 170.672727 80.844981 
L 167.598347 81.718693 
L 164.523967 82.116768 
L 161.449587 83.379832 
L 158.375207 84.641509 
L 155.300826 84.880149 
L 152.226446 84.139357 
L 149.152066 85.122879 
L 146.077686 85.844798 
L 143.003306 86.677163 
L 139.928926 89.044457 
L 136.854545 88.34421 
L 133.780165 90.767705 
L 130.705785 90.000618 
L 127.631405 91.642035 
L 124.557025 93.344312 
L 121.482645 94.543114 
L 118.408264 93.266087 
L 115.333884 95.052268 
L 112.259504 97.29947 
L 109.185124 97.605094 
L 106.110744 100.201366 
L 103.036364 101.348428 
L 99.961983 104.027689 
L 96.887603 104.008067 
L 93.813223 106.220182 
L 90.738843 109.340325 
L 87.664463 112.153528 
L 84.590083 116.255723 
L 81.515702 119.602297 
L 78.441322 124.560651 
L 75.366942 131.537056 
L 72.292562 138.305002 
L 69.218182 163.362696 
z
" clip-path="url(#pa91e7dbc16)" style="fill: #1f77b4; fill-opacity: 0.2"/>
   </g>
   <g id="PolyCollection_2">
    <path d="M 69.218182 132.024036 
L 69.218182 143.681221 
L 72.292562 122.634732 
L 75.366942 113.968436 
L 78.441322 108.185332 
L 81.515702 102.990788 
L 84.590083 101.089354 
L 87.664463 98.766147 
L 90.738843 95.015466 
L 93.813223 95.33998 
L 96.887603 92.375391 
L 99.961983 91.199452 
L 103.036364 90.185176 
L 106.110744 90.394244 
L 109.185124 86.318784 
L 112.259504 86.572639 
L 115.333884 83.05216 
L 118.408264 83.930248 
L 121.482645 81.934427 
L 124.557025 81.182627 
L 127.631405 81.393139 
L 130.705785 82.479223 
L 133.780165 80.255719 
L 136.854545 78.49515 
L 139.928926 77.491849 
L 143.003306 75.236622 
L 146.077686 76.93675 
L 149.152066 76.750094 
L 152.226446 76.693573 
L 155.300826 75.107265 
L 158.375207 74.156147 
L 161.449587 72.251676 
L 164.523967 73.21048 
L 167.598347 71.855958 
L 170.672727 72.294376 
L 173.747107 71.804038 
L 176.821488 72.553601 
L 179.895868 70.66604 
L 182.970248 71.22806 
L 186.044628 71.196117 
L 189.119008 70.091333 
L 192.193388 69.490415 
L 195.267769 71.295944 
L 198.342149 71.203701 
L 201.416529 68.523468 
L 204.490909 67.177179 
L 207.565289 70.187234 
L 210.639669 69.177707 
L 213.71405 67.927914 
L 216.78843 67.58197 
L 219.86281 67.221145 
L 222.93719 66.334863 
L 226.01157 68.928905 
L 229.08595 65.681268 
L 232.160331 66.25119 
L 235.234711 66.90708 
L 238.309091 66.182434 
L 241.383471 65.92502 
L 244.457851 64.780934 
L 247.532231 65.233182 
L 250.606612 66.000443 
L 253.680992 64.833333 
L 256.755372 64.113921 
L 259.829752 67.68496 
L 262.904132 68.868611 
L 265.978512 67.705357 
L 269.052893 64.727492 
L 272.127273 62.27696 
L 275.201653 62.463925 
L 278.276033 60.949979 
L 281.350413 61.899904 
L 284.424793 61.367658 
L 287.499174 61.985707 
L 290.573554 62.65952 
L 293.647934 63.244067 
L 296.722314 62.31623 
L 299.796694 64.553715 
L 302.871074 62.533953 
L 305.945455 61.188648 
L 309.019835 62.295016 
L 312.094215 61.352777 
L 315.168595 62.064779 
L 318.242975 61.084785 
L 321.317355 62.439009 
L 324.391736 61.541438 
L 327.466116 62.569581 
L 330.540496 62.564917 
L 333.614876 61.043884 
L 336.689256 63.13899 
L 339.763636 59.878103 
L 342.838017 61.558793 
L 345.912397 61.091679 
L 348.986777 62.899931 
L 352.061157 61.507338 
L 355.135537 59.190859 
L 358.209917 58.420234 
L 361.284298 58.480305 
L 364.358678 58.926299 
L 367.433058 60.805541 
L 370.507438 61.287083 
L 373.581818 59.363829 
L 373.581818 49.551143 
L 373.581818 49.551143 
L 370.507438 50.527088 
L 367.433058 50.283832 
L 364.358678 47.7625 
L 361.284298 46.914205 
L 358.209917 48.579196 
L 355.135537 49.309941 
L 352.061157 49.202376 
L 348.986777 47.602698 
L 345.912397 48.893234 
L 342.838017 49.58235 
L 339.763636 50.262125 
L 336.689256 49.296435 
L 333.614876 49.458744 
L 330.540496 50.439997 
L 327.466116 50.435332 
L 324.391736 49.616964 
L 321.317355 50.376078 
L 318.242975 48.986417 
L 315.168595 49.611338 
L 312.094215 49.650307 
L 309.019835 52.142241 
L 305.945455 51.505636 
L 302.871074 50.729817 
L 299.796694 51.160569 
L 296.722314 50.895769 
L 293.647934 49.985188 
L 290.573554 50.932138 
L 287.499174 50.777608 
L 284.424793 48.617258 
L 281.350413 50.086837 
L 278.276033 51.05402 
L 275.201653 53.284879 
L 272.127273 52.315614 
L 269.052893 53.074906 
L 265.978512 52.996245 
L 262.904132 52.816646 
L 259.829752 52.878583 
L 256.755372 52.428708 
L 253.680992 52.071694 
L 250.606612 51.974527 
L 247.532231 52.534704 
L 244.457851 54.488324 
L 241.383471 53.361497 
L 238.309091 51.481909 
L 235.234711 52.327663 
L 232.160331 53.932697 
L 229.08595 55.313702 
L 226.01157 55.517496 
L 222.93719 55.885368 
L 219.86281 54.326056 
L 216.78843 53.154143 
L 213.71405 53.705571 
L 210.639669 54.336806 
L 207.565289 56.623394 
L 204.490909 56.941335 
L 201.416529 55.853902 
L 198.342149 54.830356 
L 195.267769 54.738112 
L 192.193388 56.940558 
L 189.119008 58.030838 
L 186.044628 59.445598 
L 182.970248 57.705197 
L 179.895868 57.576934 
L 176.821488 58.743887 
L 173.747107 58.596076 
L 170.672727 59.745169 
L 167.598347 60.338898 
L 164.523967 60.382207 
L 161.449587 61.565352 
L 158.375207 61.818025 
L 155.300826 59.607134 
L 152.226446 61.972715 
L 149.152066 63.141449 
L 146.077686 63.990221 
L 143.003306 65.44875 
L 139.928926 63.832037 
L 136.854545 65.69342 
L 133.780165 67.79845 
L 130.705785 66.679406 
L 127.631405 67.575662 
L 124.557025 67.130405 
L 121.482645 68.380429 
L 118.408264 69.887809 
L 115.333884 71.818582 
L 112.259504 71.283592 
L 109.185124 73.2459 
L 106.110744 75.693639 
L 103.036364 76.127052 
L 99.961983 75.803063 
L 96.887603 77.301981 
L 93.813223 80.601735 
L 90.738843 82.876307 
L 87.664463 84.699681 
L 84.590083 88.226644 
L 81.515702 90.86384 
L 78.441322 96.851922 
L 75.366942 103.062535 
L 72.292562 108.409037 
L 69.218182 132.024036 
z
" clip-path="url(#pa91e7dbc16)" style="fill: #ff7f0e; fill-opacity: 0.2"/>
   </g>
   <g id="PolyCollection_3">
    <path d="M 69.218182 133.752749 
L 69.218182 143.436621 
L 72.292562 125.651845 
L 75.366942 117.012778 
L 78.441322 109.591099 
L 81.515702 106.648999 
L 84.590083 102.653579 
L 87.664463 98.419909 
L 90.738843 95.680658 
L 93.813223 93.118609 
L 96.887603 92.804328 
L 99.961983 89.692932 
L 103.036364 89.321937 
L 106.110744 87.472182 
L 109.185124 87.564226 
L 112.259504 85.781474 
L 115.333884 84.143642 
L 118.408264 82.798225 
L 121.482645 83.251371 
L 124.557025 81.653556 
L 127.631405 80.515838 
L 130.705785 79.053258 
L 133.780165 78.300456 
L 136.854545 79.598559 
L 139.928926 79.068941 
L 143.003306 77.34612 
L 146.077686 76.372822 
L 149.152066 74.913025 
L 152.226446 73.989997 
L 155.300826 74.650913 
L 158.375207 74.124543 
L 161.449587 74.715483 
L 164.523967 74.318635 
L 167.598347 74.239911 
L 170.672727 70.952372 
L 173.747107 70.11703 
L 176.821488 70.317165 
L 179.895868 70.740215 
L 182.970248 70.335913 
L 186.044628 71.359051 
L 189.119008 68.434631 
L 192.193388 68.509369 
L 195.267769 70.359154 
L 198.342149 70.108795 
L 201.416529 71.886298 
L 204.490909 71.451715 
L 207.565289 70.324221 
L 210.639669 67.064672 
L 213.71405 65.738662 
L 216.78843 64.175142 
L 219.86281 66.408143 
L 222.93719 66.841734 
L 226.01157 66.981919 
L 229.08595 66.563938 
L 232.160331 65.1837 
L 235.234711 66.574874 
L 238.309091 67.18175 
L 241.383471 65.323209 
L 244.457851 64.272637 
L 247.532231 65.027611 
L 250.606612 65.4688 
L 253.680992 66.128719 
L 256.755372 64.8055 
L 259.829752 64.000934 
L 262.904132 64.539585 
L 265.978512 63.357689 
L 269.052893 65.475268 
L 272.127273 64.122926 
L 275.201653 63.945208 
L 278.276033 60.958562 
L 281.350413 61.234494 
L 284.424793 61.30859 
L 287.499174 62.253178 
L 290.573554 62.938565 
L 293.647934 62.070156 
L 296.722314 63.845185 
L 299.796694 63.089885 
L 302.871074 62.592944 
L 305.945455 61.247822 
L 309.019835 61.474972 
L 312.094215 61.364077 
L 315.168595 62.477833 
L 318.242975 61.944256 
L 321.317355 63.253914 
L 324.391736 62.287396 
L 327.466116 62.837394 
L 330.540496 61.994451 
L 333.614876 60.313913 
L 336.689256 59.972256 
L 339.763636 60.344803 
L 342.838017 59.271933 
L 345.912397 59.37669 
L 348.986777 61.189277 
L 352.061157 62.241922 
L 355.135537 61.614335 
L 358.209917 60.965291 
L 361.284298 61.487741 
L 364.358678 59.829419 
L 367.433058 61.088904 
L 370.507438 60.585771 
L 373.581818 60.895251 
L 373.581818 50.401206 
L 373.581818 50.401206 
L 370.507438 50.745202 
L 367.433058 50.828809 
L 364.358678 49.982924 
L 361.284298 50.447228 
L 358.209917 49.69265 
L 355.135537 49.285208 
L 352.061157 49.520478 
L 348.986777 49.606724 
L 345.912397 49.641824 
L 342.838017 49.660293 
L 339.763636 49.018854 
L 336.689256 49.615743 
L 333.614876 49.239573 
L 330.540496 49.871494 
L 327.466116 50.89232 
L 324.391736 50.613975 
L 321.317355 51.166087 
L 318.242975 51.474829 
L 315.168595 51.200108 
L 312.094215 50.95055 
L 309.019835 50.598054 
L 305.945455 50.807948 
L 302.871074 50.722599 
L 299.796694 52.158458 
L 296.722314 51.886359 
L 293.647934 52.556931 
L 290.573554 53.258923 
L 287.499174 52.080537 
L 284.424793 52.731755 
L 281.350413 52.184591 
L 278.276033 52.667608 
L 275.201653 53.908965 
L 272.127273 55.336157 
L 269.052893 56.813989 
L 265.978512 52.891564 
L 262.904132 52.934928 
L 259.829752 52.023979 
L 256.755372 52.703527 
L 253.680992 52.622823 
L 250.606612 51.487999 
L 247.532231 53.637648 
L 244.457851 55.013879 
L 241.383471 54.463762 
L 238.309091 56.194706 
L 235.234711 56.163066 
L 232.160331 55.673213 
L 229.08595 54.120402 
L 226.01157 54.133853 
L 222.93719 53.635524 
L 219.86281 53.396086 
L 216.78843 55.956971 
L 213.71405 57.309911 
L 210.639669 56.898528 
L 207.565289 58.177609 
L 204.490909 57.395257 
L 201.416529 58.168672 
L 198.342149 57.167778 
L 195.267769 57.814788 
L 192.193388 57.265828 
L 189.119008 56.029027 
L 186.044628 57.125518 
L 182.970248 59.908884 
L 179.895868 59.245728 
L 176.821488 60.117463 
L 173.747107 60.317602 
L 170.672727 60.534945 
L 167.598347 62.044888 
L 164.523967 61.897134 
L 161.449587 62.880856 
L 158.375207 61.038542 
L 155.300826 61.323258 
L 152.226446 61.604517 
L 149.152066 63.632461 
L 146.077686 65.02009 
L 143.003306 64.771593 
L 139.928926 66.707287 
L 136.854545 66.056868 
L 133.780165 68.304117 
L 130.705785 69.587656 
L 127.631405 69.522904 
L 124.557025 69.731244 
L 121.482645 67.891828 
L 118.408264 70.053432 
L 115.333884 73.747103 
L 112.259504 74.197381 
L 109.185124 74.65806 
L 106.110744 76.76919 
L 103.036364 76.834977 
L 99.961983 79.259638 
L 96.887603 79.237272 
L 93.813223 82.73682 
L 90.738843 85.472711 
L 87.664463 85.839747 
L 84.590083 90.579792 
L 81.515702 90.605286 
L 78.441322 95.101017 
L 75.366942 100.932825 
L 72.292562 111.224843 
L 69.218182 133.752749 
z
" clip-path="url(#pa91e7dbc16)" style="fill: #2ca02c; fill-opacity: 0.2"/>
   </g>
   <g id="PolyCollection_4">
    <path d="M 69.218182 144.686512 
L 69.218182 151.572003 
L 72.292562 103.545693 
L 75.366942 84.157458 
L 78.441322 71.524373 
L 81.515702 64.691777 
L 84.590083 57.540805 
L 87.664463 55.180447 
L 90.738843 52.027029 
L 93.813223 52.06916 
L 96.887603 51.877788 
L 99.961983 51.249208 
L 103.036364 51.663219 
L 106.110744 53.030084 
L 109.185124 52.52379 
L 112.259504 52.779787 
L 115.333884 53.232591 
L 118.408264 52.099726 
L 121.482645 53.989823 
L 124.557025 51.241551 
L 127.631405 50.250759 
L 130.705785 51.156598 
L 133.780165 50.137176 
L 136.854545 51.676692 
L 139.928926 50.903368 
L 143.003306 50.861698 
L 146.077686 51.272869 
L 149.152066 50.084818 
L 152.226446 49.255344 
L 155.300826 50.466582 
L 158.375207 50.924208 
L 161.449587 50.138598 
L 164.523967 49.331341 
L 167.598347 49.707936 
L 170.672727 49.725741 
L 173.747107 50.327501 
L 176.821488 49.858045 
L 179.895868 50.524263 
L 182.970248 50.453037 
L 186.044628 48.954916 
L 189.119008 50.545167 
L 192.193388 49.420781 
L 195.267769 48.286705 
L 198.342149 48.546272 
L 201.416529 48.764047 
L 204.490909 49.773525 
L 207.565289 49.010239 
L 210.639669 49.094819 
L 213.71405 49.352054 
L 216.78843 48.742624 
L 219.86281 49.23064 
L 222.93719 49.288175 
L 226.01157 48.424484 
L 229.08595 48.822359 
L 232.160331 48.224025 
L 235.234711 48.447789 
L 238.309091 48.561753 
L 241.383471 47.991976 
L 244.457851 47.656105 
L 247.532231 47.793603 
L 250.606612 48.040978 
L 253.680992 48.372727 
L 256.755372 48.503768 
L 259.829752 48.565632 
L 262.904132 48.168883 
L 265.978512 47.975655 
L 269.052893 47.910905 
L 272.127273 47.700996 
L 275.201653 47.833432 
L 278.276033 48.066106 
L 281.350413 47.401836 
L 284.424793 47.635775 
L 287.499174 47.651576 
L 290.573554 48.176991 
L 293.647934 47.974099 
L 296.722314 47.794934 
L 299.796694 47.852486 
L 302.871074 47.904625 
L 305.945455 47.589229 
L 309.019835 47.838058 
L 312.094215 47.290862 
L 315.168595 47.204464 
L 318.242975 47.849229 
L 321.317355 47.555838 
L 324.391736 47.705583 
L 327.466116 47.942874 
L 330.540496 47.548807 
L 333.614876 47.150612 
L 336.689256 47.549313 
L 339.763636 47.156349 
L 342.838017 47.688687 
L 345.912397 47.467252 
L 348.986777 47.176355 
L 352.061157 47.287286 
L 355.135537 47.633815 
L 358.209917 47.344604 
L 361.284298 47.119808 
L 364.358678 47.528425 
L 367.433058 46.820005 
L 370.507438 47.087426 
L 373.581818 46.831321 
L 373.581818 45.534048 
L 373.581818 45.534048 
L 370.507438 45.312457 
L 367.433058 45.51085 
L 364.358678 45.40643 
L 361.284298 45.366361 
L 358.209917 45.572993 
L 355.135537 45.542639 
L 352.061157 45.751111 
L 348.986777 45.240785 
L 345.912397 45.415831 
L 342.838017 45.643081 
L 339.763636 45.519649 
L 336.689256 45.592626 
L 333.614876 45.249271 
L 330.540496 45.558618 
L 327.466116 45.958379 
L 324.391736 45.557157 
L 321.317355 45.465302 
L 318.242975 45.913967 
L 315.168595 45.48879 
L 312.094215 45.626735 
L 309.019835 45.510968 
L 305.945455 45.91511 
L 302.871074 46.151943 
L 299.796694 45.824425 
L 296.722314 45.605862 
L 293.647934 45.806354 
L 290.573554 45.758776 
L 287.499174 46.077106 
L 284.424793 45.350851 
L 281.350413 45.688333 
L 278.276033 45.731605 
L 275.201653 46.171364 
L 272.127273 45.579001 
L 269.052893 45.80052 
L 265.978512 45.580456 
L 262.904132 45.835913 
L 259.829752 45.76705 
L 256.755372 46.225827 
L 253.680992 45.373212 
L 250.606612 45.912047 
L 247.532231 45.866051 
L 244.457851 45.710177 
L 241.383471 45.546878 
L 238.309091 45.9435 
L 235.234711 45.833121 
L 232.160331 45.970599 
L 229.08595 45.579351 
L 226.01157 46.184312 
L 222.93719 45.821078 
L 219.86281 44.912214 
L 216.78843 45.762629 
L 213.71405 45.688171 
L 210.639669 45.910891 
L 207.565289 45.115359 
L 204.490909 45.214928 
L 201.416529 45.620406 
L 198.342149 45.631095 
L 195.267769 45.804377 
L 192.193388 45.792016 
L 189.119008 45.4442 
L 186.044628 46.292393 
L 182.970248 45.363759 
L 179.895868 45.654933 
L 176.821488 45.337495 
L 173.747107 45.161412 
L 170.672727 45.107399 
L 167.598347 45.246004 
L 164.523967 45.467284 
L 161.449587 46.161397 
L 158.375207 45.651903 
L 155.300826 45.574556 
L 152.226446 46.664993 
L 149.152066 45.697464 
L 146.077686 46.304157 
L 143.003306 46.163097 
L 139.928926 46.380284 
L 136.854545 45.520677 
L 133.780165 45.938476 
L 130.705785 45.91997 
L 127.631405 46.170037 
L 124.557025 46.784159 
L 121.482645 46.020459 
L 118.408264 46.271127 
L 115.333884 46.639636 
L 112.259504 47.592898 
L 109.185124 47.555525 
L 106.110744 47.118255 
L 103.036364 46.845691 
L 99.961983 46.448617 
L 96.887603 47.338665 
L 93.813223 47.941125 
L 90.738843 49.260279 
L 87.664463 51.059671 
L 84.590083 53.686628 
L 81.515702 59.323193 
L 78.441322 66.296314 
L 75.366942 77.219229 
L 72.292562 97.090991 
L 69.218182 144.686512 
z
" clip-path="url(#pa91e7dbc16)" style="fill: #d62728; fill-opacity: 0.2"/>
   </g>
   <g id="PolyCollection_5">
    <path d="M 69.218182 139.004907 
L 69.218182 144.724919 
L 72.292562 117.274513 
L 75.366942 117.833936 
L 78.441322 116.089314 
L 81.515702 117.256696 
L 84.590083 117.590166 
L 87.664463 120.842788 
L 90.738843 123.092238 
L 93.813223 125.641921 
L 96.887603 126.294678 
L 99.961983 130.906162 
L 103.036364 135.444183 
L 106.110744 136.866166 
L 109.185124 140.349154 
L 112.259504 141.661678 
L 115.333884 143.587308 
L 118.408264 146.46321 
L 121.482645 144.717289 
L 124.557025 147.904713 
L 127.631405 147.920233 
L 130.705785 149.146344 
L 133.780165 148.72062 
L 136.854545 150.151336 
L 139.928926 150.645263 
L 143.003306 152.078505 
L 146.077686 153.658827 
L 149.152066 151.998349 
L 152.226446 152.776654 
L 155.300826 152.307896 
L 158.375207 151.533966 
L 161.449587 153.006431 
L 164.523967 152.074177 
L 167.598347 153.675377 
L 170.672727 155.204736 
L 173.747107 151.136529 
L 176.821488 153.21893 
L 179.895868 152.350042 
L 182.970248 152.599142 
L 186.044628 152.763188 
L 189.119008 153.630431 
L 192.193388 153.954243 
L 195.267769 153.98088 
L 198.342149 152.554181 
L 201.416529 151.805706 
L 204.490909 151.829629 
L 207.565289 152.822718 
L 210.639669 152.149181 
L 213.71405 152.386111 
L 216.78843 151.912707 
L 219.86281 152.818144 
L 222.93719 152.408189 
L 226.01157 151.778944 
L 229.08595 150.62043 
L 232.160331 151.947302 
L 235.234711 152.715128 
L 238.309091 153.444364 
L 241.383471 153.239896 
L 244.457851 152.552223 
L 247.532231 152.931399 
L 250.606612 152.405582 
L 253.680992 152.272607 
L 256.755372 151.173004 
L 259.829752 151.697882 
L 262.904132 152.037098 
L 265.978512 152.234332 
L 269.052893 152.348206 
L 272.127273 151.253568 
L 275.201653 151.726342 
L 278.276033 151.728052 
L 281.350413 150.948877 
L 284.424793 153.134464 
L 287.499174 153.25451 
L 290.573554 152.503939 
L 293.647934 152.113376 
L 296.722314 152.845919 
L 299.796694 152.194851 
L 302.871074 151.421835 
L 305.945455 153.242119 
L 309.019835 152.599812 
L 312.094215 152.257868 
L 315.168595 152.258783 
L 318.242975 153.567571 
L 321.317355 153.251555 
L 324.391736 152.387836 
L 327.466116 153.06318 
L 330.540496 154.605733 
L 333.614876 153.589012 
L 336.689256 152.889235 
L 339.763636 152.331637 
L 342.838017 152.994589 
L 345.912397 152.815669 
L 348.986777 152.283478 
L 352.061157 153.714642 
L 355.135537 152.786936 
L 358.209917 153.030909 
L 361.284298 152.493378 
L 364.358678 151.661372 
L 367.433058 151.071843 
L 370.507438 150.661297 
L 373.581818 150.683169 
L 373.581818 135.307347 
L 373.581818 135.307347 
L 370.507438 136.278362 
L 367.433058 135.401874 
L 364.358678 135.951315 
L 361.284298 134.739652 
L 358.209917 135.358348 
L 355.135537 135.257179 
L 352.061157 133.656446 
L 348.986777 134.017667 
L 345.912397 134.969589 
L 342.838017 135.636268 
L 339.763636 135.764251 
L 336.689256 136.034994 
L 333.614876 137.768474 
L 330.540496 136.630953 
L 327.466116 134.877393 
L 324.391736 134.879709 
L 321.317355 134.654504 
L 318.242975 135.2186 
L 315.168595 134.59459 
L 312.094215 133.611849 
L 309.019835 134.512419 
L 305.945455 134.353311 
L 302.871074 134.585938 
L 299.796694 134.60675 
L 296.722314 134.490653 
L 293.647934 134.619197 
L 290.573554 134.383949 
L 287.499174 134.461719 
L 284.424793 135.772509 
L 281.350413 136.197867 
L 278.276033 135.643035 
L 275.201653 135.765546 
L 272.127273 136.324603 
L 269.052893 135.989281 
L 265.978512 134.929668 
L 262.904132 135.126903 
L 259.829752 135.051947 
L 256.755372 137.35431 
L 253.680992 136.893222 
L 250.606612 134.654877 
L 247.532231 135.975573 
L 244.457851 136.837949 
L 241.383471 135.718847 
L 238.309091 137.360893 
L 235.234711 136.450701 
L 232.160331 135.803441 
L 229.08595 136.215687 
L 226.01157 137.904599 
L 222.93719 136.964727 
L 219.86281 136.24414 
L 216.78843 135.924321 
L 213.71405 137.262917 
L 210.639669 136.050249 
L 207.565289 136.118769 
L 204.490909 136.714943 
L 201.416529 136.635325 
L 198.342149 136.387306 
L 195.267769 137.462892 
L 192.193388 137.9037 
L 189.119008 136.795171 
L 186.044628 137.593384 
L 182.970248 137.429545 
L 179.895868 138.903901 
L 176.821488 138.621755 
L 173.747107 140.151927 
L 170.672727 140.035607 
L 167.598347 139.701193 
L 164.523967 138.316909 
L 161.449587 138.230256 
L 158.375207 137.027861 
L 155.300826 137.410164 
L 152.226446 136.924149 
L 149.152066 138.306452 
L 146.077686 138.319918 
L 143.003306 137.41521 
L 139.928926 139.072791 
L 136.854545 137.409579 
L 133.780165 136.82121 
L 130.705785 134.859599 
L 127.631405 135.102055 
L 124.557025 133.875059 
L 121.482645 133.21414 
L 118.408264 130.070388 
L 115.333884 130.858179 
L 112.259504 128.314208 
L 109.185124 128.712104 
L 106.110744 125.067892 
L 103.036364 122.676045 
L 99.961983 119.741726 
L 96.887603 117.036179 
L 93.813223 116.44642 
L 90.738843 112.317588 
L 87.664463 110.925785 
L 84.590083 109.588004 
L 81.515702 109.300218 
L 78.441322 108.379485 
L 75.366942 109.603092 
L 72.292562 111.905485 
L 69.218182 139.004907 
z
" clip-path="url(#pa91e7dbc16)" style="fill: #9467bd; fill-opacity: 0.2"/>
   </g>
   <g id="matplotlib.axis_1">
    <g id="xtick_1">
     <g id="line2d_1">
      <defs>
       <path id="m6284c44698" d="M 0 0 
L 0 3.5 
" style="stroke: #000000; stroke-width: 0.8"/>
      </defs>
      <g>
       <use xlink:href="#m6284c44698" x="66.143802" y="252" style="stroke: #000000; stroke-width: 0.8"/>
      </g>
     </g>
     <g id="text_1">
      <!-- 0 -->
      <g transform="translate(62.962552 266.598437)scale(0.1 -0.1)">
       <defs>
        <path id="DejaVuSans-30" d="M 2034 4250 
Q 1547 4250 1301 3770 
Q 1056 3291 1056 2328 
Q 1056 1369 1301 889 
Q 1547 409 2034 409 
Q 2525 409 2770 889 
Q 3016 1369 3016 2328 
Q 3016 3291 2770 3770 
Q 2525 4250 2034 4250 
z
M 2034 4750 
Q 2819 4750 3233 4129 
Q 3647 3509 3647 2328 
Q 3647 1150 3233 529 
Q 2819 -91 2034 -91 
Q 1250 -91 836 529 
Q 422 1150 422 2328 
Q 422 3509 836 4129 
Q 1250 4750 2034 4750 
z
" transform="scale(0.015625)"/>
       </defs>
       <use xlink:href="#DejaVuSans-30"/>
      </g>
     </g>
    </g>
    <g id="xtick_2">
     <g id="line2d_2">
      <g>
       <use xlink:href="#m6284c44698" x="127.631405" y="252" style="stroke: #000000; stroke-width: 0.8"/>
      </g>
     </g>
     <g id="text_2">
      <!-- 20 -->
      <g transform="translate(121.268905 266.598437)scale(0.1 -0.1)">
       <defs>
        <path id="DejaVuSans-32" d="M 1228 531 
L 3431 531 
L 3431 0 
L 469 0 
L 469 531 
Q 828 903 1448 1529 
Q 2069 2156 2228 2338 
Q 2531 2678 2651 2914 
Q 2772 3150 2772 3378 
Q 2772 3750 2511 3984 
Q 2250 4219 1831 4219 
Q 1534 4219 1204 4116 
Q 875 4013 500 3803 
L 500 4441 
Q 881 4594 1212 4672 
Q 1544 4750 1819 4750 
Q 2544 4750 2975 4387 
Q 3406 4025 3406 3419 
Q 3406 3131 3298 2873 
Q 3191 2616 2906 2266 
Q 2828 2175 2409 1742 
Q 1991 1309 1228 531 
z
" transform="scale(0.015625)"/>
       </defs>
       <use xlink:href="#DejaVuSans-32"/>
       <use xlink:href="#DejaVuSans-30" x="63.623047"/>
      </g>
     </g>
    </g>
    <g id="xtick_3">
     <g id="line2d_3">
      <g>
       <use xlink:href="#m6284c44698" x="189.119008" y="252" style="stroke: #000000; stroke-width: 0.8"/>
      </g>
     </g>
     <g id="text_3">
      <!-- 40 -->
      <g transform="translate(182.756508 266.598437)scale(0.1 -0.1)">
       <defs>
        <path id="DejaVuSans-34" d="M 2419 4116 
L 825 1625 
L 2419 1625 
L 2419 4116 
z
M 2253 4666 
L 3047 4666 
L 3047 1625 
L 3713 1625 
L 3713 1100 
L 3047 1100 
L 3047 0 
L 2419 0 
L 2419 1100 
L 313 1100 
L 313 1709 
L 2253 4666 
z
" transform="scale(0.015625)"/>
       </defs>
       <use xlink:href="#DejaVuSans-34"/>
       <use xlink:href="#DejaVuSans-30" x="63.623047"/>
      </g>
     </g>
    </g>
    <g id="xtick_4">
     <g id="line2d_4">
      <g>
       <use xlink:href="#m6284c44698" x="250.606612" y="252" style="stroke: #000000; stroke-width: 0.8"/>
      </g>
     </g>
     <g id="text_4">
      <!-- 60 -->
      <g transform="translate(244.244112 266.598437)scale(0.1 -0.1)">
       <defs>
        <path id="DejaVuSans-36" d="M 2113 2584 
Q 1688 2584 1439 2293 
Q 1191 2003 1191 1497 
Q 1191 994 1439 701 
Q 1688 409 2113 409 
Q 2538 409 2786 701 
Q 3034 994 3034 1497 
Q 3034 2003 2786 2293 
Q 2538 2584 2113 2584 
z
M 3366 4563 
L 3366 3988 
Q 3128 4100 2886 4159 
Q 2644 4219 2406 4219 
Q 1781 4219 1451 3797 
Q 1122 3375 1075 2522 
Q 1259 2794 1537 2939 
Q 1816 3084 2150 3084 
Q 2853 3084 3261 2657 
Q 3669 2231 3669 1497 
Q 3669 778 3244 343 
Q 2819 -91 2113 -91 
Q 1303 -91 875 529 
Q 447 1150 447 2328 
Q 447 3434 972 4092 
Q 1497 4750 2381 4750 
Q 2619 4750 2861 4703 
Q 3103 4656 3366 4563 
z
" transform="scale(0.015625)"/>
       </defs>
       <use xlink:href="#DejaVuSans-36"/>
       <use xlink:href="#DejaVuSans-30" x="63.623047"/>
      </g>
     </g>
    </g>
    <g id="xtick_5">
     <g id="line2d_5">
      <g>
       <use xlink:href="#m6284c44698" x="312.094215" y="252" style="stroke: #000000; stroke-width: 0.8"/>
      </g>
     </g>
     <g id="text_5">
      <!-- 80 -->
      <g transform="translate(305.731715 266.598437)scale(0.1 -0.1)">
       <defs>
        <path id="DejaVuSans-38" d="M 2034 2216 
Q 1584 2216 1326 1975 
Q 1069 1734 1069 1313 
Q 1069 891 1326 650 
Q 1584 409 2034 409 
Q 2484 409 2743 651 
Q 3003 894 3003 1313 
Q 3003 1734 2745 1975 
Q 2488 2216 2034 2216 
z
M 1403 2484 
Q 997 2584 770 2862 
Q 544 3141 544 3541 
Q 544 4100 942 4425 
Q 1341 4750 2034 4750 
Q 2731 4750 3128 4425 
Q 3525 4100 3525 3541 
Q 3525 3141 3298 2862 
Q 3072 2584 2669 2484 
Q 3125 2378 3379 2068 
Q 3634 1759 3634 1313 
Q 3634 634 3220 271 
Q 2806 -91 2034 -91 
Q 1263 -91 848 271 
Q 434 634 434 1313 
Q 434 1759 690 2068 
Q 947 2378 1403 2484 
z
M 1172 3481 
Q 1172 3119 1398 2916 
Q 1625 2713 2034 2713 
Q 2441 2713 2670 2916 
Q 2900 3119 2900 3481 
Q 2900 3844 2670 4047 
Q 2441 4250 2034 4250 
Q 1625 4250 1398 4047 
Q 1172 3844 1172 3481 
z
" transform="scale(0.015625)"/>
       </defs>
       <use xlink:href="#DejaVuSans-38"/>
       <use xlink:href="#DejaVuSans-30" x="63.623047"/>
      </g>
     </g>
    </g>
    <g id="xtick_6">
     <g id="line2d_6">
      <g>
       <use xlink:href="#m6284c44698" x="373.581818" y="252" style="stroke: #000000; stroke-width: 0.8"/>
      </g>
     </g>
     <g id="text_6">
      <!-- 100 -->
      <g transform="translate(364.038068 266.598437)scale(0.1 -0.1)">
       <defs>
        <path id="DejaVuSans-31" d="M 794 531 
L 1825 531 
L 1825 4091 
L 703 3866 
L 703 4441 
L 1819 4666 
L 2450 4666 
L 2450 531 
L 3481 531 
L 3481 0 
L 794 0 
L 794 531 
z
" transform="scale(0.015625)"/>
       </defs>
       <use xlink:href="#DejaVuSans-31"/>
       <use xlink:href="#DejaVuSans-30" x="63.623047"/>
       <use xlink:href="#DejaVuSans-30" x="127.246094"/>
      </g>
     </g>
    </g>
    <g id="text_7">
     <!-- # epochs -->
     <g transform="translate(197.788281 280.276563)scale(0.1 -0.1)">
      <defs>
       <path id="DejaVuSans-23" d="M 3272 2816 
L 2363 2816 
L 2100 1772 
L 3016 1772 
L 3272 2816 
z
M 2803 4594 
L 2478 3297 
L 3391 3297 
L 3719 4594 
L 4219 4594 
L 3897 3297 
L 4872 3297 
L 4872 2816 
L 3775 2816 
L 3519 1772 
L 4513 1772 
L 4513 1294 
L 3397 1294 
L 3072 0 
L 2572 0 
L 2894 1294 
L 1978 1294 
L 1656 0 
L 1153 0 
L 1478 1294 
L 494 1294 
L 494 1772 
L 1594 1772 
L 1856 2816 
L 850 2816 
L 850 3297 
L 1978 3297 
L 2297 4594 
L 2803 4594 
z
" transform="scale(0.015625)"/>
       <path id="DejaVuSans-20" transform="scale(0.015625)"/>
       <path id="DejaVuSans-65" d="M 3597 1894 
L 3597 1613 
L 953 1613 
Q 991 1019 1311 708 
Q 1631 397 2203 397 
Q 2534 397 2845 478 
Q 3156 559 3463 722 
L 3463 178 
Q 3153 47 2828 -22 
Q 2503 -91 2169 -91 
Q 1331 -91 842 396 
Q 353 884 353 1716 
Q 353 2575 817 3079 
Q 1281 3584 2069 3584 
Q 2775 3584 3186 3129 
Q 3597 2675 3597 1894 
z
M 3022 2063 
Q 3016 2534 2758 2815 
Q 2500 3097 2075 3097 
Q 1594 3097 1305 2825 
Q 1016 2553 972 2059 
L 3022 2063 
z
" transform="scale(0.015625)"/>
       <path id="DejaVuSans-70" d="M 1159 525 
L 1159 -1331 
L 581 -1331 
L 581 3500 
L 1159 3500 
L 1159 2969 
Q 1341 3281 1617 3432 
Q 1894 3584 2278 3584 
Q 2916 3584 3314 3078 
Q 3713 2572 3713 1747 
Q 3713 922 3314 415 
Q 2916 -91 2278 -91 
Q 1894 -91 1617 61 
Q 1341 213 1159 525 
z
M 3116 1747 
Q 3116 2381 2855 2742 
Q 2594 3103 2138 3103 
Q 1681 3103 1420 2742 
Q 1159 2381 1159 1747 
Q 1159 1113 1420 752 
Q 1681 391 2138 391 
Q 2594 391 2855 752 
Q 3116 1113 3116 1747 
z
" transform="scale(0.015625)"/>
       <path id="DejaVuSans-6f" d="M 1959 3097 
Q 1497 3097 1228 2736 
Q 959 2375 959 1747 
Q 959 1119 1226 758 
Q 1494 397 1959 397 
Q 2419 397 2687 759 
Q 2956 1122 2956 1747 
Q 2956 2369 2687 2733 
Q 2419 3097 1959 3097 
z
M 1959 3584 
Q 2709 3584 3137 3096 
Q 3566 2609 3566 1747 
Q 3566 888 3137 398 
Q 2709 -91 1959 -91 
Q 1206 -91 779 398 
Q 353 888 353 1747 
Q 353 2609 779 3096 
Q 1206 3584 1959 3584 
z
" transform="scale(0.015625)"/>
       <path id="DejaVuSans-63" d="M 3122 3366 
L 3122 2828 
Q 2878 2963 2633 3030 
Q 2388 3097 2138 3097 
Q 1578 3097 1268 2742 
Q 959 2388 959 1747 
Q 959 1106 1268 751 
Q 1578 397 2138 397 
Q 2388 397 2633 464 
Q 2878 531 3122 666 
L 3122 134 
Q 2881 22 2623 -34 
Q 2366 -91 2075 -91 
Q 1284 -91 818 406 
Q 353 903 353 1747 
Q 353 2603 823 3093 
Q 1294 3584 2113 3584 
Q 2378 3584 2631 3529 
Q 2884 3475 3122 3366 
z
" transform="scale(0.015625)"/>
       <path id="DejaVuSans-68" d="M 3513 2113 
L 3513 0 
L 2938 0 
L 2938 2094 
Q 2938 2591 2744 2837 
Q 2550 3084 2163 3084 
Q 1697 3084 1428 2787 
Q 1159 2491 1159 1978 
L 1159 0 
L 581 0 
L 581 4863 
L 1159 4863 
L 1159 2956 
Q 1366 3272 1645 3428 
Q 1925 3584 2291 3584 
Q 2894 3584 3203 3211 
Q 3513 2838 3513 2113 
z
" transform="scale(0.015625)"/>
       <path id="DejaVuSans-73" d="M 2834 3397 
L 2834 2853 
Q 2591 2978 2328 3040 
Q 2066 3103 1784 3103 
Q 1356 3103 1142 2972 
Q 928 2841 928 2578 
Q 928 2378 1081 2264 
Q 1234 2150 1697 2047 
L 1894 2003 
Q 2506 1872 2764 1633 
Q 3022 1394 3022 966 
Q 3022 478 2636 193 
Q 2250 -91 1575 -91 
Q 1294 -91 989 -36 
Q 684 19 347 128 
L 347 722 
Q 666 556 975 473 
Q 1284 391 1588 391 
Q 1994 391 2212 530 
Q 2431 669 2431 922 
Q 2431 1156 2273 1281 
Q 2116 1406 1581 1522 
L 1381 1569 
Q 847 1681 609 1914 
Q 372 2147 372 2553 
Q 372 3047 722 3315 
Q 1072 3584 1716 3584 
Q 2034 3584 2315 3537 
Q 2597 3491 2834 3397 
z
" transform="scale(0.015625)"/>
      </defs>
      <use xlink:href="#DejaVuSans-23"/>
      <use xlink:href="#DejaVuSans-20" x="83.789062"/>
      <use xlink:href="#DejaVuSans-65" x="115.576172"/>
      <use xlink:href="#DejaVuSans-70" x="177.099609"/>
      <use xlink:href="#DejaVuSans-6f" x="240.576172"/>
      <use xlink:href="#DejaVuSans-63" x="301.757812"/>
      <use xlink:href="#DejaVuSans-68" x="356.738281"/>
      <use xlink:href="#DejaVuSans-73" x="420.117188"/>
     </g>
    </g>
   </g>
   <g id="matplotlib.axis_2">
    <g id="ytick_1">
     <g id="line2d_7">
      <defs>
       <path id="med42859f77" d="M 0 0 
L -3.5 0 
" style="stroke: #000000; stroke-width: 0.8"/>
      </defs>
      <g>
       <use xlink:href="#med42859f77" x="54" y="252" style="stroke: #000000; stroke-width: 0.8"/>
      </g>
     </g>
     <g id="text_8">
      <!-- 0.0 -->
      <g transform="translate(31.096875 255.799219)scale(0.1 -0.1)">
       <defs>
        <path id="DejaVuSans-2e" d="M 684 794 
L 1344 794 
L 1344 0 
L 684 0 
L 684 794 
z
" transform="scale(0.015625)"/>
       </defs>
       <use xlink:href="#DejaVuSans-30"/>
       <use xlink:href="#DejaVuSans-2e" x="63.623047"/>
       <use xlink:href="#DejaVuSans-30" x="95.410156"/>
      </g>
     </g>
    </g>
    <g id="ytick_2">
     <g id="line2d_8">
      <g>
       <use xlink:href="#med42859f77" x="54" y="210.582857" style="stroke: #000000; stroke-width: 0.8"/>
      </g>
     </g>
     <g id="text_9">
      <!-- 0.2 -->
      <g transform="translate(31.096875 214.382076)scale(0.1 -0.1)">
       <use xlink:href="#DejaVuSans-30"/>
       <use xlink:href="#DejaVuSans-2e" x="63.623047"/>
       <use xlink:href="#DejaVuSans-32" x="95.410156"/>
      </g>
     </g>
    </g>
    <g id="ytick_3">
     <g id="line2d_9">
      <g>
       <use xlink:href="#med42859f77" x="54" y="169.165714" style="stroke: #000000; stroke-width: 0.8"/>
      </g>
     </g>
     <g id="text_10">
      <!-- 0.4 -->
      <g transform="translate(31.096875 172.964933)scale(0.1 -0.1)">
       <use xlink:href="#DejaVuSans-30"/>
       <use xlink:href="#DejaVuSans-2e" x="63.623047"/>
       <use xlink:href="#DejaVuSans-34" x="95.410156"/>
      </g>
     </g>
    </g>
    <g id="ytick_4">
     <g id="line2d_10">
      <g>
       <use xlink:href="#med42859f77" x="54" y="127.748571" style="stroke: #000000; stroke-width: 0.8"/>
      </g>
     </g>
     <g id="text_11">
      <!-- 0.6 -->
      <g transform="translate(31.096875 131.54779)scale(0.1 -0.1)">
       <use xlink:href="#DejaVuSans-30"/>
       <use xlink:href="#DejaVuSans-2e" x="63.623047"/>
       <use xlink:href="#DejaVuSans-36" x="95.410156"/>
      </g>
     </g>
    </g>
    <g id="ytick_5">
     <g id="line2d_11">
      <g>
       <use xlink:href="#med42859f77" x="54" y="86.331429" style="stroke: #000000; stroke-width: 0.8"/>
      </g>
     </g>
     <g id="text_12">
      <!-- 0.8 -->
      <g transform="translate(31.096875 90.130647)scale(0.1 -0.1)">
       <use xlink:href="#DejaVuSans-30"/>
       <use xlink:href="#DejaVuSans-2e" x="63.623047"/>
       <use xlink:href="#DejaVuSans-38" x="95.410156"/>
      </g>
     </g>
    </g>
    <g id="ytick_6">
     <g id="line2d_12">
      <g>
       <use xlink:href="#med42859f77" x="54" y="44.914286" style="stroke: #000000; stroke-width: 0.8"/>
      </g>
     </g>
     <g id="text_13">
      <!-- 1.0 -->
      <g transform="translate(31.096875 48.713504)scale(0.1 -0.1)">
       <use xlink:href="#DejaVuSans-31"/>
       <use xlink:href="#DejaVuSans-2e" x="63.623047"/>
       <use xlink:href="#DejaVuSans-30" x="95.410156"/>
      </g>
     </g>
    </g>
    <g id="text_14">
     <!-- Accuracy -->
     <g transform="translate(25.017187 166.108125)rotate(-90)scale(0.1 -0.1)">
      <defs>
       <path id="DejaVuSans-41" d="M 2188 4044 
L 1331 1722 
L 3047 1722 
L 2188 4044 
z
M 1831 4666 
L 2547 4666 
L 4325 0 
L 3669 0 
L 3244 1197 
L 1141 1197 
L 716 0 
L 50 0 
L 1831 4666 
z
" transform="scale(0.015625)"/>
       <path id="DejaVuSans-75" d="M 544 1381 
L 544 3500 
L 1119 3500 
L 1119 1403 
Q 1119 906 1312 657 
Q 1506 409 1894 409 
Q 2359 409 2629 706 
Q 2900 1003 2900 1516 
L 2900 3500 
L 3475 3500 
L 3475 0 
L 2900 0 
L 2900 538 
Q 2691 219 2414 64 
Q 2138 -91 1772 -91 
Q 1169 -91 856 284 
Q 544 659 544 1381 
z
M 1991 3584 
L 1991 3584 
z
" transform="scale(0.015625)"/>
       <path id="DejaVuSans-72" d="M 2631 2963 
Q 2534 3019 2420 3045 
Q 2306 3072 2169 3072 
Q 1681 3072 1420 2755 
Q 1159 2438 1159 1844 
L 1159 0 
L 581 0 
L 581 3500 
L 1159 3500 
L 1159 2956 
Q 1341 3275 1631 3429 
Q 1922 3584 2338 3584 
Q 2397 3584 2469 3576 
Q 2541 3569 2628 3553 
L 2631 2963 
z
" transform="scale(0.015625)"/>
       <path id="DejaVuSans-61" d="M 2194 1759 
Q 1497 1759 1228 1600 
Q 959 1441 959 1056 
Q 959 750 1161 570 
Q 1363 391 1709 391 
Q 2188 391 2477 730 
Q 2766 1069 2766 1631 
L 2766 1759 
L 2194 1759 
z
M 3341 1997 
L 3341 0 
L 2766 0 
L 2766 531 
Q 2569 213 2275 61 
Q 1981 -91 1556 -91 
Q 1019 -91 701 211 
Q 384 513 384 1019 
Q 384 1609 779 1909 
Q 1175 2209 1959 2209 
L 2766 2209 
L 2766 2266 
Q 2766 2663 2505 2880 
Q 2244 3097 1772 3097 
Q 1472 3097 1187 3025 
Q 903 2953 641 2809 
L 641 3341 
Q 956 3463 1253 3523 
Q 1550 3584 1831 3584 
Q 2591 3584 2966 3190 
Q 3341 2797 3341 1997 
z
" transform="scale(0.015625)"/>
       <path id="DejaVuSans-79" d="M 2059 -325 
Q 1816 -950 1584 -1140 
Q 1353 -1331 966 -1331 
L 506 -1331 
L 506 -850 
L 844 -850 
Q 1081 -850 1212 -737 
Q 1344 -625 1503 -206 
L 1606 56 
L 191 3500 
L 800 3500 
L 1894 763 
L 2988 3500 
L 3597 3500 
L 2059 -325 
z
" transform="scale(0.015625)"/>
      </defs>
      <use xlink:href="#DejaVuSans-41"/>
      <use xlink:href="#DejaVuSans-63" x="66.658203"/>
      <use xlink:href="#DejaVuSans-63" x="121.638672"/>
      <use xlink:href="#DejaVuSans-75" x="176.619141"/>
      <use xlink:href="#DejaVuSans-72" x="239.998047"/>
      <use xlink:href="#DejaVuSans-61" x="281.111328"/>
      <use xlink:href="#DejaVuSans-63" x="342.390625"/>
      <use xlink:href="#DejaVuSans-79" x="397.371094"/>
     </g>
    </g>
   </g>
   <g id="line2d_13">
    <path d="M 69.218182 176.405086 
L 72.292562 156.041657 
L 75.366942 147.525257 
L 78.441322 140.087429 
L 81.515702 134.116457 
L 84.590083 130.872115 
L 87.664463 127.101429 
L 90.738843 124.124571 
L 93.813223 121.613657 
L 96.887603 119.948344 
L 99.961983 118.257143 
L 103.036364 116.669485 
L 106.110744 115.832515 
L 109.185124 113.002342 
L 112.259504 111.9928 
L 115.333884 109.904685 
L 118.408264 108.55 
L 121.482645 107.713027 
L 124.557025 106.108112 
L 127.631405 105.262514 
L 130.705785 103.407371 
L 133.780165 103.899201 
L 136.854545 101.880114 
L 139.928926 101.051772 
L 143.003306 100.663487 
L 146.077686 99.567656 
L 149.152066 98.816972 
L 152.226446 99.602171 
L 155.300826 98.4028 
L 158.375207 97.143029 
L 161.449587 95.883257 
L 164.523967 94.916856 
L 167.598347 94.356 
L 170.672727 93.217029 
L 173.747107 93.173886 
L 176.821488 92.975429 
L 179.895868 92.483599 
L 182.970248 92.397314 
L 186.044628 92.319657 
L 189.119008 90.412743 
L 192.193388 89.515371 
L 195.267769 89.308285 
L 198.342149 89.3428 
L 201.416529 88.825085 
L 204.490909 88.393658 
L 207.565289 87.720627 
L 210.639669 87.875944 
L 213.71405 87.392742 
L 216.78843 87.202914 
L 219.86281 86.132971 
L 222.93719 85.623886 
L 226.01157 85.744686 
L 229.08595 84.942227 
L 232.160331 84.761028 
L 235.234711 84.338227 
L 238.309091 84.588456 
L 241.383471 84.994001 
L 244.457851 83.501257 
L 247.532231 83.0008 
L 250.606612 83.0612 
L 253.680992 83.251027 
L 256.755372 81.646113 
L 259.829752 81.102515 
L 262.904132 82.276 
L 265.978512 81.585714 
L 269.052893 81.896343 
L 272.127273 80.472629 
L 275.201653 80.619314 
L 278.276033 81.145658 
L 281.350413 80.567543 
L 284.424793 80.438114 
L 287.499174 80.161999 
L 290.573554 80.455371 
L 293.647934 79.238743 
L 296.722314 78.660627 
L 299.796694 79.601143 
L 302.871074 79.14383 
L 305.945455 78.824572 
L 309.019835 78.513945 
L 312.094215 77.961715 
L 315.168595 78.022115 
L 318.242975 77.875429 
L 321.317355 77.935829 
L 324.391736 77.633829 
L 327.466116 77.374972 
L 330.540496 76.865886 
L 333.614876 76.641542 
L 336.689256 76.969428 
L 339.763636 76.650173 
L 342.838017 75.209199 
L 345.912397 76.072058 
L 348.986777 76.891772 
L 352.061157 76.072058 
L 355.135537 75.174686 
L 358.209917 75.92537 
L 361.284298 76.520742 
L 364.358678 76.305028 
L 367.433058 74.812284 
L 370.507438 74.786401 
L 373.581818 76.149714 
" clip-path="url(#pa91e7dbc16)" style="fill: none; stroke: #1f77b4; stroke-width: 1.5; stroke-linecap: square"/>
   </g>
   <g id="line2d_14">
    <path d="M 69.218182 137.852628 
L 72.292562 115.521884 
L 75.366942 108.515486 
L 78.441322 102.518627 
L 81.515702 96.927314 
L 84.590083 94.657999 
L 87.664463 91.732914 
L 90.738843 88.945886 
L 93.813223 87.970857 
L 96.887603 84.838686 
L 99.961983 83.501257 
L 103.036364 83.156114 
L 106.110744 83.043942 
L 109.185124 79.782342 
L 112.259504 78.928115 
L 115.333884 77.435371 
L 118.408264 76.909029 
L 121.482645 75.157428 
L 124.557025 74.156516 
L 127.631405 74.4844 
L 130.705785 74.579314 
L 133.780165 74.027084 
L 136.854545 72.094285 
L 139.928926 70.661943 
L 143.003306 70.342686 
L 146.077686 70.463485 
L 149.152066 69.945772 
L 152.226446 69.333144 
L 155.300826 67.3572 
L 158.375207 67.987086 
L 161.449587 66.908514 
L 164.523967 66.796344 
L 167.598347 66.097428 
L 170.672727 66.019772 
L 173.747107 65.200057 
L 176.821488 65.648744 
L 179.895868 64.121487 
L 182.970248 64.466628 
L 186.044628 65.320857 
L 189.119008 64.061085 
L 192.193388 63.215486 
L 195.267769 63.017028 
L 198.342149 63.017029 
L 201.416529 62.188685 
L 204.490909 62.059257 
L 207.565289 63.405314 
L 210.639669 61.757257 
L 213.71405 60.816743 
L 216.78843 60.368057 
L 219.86281 60.7736 
L 222.93719 61.110116 
L 226.01157 62.223201 
L 229.08595 60.497485 
L 232.160331 60.091943 
L 235.234711 59.617372 
L 238.309091 58.832172 
L 241.383471 59.643259 
L 244.457851 59.634629 
L 247.532231 58.883943 
L 250.606612 58.987485 
L 253.680992 58.452514 
L 256.755372 58.271315 
L 259.829752 60.281772 
L 262.904132 60.842629 
L 265.978512 60.350801 
L 269.052893 58.901199 
L 272.127273 57.296287 
L 275.201653 57.874402 
L 278.276033 56.002 
L 281.350413 55.993371 
L 284.424793 54.992458 
L 287.499174 56.381658 
L 290.573554 56.795829 
L 293.647934 56.614628 
L 296.722314 56.605999 
L 299.796694 57.857142 
L 302.871074 56.631885 
L 305.945455 56.347142 
L 309.019835 57.218629 
L 312.094215 55.501542 
L 315.168595 55.838058 
L 318.242975 55.035601 
L 321.317355 56.407544 
L 324.391736 55.579201 
L 327.466116 56.502457 
L 330.540496 56.502457 
L 333.614876 55.251314 
L 336.689256 56.217713 
L 339.763636 55.070114 
L 342.838017 55.570571 
L 345.912397 54.992457 
L 348.986777 55.251314 
L 352.061157 55.354857 
L 355.135537 54.2504 
L 358.209917 53.499715 
L 361.284298 52.697255 
L 364.358678 53.344399 
L 367.433058 55.544687 
L 370.507438 55.907086 
L 373.581818 54.457486 
" clip-path="url(#pa91e7dbc16)" style="fill: none; stroke: #ff7f0e; stroke-width: 1.5; stroke-linecap: square"/>
   </g>
   <g id="line2d_15">
    <path d="M 69.218182 138.594685 
L 72.292562 118.438344 
L 75.366942 108.972801 
L 78.441322 102.346058 
L 81.515702 98.627143 
L 84.590083 96.616685 
L 87.664463 92.129828 
L 90.738843 90.576685 
L 93.813223 87.927715 
L 96.887603 86.0208 
L 99.961983 84.476285 
L 103.036364 83.078457 
L 106.110744 82.120686 
L 109.185124 81.111143 
L 112.259504 79.989428 
L 115.333884 78.945372 
L 118.408264 76.425828 
L 121.482645 75.5716 
L 124.557025 75.6924 
L 127.631405 75.019371 
L 130.705785 74.320457 
L 133.780165 73.302286 
L 136.854545 72.827714 
L 139.928926 72.888114 
L 143.003306 71.058856 
L 146.077686 70.696456 
L 149.152066 69.272743 
L 152.226446 67.797257 
L 155.300826 67.987086 
L 158.375207 67.581542 
L 161.449587 68.79817 
L 164.523967 68.107885 
L 167.598347 68.142399 
L 170.672727 65.743658 
L 173.747107 65.217316 
L 176.821488 65.217314 
L 179.895868 64.992971 
L 182.970248 65.122399 
L 186.044628 64.242285 
L 189.119008 62.231829 
L 192.193388 62.887599 
L 195.267769 64.086971 
L 198.342149 63.638286 
L 201.416529 65.027485 
L 204.490909 64.423486 
L 207.565289 64.250915 
L 210.639669 61.9816 
L 213.71405 61.524287 
L 216.78843 60.066056 
L 219.86281 59.902114 
L 222.93719 60.238629 
L 226.01157 60.557886 
L 229.08595 60.34217 
L 232.160331 60.428457 
L 235.234711 61.36897 
L 238.309091 61.688228 
L 241.383471 59.893486 
L 244.457851 59.643258 
L 247.532231 59.33263 
L 250.606612 58.478399 
L 253.680992 59.375771 
L 256.755372 58.754513 
L 259.829752 58.012456 
L 262.904132 58.737256 
L 265.978512 58.124626 
L 269.052893 61.144629 
L 272.127273 59.729542 
L 275.201653 58.927087 
L 278.276033 56.813085 
L 281.350413 56.709543 
L 284.424793 57.020172 
L 287.499174 57.166857 
L 290.573554 58.098744 
L 293.647934 57.313543 
L 296.722314 57.865772 
L 299.796694 57.624172 
L 302.871074 56.657771 
L 305.945455 56.027885 
L 309.019835 56.036513 
L 312.094215 56.157313 
L 315.168595 56.838971 
L 318.242975 56.709543 
L 321.317355 57.210001 
L 324.391736 56.450686 
L 327.466116 56.864857 
L 330.540496 55.932973 
L 333.614876 54.776743 
L 336.689256 54.794 
L 339.763636 54.681829 
L 342.838017 54.466113 
L 345.912397 54.509257 
L 348.986777 55.398 
L 352.061157 55.8812 
L 355.135537 55.449771 
L 358.209917 55.32897 
L 361.284298 55.967484 
L 364.358678 54.906171 
L 367.433058 55.958856 
L 370.507438 55.665487 
L 373.581818 55.648229 
" clip-path="url(#pa91e7dbc16)" style="fill: none; stroke: #2ca02c; stroke-width: 1.5; stroke-linecap: square"/>
   </g>
   <g id="line2d_16">
    <path d="M 69.218182 148.129258 
L 72.292562 100.318342 
L 75.366942 80.688344 
L 78.441322 68.910343 
L 81.515702 62.007485 
L 84.590083 55.613716 
L 87.664463 53.120059 
L 90.738843 50.643654 
L 93.813223 50.005142 
L 96.887603 49.608227 
L 99.961983 48.848912 
L 103.036364 49.254455 
L 106.110744 50.07417 
L 109.185124 50.039657 
L 112.259504 50.186343 
L 115.333884 49.936113 
L 118.408264 49.185426 
L 121.482645 50.005141 
L 124.557025 49.012855 
L 127.631405 48.210398 
L 130.705785 48.538284 
L 133.780165 48.037826 
L 136.854545 48.598685 
L 139.928926 48.641826 
L 143.003306 48.512397 
L 146.077686 48.788513 
L 149.152066 47.891141 
L 152.226446 47.960169 
L 155.300826 48.020569 
L 158.375207 48.288055 
L 161.449587 48.149998 
L 164.523967 47.399313 
L 167.598347 47.47697 
L 170.672727 47.41657 
L 173.747107 47.744456 
L 176.821488 47.59777 
L 179.895868 48.089598 
L 182.970248 47.908398 
L 186.044628 47.623655 
L 189.119008 47.994683 
L 192.193388 47.606399 
L 195.267769 47.045541 
L 198.342149 47.088684 
L 201.416529 47.192226 
L 204.490909 47.494227 
L 207.565289 47.062799 
L 210.639669 47.502855 
L 213.71405 47.520112 
L 216.78843 47.252627 
L 219.86281 47.071427 
L 222.93719 47.554627 
L 226.01157 47.304398 
L 229.08595 47.200855 
L 232.160331 47.097312 
L 235.234711 47.140455 
L 238.309091 47.252626 
L 241.383471 46.769427 
L 244.457851 46.683141 
L 247.532231 46.829827 
L 250.606612 46.976512 
L 253.680992 46.87297 
L 256.755372 47.364798 
L 259.829752 47.166341 
L 262.904132 47.002398 
L 265.978512 46.778055 
L 269.052893 46.855712 
L 272.127273 46.639998 
L 275.201653 47.002398 
L 278.276033 46.898855 
L 281.350413 46.545084 
L 284.424793 46.493313 
L 287.499174 46.864341 
L 290.573554 46.967884 
L 293.647934 46.890227 
L 296.722314 46.700398 
L 299.796694 46.838455 
L 302.871074 47.028284 
L 305.945455 46.75217 
L 309.019835 46.674513 
L 312.094215 46.458799 
L 315.168595 46.346627 
L 318.242975 46.881598 
L 321.317355 46.51057 
L 324.391736 46.63137 
L 327.466116 46.950627 
L 330.540496 46.553713 
L 333.614876 46.199942 
L 336.689256 46.57097 
L 339.763636 46.337999 
L 342.838017 46.665884 
L 345.912397 46.441541 
L 348.986777 46.20857 
L 352.061157 46.519198 
L 355.135537 46.588227 
L 358.209917 46.458799 
L 361.284298 46.243084 
L 364.358678 46.467427 
L 367.433058 46.165427 
L 370.507438 46.199942 
L 373.581818 46.182685 
" clip-path="url(#pa91e7dbc16)" style="fill: none; stroke: #d62728; stroke-width: 1.5; stroke-linecap: square"/>
   </g>
   <g id="line2d_17">
    <path d="M 69.218182 141.864913 
L 72.292562 114.589999 
L 75.366942 113.718514 
L 78.441322 112.234399 
L 81.515702 113.278457 
L 84.590083 113.589085 
L 87.664463 115.884287 
L 90.738843 117.704913 
L 93.813223 121.04417 
L 96.887603 121.665429 
L 99.961983 125.323944 
L 103.036364 129.060114 
L 106.110744 130.967029 
L 109.185124 134.530629 
L 112.259504 134.987943 
L 115.333884 137.222743 
L 118.408264 138.266799 
L 121.482645 138.965714 
L 124.557025 140.889886 
L 127.631405 141.511144 
L 130.705785 142.002971 
L 133.780165 142.770915 
L 136.854545 143.780458 
L 139.928926 144.859027 
L 143.003306 144.746858 
L 146.077686 145.989372 
L 149.152066 145.152401 
L 152.226446 144.850402 
L 155.300826 144.85903 
L 158.375207 144.280914 
L 161.449587 145.618343 
L 164.523967 145.195543 
L 167.598347 146.688285 
L 170.672727 147.620172 
L 173.747107 145.644228 
L 176.821488 145.920343 
L 179.895868 145.626972 
L 182.970248 145.014343 
L 186.044628 145.178286 
L 189.119008 145.212801 
L 192.193388 145.928971 
L 195.267769 145.721886 
L 198.342149 144.470744 
L 201.416529 144.220516 
L 204.490909 144.272286 
L 207.565289 144.470743 
L 210.639669 144.099715 
L 213.71405 144.824514 
L 216.78843 143.918514 
L 219.86281 144.531142 
L 222.93719 144.686458 
L 226.01157 144.841771 
L 229.08595 143.418058 
L 232.160331 143.875372 
L 235.234711 144.582915 
L 238.309091 145.402628 
L 241.383471 144.479372 
L 244.457851 144.695086 
L 247.532231 144.453486 
L 250.606612 143.530229 
L 253.680992 144.582915 
L 256.755372 144.263657 
L 259.829752 143.374914 
L 262.904132 143.582001 
L 265.978512 143.582 
L 269.052893 144.168744 
L 272.127273 143.789086 
L 275.201653 143.745944 
L 278.276033 143.685543 
L 281.350413 143.573372 
L 284.424793 144.453487 
L 287.499174 143.858115 
L 290.573554 143.443944 
L 293.647934 143.366287 
L 296.722314 143.668286 
L 299.796694 143.400801 
L 302.871074 143.003886 
L 305.945455 143.797715 
L 309.019835 143.556116 
L 312.094215 142.934859 
L 315.168595 143.426687 
L 318.242975 144.393086 
L 321.317355 143.95303 
L 324.391736 143.633773 
L 327.466116 143.970287 
L 330.540496 145.618343 
L 333.614876 145.678743 
L 336.689256 144.462114 
L 339.763636 144.047944 
L 342.838017 144.315429 
L 345.912397 143.892629 
L 348.986777 143.150572 
L 352.061157 143.685544 
L 355.135537 144.022058 
L 358.209917 144.194629 
L 361.284298 143.616515 
L 364.358678 143.806343 
L 367.433058 143.236858 
L 370.507438 143.469829 
L 373.581818 142.995258 
" clip-path="url(#pa91e7dbc16)" style="fill: none; stroke: #9467bd; stroke-width: 1.5; stroke-linecap: square"/>
   </g>
   <g id="patch_3">
    <path d="M 54 252 
L 54 34.56 
" style="fill: none; stroke: #000000; stroke-width: 0.8; stroke-linejoin: miter; stroke-linecap: square"/>
   </g>
   <g id="patch_4">
    <path d="M 388.8 252 
L 388.8 34.56 
" style="fill: none; stroke: #000000; stroke-width: 0.8; stroke-linejoin: miter; stroke-linecap: square"/>
   </g>
   <g id="patch_5">
    <path d="M 54 252 
L 388.8 252 
" style="fill: none; stroke: #000000; stroke-width: 0.8; stroke-linejoin: miter; stroke-linecap: square"/>
   </g>
   <g id="patch_6">
    <path d="M 54 34.56 
L 388.8 34.56 
" style="fill: none; stroke: #000000; stroke-width: 0.8; stroke-linejoin: miter; stroke-linecap: square"/>
   </g>
   <g id="legend_1">
    <g id="patch_7">
     <path d="M 282.1 247 
L 381.8 247 
Q 383.8 247 383.8 245 
L 383.8 172.609375 
Q 383.8 170.609375 381.8 170.609375 
L 282.1 170.609375 
Q 280.1 170.609375 280.1 172.609375 
L 280.1 245 
Q 280.1 247 282.1 247 
z
" style="fill: #ffffff; opacity: 0.8; stroke: #cccccc; stroke-linejoin: miter"/>
    </g>
    <g id="line2d_18">
     <path d="M 284.1 178.707812 
L 294.1 178.707812 
L 304.1 178.707812 
" style="fill: none; stroke: #1f77b4; stroke-width: 1.5; stroke-linecap: square"/>
    </g>
    <g id="text_15">
     <!-- $H_1$ (1 filters) -->
     <g transform="translate(312.1 182.207812)scale(0.1 -0.1)">
      <defs>
       <path id="DejaVuSans-Oblique-48" d="M 1081 4666 
L 1716 4666 
L 1344 2753 
L 3634 2753 
L 4006 4666 
L 4641 4666 
L 3731 0 
L 3097 0 
L 3531 2222 
L 1241 2222 
L 806 0 
L 172 0 
L 1081 4666 
z
" transform="scale(0.015625)"/>
       <path id="DejaVuSans-28" d="M 1984 4856 
Q 1566 4138 1362 3434 
Q 1159 2731 1159 2009 
Q 1159 1288 1364 580 
Q 1569 -128 1984 -844 
L 1484 -844 
Q 1016 -109 783 600 
Q 550 1309 550 2009 
Q 550 2706 781 3412 
Q 1013 4119 1484 4856 
L 1984 4856 
z
" transform="scale(0.015625)"/>
       <path id="DejaVuSans-66" d="M 2375 4863 
L 2375 4384 
L 1825 4384 
Q 1516 4384 1395 4259 
Q 1275 4134 1275 3809 
L 1275 3500 
L 2222 3500 
L 2222 3053 
L 1275 3053 
L 1275 0 
L 697 0 
L 697 3053 
L 147 3053 
L 147 3500 
L 697 3500 
L 697 3744 
Q 697 4328 969 4595 
Q 1241 4863 1831 4863 
L 2375 4863 
z
" transform="scale(0.015625)"/>
       <path id="DejaVuSans-69" d="M 603 3500 
L 1178 3500 
L 1178 0 
L 603 0 
L 603 3500 
z
M 603 4863 
L 1178 4863 
L 1178 4134 
L 603 4134 
L 603 4863 
z
" transform="scale(0.015625)"/>
       <path id="DejaVuSans-6c" d="M 603 4863 
L 1178 4863 
L 1178 0 
L 603 0 
L 603 4863 
z
" transform="scale(0.015625)"/>
       <path id="DejaVuSans-74" d="M 1172 4494 
L 1172 3500 
L 2356 3500 
L 2356 3053 
L 1172 3053 
L 1172 1153 
Q 1172 725 1289 603 
Q 1406 481 1766 481 
L 2356 481 
L 2356 0 
L 1766 0 
Q 1100 0 847 248 
Q 594 497 594 1153 
L 594 3053 
L 172 3053 
L 172 3500 
L 594 3500 
L 594 4494 
L 1172 4494 
z
" transform="scale(0.015625)"/>
       <path id="DejaVuSans-29" d="M 513 4856 
L 1013 4856 
Q 1481 4119 1714 3412 
Q 1947 2706 1947 2009 
Q 1947 1309 1714 600 
Q 1481 -109 1013 -844 
L 513 -844 
Q 928 -128 1133 580 
Q 1338 1288 1338 2009 
Q 1338 2731 1133 3434 
Q 928 4138 513 4856 
z
" transform="scale(0.015625)"/>
      </defs>
      <use xlink:href="#DejaVuSans-Oblique-48" transform="translate(0 0.015625)"/>
      <use xlink:href="#DejaVuSans-31" transform="translate(75.195312 -16.390625)scale(0.7)"/>
      <use xlink:href="#DejaVuSans-20" transform="translate(122.46582 0.015625)"/>
      <use xlink:href="#DejaVuSans-28" transform="translate(154.25293 0.015625)"/>
      <use xlink:href="#DejaVuSans-31" transform="translate(193.266602 0.015625)"/>
      <use xlink:href="#DejaVuSans-20" transform="translate(256.889648 0.015625)"/>
      <use xlink:href="#DejaVuSans-66" transform="translate(288.676758 0.015625)"/>
      <use xlink:href="#DejaVuSans-69" transform="translate(323.881836 0.015625)"/>
      <use xlink:href="#DejaVuSans-6c" transform="translate(351.665039 0.015625)"/>
      <use xlink:href="#DejaVuSans-74" transform="translate(379.448242 0.015625)"/>
      <use xlink:href="#DejaVuSans-65" transform="translate(418.657227 0.015625)"/>
      <use xlink:href="#DejaVuSans-72" transform="translate(480.180664 0.015625)"/>
      <use xlink:href="#DejaVuSans-73" transform="translate(521.293945 0.015625)"/>
      <use xlink:href="#DejaVuSans-29" transform="translate(573.393555 0.015625)"/>
     </g>
    </g>
    <g id="line2d_19">
     <path d="M 284.1 193.385938 
L 294.1 193.385938 
L 304.1 193.385938 
" style="fill: none; stroke: #ff7f0e; stroke-width: 1.5; stroke-linecap: square"/>
    </g>
    <g id="text_16">
     <!-- $H_1$ (20 filters) -->
     <g transform="translate(312.1 196.885938)scale(0.1 -0.1)">
      <use xlink:href="#DejaVuSans-Oblique-48" transform="translate(0 0.015625)"/>
      <use xlink:href="#DejaVuSans-31" transform="translate(75.195312 -16.390625)scale(0.7)"/>
      <use xlink:href="#DejaVuSans-20" transform="translate(122.46582 0.015625)"/>
      <use xlink:href="#DejaVuSans-28" transform="translate(154.25293 0.015625)"/>
      <use xlink:href="#DejaVuSans-32" transform="translate(193.266602 0.015625)"/>
      <use xlink:href="#DejaVuSans-30" transform="translate(256.889648 0.015625)"/>
      <use xlink:href="#DejaVuSans-20" transform="translate(320.512695 0.015625)"/>
      <use xlink:href="#DejaVuSans-66" transform="translate(352.299805 0.015625)"/>
      <use xlink:href="#DejaVuSans-69" transform="translate(387.504883 0.015625)"/>
      <use xlink:href="#DejaVuSans-6c" transform="translate(415.288086 0.015625)"/>
      <use xlink:href="#DejaVuSans-74" transform="translate(443.071289 0.015625)"/>
      <use xlink:href="#DejaVuSans-65" transform="translate(482.280273 0.015625)"/>
      <use xlink:href="#DejaVuSans-72" transform="translate(543.803711 0.015625)"/>
      <use xlink:href="#DejaVuSans-73" transform="translate(584.916992 0.015625)"/>
      <use xlink:href="#DejaVuSans-29" transform="translate(637.016602 0.015625)"/>
     </g>
    </g>
    <g id="line2d_20">
     <path d="M 284.1 208.064063 
L 294.1 208.064063 
L 304.1 208.064063 
" style="fill: none; stroke: #2ca02c; stroke-width: 1.5; stroke-linecap: square"/>
    </g>
    <g id="text_17">
     <!-- $H_1$ (50 filters) -->
     <g transform="translate(312.1 211.564063)scale(0.1 -0.1)">
      <defs>
       <path id="DejaVuSans-35" d="M 691 4666 
L 3169 4666 
L 3169 4134 
L 1269 4134 
L 1269 2991 
Q 1406 3038 1543 3061 
Q 1681 3084 1819 3084 
Q 2600 3084 3056 2656 
Q 3513 2228 3513 1497 
Q 3513 744 3044 326 
Q 2575 -91 1722 -91 
Q 1428 -91 1123 -41 
Q 819 9 494 109 
L 494 744 
Q 775 591 1075 516 
Q 1375 441 1709 441 
Q 2250 441 2565 725 
Q 2881 1009 2881 1497 
Q 2881 1984 2565 2268 
Q 2250 2553 1709 2553 
Q 1456 2553 1204 2497 
Q 953 2441 691 2322 
L 691 4666 
z
" transform="scale(0.015625)"/>
      </defs>
      <use xlink:href="#DejaVuSans-Oblique-48" transform="translate(0 0.015625)"/>
      <use xlink:href="#DejaVuSans-31" transform="translate(75.195312 -16.390625)scale(0.7)"/>
      <use xlink:href="#DejaVuSans-20" transform="translate(122.46582 0.015625)"/>
      <use xlink:href="#DejaVuSans-28" transform="translate(154.25293 0.015625)"/>
      <use xlink:href="#DejaVuSans-35" transform="translate(193.266602 0.015625)"/>
      <use xlink:href="#DejaVuSans-30" transform="translate(256.889648 0.015625)"/>
      <use xlink:href="#DejaVuSans-20" transform="translate(320.512695 0.015625)"/>
      <use xlink:href="#DejaVuSans-66" transform="translate(352.299805 0.015625)"/>
      <use xlink:href="#DejaVuSans-69" transform="translate(387.504883 0.015625)"/>
      <use xlink:href="#DejaVuSans-6c" transform="translate(415.288086 0.015625)"/>
      <use xlink:href="#DejaVuSans-74" transform="translate(443.071289 0.015625)"/>
      <use xlink:href="#DejaVuSans-65" transform="translate(482.280273 0.015625)"/>
      <use xlink:href="#DejaVuSans-72" transform="translate(543.803711 0.015625)"/>
      <use xlink:href="#DejaVuSans-73" transform="translate(584.916992 0.015625)"/>
      <use xlink:href="#DejaVuSans-29" transform="translate(637.016602 0.015625)"/>
     </g>
    </g>
    <g id="line2d_21">
     <path d="M 284.1 222.742188 
L 294.1 222.742188 
L 304.1 222.742188 
" style="fill: none; stroke: #d62728; stroke-width: 1.5; stroke-linecap: square"/>
    </g>
    <g id="text_18">
     <!-- $H_2$ (4 filters) -->
     <g transform="translate(312.1 226.242188)scale(0.1 -0.1)">
      <use xlink:href="#DejaVuSans-Oblique-48" transform="translate(0 0.015625)"/>
      <use xlink:href="#DejaVuSans-32" transform="translate(75.195312 -16.390625)scale(0.7)"/>
      <use xlink:href="#DejaVuSans-20" transform="translate(122.46582 0.015625)"/>
      <use xlink:href="#DejaVuSans-28" transform="translate(154.25293 0.015625)"/>
      <use xlink:href="#DejaVuSans-34" transform="translate(193.266602 0.015625)"/>
      <use xlink:href="#DejaVuSans-20" transform="translate(256.889648 0.015625)"/>
      <use xlink:href="#DejaVuSans-66" transform="translate(288.676758 0.015625)"/>
      <use xlink:href="#DejaVuSans-69" transform="translate(323.881836 0.015625)"/>
      <use xlink:href="#DejaVuSans-6c" transform="translate(351.665039 0.015625)"/>
      <use xlink:href="#DejaVuSans-74" transform="translate(379.448242 0.015625)"/>
      <use xlink:href="#DejaVuSans-65" transform="translate(418.657227 0.015625)"/>
      <use xlink:href="#DejaVuSans-72" transform="translate(480.180664 0.015625)"/>
      <use xlink:href="#DejaVuSans-73" transform="translate(521.293945 0.015625)"/>
      <use xlink:href="#DejaVuSans-29" transform="translate(573.393555 0.015625)"/>
     </g>
    </g>
    <g id="line2d_22">
     <path d="M 284.1 237.420313 
L 294.1 237.420313 
L 304.1 237.420313 
" style="fill: none; stroke: #9467bd; stroke-width: 1.5; stroke-linecap: square"/>
    </g>
    <g id="text_19">
     <!-- $H_3$ -->
     <g transform="translate(312.1 240.920313)scale(0.1 -0.1)">
      <defs>
       <path id="DejaVuSans-33" d="M 2597 2516 
Q 3050 2419 3304 2112 
Q 3559 1806 3559 1356 
Q 3559 666 3084 287 
Q 2609 -91 1734 -91 
Q 1441 -91 1130 -33 
Q 819 25 488 141 
L 488 750 
Q 750 597 1062 519 
Q 1375 441 1716 441 
Q 2309 441 2620 675 
Q 2931 909 2931 1356 
Q 2931 1769 2642 2001 
Q 2353 2234 1838 2234 
L 1294 2234 
L 1294 2753 
L 1863 2753 
Q 2328 2753 2575 2939 
Q 2822 3125 2822 3475 
Q 2822 3834 2567 4026 
Q 2313 4219 1838 4219 
Q 1578 4219 1281 4162 
Q 984 4106 628 3988 
L 628 4550 
Q 988 4650 1302 4700 
Q 1616 4750 1894 4750 
Q 2613 4750 3031 4423 
Q 3450 4097 3450 3541 
Q 3450 3153 3228 2886 
Q 3006 2619 2597 2516 
z
" transform="scale(0.015625)"/>
      </defs>
      <use xlink:href="#DejaVuSans-Oblique-48" transform="translate(0 0.09375)"/>
      <use xlink:href="#DejaVuSans-33" transform="translate(75.195312 -16.3125)scale(0.7)"/>
     </g>
    </g>
   </g>
  </g>
 </g>
 <defs>
  <clipPath id="pa91e7dbc16">
   <rect x="54" y="34.56" width="334.8" height="217.44"/>
  </clipPath>
 </defs>
</svg>
