<?xml version="1.0" encoding="utf-8" standalone="no"?>
<!DOCTYPE svg PUBLIC "-//W3C//DTD SVG 1.1//EN"
  "http://www.w3.org/Graphics/SVG/1.1/DTD/svg11.dtd">
<svg xmlns:xlink="http://www.w3.org/1999/xlink" width="432pt" height="288pt" viewBox="0 0 432 288" xmlns="http://www.w3.org/2000/svg" version="1.1">
 <metadata>
  <rdf:RDF xmlns:dc="http://purl.org/dc/elements/1.1/" xmlns:cc="http://creativecommons.org/ns#" xmlns:rdf="http://www.w3.org/1999/02/22-rdf-syntax-ns#">
   <cc:Work>
    <dc:type rdf:resource="http://purl.org/dc/dcmitype/StillImage"/>
    <dc:date>2022-12-26T15:28:57.086882</dc:date>
    <dc:format>image/svg+xml</dc:format>
    <dc:creator>
     <cc:Agent>
      <dc:title>Matplotlib v3.5.1, https://matplotlib.org/</dc:title>
     </cc:Agent>
    </dc:creator>
   </cc:Work>
  </rdf:RDF>
 </metadata>
 <defs>
  <style type="text/css">*{stroke-linejoin: round; stroke-linecap: butt}</style>
 </defs>
 <g id="figure_1">
  <g id="patch_1">
   <path d="M 0 288 
L 432 288 
L 432 0 
L 0 0 
L 0 288 
z
" style="fill: none"/>
  </g>
  <g id="axes_1">
   <g id="patch_2">
    <path d="M 54 252 
L 388.8 252 
L 388.8 34.56 
L 54 34.56 
z
" style="fill: #ffffff"/>
   </g>
   <g id="PolyCollection_1">
    <path d="M 69.218182 165.383442 
L 69.218182 194.277815 
L 72.292562 172.461659 
L 75.366942 164.062452 
L 78.441322 155.572192 
L 81.515702 148.37583 
L 84.590083 140.575037 
L 87.664463 134.538791 
L 90.738843 129.149564 
L 93.813223 123.575611 
L 96.887603 118.696668 
L 99.961983 115.115218 
L 103.036364 113.588776 
L 106.110744 111.462531 
L 109.185124 108.361433 
L 112.259504 107.381032 
L 115.333884 105.769774 
L 118.408264 103.246744 
L 121.482645 102.758568 
L 124.557025 99.747471 
L 127.631405 100.162793 
L 130.705785 98.212419 
L 133.780165 97.180158 
L 136.854545 93.918462 
L 139.928926 93.20833 
L 143.003306 93.244962 
L 146.077686 90.537312 
L 149.152066 89.719408 
L 152.226446 87.876424 
L 155.300826 87.618211 
L 158.375207 85.708099 
L 161.449587 84.921272 
L 164.523967 85.447632 
L 167.598347 83.654166 
L 170.672727 81.390486 
L 173.747107 80.036167 
L 176.821488 79.56803 
L 179.895868 78.896464 
L 182.970248 77.067638 
L 186.044628 76.710128 
L 189.119008 74.336097 
L 192.193388 74.116923 
L 195.267769 71.957106 
L 198.342149 71.886032 
L 201.416529 69.126877 
L 204.490909 69.088994 
L 207.565289 67.937477 
L 210.639669 65.934015 
L 213.71405 66.026842 
L 216.78843 65.533462 
L 219.86281 64.567111 
L 222.93719 63.695102 
L 226.01157 62.848213 
L 229.08595 62.728869 
L 232.160331 62.286477 
L 235.234711 62.21731 
L 238.309091 61.260871 
L 241.383471 60.541815 
L 244.457851 61.31232 
L 247.532231 60.955201 
L 250.606612 59.940976 
L 253.680992 59.613327 
L 256.755372 58.476662 
L 259.829752 59.620942 
L 262.904132 58.285476 
L 265.978512 59.278005 
L 269.052893 58.737047 
L 272.127273 58.865961 
L 275.201653 57.631643 
L 278.276033 57.510967 
L 281.350413 59.815862 
L 284.424793 58.250889 
L 287.499174 58.192008 
L 290.573554 57.638871 
L 293.647934 58.536425 
L 296.722314 56.822493 
L 299.796694 57.318577 
L 302.871074 55.742354 
L 305.945455 55.305999 
L 309.019835 56.224595 
L 312.094215 56.455902 
L 315.168595 56.570583 
L 318.242975 56.100793 
L 321.317355 56.76295 
L 324.391736 57.234772 
L 327.466116 55.982174 
L 330.540496 55.206215 
L 333.614876 54.498751 
L 336.689256 55.962109 
L 339.763636 55.332371 
L 342.838017 56.220331 
L 345.912397 56.063368 
L 348.986777 55.137517 
L 352.061157 55.724818 
L 355.135537 55.015859 
L 358.209917 54.714373 
L 361.284298 55.206386 
L 364.358678 55.376689 
L 367.433058 55.478355 
L 370.507438 54.108542 
L 373.581818 55.71726 
L 373.581818 50.747201 
L 373.581818 50.747201 
L 370.507438 51.216951 
L 367.433058 51.055136 
L 364.358678 50.811657 
L 361.284298 51.171789 
L 358.209917 51.094316 
L 355.135537 51.276032 
L 352.061157 51.205588 
L 348.986777 51.620319 
L 345.912397 51.747152 
L 342.838017 52.004359 
L 339.763636 51.580779 
L 336.689256 51.192637 
L 333.614876 52.086513 
L 330.540496 51.068419 
L 327.466116 51.207088 
L 324.391736 52.560318 
L 321.317355 51.70334 
L 318.242975 51.640698 
L 315.168595 52.206336 
L 312.094215 52.010389 
L 309.019835 51.758495 
L 305.945455 52.642578 
L 302.871074 51.515935 
L 299.796694 52.062341 
L 296.722314 52.800025 
L 293.647934 52.863578 
L 290.573554 52.604905 
L 287.499174 51.827423 
L 284.424793 51.768541 
L 281.350413 52.895684 
L 278.276033 53.043438 
L 275.201653 53.129848 
L 272.127273 54.242497 
L 269.052893 53.78467 
L 265.978512 52.674228 
L 262.904132 53.718528 
L 259.829752 53.780889 
L 256.755372 53.337514 
L 253.680992 53.909303 
L 250.606612 54.133883 
L 247.532231 54.465715 
L 244.457851 53.004141 
L 241.383471 54.326873 
L 238.309091 54.781302 
L 235.234711 55.067376 
L 232.160331 54.653066 
L 229.08595 55.384159 
L 226.01157 55.316586 
L 222.93719 55.280783 
L 219.86281 54.73666 
L 216.78843 55.996478 
L 213.71405 55.278758 
L 210.639669 54.681299 
L 207.565289 53.834064 
L 204.490909 54.201177 
L 201.416529 54.404893 
L 198.342149 55.286992 
L 195.267769 54.698203 
L 192.193388 54.108791 
L 189.119008 53.527215 
L 186.044628 53.569182 
L 182.970248 54.609504 
L 179.895868 54.713477 
L 176.821488 55.62957 
L 173.747107 55.420291 
L 170.672727 54.376601 
L 167.598347 55.564352 
L 164.523967 55.462086 
L 161.449587 57.369015 
L 158.375207 55.90916 
L 155.300826 57.243389 
L 152.226446 58.935234 
L 149.152066 58.231219 
L 146.077686 60.05366 
L 143.003306 60.538582 
L 139.928926 61.248239 
L 136.854545 62.747023 
L 133.780165 63.264641 
L 130.705785 64.700152 
L 127.631405 65.856066 
L 124.557025 66.633786 
L 121.482645 68.661773 
L 118.408264 69.605942 
L 115.333884 71.328171 
L 112.259504 72.771428 
L 109.185124 74.621199 
L 106.110744 77.611868 
L 103.036364 79.696367 
L 99.961983 81.345238 
L 96.887603 84.960017 
L 93.813223 88.726902 
L 90.738843 90.124837 
L 87.664463 95.469553 
L 84.590083 101.340736 
L 81.515702 105.585426 
L 78.441322 111.487236 
L 75.366942 122.652862 
L 72.292562 135.842341 
L 69.218182 165.383442 
z
" clip-path="url(#p0626bcf025)" style="fill: #1f77b4; fill-opacity: 0.2"/>
   </g>
   <g id="PolyCollection_2">
    <path d="M 69.218182 114.091935 
L 69.218182 125.200752 
L 72.292562 84.524117 
L 75.366942 72.909476 
L 78.441322 67.645481 
L 81.515702 63.181589 
L 84.590083 60.067283 
L 87.664463 60.2471 
L 90.738843 58.118656 
L 93.813223 56.860246 
L 96.887603 57.554472 
L 99.961983 56.698481 
L 103.036364 57.032752 
L 106.110744 56.159331 
L 109.185124 54.437354 
L 112.259504 55.160381 
L 115.333884 54.211585 
L 118.408264 53.735583 
L 121.482645 53.127213 
L 124.557025 52.964369 
L 127.631405 52.433687 
L 130.705785 53.468405 
L 133.780165 52.103311 
L 136.854545 52.227516 
L 139.928926 51.514474 
L 143.003306 52.359528 
L 146.077686 50.944895 
L 149.152066 51.186249 
L 152.226446 51.633266 
L 155.300826 51.78615 
L 158.375207 50.539511 
L 161.449587 50.794126 
L 164.523967 49.475019 
L 167.598347 49.78849 
L 170.672727 50.362 
L 173.747107 50.382202 
L 176.821488 50.309035 
L 179.895868 49.369612 
L 182.970248 49.506406 
L 186.044628 48.617821 
L 189.119008 49.770737 
L 192.193388 49.075821 
L 195.267769 48.757715 
L 198.342149 49.457191 
L 201.416529 48.826618 
L 204.490909 49.000939 
L 207.565289 49.495921 
L 210.639669 48.605003 
L 213.71405 48.05745 
L 216.78843 48.766155 
L 219.86281 48.685944 
L 222.93719 48.342912 
L 226.01157 48.379195 
L 229.08595 48.480861 
L 232.160331 48.260093 
L 235.234711 48.39218 
L 238.309091 48.399998 
L 241.383471 47.386911 
L 244.457851 47.693327 
L 247.532231 48.264926 
L 250.606612 47.54577 
L 253.680992 48.361065 
L 256.755372 47.395288 
L 259.829752 47.640912 
L 262.904132 48.074064 
L 265.978512 47.770301 
L 269.052893 47.55683 
L 272.127273 47.131997 
L 275.201653 47.885294 
L 278.276033 47.419684 
L 281.350413 47.079798 
L 284.424793 47.51175 
L 287.499174 47.65036 
L 290.573554 47.0572 
L 293.647934 47.324197 
L 296.722314 47.468084 
L 299.796694 47.560004 
L 302.871074 47.370033 
L 305.945455 47.076005 
L 309.019835 47.03811 
L 312.094215 46.898984 
L 315.168595 47.082778 
L 318.242975 46.822838 
L 321.317355 46.918071 
L 324.391736 47.694874 
L 327.466116 46.799201 
L 330.540496 46.922717 
L 333.614876 46.892115 
L 336.689256 46.688164 
L 339.763636 47.104804 
L 342.838017 47.369102 
L 345.912397 47.219741 
L 348.986777 46.464077 
L 352.061157 46.696013 
L 355.135537 46.669547 
L 358.209917 46.595611 
L 361.284298 46.353815 
L 364.358678 46.221723 
L 367.433058 47.040266 
L 370.507438 46.863174 
L 373.581818 46.67369 
L 373.581818 45.225736 
L 373.581818 45.225736 
L 370.507438 45.588481 
L 367.433058 45.394132 
L 364.358678 45.246275 
L 361.284298 45.476583 
L 358.209917 45.57993 
L 355.135537 45.385194 
L 352.061157 45.393242 
L 348.986777 45.400836 
L 345.912397 45.801399 
L 342.838017 45.427695 
L 339.763636 45.795535 
L 336.689256 45.452862 
L 333.614876 45.352454 
L 330.540496 45.563452 
L 327.466116 45.531654 
L 324.391736 45.654151 
L 321.317355 45.395527 
L 318.242975 45.231903 
L 315.168595 45.575963 
L 312.094215 45.742499 
L 309.019835 45.793202 
L 305.945455 45.738049 
L 302.871074 45.771907 
L 299.796694 45.61645 
L 296.722314 45.725627 
L 293.647934 45.593401 
L 290.573554 45.825883 
L 287.499174 45.560608 
L 284.424793 45.561161 
L 281.350413 45.630713 
L 278.276033 45.791284 
L 275.201653 45.688074 
L 272.127273 45.820115 
L 269.052893 46.068309 
L 265.978512 45.872095 
L 262.904132 46.172332 
L 259.829752 45.708114 
L 256.755372 45.919223 
L 253.680992 45.833559 
L 250.606612 45.906798 
L 247.532231 45.670841 
L 244.457851 45.379584 
L 241.383471 45.634229 
L 238.309091 45.777369 
L 235.234711 46.475473 
L 232.160331 46.038074 
L 229.08595 45.903592 
L 226.01157 45.936229 
L 222.93719 46.145083 
L 219.86281 46.319766 
L 216.78843 46.653725 
L 213.71405 46.482317 
L 210.639669 46.348935 
L 207.565289 46.666016 
L 204.490909 46.556998 
L 201.416529 46.023778 
L 198.342149 46.635717 
L 195.267769 46.851994 
L 192.193388 46.171489 
L 189.119008 46.184115 
L 186.044628 46.43966 
L 182.970248 46.655531 
L 179.895868 46.775068 
L 176.821488 46.888331 
L 173.747107 47.229335 
L 170.672727 47.491136 
L 167.598347 46.839389 
L 164.523967 47.014804 
L 161.449587 47.663011 
L 158.375207 47.572484 
L 155.300826 47.344016 
L 152.226446 47.376099 
L 149.152066 47.857631 
L 146.077686 47.719329 
L 143.003306 48.133954 
L 139.928926 47.840035 
L 136.854545 47.057968 
L 133.780165 48.183085 
L 130.705785 49.303023 
L 127.631405 49.405851 
L 124.557025 49.617233 
L 121.482645 49.091985 
L 118.408264 49.104873 
L 115.333884 49.543499 
L 112.259504 50.458478 
L 109.185124 50.094304 
L 106.110744 50.132558 
L 103.036364 51.864966 
L 99.961983 50.404493 
L 96.887603 51.239702 
L 93.813223 51.813129 
L 90.738843 53.57472 
L 87.664463 55.933129 
L 84.590083 53.74872 
L 81.515702 57.054066 
L 78.441322 59.976236 
L 75.366942 66.378069 
L 72.292562 75.817141 
L 69.218182 114.091935 
z
" clip-path="url(#p0626bcf025)" style="fill: #ff7f0e; fill-opacity: 0.2"/>
   </g>
   <g id="PolyCollection_3">
    <path d="M 69.218182 110.064224 
L 69.218182 118.166633 
L 72.292562 81.136898 
L 75.366942 68.985494 
L 78.441322 63.087305 
L 81.515702 61.870171 
L 84.590083 60.621211 
L 87.664463 58.816247 
L 90.738843 57.394279 
L 93.813223 58.952401 
L 96.887603 56.514517 
L 99.961983 56.781201 
L 103.036364 56.021975 
L 106.110744 55.909294 
L 109.185124 53.763823 
L 112.259504 54.603461 
L 115.333884 54.339203 
L 118.408264 54.07272 
L 121.482645 53.28784 
L 124.557025 52.638608 
L 127.631405 51.572862 
L 130.705785 51.830767 
L 133.780165 51.634455 
L 136.854545 52.323992 
L 139.928926 51.99059 
L 143.003306 52.281722 
L 146.077686 50.359606 
L 149.152066 50.641568 
L 152.226446 50.402631 
L 155.300826 50.116567 
L 158.375207 49.407648 
L 161.449587 49.974371 
L 164.523967 49.395875 
L 167.598347 49.987881 
L 170.672727 48.833528 
L 173.747107 48.89935 
L 176.821488 49.052294 
L 179.895868 48.228516 
L 182.970248 49.017982 
L 186.044628 48.954881 
L 189.119008 49.561301 
L 192.193388 48.941865 
L 195.267769 48.293753 
L 198.342149 48.480336 
L 201.416529 48.783361 
L 204.490909 48.075752 
L 207.565289 47.748883 
L 210.639669 48.612189 
L 213.71405 47.93101 
L 216.78843 47.851572 
L 219.86281 48.293124 
L 222.93719 47.655779 
L 226.01157 47.838007 
L 229.08595 47.02569 
L 232.160331 47.54029 
L 235.234711 47.32905 
L 238.309091 47.566113 
L 241.383471 47.939967 
L 244.457851 47.506656 
L 247.532231 47.525063 
L 250.606612 47.172024 
L 253.680992 47.853826 
L 256.755372 47.049948 
L 259.829752 47.190094 
L 262.904132 47.510276 
L 265.978512 46.899574 
L 269.052893 47.830086 
L 272.127273 47.054169 
L 275.201653 47.315499 
L 278.276033 46.240539 
L 281.350413 46.779623 
L 284.424793 47.219327 
L 287.499174 47.223729 
L 290.573554 46.981747 
L 293.647934 46.514673 
L 296.722314 46.64978 
L 299.796694 47.065381 
L 302.871074 46.971306 
L 305.945455 46.393995 
L 309.019835 46.748129 
L 312.094215 46.660338 
L 315.168595 46.734632 
L 318.242975 46.428388 
L 321.317355 46.540071 
L 324.391736 46.379701 
L 327.466116 47.003686 
L 330.540496 46.652469 
L 333.614876 47.001141 
L 336.689256 46.602083 
L 339.763636 46.369772 
L 342.838017 46.320388 
L 345.912397 46.609652 
L 348.986777 46.559978 
L 352.061157 46.50464 
L 355.135537 46.692265 
L 358.209917 46.595217 
L 361.284298 46.119962 
L 364.358678 46.974002 
L 367.433058 46.687855 
L 370.507438 46.416246 
L 373.581818 46.237591 
L 373.581818 45.213151 
L 373.581818 45.213151 
L 370.507438 45.155295 
L 367.433058 45.056258 
L 364.358678 45.167024 
L 361.284298 45.417065 
L 358.209917 45.097124 
L 355.135537 45.189904 
L 352.061157 45.343016 
L 348.986777 45.27042 
L 345.912397 45.462345 
L 342.838017 45.268411 
L 339.763636 45.149997 
L 336.689256 45.073001 
L 333.614876 45.226171 
L 330.540496 45.195186 
L 327.466116 45.49974 
L 324.391736 45.347154 
L 321.317355 45.342098 
L 318.242975 45.281211 
L 315.168595 45.406394 
L 312.094215 45.256346 
L 309.019835 45.185811 
L 305.945455 45.350117 
L 302.871074 45.53212 
L 299.796694 45.938502 
L 296.722314 45.422218 
L 293.647934 45.367496 
L 290.573554 45.625222 
L 287.499174 45.693868 
L 284.424793 45.318613 
L 281.350413 45.257861 
L 278.276033 45.365516 
L 275.201653 45.325984 
L 272.127273 45.570057 
L 269.052893 45.553453 
L 265.978512 45.655624 
L 262.904132 45.47635 
L 259.829752 45.86556 
L 256.755372 45.643307 
L 253.680992 45.702284 
L 250.606612 45.607516 
L 247.532231 45.565106 
L 244.457851 45.583512 
L 241.383471 45.288259 
L 238.309091 45.713884 
L 235.234711 45.519519 
L 232.160331 45.498107 
L 229.08595 45.736593 
L 226.01157 45.597304 
L 222.93719 46.038389 
L 219.86281 45.953272 
L 216.78843 46.015167 
L 213.71405 46.160072 
L 210.639669 46.531578 
L 207.565289 45.962542 
L 204.490909 46.239672 
L 201.416529 45.998005 
L 198.342149 45.714289 
L 195.267769 46.263271 
L 192.193388 46.322701 
L 189.119008 46.945779 
L 186.044628 46.499513 
L 182.970248 46.298355 
L 179.895868 46.155936 
L 176.821488 46.039701 
L 173.747107 45.882017 
L 170.672727 46.448296 
L 167.598347 46.778055 
L 164.523967 47.024919 
L 161.449587 46.549968 
L 158.375207 46.564461 
L 155.300826 47.218856 
L 152.226446 47.295193 
L 149.152066 47.504941 
L 146.077686 47.459018 
L 143.003306 48.02193 
L 139.928926 47.916147 
L 136.854545 48.169492 
L 133.780165 47.581998 
L 130.705785 48.145 
L 127.631405 47.574562 
L 124.557025 48.25179 
L 121.482645 48.862328 
L 118.408264 49.941223 
L 115.333884 49.122514 
L 112.259504 49.91094 
L 109.185124 49.404519 
L 106.110744 49.364419 
L 103.036364 51.219057 
L 99.961983 51.253658 
L 96.887603 50.605712 
L 93.813223 52.568404 
L 90.738843 52.504353 
L 87.664463 53.274043 
L 84.590083 55.075817 
L 81.515702 55.552573 
L 78.441322 58.201035 
L 75.366942 63.882395 
L 72.292562 74.337843 
L 69.218182 110.064224 
z
" clip-path="url(#p0626bcf025)" style="fill: #2ca02c; fill-opacity: 0.2"/>
   </g>
   <g id="PolyCollection_4">
    <path d="M 69.218182 141.037774 
L 69.218182 148.33514 
L 72.292562 85.198866 
L 75.366942 68.861415 
L 78.441322 59.642555 
L 81.515702 53.545858 
L 84.590083 51.209762 
L 87.664463 49.180235 
L 90.738843 47.717842 
L 93.813223 47.886149 
L 96.887603 46.95398 
L 99.961983 49.621853 
L 103.036364 52.17883 
L 106.110744 54.205761 
L 109.185124 54.564864 
L 112.259504 54.737435 
L 115.333884 52.228814 
L 118.408264 48.681619 
L 121.482645 48.226384 
L 124.557025 49.336257 
L 127.631405 50.76832 
L 130.705785 50.463482 
L 133.780165 49.347283 
L 136.854545 50.546888 
L 139.928926 52.170266 
L 143.003306 49.713712 
L 146.077686 49.153134 
L 149.152066 50.889578 
L 152.226446 50.188631 
L 155.300826 51.179706 
L 158.375207 48.602921 
L 161.449587 50.908686 
L 164.523967 50.478899 
L 167.598347 48.922656 
L 170.672727 49.197388 
L 173.747107 48.153321 
L 176.821488 48.626571 
L 179.895868 49.572076 
L 182.970248 48.196178 
L 186.044628 48.746487 
L 189.119008 48.333459 
L 192.193388 49.321215 
L 195.267769 48.451457 
L 198.342149 47.970115 
L 201.416529 48.789697 
L 204.490909 47.612626 
L 207.565289 47.999527 
L 210.639669 47.736278 
L 213.71405 48.076619 
L 216.78843 48.369746 
L 219.86281 48.064939 
L 222.93719 48.16404 
L 226.01157 47.214156 
L 229.08595 47.613781 
L 232.160331 47.540481 
L 235.234711 47.85274 
L 238.309091 48.065398 
L 241.383471 48.042991 
L 244.457851 47.905934 
L 247.532231 48.459153 
L 250.606612 47.648958 
L 253.680992 47.269514 
L 256.755372 47.235617 
L 259.829752 47.264278 
L 262.904132 47.435933 
L 265.978512 47.045343 
L 269.052893 47.503152 
L 272.127273 48.204435 
L 275.201653 48.027597 
L 278.276033 47.657371 
L 281.350413 47.605005 
L 284.424793 47.091157 
L 287.499174 47.193134 
L 290.573554 47.71119 
L 293.647934 47.32265 
L 296.722314 47.08227 
L 299.796694 46.702664 
L 302.871074 46.92879 
L 305.945455 47.127268 
L 309.019835 49.306021 
L 312.094215 47.822598 
L 315.168595 47.177627 
L 318.242975 47.121014 
L 321.317355 47.387815 
L 324.391736 47.42983 
L 327.466116 47.126456 
L 330.540496 46.849088 
L 333.614876 47.229202 
L 336.689256 46.975649 
L 339.763636 47.635317 
L 342.838017 46.583308 
L 345.912397 46.447452 
L 348.986777 47.336512 
L 352.061157 47.395382 
L 355.135537 47.027739 
L 358.209917 46.998564 
L 361.284298 47.131567 
L 364.358678 47.200979 
L 367.433058 46.729154 
L 370.507438 46.832877 
L 373.581818 46.325632 
L 373.581818 44.935281 
L 373.581818 44.935281 
L 370.507438 45.170092 
L 367.433058 45.42913 
L 364.358678 45.405989 
L 361.284298 45.699745 
L 358.209917 45.642919 
L 355.135537 45.251344 
L 352.061157 45.315129 
L 348.986777 45.322228 
L 345.912397 45.244889 
L 342.838017 45.074518 
L 339.763636 45.006166 
L 336.689256 45.165377 
L 333.614876 45.533081 
L 330.540496 45.360967 
L 327.466116 45.066342 
L 324.391736 45.384224 
L 321.317355 45.391725 
L 318.242975 45.554983 
L 315.168595 45.325799 
L 312.094215 45.526427 
L 309.019835 44.612491 
L 305.945455 45.220844 
L 302.871074 45.177723 
L 299.796694 45.024192 
L 296.722314 45.231328 
L 293.647934 45.301576 
L 290.573554 45.327207 
L 287.499174 45.224006 
L 284.424793 45.101641 
L 281.350413 45.467906 
L 278.276033 45.605369 
L 275.201653 45.563028 
L 272.127273 45.437961 
L 269.052893 45.500731 
L 265.978512 45.164712 
L 262.904132 45.102007 
L 259.829752 45.29092 
L 256.755372 45.129752 
L 253.680992 45.458255 
L 250.606612 45.475725 
L 247.532231 46.184156 
L 244.457851 45.339549 
L 241.383471 45.789234 
L 238.309091 45.283627 
L 235.234711 45.461771 
L 232.160331 45.049231 
L 229.08595 44.924159 
L 226.01157 45.392813 
L 222.93719 45.27127 
L 219.86281 45.456657 
L 216.78843 45.376194 
L 213.71405 45.393206 
L 210.639669 45.923376 
L 207.565289 45.366755 
L 204.490909 45.598342 
L 201.416529 45.077044 
L 198.342149 45.482453 
L 195.267769 45.691396 
L 192.193388 44.959696 
L 189.119008 45.89568 
L 186.044628 45.413624 
L 182.970248 45.791361 
L 179.895868 44.933178 
L 176.821488 44.981312 
L 173.747107 45.126675 
L 170.672727 44.859181 
L 167.598347 45.254712 
L 164.523967 44.526812 
L 161.449587 44.701027 
L 158.375207 45.384618 
L 155.300826 44.82692 
L 152.226446 45.144966 
L 149.152066 43.822763 
L 146.077686 45.162292 
L 143.003306 44.722515 
L 139.928926 44.681959 
L 136.854545 45.528766 
L 133.780165 45.209742 
L 130.705785 45.008175 
L 127.631405 45.445392 
L 124.557025 45.27254 
L 121.482645 44.950071 
L 118.408264 45.37495 
L 115.333884 45.382727 
L 112.259504 45.221076 
L 109.185124 46.101189 
L 106.110744 46.995266 
L 103.036364 45.898652 
L 99.961983 44.745344 
L 96.887603 45.307846 
L 93.813223 45.549162 
L 90.738843 45.976325 
L 87.664463 46.360447 
L 84.590083 47.247375 
L 81.515702 49.570712 
L 78.441322 54.432303 
L 75.366942 61.970127 
L 72.292562 76.988908 
L 69.218182 141.037774 
z
" clip-path="url(#p0626bcf025)" style="fill: #d62728; fill-opacity: 0.2"/>
   </g>
   <g id="PolyCollection_5">
    <path d="M 69.218182 115.310131 
L 69.218182 120.082444 
L 72.292562 86.835567 
L 75.366942 77.207606 
L 78.441322 74.035748 
L 81.515702 69.623852 
L 84.590083 68.138069 
L 87.664463 66.341219 
L 90.738843 65.988059 
L 93.813223 64.21979 
L 96.887603 64.074317 
L 99.961983 62.919462 
L 103.036364 63.191639 
L 106.110744 60.702127 
L 109.185124 61.02292 
L 112.259504 59.826603 
L 115.333884 58.328332 
L 118.408264 58.422343 
L 121.482645 57.0905 
L 124.557025 56.173791 
L 127.631405 56.317103 
L 130.705785 56.316818 
L 133.780165 55.665383 
L 136.854545 54.970221 
L 139.928926 54.826082 
L 143.003306 53.328431 
L 146.077686 53.999073 
L 149.152066 54.09414 
L 152.226446 52.506474 
L 155.300826 52.641806 
L 158.375207 52.982185 
L 161.449587 52.154927 
L 164.523967 52.997913 
L 167.598347 51.911554 
L 170.672727 51.86815 
L 173.747107 52.00111 
L 176.821488 51.46886 
L 179.895868 51.839365 
L 182.970248 50.965031 
L 186.044628 51.702101 
L 189.119008 50.727596 
L 192.193388 50.914779 
L 195.267769 50.853891 
L 198.342149 50.103406 
L 201.416529 49.698256 
L 204.490909 50.478669 
L 207.565289 50.545848 
L 210.639669 49.362403 
L 213.71405 49.858838 
L 216.78843 50.216641 
L 219.86281 49.833891 
L 222.93719 49.28256 
L 226.01157 49.310897 
L 229.08595 49.653986 
L 232.160331 49.413928 
L 235.234711 49.646052 
L 238.309091 49.229799 
L 241.383471 49.405602 
L 244.457851 49.192511 
L 247.532231 49.015347 
L 250.606612 49.246498 
L 253.680992 48.606133 
L 256.755372 48.911577 
L 259.829752 49.126564 
L 262.904132 48.95281 
L 265.978512 49.105424 
L 269.052893 48.325251 
L 272.127273 48.585458 
L 275.201653 48.830909 
L 278.276033 48.883784 
L 281.350413 48.455425 
L 284.424793 48.279529 
L 287.499174 48.747372 
L 290.573554 48.672658 
L 293.647934 48.267278 
L 296.722314 47.772739 
L 299.796694 48.175691 
L 302.871074 48.418252 
L 305.945455 48.139894 
L 309.019835 47.927119 
L 312.094215 47.618253 
L 315.168595 47.786382 
L 318.242975 47.898218 
L 321.317355 47.683781 
L 324.391736 48.029154 
L 327.466116 48.150992 
L 330.540496 48.092058 
L 333.614876 48.089986 
L 336.689256 47.785781 
L 339.763636 48.058113 
L 342.838017 47.774848 
L 345.912397 48.043805 
L 348.986777 47.882985 
L 352.061157 47.948484 
L 355.135537 47.637432 
L 358.209917 47.913566 
L 361.284298 47.197312 
L 364.358678 47.695277 
L 367.433058 47.157841 
L 370.507438 47.475106 
L 373.581818 47.830012 
L 373.581818 46.399127 
L 373.581818 46.399127 
L 370.507438 46.477919 
L 367.433058 46.001356 
L 364.358678 46.257747 
L 361.284298 46.255256 
L 358.209917 46.539916 
L 355.135537 46.143021 
L 352.061157 46.24614 
L 348.986777 46.311639 
L 345.912397 46.219848 
L 342.838017 46.333491 
L 339.763636 46.826796 
L 336.689256 45.942901 
L 333.614876 46.173667 
L 330.540496 46.637537 
L 327.466116 46.129918 
L 324.391736 46.28627 
L 321.317355 46.321015 
L 318.242975 46.555263 
L 315.168595 46.011329 
L 312.094215 46.438315 
L 309.019835 46.146705 
L 305.945455 46.727759 
L 302.871074 46.483914 
L 299.796694 46.622933 
L 296.722314 46.559942 
L 293.647934 46.980031 
L 290.573554 46.937051 
L 287.499174 47.259251 
L 284.424793 46.84698 
L 281.350413 46.671085 
L 278.276033 47.226381 
L 275.201653 46.830571 
L 272.127273 47.196822 
L 269.052893 47.129144 
L 265.978512 46.883942 
L 262.904132 46.863985 
L 259.829752 47.190687 
L 256.755372 46.577332 
L 253.680992 47.089861 
L 250.606612 47.036238 
L 247.532231 47.370932 
L 244.457851 47.262797 
L 241.383471 47.532906 
L 238.309091 47.294537 
L 235.234711 47.620341 
L 232.160331 47.352008 
L 229.08595 47.405322 
L 226.01157 47.282468 
L 222.93719 47.604177 
L 219.86281 47.467018 
L 216.78843 47.446667 
L 213.71405 47.73544 
L 210.639669 47.955762 
L 207.565289 48.359973 
L 204.490909 48.116522 
L 201.416529 48.223908 
L 198.342149 47.991329 
L 195.267769 48.345303 
L 192.193388 49.130015 
L 189.119008 48.316283 
L 186.044628 48.463496 
L 182.970248 48.889933 
L 179.895868 48.895715 
L 176.821488 48.817536 
L 173.747107 48.90654 
L 170.672727 49.143045 
L 167.598347 48.80627 
L 164.523967 50.291229 
L 161.449587 50.564732 
L 158.375207 50.099874 
L 155.300826 50.422996 
L 152.226446 50.178671 
L 149.152066 50.489292 
L 146.077686 50.964017 
L 143.003306 50.599229 
L 139.928926 51.741926 
L 136.854545 52.046472 
L 133.780165 51.437593 
L 130.705785 52.632674 
L 127.631405 52.666902 
L 124.557025 53.034558 
L 121.482645 52.790877 
L 118.408264 53.909546 
L 115.333884 54.434985 
L 112.259504 55.318197 
L 109.185124 56.348051 
L 106.110744 56.375472 
L 103.036364 57.492703 
L 99.961983 58.506933 
L 96.887603 59.026021 
L 93.813223 59.933236 
L 90.738843 60.770799 
L 87.664463 61.746437 
L 84.590083 63.504561 
L 81.515702 65.435693 
L 78.441322 67.546997 
L 75.366942 72.485989 
L 72.292562 80.805463 
L 69.218182 115.310131 
z
" clip-path="url(#p0626bcf025)" style="fill: #9467bd; fill-opacity: 0.2"/>
   </g>
   <g id="matplotlib.axis_1">
    <g id="xtick_1">
     <g id="line2d_1">
      <defs>
       <path id="m87b4d16c1e" d="M 0 0 
L 0 3.5 
" style="stroke: #000000; stroke-width: 0.8"/>
      </defs>
      <g>
       <use xlink:href="#m87b4d16c1e" x="66.143802" y="252" style="stroke: #000000; stroke-width: 0.8"/>
      </g>
     </g>
     <g id="text_1">
      <!-- 0 -->
      <g transform="translate(62.962552 266.598437)scale(0.1 -0.1)">
       <defs>
        <path id="DejaVuSans-30" d="M 2034 4250 
Q 1547 4250 1301 3770 
Q 1056 3291 1056 2328 
Q 1056 1369 1301 889 
Q 1547 409 2034 409 
Q 2525 409 2770 889 
Q 3016 1369 3016 2328 
Q 3016 3291 2770 3770 
Q 2525 4250 2034 4250 
z
M 2034 4750 
Q 2819 4750 3233 4129 
Q 3647 3509 3647 2328 
Q 3647 1150 3233 529 
Q 2819 -91 2034 -91 
Q 1250 -91 836 529 
Q 422 1150 422 2328 
Q 422 3509 836 4129 
Q 1250 4750 2034 4750 
z
" transform="scale(0.015625)"/>
       </defs>
       <use xlink:href="#DejaVuSans-30"/>
      </g>
     </g>
    </g>
    <g id="xtick_2">
     <g id="line2d_2">
      <g>
       <use xlink:href="#m87b4d16c1e" x="127.631405" y="252" style="stroke: #000000; stroke-width: 0.8"/>
      </g>
     </g>
     <g id="text_2">
      <!-- 20 -->
      <g transform="translate(121.268905 266.598437)scale(0.1 -0.1)">
       <defs>
        <path id="DejaVuSans-32" d="M 1228 531 
L 3431 531 
L 3431 0 
L 469 0 
L 469 531 
Q 828 903 1448 1529 
Q 2069 2156 2228 2338 
Q 2531 2678 2651 2914 
Q 2772 3150 2772 3378 
Q 2772 3750 2511 3984 
Q 2250 4219 1831 4219 
Q 1534 4219 1204 4116 
Q 875 4013 500 3803 
L 500 4441 
Q 881 4594 1212 4672 
Q 1544 4750 1819 4750 
Q 2544 4750 2975 4387 
Q 3406 4025 3406 3419 
Q 3406 3131 3298 2873 
Q 3191 2616 2906 2266 
Q 2828 2175 2409 1742 
Q 1991 1309 1228 531 
z
" transform="scale(0.015625)"/>
       </defs>
       <use xlink:href="#DejaVuSans-32"/>
       <use xlink:href="#DejaVuSans-30" x="63.623047"/>
      </g>
     </g>
    </g>
    <g id="xtick_3">
     <g id="line2d_3">
      <g>
       <use xlink:href="#m87b4d16c1e" x="189.119008" y="252" style="stroke: #000000; stroke-width: 0.8"/>
      </g>
     </g>
     <g id="text_3">
      <!-- 40 -->
      <g transform="translate(182.756508 266.598437)scale(0.1 -0.1)">
       <defs>
        <path id="DejaVuSans-34" d="M 2419 4116 
L 825 1625 
L 2419 1625 
L 2419 4116 
z
M 2253 4666 
L 3047 4666 
L 3047 1625 
L 3713 1625 
L 3713 1100 
L 3047 1100 
L 3047 0 
L 2419 0 
L 2419 1100 
L 313 1100 
L 313 1709 
L 2253 4666 
z
" transform="scale(0.015625)"/>
       </defs>
       <use xlink:href="#DejaVuSans-34"/>
       <use xlink:href="#DejaVuSans-30" x="63.623047"/>
      </g>
     </g>
    </g>
    <g id="xtick_4">
     <g id="line2d_4">
      <g>
       <use xlink:href="#m87b4d16c1e" x="250.606612" y="252" style="stroke: #000000; stroke-width: 0.8"/>
      </g>
     </g>
     <g id="text_4">
      <!-- 60 -->
      <g transform="translate(244.244112 266.598437)scale(0.1 -0.1)">
       <defs>
        <path id="DejaVuSans-36" d="M 2113 2584 
Q 1688 2584 1439 2293 
Q 1191 2003 1191 1497 
Q 1191 994 1439 701 
Q 1688 409 2113 409 
Q 2538 409 2786 701 
Q 3034 994 3034 1497 
Q 3034 2003 2786 2293 
Q 2538 2584 2113 2584 
z
M 3366 4563 
L 3366 3988 
Q 3128 4100 2886 4159 
Q 2644 4219 2406 4219 
Q 1781 4219 1451 3797 
Q 1122 3375 1075 2522 
Q 1259 2794 1537 2939 
Q 1816 3084 2150 3084 
Q 2853 3084 3261 2657 
Q 3669 2231 3669 1497 
Q 3669 778 3244 343 
Q 2819 -91 2113 -91 
Q 1303 -91 875 529 
Q 447 1150 447 2328 
Q 447 3434 972 4092 
Q 1497 4750 2381 4750 
Q 2619 4750 2861 4703 
Q 3103 4656 3366 4563 
z
" transform="scale(0.015625)"/>
       </defs>
       <use xlink:href="#DejaVuSans-36"/>
       <use xlink:href="#DejaVuSans-30" x="63.623047"/>
      </g>
     </g>
    </g>
    <g id="xtick_5">
     <g id="line2d_5">
      <g>
       <use xlink:href="#m87b4d16c1e" x="312.094215" y="252" style="stroke: #000000; stroke-width: 0.8"/>
      </g>
     </g>
     <g id="text_5">
      <!-- 80 -->
      <g transform="translate(305.731715 266.598437)scale(0.1 -0.1)">
       <defs>
        <path id="DejaVuSans-38" d="M 2034 2216 
Q 1584 2216 1326 1975 
Q 1069 1734 1069 1313 
Q 1069 891 1326 650 
Q 1584 409 2034 409 
Q 2484 409 2743 651 
Q 3003 894 3003 1313 
Q 3003 1734 2745 1975 
Q 2488 2216 2034 2216 
z
M 1403 2484 
Q 997 2584 770 2862 
Q 544 3141 544 3541 
Q 544 4100 942 4425 
Q 1341 4750 2034 4750 
Q 2731 4750 3128 4425 
Q 3525 4100 3525 3541 
Q 3525 3141 3298 2862 
Q 3072 2584 2669 2484 
Q 3125 2378 3379 2068 
Q 3634 1759 3634 1313 
Q 3634 634 3220 271 
Q 2806 -91 2034 -91 
Q 1263 -91 848 271 
Q 434 634 434 1313 
Q 434 1759 690 2068 
Q 947 2378 1403 2484 
z
M 1172 3481 
Q 1172 3119 1398 2916 
Q 1625 2713 2034 2713 
Q 2441 2713 2670 2916 
Q 2900 3119 2900 3481 
Q 2900 3844 2670 4047 
Q 2441 4250 2034 4250 
Q 1625 4250 1398 4047 
Q 1172 3844 1172 3481 
z
" transform="scale(0.015625)"/>
       </defs>
       <use xlink:href="#DejaVuSans-38"/>
       <use xlink:href="#DejaVuSans-30" x="63.623047"/>
      </g>
     </g>
    </g>
    <g id="xtick_6">
     <g id="line2d_6">
      <g>
       <use xlink:href="#m87b4d16c1e" x="373.581818" y="252" style="stroke: #000000; stroke-width: 0.8"/>
      </g>
     </g>
     <g id="text_6">
      <!-- 100 -->
      <g transform="translate(364.038068 266.598437)scale(0.1 -0.1)">
       <defs>
        <path id="DejaVuSans-31" d="M 794 531 
L 1825 531 
L 1825 4091 
L 703 3866 
L 703 4441 
L 1819 4666 
L 2450 4666 
L 2450 531 
L 3481 531 
L 3481 0 
L 794 0 
L 794 531 
z
" transform="scale(0.015625)"/>
       </defs>
       <use xlink:href="#DejaVuSans-31"/>
       <use xlink:href="#DejaVuSans-30" x="63.623047"/>
       <use xlink:href="#DejaVuSans-30" x="127.246094"/>
      </g>
     </g>
    </g>
    <g id="text_7">
     <!-- # epochs -->
     <g transform="translate(197.788281 280.276563)scale(0.1 -0.1)">
      <defs>
       <path id="DejaVuSans-23" d="M 3272 2816 
L 2363 2816 
L 2100 1772 
L 3016 1772 
L 3272 2816 
z
M 2803 4594 
L 2478 3297 
L 3391 3297 
L 3719 4594 
L 4219 4594 
L 3897 3297 
L 4872 3297 
L 4872 2816 
L 3775 2816 
L 3519 1772 
L 4513 1772 
L 4513 1294 
L 3397 1294 
L 3072 0 
L 2572 0 
L 2894 1294 
L 1978 1294 
L 1656 0 
L 1153 0 
L 1478 1294 
L 494 1294 
L 494 1772 
L 1594 1772 
L 1856 2816 
L 850 2816 
L 850 3297 
L 1978 3297 
L 2297 4594 
L 2803 4594 
z
" transform="scale(0.015625)"/>
       <path id="DejaVuSans-20" transform="scale(0.015625)"/>
       <path id="DejaVuSans-65" d="M 3597 1894 
L 3597 1613 
L 953 1613 
Q 991 1019 1311 708 
Q 1631 397 2203 397 
Q 2534 397 2845 478 
Q 3156 559 3463 722 
L 3463 178 
Q 3153 47 2828 -22 
Q 2503 -91 2169 -91 
Q 1331 -91 842 396 
Q 353 884 353 1716 
Q 353 2575 817 3079 
Q 1281 3584 2069 3584 
Q 2775 3584 3186 3129 
Q 3597 2675 3597 1894 
z
M 3022 2063 
Q 3016 2534 2758 2815 
Q 2500 3097 2075 3097 
Q 1594 3097 1305 2825 
Q 1016 2553 972 2059 
L 3022 2063 
z
" transform="scale(0.015625)"/>
       <path id="DejaVuSans-70" d="M 1159 525 
L 1159 -1331 
L 581 -1331 
L 581 3500 
L 1159 3500 
L 1159 2969 
Q 1341 3281 1617 3432 
Q 1894 3584 2278 3584 
Q 2916 3584 3314 3078 
Q 3713 2572 3713 1747 
Q 3713 922 3314 415 
Q 2916 -91 2278 -91 
Q 1894 -91 1617 61 
Q 1341 213 1159 525 
z
M 3116 1747 
Q 3116 2381 2855 2742 
Q 2594 3103 2138 3103 
Q 1681 3103 1420 2742 
Q 1159 2381 1159 1747 
Q 1159 1113 1420 752 
Q 1681 391 2138 391 
Q 2594 391 2855 752 
Q 3116 1113 3116 1747 
z
" transform="scale(0.015625)"/>
       <path id="DejaVuSans-6f" d="M 1959 3097 
Q 1497 3097 1228 2736 
Q 959 2375 959 1747 
Q 959 1119 1226 758 
Q 1494 397 1959 397 
Q 2419 397 2687 759 
Q 2956 1122 2956 1747 
Q 2956 2369 2687 2733 
Q 2419 3097 1959 3097 
z
M 1959 3584 
Q 2709 3584 3137 3096 
Q 3566 2609 3566 1747 
Q 3566 888 3137 398 
Q 2709 -91 1959 -91 
Q 1206 -91 779 398 
Q 353 888 353 1747 
Q 353 2609 779 3096 
Q 1206 3584 1959 3584 
z
" transform="scale(0.015625)"/>
       <path id="DejaVuSans-63" d="M 3122 3366 
L 3122 2828 
Q 2878 2963 2633 3030 
Q 2388 3097 2138 3097 
Q 1578 3097 1268 2742 
Q 959 2388 959 1747 
Q 959 1106 1268 751 
Q 1578 397 2138 397 
Q 2388 397 2633 464 
Q 2878 531 3122 666 
L 3122 134 
Q 2881 22 2623 -34 
Q 2366 -91 2075 -91 
Q 1284 -91 818 406 
Q 353 903 353 1747 
Q 353 2603 823 3093 
Q 1294 3584 2113 3584 
Q 2378 3584 2631 3529 
Q 2884 3475 3122 3366 
z
" transform="scale(0.015625)"/>
       <path id="DejaVuSans-68" d="M 3513 2113 
L 3513 0 
L 2938 0 
L 2938 2094 
Q 2938 2591 2744 2837 
Q 2550 3084 2163 3084 
Q 1697 3084 1428 2787 
Q 1159 2491 1159 1978 
L 1159 0 
L 581 0 
L 581 4863 
L 1159 4863 
L 1159 2956 
Q 1366 3272 1645 3428 
Q 1925 3584 2291 3584 
Q 2894 3584 3203 3211 
Q 3513 2838 3513 2113 
z
" transform="scale(0.015625)"/>
       <path id="DejaVuSans-73" d="M 2834 3397 
L 2834 2853 
Q 2591 2978 2328 3040 
Q 2066 3103 1784 3103 
Q 1356 3103 1142 2972 
Q 928 2841 928 2578 
Q 928 2378 1081 2264 
Q 1234 2150 1697 2047 
L 1894 2003 
Q 2506 1872 2764 1633 
Q 3022 1394 3022 966 
Q 3022 478 2636 193 
Q 2250 -91 1575 -91 
Q 1294 -91 989 -36 
Q 684 19 347 128 
L 347 722 
Q 666 556 975 473 
Q 1284 391 1588 391 
Q 1994 391 2212 530 
Q 2431 669 2431 922 
Q 2431 1156 2273 1281 
Q 2116 1406 1581 1522 
L 1381 1569 
Q 847 1681 609 1914 
Q 372 2147 372 2553 
Q 372 3047 722 3315 
Q 1072 3584 1716 3584 
Q 2034 3584 2315 3537 
Q 2597 3491 2834 3397 
z
" transform="scale(0.015625)"/>
      </defs>
      <use xlink:href="#DejaVuSans-23"/>
      <use xlink:href="#DejaVuSans-20" x="83.789062"/>
      <use xlink:href="#DejaVuSans-65" x="115.576172"/>
      <use xlink:href="#DejaVuSans-70" x="177.099609"/>
      <use xlink:href="#DejaVuSans-6f" x="240.576172"/>
      <use xlink:href="#DejaVuSans-63" x="301.757812"/>
      <use xlink:href="#DejaVuSans-68" x="356.738281"/>
      <use xlink:href="#DejaVuSans-73" x="420.117188"/>
     </g>
    </g>
   </g>
   <g id="matplotlib.axis_2">
    <g id="ytick_1">
     <g id="line2d_7">
      <defs>
       <path id="m499ac9778f" d="M 0 0 
L -3.5 0 
" style="stroke: #000000; stroke-width: 0.8"/>
      </defs>
      <g>
       <use xlink:href="#m499ac9778f" x="54" y="252" style="stroke: #000000; stroke-width: 0.8"/>
      </g>
     </g>
     <g id="text_8">
      <!-- 0.0 -->
      <g transform="translate(31.096875 255.799219)scale(0.1 -0.1)">
       <defs>
        <path id="DejaVuSans-2e" d="M 684 794 
L 1344 794 
L 1344 0 
L 684 0 
L 684 794 
z
" transform="scale(0.015625)"/>
       </defs>
       <use xlink:href="#DejaVuSans-30"/>
       <use xlink:href="#DejaVuSans-2e" x="63.623047"/>
       <use xlink:href="#DejaVuSans-30" x="95.410156"/>
      </g>
     </g>
    </g>
    <g id="ytick_2">
     <g id="line2d_8">
      <g>
       <use xlink:href="#m499ac9778f" x="54" y="210.582857" style="stroke: #000000; stroke-width: 0.8"/>
      </g>
     </g>
     <g id="text_9">
      <!-- 0.2 -->
      <g transform="translate(31.096875 214.382076)scale(0.1 -0.1)">
       <use xlink:href="#DejaVuSans-30"/>
       <use xlink:href="#DejaVuSans-2e" x="63.623047"/>
       <use xlink:href="#DejaVuSans-32" x="95.410156"/>
      </g>
     </g>
    </g>
    <g id="ytick_3">
     <g id="line2d_9">
      <g>
       <use xlink:href="#m499ac9778f" x="54" y="169.165714" style="stroke: #000000; stroke-width: 0.8"/>
      </g>
     </g>
     <g id="text_10">
      <!-- 0.4 -->
      <g transform="translate(31.096875 172.964933)scale(0.1 -0.1)">
       <use xlink:href="#DejaVuSans-30"/>
       <use xlink:href="#DejaVuSans-2e" x="63.623047"/>
       <use xlink:href="#DejaVuSans-34" x="95.410156"/>
      </g>
     </g>
    </g>
    <g id="ytick_4">
     <g id="line2d_10">
      <g>
       <use xlink:href="#m499ac9778f" x="54" y="127.748571" style="stroke: #000000; stroke-width: 0.8"/>
      </g>
     </g>
     <g id="text_11">
      <!-- 0.6 -->
      <g transform="translate(31.096875 131.54779)scale(0.1 -0.1)">
       <use xlink:href="#DejaVuSans-30"/>
       <use xlink:href="#DejaVuSans-2e" x="63.623047"/>
       <use xlink:href="#DejaVuSans-36" x="95.410156"/>
      </g>
     </g>
    </g>
    <g id="ytick_5">
     <g id="line2d_11">
      <g>
       <use xlink:href="#m499ac9778f" x="54" y="86.331429" style="stroke: #000000; stroke-width: 0.8"/>
      </g>
     </g>
     <g id="text_12">
      <!-- 0.8 -->
      <g transform="translate(31.096875 90.130647)scale(0.1 -0.1)">
       <use xlink:href="#DejaVuSans-30"/>
       <use xlink:href="#DejaVuSans-2e" x="63.623047"/>
       <use xlink:href="#DejaVuSans-38" x="95.410156"/>
      </g>
     </g>
    </g>
    <g id="ytick_6">
     <g id="line2d_12">
      <g>
       <use xlink:href="#m499ac9778f" x="54" y="44.914286" style="stroke: #000000; stroke-width: 0.8"/>
      </g>
     </g>
     <g id="text_13">
      <!-- 1.0 -->
      <g transform="translate(31.096875 48.713504)scale(0.1 -0.1)">
       <use xlink:href="#DejaVuSans-31"/>
       <use xlink:href="#DejaVuSans-2e" x="63.623047"/>
       <use xlink:href="#DejaVuSans-30" x="95.410156"/>
      </g>
     </g>
    </g>
    <g id="text_14">
     <!-- Accuracy -->
     <g transform="translate(25.017187 166.108125)rotate(-90)scale(0.1 -0.1)">
      <defs>
       <path id="DejaVuSans-41" d="M 2188 4044 
L 1331 1722 
L 3047 1722 
L 2188 4044 
z
M 1831 4666 
L 2547 4666 
L 4325 0 
L 3669 0 
L 3244 1197 
L 1141 1197 
L 716 0 
L 50 0 
L 1831 4666 
z
" transform="scale(0.015625)"/>
       <path id="DejaVuSans-75" d="M 544 1381 
L 544 3500 
L 1119 3500 
L 1119 1403 
Q 1119 906 1312 657 
Q 1506 409 1894 409 
Q 2359 409 2629 706 
Q 2900 1003 2900 1516 
L 2900 3500 
L 3475 3500 
L 3475 0 
L 2900 0 
L 2900 538 
Q 2691 219 2414 64 
Q 2138 -91 1772 -91 
Q 1169 -91 856 284 
Q 544 659 544 1381 
z
M 1991 3584 
L 1991 3584 
z
" transform="scale(0.015625)"/>
       <path id="DejaVuSans-72" d="M 2631 2963 
Q 2534 3019 2420 3045 
Q 2306 3072 2169 3072 
Q 1681 3072 1420 2755 
Q 1159 2438 1159 1844 
L 1159 0 
L 581 0 
L 581 3500 
L 1159 3500 
L 1159 2956 
Q 1341 3275 1631 3429 
Q 1922 3584 2338 3584 
Q 2397 3584 2469 3576 
Q 2541 3569 2628 3553 
L 2631 2963 
z
" transform="scale(0.015625)"/>
       <path id="DejaVuSans-61" d="M 2194 1759 
Q 1497 1759 1228 1600 
Q 959 1441 959 1056 
Q 959 750 1161 570 
Q 1363 391 1709 391 
Q 2188 391 2477 730 
Q 2766 1069 2766 1631 
L 2766 1759 
L 2194 1759 
z
M 3341 1997 
L 3341 0 
L 2766 0 
L 2766 531 
Q 2569 213 2275 61 
Q 1981 -91 1556 -91 
Q 1019 -91 701 211 
Q 384 513 384 1019 
Q 384 1609 779 1909 
Q 1175 2209 1959 2209 
L 2766 2209 
L 2766 2266 
Q 2766 2663 2505 2880 
Q 2244 3097 1772 3097 
Q 1472 3097 1187 3025 
Q 903 2953 641 2809 
L 641 3341 
Q 956 3463 1253 3523 
Q 1550 3584 1831 3584 
Q 2591 3584 2966 3190 
Q 3341 2797 3341 1997 
z
" transform="scale(0.015625)"/>
       <path id="DejaVuSans-79" d="M 2059 -325 
Q 1816 -950 1584 -1140 
Q 1353 -1331 966 -1331 
L 506 -1331 
L 506 -850 
L 844 -850 
Q 1081 -850 1212 -737 
Q 1344 -625 1503 -206 
L 1606 56 
L 191 3500 
L 800 3500 
L 1894 763 
L 2988 3500 
L 3597 3500 
L 2059 -325 
z
" transform="scale(0.015625)"/>
      </defs>
      <use xlink:href="#DejaVuSans-41"/>
      <use xlink:href="#DejaVuSans-63" x="66.658203"/>
      <use xlink:href="#DejaVuSans-63" x="121.638672"/>
      <use xlink:href="#DejaVuSans-75" x="176.619141"/>
      <use xlink:href="#DejaVuSans-72" x="239.998047"/>
      <use xlink:href="#DejaVuSans-61" x="281.111328"/>
      <use xlink:href="#DejaVuSans-63" x="342.390625"/>
      <use xlink:href="#DejaVuSans-79" x="397.371094"/>
     </g>
    </g>
   </g>
   <g id="line2d_13">
    <path d="M 69.218182 179.830629 
L 72.292562 154.152 
L 75.366942 143.357657 
L 78.441322 133.529714 
L 81.515702 126.980628 
L 84.590083 120.957887 
L 87.664463 115.004172 
L 90.738843 109.637201 
L 93.813223 106.151257 
L 96.887603 101.828343 
L 99.961983 98.230228 
L 103.036364 96.642571 
L 106.110744 94.5372 
L 109.185124 91.491316 
L 112.259504 90.07623 
L 115.333884 88.548973 
L 118.408264 86.426343 
L 121.482645 85.710171 
L 124.557025 83.190628 
L 127.631405 83.009429 
L 130.705785 81.456285 
L 133.780165 80.2224 
L 136.854545 78.332742 
L 139.928926 77.228285 
L 143.003306 76.891772 
L 146.077686 75.295486 
L 149.152066 73.975314 
L 152.226446 73.405829 
L 155.300826 72.4308 
L 158.375207 70.80863 
L 161.449587 71.145144 
L 164.523967 70.454859 
L 167.598347 69.609259 
L 170.672727 67.883543 
L 173.747107 67.728229 
L 176.821488 67.5988 
L 179.895868 66.80497 
L 182.970248 65.838571 
L 186.044628 65.139655 
L 189.119008 63.931656 
L 192.193388 64.112857 
L 195.267769 63.327654 
L 198.342149 63.586512 
L 201.416529 61.765885 
L 204.490909 61.645085 
L 207.565289 60.88577 
L 210.639669 60.307657 
L 213.71405 60.6528 
L 216.78843 60.76497 
L 219.86281 59.651885 
L 222.93719 59.487943 
L 226.01157 59.082399 
L 229.08595 59.056514 
L 232.160331 58.469771 
L 235.234711 58.642343 
L 238.309091 58.021087 
L 241.383471 57.434344 
L 244.457851 57.15823 
L 247.532231 57.710458 
L 250.606612 57.037429 
L 253.680992 56.761315 
L 256.755372 55.907088 
L 259.829752 56.700915 
L 262.904132 56.002002 
L 265.978512 55.976116 
L 269.052893 56.260858 
L 272.127273 56.554229 
L 275.201653 55.380745 
L 278.276033 55.277202 
L 281.350413 56.355773 
L 284.424793 55.009715 
L 287.499174 55.009716 
L 290.573554 55.121888 
L 293.647934 55.700001 
L 296.722314 54.811259 
L 299.796694 54.690459 
L 302.871074 53.629144 
L 305.945455 53.974289 
L 309.019835 53.991545 
L 312.094215 54.233146 
L 315.168595 54.38846 
L 318.242975 53.870745 
L 321.317355 54.233145 
L 324.391736 54.897545 
L 327.466116 53.594631 
L 330.540496 53.137317 
L 333.614876 53.292632 
L 336.689256 53.577373 
L 339.763636 53.456575 
L 342.838017 54.112345 
L 345.912397 53.90526 
L 348.986777 53.378918 
L 352.061157 53.465203 
L 355.135537 53.145945 
L 358.209917 52.904344 
L 361.284298 53.189087 
L 364.358678 53.094173 
L 367.433058 53.266745 
L 370.507438 52.662747 
L 373.581818 53.232231 
" clip-path="url(#p0626bcf025)" style="fill: none; stroke: #1f77b4; stroke-width: 1.5; stroke-linecap: square"/>
   </g>
   <g id="line2d_14">
    <path d="M 69.218182 119.646344 
L 72.292562 80.170629 
L 75.366942 69.643773 
L 78.441322 63.810858 
L 81.515702 60.117828 
L 84.590083 56.908002 
L 87.664463 58.090114 
L 90.738843 55.846688 
L 93.813223 54.336688 
L 96.887603 54.397087 
L 99.961983 53.551487 
L 103.036364 54.448859 
L 106.110744 53.145944 
L 109.185124 52.265829 
L 112.259504 52.80943 
L 115.333884 51.877542 
L 118.408264 51.420228 
L 121.482645 51.109599 
L 124.557025 51.290801 
L 127.631405 50.919769 
L 130.705785 51.385714 
L 133.780165 50.143198 
L 136.854545 49.642742 
L 139.928926 49.677254 
L 143.003306 50.246741 
L 146.077686 49.332112 
L 149.152066 49.52194 
L 152.226446 49.504683 
L 155.300826 49.565083 
L 158.375207 49.055997 
L 161.449587 49.228569 
L 164.523967 48.244911 
L 167.598347 48.31394 
L 170.672727 48.926568 
L 173.747107 48.805768 
L 176.821488 48.598683 
L 179.895868 48.07234 
L 182.970248 48.080968 
L 186.044628 47.52874 
L 189.119008 47.977426 
L 192.193388 47.623655 
L 195.267769 47.804854 
L 198.342149 48.046454 
L 201.416529 47.425198 
L 204.490909 47.778969 
L 207.565289 48.080968 
L 210.639669 47.476969 
L 213.71405 47.269883 
L 216.78843 47.70994 
L 219.86281 47.502855 
L 222.93719 47.243998 
L 226.01157 47.157712 
L 229.08595 47.192226 
L 232.160331 47.149084 
L 235.234711 47.433826 
L 238.309091 47.088684 
L 241.383471 46.51057 
L 244.457851 46.536456 
L 247.532231 46.967884 
L 250.606612 46.726284 
L 253.680992 47.097312 
L 256.755372 46.657255 
L 259.829752 46.674513 
L 262.904132 47.123198 
L 265.978512 46.821198 
L 269.052893 46.81257 
L 272.127273 46.476056 
L 275.201653 46.786684 
L 278.276033 46.605484 
L 281.350413 46.355256 
L 284.424793 46.536456 
L 287.499174 46.605484 
L 290.573554 46.441541 
L 293.647934 46.458799 
L 296.722314 46.596856 
L 299.796694 46.588227 
L 302.871074 46.57097 
L 305.945455 46.407027 
L 309.019835 46.415656 
L 312.094215 46.320742 
L 315.168595 46.32937 
L 318.242975 46.02737 
L 321.317355 46.156799 
L 324.391736 46.674513 
L 327.466116 46.165427 
L 330.540496 46.243084 
L 333.614876 46.122285 
L 336.689256 46.070513 
L 339.763636 46.45017 
L 342.838017 46.398399 
L 345.912397 46.51057 
L 348.986777 45.932456 
L 352.061157 46.044627 
L 355.135537 46.02737 
L 358.209917 46.08777 
L 361.284298 45.915199 
L 364.358678 45.733999 
L 367.433058 46.217199 
L 370.507438 46.225827 
L 373.581818 45.949713 
" clip-path="url(#p0626bcf025)" style="fill: none; stroke: #ff7f0e; stroke-width: 1.5; stroke-linecap: square"/>
   </g>
   <g id="line2d_15">
    <path d="M 69.218182 114.115429 
L 72.292562 77.73737 
L 75.366942 66.433945 
L 78.441322 60.64417 
L 81.515702 58.711372 
L 84.590083 57.848514 
L 87.664463 56.045145 
L 90.738843 54.949316 
L 93.813223 55.760403 
L 96.887603 53.560115 
L 99.961983 54.01743 
L 103.036364 53.620516 
L 106.110744 52.636857 
L 109.185124 51.584171 
L 112.259504 52.2572 
L 115.333884 51.730859 
L 118.408264 52.006971 
L 121.482645 51.075084 
L 124.557025 50.445199 
L 127.631405 49.573712 
L 130.705785 49.987883 
L 133.780165 49.608227 
L 136.854545 50.246742 
L 139.928926 49.953368 
L 143.003306 50.151826 
L 146.077686 48.909312 
L 149.152066 49.073254 
L 152.226446 48.848912 
L 155.300826 48.667711 
L 158.375207 47.986054 
L 161.449587 48.262169 
L 164.523967 48.210397 
L 167.598347 48.382968 
L 170.672727 47.640912 
L 173.747107 47.390683 
L 176.821488 47.545997 
L 179.895868 47.192226 
L 182.970248 47.658169 
L 186.044628 47.727197 
L 189.119008 48.25354 
L 192.193388 47.632283 
L 195.267769 47.278512 
L 198.342149 47.097313 
L 201.416529 47.390683 
L 204.490909 47.157712 
L 207.565289 46.855712 
L 210.639669 47.571883 
L 213.71405 47.045541 
L 216.78843 46.93337 
L 219.86281 47.123198 
L 222.93719 46.847084 
L 226.01157 46.717655 
L 229.08595 46.381141 
L 232.160331 46.519198 
L 235.234711 46.424284 
L 238.309091 46.639998 
L 241.383471 46.614113 
L 244.457851 46.545084 
L 247.532231 46.545084 
L 250.606612 46.38977 
L 253.680992 46.778055 
L 256.755372 46.346627 
L 259.829752 46.527827 
L 262.904132 46.493313 
L 265.978512 46.277599 
L 269.052893 46.69177 
L 272.127273 46.312113 
L 275.201653 46.320742 
L 278.276033 45.803028 
L 281.350413 46.018742 
L 284.424793 46.26897 
L 287.499174 46.458799 
L 290.573554 46.303484 
L 293.647934 45.941085 
L 296.722314 46.035999 
L 299.796694 46.501941 
L 302.871074 46.251713 
L 305.945455 45.872056 
L 309.019835 45.96697 
L 312.094215 45.958342 
L 315.168595 46.070513 
L 318.242975 45.854799 
L 321.317355 45.941085 
L 324.391736 45.863428 
L 327.466116 46.251713 
L 330.540496 45.923828 
L 333.614876 46.113656 
L 336.689256 45.837542 
L 339.763636 45.759885 
L 342.838017 45.794399 
L 345.912397 46.035999 
L 348.986777 45.915199 
L 352.061157 45.923828 
L 355.135537 45.941085 
L 358.209917 45.846171 
L 361.284298 45.768513 
L 364.358678 46.070513 
L 367.433058 45.872056 
L 370.507438 45.785771 
L 373.581818 45.725371 
" clip-path="url(#p0626bcf025)" style="fill: none; stroke: #2ca02c; stroke-width: 1.5; stroke-linecap: square"/>
   </g>
   <g id="line2d_16">
    <path d="M 69.218182 144.686457 
L 72.292562 81.093887 
L 75.366942 65.415771 
L 78.441322 57.037429 
L 81.515702 51.558285 
L 84.590083 49.228569 
L 87.664463 47.770341 
L 90.738843 46.847084 
L 93.813223 46.717655 
L 96.887603 46.130913 
L 99.961983 47.183598 
L 103.036364 49.038741 
L 106.110744 50.600514 
L 109.185124 50.333026 
L 112.259504 49.979255 
L 115.333884 48.80577 
L 118.408264 47.028284 
L 121.482645 46.588228 
L 124.557025 47.304398 
L 127.631405 48.106856 
L 130.705785 47.735828 
L 133.780165 47.278513 
L 136.854545 48.037827 
L 139.928926 48.426112 
L 143.003306 47.218114 
L 146.077686 47.157713 
L 149.152066 47.35617 
L 152.226446 47.666799 
L 155.300826 48.003313 
L 158.375207 46.993769 
L 161.449587 47.804857 
L 164.523967 47.502855 
L 167.598347 47.088684 
L 170.672727 47.028284 
L 173.747107 46.639998 
L 176.821488 46.803941 
L 179.895868 47.252627 
L 182.970248 46.993769 
L 186.044628 47.080056 
L 189.119008 47.114569 
L 192.193388 47.140456 
L 195.267769 47.071427 
L 198.342149 46.726284 
L 201.416529 46.93337 
L 204.490909 46.605484 
L 207.565289 46.683141 
L 210.639669 46.829827 
L 213.71405 46.734913 
L 216.78843 46.87297 
L 219.86281 46.760798 
L 222.93719 46.717655 
L 226.01157 46.303484 
L 229.08595 46.26897 
L 232.160331 46.294856 
L 235.234711 46.657255 
L 238.309091 46.674513 
L 241.383471 46.916112 
L 244.457851 46.622741 
L 247.532231 47.321655 
L 250.606612 46.562341 
L 253.680992 46.363884 
L 256.755372 46.182685 
L 259.829752 46.277599 
L 262.904132 46.26897 
L 265.978512 46.105027 
L 269.052893 46.501941 
L 272.127273 46.821198 
L 275.201653 46.795312 
L 278.276033 46.63137 
L 281.350413 46.536456 
L 284.424793 46.096399 
L 287.499174 46.20857 
L 290.573554 46.519198 
L 293.647934 46.312113 
L 296.722314 46.156799 
L 299.796694 45.863428 
L 302.871074 46.053256 
L 305.945455 46.174056 
L 309.019835 46.959256 
L 312.094215 46.674513 
L 315.168595 46.251713 
L 318.242975 46.337999 
L 321.317355 46.38977 
L 324.391736 46.407027 
L 327.466116 46.096399 
L 330.540496 46.105027 
L 333.614876 46.381141 
L 336.689256 46.070513 
L 339.763636 46.320742 
L 342.838017 45.828913 
L 345.912397 45.846171 
L 348.986777 46.32937 
L 352.061157 46.355256 
L 355.135537 46.139542 
L 358.209917 46.320742 
L 361.284298 46.415656 
L 364.358678 46.303484 
L 367.433058 46.079142 
L 370.507438 46.001485 
L 373.581818 45.630456 
" clip-path="url(#p0626bcf025)" style="fill: none; stroke: #d62728; stroke-width: 1.5; stroke-linecap: square"/>
   </g>
   <g id="line2d_17">
    <path d="M 69.218182 117.696287 
L 72.292562 83.820515 
L 75.366942 74.846797 
L 78.441322 70.791372 
L 81.515702 67.529773 
L 84.590083 65.821315 
L 87.664463 64.043828 
L 90.738843 63.379429 
L 93.813223 62.076513 
L 96.887603 61.550169 
L 99.961983 60.713197 
L 103.036364 60.342171 
L 106.110744 58.538799 
L 109.185124 58.685486 
L 112.259504 57.5724 
L 115.333884 56.381659 
L 118.408264 56.165944 
L 121.482645 54.940688 
L 124.557025 54.604175 
L 127.631405 54.492003 
L 130.705785 54.474746 
L 133.780165 53.551488 
L 136.854545 53.508346 
L 139.928926 53.284004 
L 143.003306 51.96383 
L 146.077686 52.481545 
L 149.152066 52.291716 
L 152.226446 51.342572 
L 155.300826 51.532401 
L 158.375207 51.54103 
L 161.449587 51.359829 
L 164.523967 51.644571 
L 167.598347 50.358912 
L 170.672727 50.505598 
L 173.747107 50.453825 
L 176.821488 50.143198 
L 179.895868 50.36754 
L 182.970248 49.927482 
L 186.044628 50.082798 
L 189.119008 49.52194 
L 192.193388 50.022397 
L 195.267769 49.599597 
L 198.342149 49.047367 
L 201.416529 48.961082 
L 204.490909 49.297596 
L 207.565289 49.452911 
L 210.639669 48.659082 
L 213.71405 48.797139 
L 216.78843 48.831654 
L 219.86281 48.650454 
L 222.93719 48.443368 
L 226.01157 48.296682 
L 229.08595 48.529654 
L 232.160331 48.382968 
L 235.234711 48.633196 
L 238.309091 48.262168 
L 241.383471 48.469254 
L 244.457851 48.227654 
L 247.532231 48.19314 
L 250.606612 48.141368 
L 253.680992 47.847997 
L 256.755372 47.744454 
L 259.829752 48.158625 
L 262.904132 47.908397 
L 265.978512 47.994683 
L 269.052893 47.727197 
L 272.127273 47.89114 
L 275.201653 47.83074 
L 278.276033 48.055083 
L 281.350413 47.563255 
L 284.424793 47.563255 
L 287.499174 48.003311 
L 290.573554 47.804854 
L 293.647934 47.623655 
L 296.722314 47.166341 
L 299.796694 47.399312 
L 302.871074 47.451083 
L 305.945455 47.433826 
L 309.019835 47.036912 
L 312.094215 47.028284 
L 315.168595 46.898855 
L 318.242975 47.226741 
L 321.317355 47.002398 
L 324.391736 47.157712 
L 327.466116 47.140455 
L 330.540496 47.364798 
L 333.614876 47.131826 
L 336.689256 46.864341 
L 339.763636 47.442455 
L 342.838017 47.054169 
L 345.912397 47.131826 
L 348.986777 47.097312 
L 352.061157 47.097312 
L 355.135537 46.890227 
L 358.209917 47.226741 
L 361.284298 46.726284 
L 364.358678 46.976512 
L 367.433058 46.579598 
L 370.507438 46.976512 
L 373.581818 47.114569 
" clip-path="url(#p0626bcf025)" style="fill: none; stroke: #9467bd; stroke-width: 1.5; stroke-linecap: square"/>
   </g>
   <g id="patch_3">
    <path d="M 54 252 
L 54 34.56 
" style="fill: none; stroke: #000000; stroke-width: 0.8; stroke-linejoin: miter; stroke-linecap: square"/>
   </g>
   <g id="patch_4">
    <path d="M 388.8 252 
L 388.8 34.56 
" style="fill: none; stroke: #000000; stroke-width: 0.8; stroke-linejoin: miter; stroke-linecap: square"/>
   </g>
   <g id="patch_5">
    <path d="M 54 252 
L 388.8 252 
" style="fill: none; stroke: #000000; stroke-width: 0.8; stroke-linejoin: miter; stroke-linecap: square"/>
   </g>
   <g id="patch_6">
    <path d="M 54 34.56 
L 388.8 34.56 
" style="fill: none; stroke: #000000; stroke-width: 0.8; stroke-linejoin: miter; stroke-linecap: square"/>
   </g>
   <g id="legend_1">
    <g id="patch_7">
     <path d="M 282.1 247 
L 381.8 247 
Q 383.8 247 383.8 245 
L 383.8 172.609375 
Q 383.8 170.609375 381.8 170.609375 
L 282.1 170.609375 
Q 280.1 170.609375 280.1 172.609375 
L 280.1 245 
Q 280.1 247 282.1 247 
z
" style="fill: #ffffff; opacity: 0.8; stroke: #cccccc; stroke-linejoin: miter"/>
    </g>
    <g id="line2d_18">
     <path d="M 284.1 178.707812 
L 294.1 178.707812 
L 304.1 178.707812 
" style="fill: none; stroke: #1f77b4; stroke-width: 1.5; stroke-linecap: square"/>
    </g>
    <g id="text_15">
     <!-- $H_1$ (1 filters) -->
     <g transform="translate(312.1 182.207812)scale(0.1 -0.1)">
      <defs>
       <path id="DejaVuSans-Oblique-48" d="M 1081 4666 
L 1716 4666 
L 1344 2753 
L 3634 2753 
L 4006 4666 
L 4641 4666 
L 3731 0 
L 3097 0 
L 3531 2222 
L 1241 2222 
L 806 0 
L 172 0 
L 1081 4666 
z
" transform="scale(0.015625)"/>
       <path id="DejaVuSans-28" d="M 1984 4856 
Q 1566 4138 1362 3434 
Q 1159 2731 1159 2009 
Q 1159 1288 1364 580 
Q 1569 -128 1984 -844 
L 1484 -844 
Q 1016 -109 783 600 
Q 550 1309 550 2009 
Q 550 2706 781 3412 
Q 1013 4119 1484 4856 
L 1984 4856 
z
" transform="scale(0.015625)"/>
       <path id="DejaVuSans-66" d="M 2375 4863 
L 2375 4384 
L 1825 4384 
Q 1516 4384 1395 4259 
Q 1275 4134 1275 3809 
L 1275 3500 
L 2222 3500 
L 2222 3053 
L 1275 3053 
L 1275 0 
L 697 0 
L 697 3053 
L 147 3053 
L 147 3500 
L 697 3500 
L 697 3744 
Q 697 4328 969 4595 
Q 1241 4863 1831 4863 
L 2375 4863 
z
" transform="scale(0.015625)"/>
       <path id="DejaVuSans-69" d="M 603 3500 
L 1178 3500 
L 1178 0 
L 603 0 
L 603 3500 
z
M 603 4863 
L 1178 4863 
L 1178 4134 
L 603 4134 
L 603 4863 
z
" transform="scale(0.015625)"/>
       <path id="DejaVuSans-6c" d="M 603 4863 
L 1178 4863 
L 1178 0 
L 603 0 
L 603 4863 
z
" transform="scale(0.015625)"/>
       <path id="DejaVuSans-74" d="M 1172 4494 
L 1172 3500 
L 2356 3500 
L 2356 3053 
L 1172 3053 
L 1172 1153 
Q 1172 725 1289 603 
Q 1406 481 1766 481 
L 2356 481 
L 2356 0 
L 1766 0 
Q 1100 0 847 248 
Q 594 497 594 1153 
L 594 3053 
L 172 3053 
L 172 3500 
L 594 3500 
L 594 4494 
L 1172 4494 
z
" transform="scale(0.015625)"/>
       <path id="DejaVuSans-29" d="M 513 4856 
L 1013 4856 
Q 1481 4119 1714 3412 
Q 1947 2706 1947 2009 
Q 1947 1309 1714 600 
Q 1481 -109 1013 -844 
L 513 -844 
Q 928 -128 1133 580 
Q 1338 1288 1338 2009 
Q 1338 2731 1133 3434 
Q 928 4138 513 4856 
z
" transform="scale(0.015625)"/>
      </defs>
      <use xlink:href="#DejaVuSans-Oblique-48" transform="translate(0 0.015625)"/>
      <use xlink:href="#DejaVuSans-31" transform="translate(75.195312 -16.390625)scale(0.7)"/>
      <use xlink:href="#DejaVuSans-20" transform="translate(122.46582 0.015625)"/>
      <use xlink:href="#DejaVuSans-28" transform="translate(154.25293 0.015625)"/>
      <use xlink:href="#DejaVuSans-31" transform="translate(193.266602 0.015625)"/>
      <use xlink:href="#DejaVuSans-20" transform="translate(256.889648 0.015625)"/>
      <use xlink:href="#DejaVuSans-66" transform="translate(288.676758 0.015625)"/>
      <use xlink:href="#DejaVuSans-69" transform="translate(323.881836 0.015625)"/>
      <use xlink:href="#DejaVuSans-6c" transform="translate(351.665039 0.015625)"/>
      <use xlink:href="#DejaVuSans-74" transform="translate(379.448242 0.015625)"/>
      <use xlink:href="#DejaVuSans-65" transform="translate(418.657227 0.015625)"/>
      <use xlink:href="#DejaVuSans-72" transform="translate(480.180664 0.015625)"/>
      <use xlink:href="#DejaVuSans-73" transform="translate(521.293945 0.015625)"/>
      <use xlink:href="#DejaVuSans-29" transform="translate(573.393555 0.015625)"/>
     </g>
    </g>
    <g id="line2d_19">
     <path d="M 284.1 193.385938 
L 294.1 193.385938 
L 304.1 193.385938 
" style="fill: none; stroke: #ff7f0e; stroke-width: 1.5; stroke-linecap: square"/>
    </g>
    <g id="text_16">
     <!-- $H_1$ (20 filters) -->
     <g transform="translate(312.1 196.885938)scale(0.1 -0.1)">
      <use xlink:href="#DejaVuSans-Oblique-48" transform="translate(0 0.015625)"/>
      <use xlink:href="#DejaVuSans-31" transform="translate(75.195312 -16.390625)scale(0.7)"/>
      <use xlink:href="#DejaVuSans-20" transform="translate(122.46582 0.015625)"/>
      <use xlink:href="#DejaVuSans-28" transform="translate(154.25293 0.015625)"/>
      <use xlink:href="#DejaVuSans-32" transform="translate(193.266602 0.015625)"/>
      <use xlink:href="#DejaVuSans-30" transform="translate(256.889648 0.015625)"/>
      <use xlink:href="#DejaVuSans-20" transform="translate(320.512695 0.015625)"/>
      <use xlink:href="#DejaVuSans-66" transform="translate(352.299805 0.015625)"/>
      <use xlink:href="#DejaVuSans-69" transform="translate(387.504883 0.015625)"/>
      <use xlink:href="#DejaVuSans-6c" transform="translate(415.288086 0.015625)"/>
      <use xlink:href="#DejaVuSans-74" transform="translate(443.071289 0.015625)"/>
      <use xlink:href="#DejaVuSans-65" transform="translate(482.280273 0.015625)"/>
      <use xlink:href="#DejaVuSans-72" transform="translate(543.803711 0.015625)"/>
      <use xlink:href="#DejaVuSans-73" transform="translate(584.916992 0.015625)"/>
      <use xlink:href="#DejaVuSans-29" transform="translate(637.016602 0.015625)"/>
     </g>
    </g>
    <g id="line2d_20">
     <path d="M 284.1 208.064063 
L 294.1 208.064063 
L 304.1 208.064063 
" style="fill: none; stroke: #2ca02c; stroke-width: 1.5; stroke-linecap: square"/>
    </g>
    <g id="text_17">
     <!-- $H_1$ (50 filters) -->
     <g transform="translate(312.1 211.564063)scale(0.1 -0.1)">
      <defs>
       <path id="DejaVuSans-35" d="M 691 4666 
L 3169 4666 
L 3169 4134 
L 1269 4134 
L 1269 2991 
Q 1406 3038 1543 3061 
Q 1681 3084 1819 3084 
Q 2600 3084 3056 2656 
Q 3513 2228 3513 1497 
Q 3513 744 3044 326 
Q 2575 -91 1722 -91 
Q 1428 -91 1123 -41 
Q 819 9 494 109 
L 494 744 
Q 775 591 1075 516 
Q 1375 441 1709 441 
Q 2250 441 2565 725 
Q 2881 1009 2881 1497 
Q 2881 1984 2565 2268 
Q 2250 2553 1709 2553 
Q 1456 2553 1204 2497 
Q 953 2441 691 2322 
L 691 4666 
z
" transform="scale(0.015625)"/>
      </defs>
      <use xlink:href="#DejaVuSans-Oblique-48" transform="translate(0 0.015625)"/>
      <use xlink:href="#DejaVuSans-31" transform="translate(75.195312 -16.390625)scale(0.7)"/>
      <use xlink:href="#DejaVuSans-20" transform="translate(122.46582 0.015625)"/>
      <use xlink:href="#DejaVuSans-28" transform="translate(154.25293 0.015625)"/>
      <use xlink:href="#DejaVuSans-35" transform="translate(193.266602 0.015625)"/>
      <use xlink:href="#DejaVuSans-30" transform="translate(256.889648 0.015625)"/>
      <use xlink:href="#DejaVuSans-20" transform="translate(320.512695 0.015625)"/>
      <use xlink:href="#DejaVuSans-66" transform="translate(352.299805 0.015625)"/>
      <use xlink:href="#DejaVuSans-69" transform="translate(387.504883 0.015625)"/>
      <use xlink:href="#DejaVuSans-6c" transform="translate(415.288086 0.015625)"/>
      <use xlink:href="#DejaVuSans-74" transform="translate(443.071289 0.015625)"/>
      <use xlink:href="#DejaVuSans-65" transform="translate(482.280273 0.015625)"/>
      <use xlink:href="#DejaVuSans-72" transform="translate(543.803711 0.015625)"/>
      <use xlink:href="#DejaVuSans-73" transform="translate(584.916992 0.015625)"/>
      <use xlink:href="#DejaVuSans-29" transform="translate(637.016602 0.015625)"/>
     </g>
    </g>
    <g id="line2d_21">
     <path d="M 284.1 222.742188 
L 294.1 222.742188 
L 304.1 222.742188 
" style="fill: none; stroke: #d62728; stroke-width: 1.5; stroke-linecap: square"/>
    </g>
    <g id="text_18">
     <!-- $H_2$ (4 filters) -->
     <g transform="translate(312.1 226.242188)scale(0.1 -0.1)">
      <use xlink:href="#DejaVuSans-Oblique-48" transform="translate(0 0.015625)"/>
      <use xlink:href="#DejaVuSans-32" transform="translate(75.195312 -16.390625)scale(0.7)"/>
      <use xlink:href="#DejaVuSans-20" transform="translate(122.46582 0.015625)"/>
      <use xlink:href="#DejaVuSans-28" transform="translate(154.25293 0.015625)"/>
      <use xlink:href="#DejaVuSans-34" transform="translate(193.266602 0.015625)"/>
      <use xlink:href="#DejaVuSans-20" transform="translate(256.889648 0.015625)"/>
      <use xlink:href="#DejaVuSans-66" transform="translate(288.676758 0.015625)"/>
      <use xlink:href="#DejaVuSans-69" transform="translate(323.881836 0.015625)"/>
      <use xlink:href="#DejaVuSans-6c" transform="translate(351.665039 0.015625)"/>
      <use xlink:href="#DejaVuSans-74" transform="translate(379.448242 0.015625)"/>
      <use xlink:href="#DejaVuSans-65" transform="translate(418.657227 0.015625)"/>
      <use xlink:href="#DejaVuSans-72" transform="translate(480.180664 0.015625)"/>
      <use xlink:href="#DejaVuSans-73" transform="translate(521.293945 0.015625)"/>
      <use xlink:href="#DejaVuSans-29" transform="translate(573.393555 0.015625)"/>
     </g>
    </g>
    <g id="line2d_22">
     <path d="M 284.1 237.420313 
L 294.1 237.420313 
L 304.1 237.420313 
" style="fill: none; stroke: #9467bd; stroke-width: 1.5; stroke-linecap: square"/>
    </g>
    <g id="text_19">
     <!-- $H_3$ -->
     <g transform="translate(312.1 240.920313)scale(0.1 -0.1)">
      <defs>
       <path id="DejaVuSans-33" d="M 2597 2516 
Q 3050 2419 3304 2112 
Q 3559 1806 3559 1356 
Q 3559 666 3084 287 
Q 2609 -91 1734 -91 
Q 1441 -91 1130 -33 
Q 819 25 488 141 
L 488 750 
Q 750 597 1062 519 
Q 1375 441 1716 441 
Q 2309 441 2620 675 
Q 2931 909 2931 1356 
Q 2931 1769 2642 2001 
Q 2353 2234 1838 2234 
L 1294 2234 
L 1294 2753 
L 1863 2753 
Q 2328 2753 2575 2939 
Q 2822 3125 2822 3475 
Q 2822 3834 2567 4026 
Q 2313 4219 1838 4219 
Q 1578 4219 1281 4162 
Q 984 4106 628 3988 
L 628 4550 
Q 988 4650 1302 4700 
Q 1616 4750 1894 4750 
Q 2613 4750 3031 4423 
Q 3450 4097 3450 3541 
Q 3450 3153 3228 2886 
Q 3006 2619 2597 2516 
z
" transform="scale(0.015625)"/>
      </defs>
      <use xlink:href="#DejaVuSans-Oblique-48" transform="translate(0 0.09375)"/>
      <use xlink:href="#DejaVuSans-33" transform="translate(75.195312 -16.3125)scale(0.7)"/>
     </g>
    </g>
   </g>
  </g>
 </g>
 <defs>
  <clipPath id="p0626bcf025">
   <rect x="54" y="34.56" width="334.8" height="217.44"/>
  </clipPath>
 </defs>
</svg>
